<svg width="71" height="70" viewBox="0 0 71 70" fill="none" xmlns="http://www.w3.org/2000/svg">
<g clip-path="url(#clip0)">
<path d="M54.9932 28.5937L54.9932 28.5938C53.1902 30.3967 50.8218 31.299 48.4498 31.2992C46.0772 31.2995 43.7102 30.3972 41.9067 28.5938C40.1576 26.8447 39.1963 24.524 39.1963 22.0505C39.1963 19.577 40.1575 17.2564 41.9067 15.5073L41.9067 15.5073C45.5139 11.9 51.3858 11.8998 54.9931 15.5073L54.9932 15.5073C56.7422 17.2564 57.7034 19.577 57.7034 22.0505C57.7034 24.5241 56.7423 26.8447 54.9932 28.5937Z" stroke="#4D4D4D" stroke-width="2"/>
<path d="M2.75073 67.774L15.6233 54.9014" stroke="#4D4D4D" stroke-width="2" stroke-linecap="round"/>
<path d="M4.3721 54.9016L14.002 49.5772" stroke="#4D4D4D" stroke-width="2" stroke-linecap="round"/>
<path d="M13.125 38.8729L22.9374 19.4979" stroke="#4D4D4D" stroke-width="2"/>
<path d="M40.6249 52.5596L17.3749 29.8096" stroke="#4D4D4D" stroke-width="2"/>
<path d="M31.5625 57.5598L50.9375 47.4348" stroke="#4D4D4D" stroke-width="2"/>
<path d="M15.6234 65.7763L22.1248 56.8985" stroke="#4D4D4D" stroke-width="2" stroke-linecap="round"/>
<path d="M3.82945 37.1612L12.4661 38.4989L13.4803 38.656L13.2969 39.6658L13.2916 39.6952C13.2626 39.8545 13.2352 40.0054 13.2102 40.1553L13.2102 40.1555C12.9764 41.554 13.4398 42.9982 14.4555 44.0138L14.4555 44.0139L26.4857 56.0441C27.3273 56.8857 28.4643 57.3489 29.6261 57.3489C29.8648 57.3489 30.1051 57.3293 30.3443 57.2893L30.3444 57.2893C30.4941 57.2643 30.6449 57.237 30.804 57.2081L30.8338 57.2026L31.8437 57.0191L32.0008 58.0335L33.3384 66.6702C33.4828 67.6017 34.0807 68.3818 34.9425 68.7631L34.5379 69.6776L34.9425 68.7631C35.3026 68.9225 35.6814 69.0002 36.0569 69.0003L3.82945 37.1612ZM3.82945 37.1612C3.82943 37.1612 3.82942 37.1612 3.8294 37.1612C2.89804 37.0169 2.11802 36.419 1.73657 35.557L3.82945 37.1612ZM8.95113 22.3512L1.95743 32.9294L1.12326 32.3779L1.95742 32.9294C1.43755 33.7157 1.35529 34.695 1.73655 35.5569L8.95113 22.3512ZM8.95113 22.3512C9.71421 21.197 10.9378 20.477 12.3176 20.3703C12.3176 20.3703 12.3176 20.3703 12.3176 20.3703L22.5687 19.5785L22.9922 19.5457L23.2626 19.2183C23.2936 19.1809 23.3177 19.1514 23.3401 19.124C23.3677 19.0901 23.3927 19.0596 23.4246 19.0213C27.8707 13.6912 33.43 9.08967 38.6452 6.39208C48.9175 1.07895 59.6911 0.778644 65.2193 1.08066L65.2739 0.0821511M8.95113 22.3512L65.2739 0.0821511M65.2739 0.0821511L65.2194 1.08067C67.4906 1.20462 69.2952 3.00903 69.419 5.28009L70.4175 5.22565M65.2739 0.0821511L70.4175 5.22565M70.4175 5.22565L69.419 5.28013C69.7206 10.808 69.4208 21.5817 64.1074 31.8545L64.994 32.313M70.4175 5.22565L64.994 32.313M64.994 32.313L64.1074 31.8545C61.41 37.0697 56.8084 42.629 51.4782 47.0751C51.4079 47.1337 51.3668 47.1662 51.2809 47.2371L50.9535 47.5076M64.994 32.313L50.9535 47.5076M50.9535 47.5076L50.9208 47.9311M50.9535 47.5076L50.9208 47.9311M50.9208 47.9311L50.1289 58.1821L50.1289 58.1822M50.9208 47.9311L50.1289 58.1822M50.1289 58.1822C50.0225 59.5618 49.3026 60.7853 48.1483 61.5486M50.1289 58.1822L48.1483 61.5486M48.1483 61.5486L37.5702 68.5424M48.1483 61.5486L37.5702 68.5424M37.5702 68.5424L38.1217 69.3765M37.5702 68.5424L38.1217 69.3765M38.1217 69.3765L37.5701 68.5424C37.1097 68.8468 36.5845 69.0001 36.0571 69.0003L38.1217 69.3765Z" stroke="#4D4D4D" stroke-width="2"/>
</g>
<defs>
<clipPath id="clip0">
<rect width="70" height="70" fill="white" transform="translate(0.5)"/>
</clipPath>
</defs>
</svg>
