<svg width="71" height="70" viewBox="0 0 71 70" fill="none" xmlns="http://www.w3.org/2000/svg">
<path d="M47.3589 37.7414L47.1665 37.9163L46.9741 37.7414C38.0336 29.6114 29.6665 22.0028 29.6665 15.458C29.6665 10.0622 33.8957 5.83301 39.2915 5.83301C42.3248 5.83301 45.2415 7.26217 47.1665 9.47884C49.0623 7.26217 52.0082 5.83301 55.0415 5.83301C60.4373 5.83301 64.6665 10.0622 64.6665 15.458C64.6665 22.0028 56.2994 29.6114 47.3589 37.7414Z" stroke="#4D4D4D" stroke-width="2"/>
<path d="M55.9165 46.6663H46.7873C46.7873 43.1663 44.5998 40.0163 41.3332 38.7913L26.6623 32.083H3.4165V64.1663H20.9165V59.9663L41.3332 65.6247L64.6665 58.333V55.4163C64.6665 50.5747 60.7582 46.6663 55.9165 46.6663Z" stroke="#4D4D4D" stroke-width="2"/>
<path d="M20.9375 31.998V60.373" stroke="#4D4D4D" stroke-width="2"/>
</svg>
