<svg width="71" height="70" viewBox="0 0 71 70" fill="none" xmlns="http://www.w3.org/2000/svg">
<path d="M35.5 1V7" stroke="#4D4D4D" stroke-width="2" stroke-linecap="round"/>
<path d="M11.071 1.89941L16.7279 7.55627" stroke="#4D4D4D" stroke-width="2" stroke-linecap="round"/>
<path d="M59.9285 2.79883L54.2716 8.45568" stroke="#4D4D4D" stroke-width="2" stroke-linecap="round"/>
<path d="M43.6875 49.1542L44.5661 49.6317L43.6875 49.1542ZM41.854 50.0809L42.5606 50.7884L42.5607 50.7883L41.854 50.0809ZM40.629 51.3044L39.9223 50.5968L39.9219 50.5973L40.629 51.3044ZM35.3161 52.1803L35.2467 53.1779L35.2469 53.1779L35.3161 52.1803ZM29.3285 53.3892L30.0352 54.0968L30.0448 54.0869L29.3285 53.3892ZM24.2569 58.4546L23.5503 59.1623L24.257 59.8679L24.9636 59.1622L24.2569 58.4546ZM11.5745 45.7908L10.8935 45.0585L10.1336 45.7652L10.8679 46.4984L11.5745 45.7908ZM54.4422 41.4033L55.1489 40.6958L54.5237 40.0714L53.8271 40.6149L54.4422 41.4033ZM58.8961 45.852L59.6028 46.5596L60.3112 45.8521L59.6028 45.1445L58.8961 45.852ZM46.2147 58.5179L45.5026 59.22L46.2093 59.9368L46.9214 59.2255L46.2147 58.5179ZM40.1719 52.3885L39.38 51.7779L38.847 52.469L39.4598 53.0906L40.1719 52.3885ZM30.8466 11.1228L30.5244 10.1762L30.8466 11.1228ZM52.4586 41.0908L51.8139 40.3264L52.4586 41.0908ZM56.875 34.4497L55.9672 34.8691L56.875 34.4497ZM49.6875 34.4497L50.3181 35.2258L50.3467 35.2025L50.3735 35.1773L49.6875 34.4497ZM53.8125 30.5604L54.4985 31.288L54.5559 31.2339L54.6041 31.1715L53.8125 30.5604ZM45.0625 29.8729L44.394 29.1292L44.3332 29.1839L44.2821 29.2476L45.0625 29.8729ZM45.0625 20.1854L45.7683 20.8938L45.0625 20.1854ZM45.0625 14.6854L44.542 15.5393L45.0625 14.6854ZM32.875 25.9354L33.0216 24.9462L32.875 25.9354ZM22.125 35.4354L22.7705 34.6717L22.125 35.4354ZM15.7812 32.6229L15.0998 31.891L15.7812 32.6229ZM18.5 31.9979L19.2881 31.3824L18.5 31.9979ZM22.4545 35.6769L22.9851 34.8292L22.4545 35.6769ZM41.3076 24.0594L40.6895 23.2733L41.3076 24.0594ZM41.0085 24.2723L40.273 23.5948L41.0085 24.2723ZM44.5661 49.6317C44.6102 49.5506 44.6621 49.4425 44.6983 49.3164C44.7305 49.2044 44.7799 48.9789 44.7105 48.7129C44.6254 48.3871 44.3965 48.1334 44.1038 48.0078C43.865 47.9053 43.6482 47.9145 43.5415 47.9252C43.3235 47.9471 43.1298 48.0253 43.0178 48.0747C42.8841 48.1335 42.7474 48.2062 42.6184 48.2808C42.1256 48.5657 41.4937 49.0272 41.1472 49.3734L42.5607 50.7883C42.752 50.5972 43.2323 50.2361 43.6194 50.0122C43.7105 49.9596 43.7792 49.9247 43.8239 49.905C43.8902 49.8758 43.8478 49.9045 43.7414 49.9152C43.6905 49.9203 43.5195 49.9334 43.315 49.8457C43.0567 49.7348 42.8507 49.5066 42.7754 49.2183C42.7157 48.9898 42.7618 48.8136 42.7761 48.7641C42.7944 48.7005 42.8136 48.6679 42.8089 48.6767L44.5661 49.6317ZM41.1473 49.3733L39.9223 50.5968L41.3356 52.0119L42.5606 50.7884L41.1473 49.3733ZM39.9219 50.5973C39.5764 50.9428 39.0298 51.1555 38.2031 51.2367C37.3747 51.3181 36.4258 51.2549 35.3853 51.1827L35.2469 53.1779C36.2461 53.2473 37.3716 53.3281 38.3987 53.2271C39.4275 53.126 40.5175 52.83 41.3361 52.0115L39.9219 50.5973ZM35.3854 51.1827C34.3 51.1073 33.0717 51.0185 31.9216 51.1644C30.748 51.3132 29.5623 51.716 28.6121 52.6915L30.0448 54.0869C30.5769 53.5407 31.2774 53.2621 32.1733 53.1485C33.0928 53.0318 34.1172 53.0994 35.2467 53.1779L35.3854 51.1827ZM28.6218 52.6817L23.5502 57.7471L24.9636 59.1622L30.0352 54.0967L28.6218 52.6817ZM24.9635 57.747L12.2811 45.0832L10.8679 46.4984L23.5503 59.1623L24.9635 57.747ZM12.2554 46.5231L18.8208 40.4177L17.4588 38.9531L10.8935 45.0585L12.2554 46.5231ZM53.7355 42.1108L58.1894 46.5596L59.6028 45.1445L55.1489 40.6958L53.7355 42.1108ZM58.1894 45.1445L45.5081 57.8104L46.9214 59.2255L59.6028 46.5596L58.1894 45.1445ZM46.9269 57.8159L40.884 51.6865L39.4598 53.0906L45.5026 59.22L46.9269 57.8159ZM41.8429 14.6854C42.2985 13.7952 42.2984 13.7952 42.2983 13.7951C42.2982 13.7951 42.298 13.795 42.2978 13.7949C42.2974 13.7947 42.2969 13.7944 42.2963 13.7941C42.295 13.7935 42.2933 13.7926 42.291 13.7914C42.2864 13.789 42.2798 13.7857 42.2711 13.7813C42.2539 13.7725 42.2287 13.7598 42.196 13.7433C42.1307 13.7104 42.0353 13.6626 41.9134 13.6023C41.6698 13.4817 41.3202 13.311 40.8935 13.1089C40.0413 12.7054 38.876 12.1744 37.6301 11.6683C36.3894 11.1642 35.0439 10.6745 33.8372 10.3632C33.2342 10.2075 32.6428 10.0904 32.1027 10.0429C31.5787 9.9968 31.0188 10.0079 30.5244 10.1762L31.1688 12.0695C31.2804 12.0315 31.5187 11.9993 31.9274 12.0352C32.32 12.0697 32.7961 12.16 33.3375 12.2997C34.4199 12.579 35.672 13.0315 36.8773 13.5212C38.0776 14.0088 39.2068 14.5232 40.0377 14.9166C40.4525 15.113 40.7916 15.2786 41.0262 15.3947C41.1436 15.4528 41.2347 15.4985 41.2961 15.5294C41.3268 15.5449 41.35 15.5566 41.3654 15.5644C41.373 15.5683 41.3788 15.5712 41.3824 15.5731C41.3843 15.574 41.3856 15.5747 41.3864 15.5751C41.3868 15.5754 41.3871 15.5755 41.3872 15.5756C41.3873 15.5756 41.3873 15.5756 41.3874 15.5756C41.3874 15.5756 41.3873 15.5756 41.8429 14.6854ZM30.5244 10.1762C29.6722 10.4662 28.7318 11.3595 28.2325 12.5145C27.6997 13.7469 27.6372 15.3363 28.6472 16.9884L30.3536 15.9452C29.7015 14.8785 29.779 13.9774 30.0683 13.3082C30.391 12.5616 30.9548 12.1423 31.1688 12.0695L30.5244 10.1762ZM28.6472 16.9884C29.6041 18.5538 31.2672 19.7955 32.5898 20.6169C33.2666 21.0373 33.8874 21.3677 34.3396 21.5934C34.5662 21.7064 34.7516 21.7938 34.8821 21.8536C34.9473 21.8835 34.9989 21.9066 35.0351 21.9226C35.0532 21.9305 35.0674 21.9368 35.0776 21.9412C35.0827 21.9434 35.0868 21.9452 35.0899 21.9465C35.0914 21.9471 35.0927 21.9477 35.0937 21.9481C35.0942 21.9483 35.0946 21.9485 35.095 21.9487C35.0952 21.9487 35.0954 21.9488 35.0955 21.9489C35.0957 21.949 35.0959 21.949 35.488 21.0291C35.88 20.1092 35.8802 20.1093 35.8803 20.1093C35.8804 20.1093 35.8805 20.1094 35.8805 20.1094C35.8807 20.1094 35.8807 20.1095 35.8807 20.1095C35.8806 20.1094 35.8803 20.1093 35.8798 20.1091C35.8786 20.1086 35.8765 20.1077 35.8734 20.1063C35.8671 20.1036 35.8568 20.0991 35.8429 20.0929C35.8149 20.0806 35.7719 20.0614 35.7156 20.0356C35.603 19.984 35.4375 19.9061 35.2326 19.8038C34.8218 19.5988 34.2574 19.2983 33.645 18.918C32.3893 18.138 31.0586 17.0985 30.3536 15.9452L28.6472 16.9884ZM36.1944 21.7368L42.5494 15.3932L41.1364 13.9777L34.7815 20.3214L36.1944 21.7368ZM54.4422 41.4033C53.8271 40.6149 53.8272 40.6148 53.8273 40.6148C53.8273 40.6147 53.8274 40.6147 53.8274 40.6147C53.8275 40.6146 53.8275 40.6145 53.8276 40.6145C53.8277 40.6144 53.8277 40.6144 53.8276 40.6145C53.8275 40.6146 53.827 40.6149 53.8263 40.6155C53.8248 40.6167 53.8221 40.6187 53.8183 40.6217C53.8106 40.6275 53.7985 40.6368 53.7823 40.6491C53.7498 40.6735 53.7014 40.7096 53.6407 40.7534C53.5185 40.8416 53.3513 40.9578 53.1681 41.073C52.9819 41.1901 52.7961 41.2953 52.6345 41.3691C52.4483 41.4541 52.3897 41.4527 52.4282 41.4515L52.489 43.4506C52.8608 43.4393 53.2168 43.3018 53.4651 43.1885C53.7379 43.0639 54.0063 42.9085 54.2327 42.7662C54.462 42.6219 54.6658 42.4801 54.8113 42.375C54.8846 42.3221 54.9442 42.2778 54.9864 42.246C55.0075 42.2301 55.0243 42.2173 55.0362 42.2081C55.0422 42.2035 55.047 42.1998 55.0505 42.197C55.0523 42.1957 55.0538 42.1945 55.0549 42.1936C55.0555 42.1932 55.056 42.1928 55.0564 42.1925C55.0566 42.1924 55.0567 42.1922 55.0569 42.1921C55.057 42.192 55.0571 42.1919 55.0571 42.1919C55.0572 42.1918 55.0573 42.1918 54.4422 41.4033ZM52.4282 41.4515C52.3394 41.4542 52.3184 41.4405 52.3519 41.4528C52.3795 41.463 52.609 41.5577 52.7052 41.8582C52.7978 42.1476 52.667 42.3224 52.7036 42.263C52.7337 42.214 52.838 42.079 53.1033 41.8553L51.8139 40.3264C51.4714 40.6153 51.1885 40.9091 51.0004 41.2145C50.8189 41.5094 50.6391 41.964 50.8003 42.4678C50.9651 42.9828 51.3809 43.2265 51.6609 43.3296C51.9468 43.4349 52.2444 43.458 52.489 43.4506L52.4282 41.4515ZM53.1033 41.8553C53.8568 41.2198 55.3738 40.1032 56.4794 38.8685C57.548 37.6751 58.6521 35.9119 57.7828 34.0303L55.9672 34.8691C56.2784 35.5427 56.0075 36.3974 54.9894 37.5344C54.0082 38.6301 52.7268 39.5565 51.8139 40.3264L53.1033 41.8553ZM57.7828 34.0303C57.3994 33.2004 56.7944 32.7012 56.0434 32.4337C55.3651 32.1922 54.5828 32.148 53.8458 32.1235L53.7792 34.1224C54.5422 34.1478 55.0267 34.1947 55.3724 34.3178C55.6455 34.4151 55.8218 34.5543 55.9672 34.8691L57.7828 34.0303ZM53.8458 32.1235C53.2726 32.1044 52.6142 32.2889 52.067 32.4786C51.4873 32.6795 50.8913 32.9384 50.3994 33.1616C49.8723 33.4007 49.5224 33.5708 49.3237 33.6513C49.2744 33.6713 49.2811 33.6661 49.3173 33.6567C49.3245 33.6548 49.4148 33.6296 49.5403 33.6307C49.6016 33.6312 49.7472 33.6376 49.9161 33.7102C50.1113 33.7941 50.3478 33.9754 50.4592 34.2912C50.5578 34.571 50.5043 34.8083 50.4701 34.9166C50.4338 35.0315 50.3847 35.1121 50.3612 35.1482C50.3135 35.2216 50.2695 35.2653 50.267 35.2678C50.254 35.281 50.2626 35.2709 50.3181 35.2258L49.0569 33.6736C48.9874 33.73 48.9071 33.798 48.8381 33.8685C48.8076 33.8995 48.7438 33.9666 48.6841 34.0585C48.6546 34.1039 48.6014 34.1925 48.563 34.3142C48.5266 34.4294 48.4728 34.6723 48.5731 34.9566C48.6861 35.2769 48.9259 35.4615 49.1264 35.5477C49.3005 35.6225 49.4531 35.63 49.5232 35.6306C49.6662 35.6319 49.781 35.6026 49.8193 35.5926C49.9177 35.5671 50.0127 35.53 50.0747 35.5049C50.3213 35.405 50.7839 35.1833 51.2256 34.9829C51.7025 34.7666 52.2314 34.5383 52.7221 34.3682C53.2451 34.1869 53.6024 34.1165 53.7792 34.1224L53.8458 32.1235ZM50.3735 35.1773L54.4985 31.288L53.1265 29.8328L49.0015 33.7221L50.3735 35.1773ZM54.6041 31.1715C55.5824 29.9041 55.6573 28.4712 54.9634 27.3408C54.3036 26.2661 53.0487 25.6296 51.6875 25.6296V27.6296C52.4513 27.6296 53.0113 27.9839 53.2589 28.3872C53.4724 28.7349 53.5473 29.2674 53.0209 29.9494L54.6041 31.1715ZM51.6875 25.6296C51.2941 25.6296 50.8838 25.7365 50.5201 25.8623C50.1413 25.9933 49.7367 26.1721 49.3331 26.371C48.5259 26.7688 47.6534 27.2812 46.8871 27.7485C46.0929 28.2329 45.456 28.6413 45.0176 28.8987C44.9131 28.9601 44.8337 29.0046 44.7768 29.0342C44.7026 29.0729 44.7148 29.0607 44.7729 29.0434C44.7736 29.0432 44.9472 28.9838 45.1779 29.0233C45.3156 29.0468 45.5489 29.1193 45.7434 29.3373C45.946 29.5645 45.9943 29.8228 45.9932 29.9972C45.9922 30.1565 45.952 30.2752 45.9319 30.328C45.909 30.3881 45.8852 30.4309 45.8732 30.4514C45.8498 30.4914 45.8336 30.5098 45.8429 30.4982L44.2821 29.2476C44.2445 29.2946 44.1938 29.3615 44.1475 29.4405C44.1262 29.4768 43.9951 29.6898 43.9932 29.9843C43.992 30.1691 44.043 30.4356 44.251 30.6688C44.4509 30.8928 44.6923 30.9693 44.8408 30.9946C45.0928 31.0377 45.2983 30.9737 45.3407 30.9612C45.4823 30.9192 45.6173 30.8514 45.7005 30.8081C45.8009 30.7559 45.9134 30.692 46.0304 30.6233C46.4781 30.3604 47.2013 29.8995 47.9284 29.456C48.6834 28.9956 49.4935 28.5216 50.2171 28.165C50.5789 27.9868 50.9019 27.8464 51.1736 27.7525C51.4604 27.6533 51.6236 27.6296 51.6875 27.6296V25.6296ZM45.0625 29.8729C45.731 30.6166 45.7311 30.6166 45.7312 30.6165C45.7312 30.6165 45.7313 30.6164 45.7314 30.6163C45.7316 30.6161 45.7318 30.6159 45.7322 30.6156C45.7328 30.615 45.7337 30.6142 45.7349 30.6131C45.7373 30.611 45.7407 30.6079 45.7451 30.6039C45.754 30.5959 45.767 30.5842 45.7838 30.5689C45.8175 30.5385 45.8665 30.4939 45.9291 30.4368C46.0541 30.3226 46.2331 30.1581 46.4502 29.9559C46.8839 29.5518 47.4719 28.9948 48.0869 28.385C48.7003 27.7768 49.3489 27.1078 49.9003 26.4808C50.4317 25.8767 50.9405 25.237 51.2073 24.7025L49.4177 23.8094C49.2783 24.0889 48.9277 24.5583 48.3985 25.16C47.8894 25.7389 47.2763 26.3723 46.6787 26.9649C46.0827 27.5558 45.5106 28.0978 45.0869 28.4925C44.8753 28.6897 44.7012 28.8496 44.5804 28.9599C44.5201 29.0151 44.473 29.0578 44.4413 29.0865C44.4254 29.1009 44.4134 29.1118 44.4054 29.1189C44.4014 29.1225 44.3985 29.1252 44.3965 29.1269C44.3956 29.1278 44.3949 29.1284 44.3945 29.1288C44.3942 29.129 44.3941 29.1291 44.394 29.1292C44.394 29.1292 44.394 29.1292 44.3939 29.1293C44.394 29.1293 44.394 29.1292 45.0625 29.8729ZM51.2073 24.7025C51.6744 23.7664 51.9674 22.5106 51.4535 21.4061C50.8935 20.2025 49.6034 19.6211 47.875 19.6211V21.6211C49.2091 21.6211 49.544 22.0432 49.6402 22.2499C49.7826 22.5558 49.7631 23.1174 49.4177 23.8094L51.2073 24.7025ZM47.875 19.6211C47.3001 19.6211 46.6642 19.8066 46.0754 20.037C45.4652 20.2759 44.8106 20.6018 44.1694 20.9606C42.8875 21.6779 41.5881 22.5668 40.6895 23.2733L41.9257 24.8455C42.7467 24.2 43.9597 23.3698 45.146 22.7059C45.7389 22.3742 46.3073 22.094 46.8044 21.8994C47.3229 21.6965 47.6787 21.6211 47.875 21.6211V19.6211ZM41.744 24.9498C41.9825 24.6909 42.8998 23.7517 45.7683 20.8938L44.3567 19.477C41.5035 22.3196 40.548 23.2962 40.273 23.5948L41.744 24.9498ZM45.7683 20.8938C46.2442 20.4197 47.2087 19.3738 47.5667 18.0879C47.7542 17.4145 47.7857 16.638 47.4608 15.8529C47.138 15.0729 46.5096 14.3963 45.583 13.8315L44.542 15.5393C45.2092 15.9459 45.4928 16.3278 45.6128 16.6177C45.7307 16.9026 45.7358 17.2075 45.64 17.5515C45.4315 18.3004 44.8023 19.0331 44.3567 19.477L45.7683 20.8938ZM45.583 13.8315C44.7757 13.3395 43.8227 13.3523 43.1585 13.4265C42.8055 13.466 42.479 13.5299 42.2198 13.5852C41.9241 13.6483 41.7885 13.6823 41.6937 13.6966L41.9921 15.6742C42.1662 15.648 42.4392 15.5834 42.6373 15.5412C42.8718 15.4911 43.1241 15.4428 43.3805 15.4142C43.9349 15.3522 44.3228 15.4057 44.542 15.5393L45.583 13.8315ZM34.6635 21.5951C34.9629 22.0312 35.017 22.9452 34.6137 23.8202C34.2228 24.6683 33.6266 25.0359 33.0216 24.9462L32.7284 26.9246C34.5607 27.1961 35.8395 25.9387 36.43 24.6574C37.0081 23.4031 37.15 21.6833 36.3124 20.4632L34.6635 21.5951ZM33.0216 24.9462C32.4025 24.8545 31.705 24.5201 30.9307 23.9659C30.1637 23.417 29.392 22.7044 28.6223 21.943C27.8846 21.2131 27.0893 20.3758 26.4068 19.7263C25.7297 19.0819 24.9913 18.4477 24.2655 18.1398L23.4845 19.981C23.8381 20.131 24.3425 20.5227 25.028 21.1751C25.708 21.8223 26.395 22.5528 27.2157 23.3647C28.0044 24.145 28.8669 24.9483 29.7666 25.5922C30.6589 26.2309 31.6602 26.7664 32.7284 26.9246L33.0216 24.9462ZM24.2655 18.1398C23.0263 17.6141 21.8509 17.5981 20.8589 18.0602C19.8845 18.5142 19.2283 19.3641 18.8762 20.3031C18.1854 22.1452 18.5537 24.6334 20.3438 26.19L21.6562 24.6808C20.5713 23.7375 20.3146 22.1632 20.7488 21.0053C20.9592 20.4443 21.303 20.0598 21.7036 19.8731C22.0866 19.6946 22.6612 19.6318 23.4845 19.981L24.2655 18.1398ZM20.3438 26.19C21.7591 27.4207 22.6733 28.3111 23.4599 29.0858C24.2473 29.8612 24.9317 30.5459 25.8553 31.3249L27.1447 29.796C26.2909 29.0759 25.6628 28.4482 24.8633 27.6608C24.063 26.8727 23.1159 25.9501 21.6562 24.6808L20.3438 26.19ZM15.0998 31.891C13.9359 32.9747 13.1882 34.3769 13.6216 36.0362C14.0232 37.5741 15.3827 39.0441 17.5838 40.5166L18.6959 38.8543C16.5993 37.4517 15.7664 36.3337 15.5566 35.5308C15.3786 34.8492 15.6004 34.1576 16.4627 33.3548L15.0998 31.891ZM29.4834 13.8945C27.8716 12.6474 25.7816 12.3448 24.2398 13.399C22.6516 14.4849 22.1333 16.6555 22.9149 19.34L24.8351 18.7809C24.1792 16.5279 24.7859 15.4484 25.3687 15.05C25.9978 14.6198 27.1249 14.5985 28.2596 15.4763L29.4834 13.8945ZM30.3639 25.9424C30.3626 25.9403 30.4102 26.0366 30.4619 26.2727C30.5089 26.4876 30.5474 26.7626 30.5632 27.0717C30.5954 27.7015 30.5296 28.3871 30.3223 28.9439C30.1194 29.4888 29.818 29.8276 29.408 29.9811C28.9748 30.1433 28.1998 30.1827 26.883 29.6367L26.117 31.4842C27.683 32.1335 29.0183 32.2627 30.1094 31.8541C31.2236 31.4368 31.8606 30.5442 32.1965 29.6418C32.5281 28.7513 32.6017 27.7738 32.5606 26.9695C32.5397 26.5616 32.4883 26.1769 32.4155 25.8448C32.3475 25.5339 32.2453 25.1962 32.0878 24.9284L30.3639 25.9424ZM22.7705 34.6717C20.349 32.6251 19.8845 32.146 19.2881 31.3824L17.7119 32.6135C18.4484 33.5565 19.0572 34.152 21.4795 36.1992L22.7705 34.6717ZM18.7169 31.0217C17.9629 30.8542 17.2269 30.9257 16.6196 31.0953C16.0275 31.2608 15.4729 31.5437 15.0998 31.891L16.4627 33.3548C16.5427 33.2803 16.785 33.1257 17.1577 33.0216C17.5153 32.9217 17.9121 32.8917 18.2831 32.9741L18.7169 31.0217ZM21.2941 24.4796C20.6421 24.279 19.8162 24.3341 19.0713 24.545C18.3055 24.7619 17.475 25.1849 16.85 25.8802C16.2031 26.5999 15.8127 27.5758 15.9264 28.7691C16.0367 29.927 16.6124 31.2058 17.7119 32.6135L19.2881 31.3824C18.3251 30.1494 17.9789 29.2251 17.9174 28.5793C17.8592 27.9689 18.0469 27.5405 18.3375 27.2172C18.65 26.8696 19.1163 26.6109 19.6162 26.4694C20.1369 26.3219 20.5454 26.3418 20.7059 26.3912L21.2941 24.4796ZM42.8089 48.6767C42.8509 48.5994 42.8758 48.5903 42.7881 48.6786C42.7209 48.7463 42.623 48.8363 42.492 48.9502C42.2285 49.1796 41.8922 49.4537 41.5112 49.7689C40.7972 50.3596 39.8823 51.1266 39.38 51.7779L40.9637 52.9992C41.3003 52.5629 42.0157 51.9472 42.7861 51.3099C43.1473 51.0111 43.5166 50.7099 43.8051 50.4588C43.9502 50.3325 44.0899 50.206 44.2072 50.0879C44.304 49.9904 44.4604 49.8263 44.5661 49.6317L42.8089 48.6767ZM25.8553 31.3249C26.1206 31.5486 26.2492 31.8703 26.2126 32.3264C26.1743 32.8053 25.9488 33.3723 25.5652 33.8833C25.1819 34.3937 24.6997 34.7696 24.2343 34.9391C23.7967 35.0984 23.3837 35.0787 22.9851 34.8292L21.924 36.5246C22.9155 37.1451 23.9849 37.1583 24.9186 36.8184C25.8244 36.4885 26.6023 35.8328 27.1645 35.0842C27.7263 34.3361 28.1317 33.4165 28.2062 32.4861C28.2826 31.5328 28.006 30.5223 27.1447 29.796L25.8553 31.3249ZM22.9851 34.8292C22.9158 34.7858 22.8441 34.7339 22.7705 34.6717L21.4795 36.1992C21.6227 36.3202 21.771 36.4288 21.924 36.5246L22.9851 34.8292ZM21.924 36.5246C21.8437 36.4743 21.9922 36.5178 21.9777 36.9813C21.965 37.3873 21.8176 37.8934 21.5343 38.329C21.2547 38.7588 20.8858 39.0581 20.4623 39.1758C20.0549 39.2892 19.457 39.2737 18.6258 38.8115L17.6538 40.5594C18.8457 41.2222 19.9847 41.3846 20.9982 41.1027C21.9956 40.8254 22.7315 40.1565 23.2109 39.4194C23.6865 38.688 23.9522 37.8283 23.9767 37.0439C23.9995 36.3168 23.8095 35.3452 22.9851 34.8292L21.924 36.5246ZM40.6895 23.2733C40.6406 23.3118 40.5856 23.3565 40.5404 23.3932C40.4909 23.4334 40.4534 23.4639 40.4262 23.4852C40.4119 23.4964 40.4102 23.4974 40.4165 23.4929C40.4189 23.4911 40.4338 23.4805 40.4563 23.4666C40.4676 23.4596 40.4889 23.4468 40.5171 23.4323C40.5385 23.4212 40.5992 23.3905 40.6828 23.3652C40.725 23.3525 40.8019 23.3322 40.9008 23.3253C40.9916 23.3189 41.1762 23.3182 41.3835 23.4124C41.6257 23.5225 41.8168 23.7263 41.9092 23.9815C41.9885 24.2003 41.9711 24.3885 41.9562 24.481C41.9277 24.6567 41.8579 24.7795 41.845 24.8027C41.8203 24.8473 41.7976 24.8798 41.7871 24.8945C41.7529 24.9423 41.7257 24.9696 41.744 24.9498L40.273 23.5948C40.2556 23.6136 40.2059 23.6673 40.1602 23.7312C40.1468 23.75 40.1219 23.7858 40.0957 23.8332C40.0813 23.8592 40.0106 23.9841 39.9819 24.1614C39.9668 24.2547 39.9494 24.4435 40.0289 24.6628C40.1215 24.9186 40.313 25.1227 40.5556 25.233C40.7634 25.3275 40.9486 25.3268 41.0402 25.3204C41.1399 25.3134 41.2177 25.2929 41.2609 25.2799C41.4008 25.2376 41.5024 25.1712 41.5066 25.1686C41.5375 25.1496 41.5628 25.1319 41.5774 25.1215C41.6079 25.0997 41.6374 25.0769 41.659 25.06C41.7038 25.025 41.7574 24.9814 41.8018 24.9453C41.8504 24.9058 41.892 24.872 41.9257 24.8455L40.6895 23.2733Z" fill="#4D4D4D"/>
<path d="M21.6866 65.1867C21.1928 65.1867 20.7307 64.9968 20.3855 64.652L5.62793 49.9123C5.28312 49.5681 5.09322 49.1067 5.09309 48.613C5.09309 48.1194 5.28298 47.6581 5.62779 47.3137L8.06015 44.8882C8.40633 44.5424 8.86843 44.3525 9.36226 44.3525C9.85622 44.3525 10.3182 44.5424 10.6635 44.8874L25.4211 59.627C25.7659 59.9714 25.9558 60.4322 25.9558 60.9244C25.9558 61.4167 25.7659 61.8774 25.4211 62.2217L22.9879 64.6519C22.6426 64.9968 22.1805 65.1867 21.6866 65.1867Z" stroke="#4D4D4D" stroke-width="2"/>
<path d="M61.2623 44.3533C60.7685 44.3533 60.3064 44.5432 59.9612 44.888L45.2036 59.6277C44.8588 59.972 44.6689 60.4334 44.6688 60.9271C44.6688 61.4206 44.8587 61.8819 45.2035 62.2263L47.6358 64.6518C47.982 64.9976 48.4441 65.1875 48.9379 65.1875C49.4319 65.1875 49.8939 64.9976 50.2392 64.6527L64.9968 49.913C65.3416 49.5686 65.5315 49.1079 65.5315 48.6157C65.5315 48.1234 65.3416 47.6626 64.9968 47.3184L62.5636 44.8882C62.2183 44.5432 61.7561 44.3533 61.2623 44.3533Z" stroke="#4D4D4D" stroke-width="2"/>
</svg>
