<svg width="71" height="70" viewBox="0 0 71 70" fill="none" xmlns="http://www.w3.org/2000/svg">
<g clip-path="url(#clip0)">
<path d="M46.9917 20.2125L46.5802 19.3011L46.2369 19.4561L46.0812 19.799L46.9917 20.2125ZM44.25 26.25L43.3362 26.6561L44.2402 28.6901L45.1605 26.6635L44.25 26.25ZM53 17.5L53.4115 18.4114L55.4303 17.5L53.4115 16.5886L53 17.5ZM46.9917 14.7875L46.0812 15.201L46.2369 15.5439L46.5802 15.6989L46.9917 14.7875ZM44.25 8.75L45.1605 8.33653L44.2402 6.30985L43.3362 8.34386L44.25 8.75ZM41.5667 14.7875L41.9748 15.7004L42.3248 15.5439L42.4805 15.1936L41.5667 14.7875ZM35.5 17.5L35.0918 16.5871L33.0501 17.5L35.0918 18.4129L35.5 17.5ZM41.5667 20.2125L42.4805 19.8064L42.3248 19.4561L41.9748 19.2996L41.5667 20.2125ZM56.1207 30.6542L56.8288 31.3603L57.2535 30.9343L57.0763 30.3595L56.1207 30.6542ZM45.7665 41.0375L45.4792 41.9954L46.0522 42.1673L46.4746 41.7437L45.7665 41.0375ZM42.7332 41.0375L42.0261 41.7446L42.4484 42.167L43.0205 41.9954L42.7332 41.0375ZM35.2957 33.6L34.3426 33.2972L34.1584 33.877L34.5886 34.3071L35.2957 33.6ZM24.0373 33.6L24.7437 34.3079L25.1735 33.879L24.9912 33.2998L24.0373 33.6ZM10.7373 46.8709L10.4426 47.8265L11.0177 48.0038L11.4437 47.5788L10.7373 46.8709ZM14.879 51.0125L14.1711 50.3062L13.7461 50.7322L13.9234 51.3073L14.879 51.0125ZM28.1498 37.7125L28.4372 36.7547L27.8644 36.5829L27.442 37.0062L28.1498 37.7125ZM31.1832 37.7125L31.8903 37.0054L31.4679 36.5831L30.8958 36.7547L31.1832 37.7125ZM38.6207 45.15L39.5737 45.4529L39.7579 44.8731L39.3278 44.4429L38.6207 45.15ZM49.879 45.15L49.1729 44.4419L48.7427 44.8709L48.9252 45.4503L49.879 45.15ZM60.2623 34.7959L60.557 33.8403L59.9822 33.663L59.5562 34.0878L60.2623 34.7959ZM12.1665 35L11.2527 35.4061L12.1567 37.4401L13.077 35.4135L12.1665 35ZM14.9082 28.9625L14.4967 28.0511L14.1534 28.2061L13.9977 28.549L14.9082 28.9625ZM9.48317 28.9625L10.397 28.5564L10.2413 28.2061L9.89134 28.0496L9.48317 28.9625ZM3.4165 26.25L3.00833 25.3371L0.966566 26.25L3.00833 27.1629L3.4165 26.25ZM9.48317 23.5375L9.89134 24.4504L10.2413 24.2939L10.397 23.9436L9.48317 23.5375ZM12.1665 17.5L13.077 17.0865L12.1567 15.0599L11.2527 17.0939L12.1665 17.5ZM14.9082 23.5375L13.9977 23.951L14.1534 24.2939L14.4967 24.4489L14.9082 23.5375ZM20.9165 26.25L21.328 27.1614L23.3468 26.25L21.328 25.3386L20.9165 26.25ZM46.0812 19.799L43.3395 25.8365L45.1605 26.6635L47.9022 20.626L46.0812 19.799ZM52.5885 16.5886L46.5802 19.3011L47.4031 21.1239L53.4115 18.4114L52.5885 16.5886ZM46.5802 15.6989L52.5885 18.4114L53.4115 16.5886L47.4031 13.8761L46.5802 15.6989ZM43.3395 9.16347L46.0812 15.201L47.9022 14.374L45.1605 8.33653L43.3395 9.16347ZM42.4805 15.1936L45.1638 9.15614L43.3362 8.34386L40.6529 14.3814L42.4805 15.1936ZM35.9082 18.4129L41.9748 15.7004L41.1585 13.8746L35.0918 16.5871L35.9082 18.4129ZM41.9748 19.2996L35.9082 16.5871L35.0918 18.4129L41.1585 21.1254L41.9748 19.2996ZM45.1638 25.8439L42.4805 19.8064L40.6529 20.6186L43.3362 26.6561L45.1638 25.8439ZM57.0763 30.3595C56.2925 27.8182 58.2589 24.3334 61.7498 24.3334V22.3334C56.7824 22.3334 54.0238 27.2486 55.1651 30.9489L57.0763 30.3595ZM46.4746 41.7437L56.8288 31.3603L55.4126 29.9481L45.0584 40.3314L46.4746 41.7437ZM43.0205 41.9954C43.7081 41.7891 44.7916 41.7891 45.4792 41.9954L46.0539 40.0797C44.9914 39.761 43.5083 39.761 42.4458 40.0797L43.0205 41.9954ZM34.5886 34.3071L42.0261 41.7446L43.4403 40.3304L36.0028 32.8929L34.5886 34.3071ZM29.6665 27.25C33.1868 27.25 35.1483 30.7615 34.3426 33.2972L36.2487 33.9029C37.4263 30.1969 34.6629 25.25 29.6665 25.25V27.25ZM24.9912 33.2998C24.1847 30.7379 26.1707 27.25 29.6665 27.25V25.25C24.704 25.25 21.9067 30.1622 23.0835 33.9003L24.9912 33.2998ZM11.4437 47.5788L24.7437 34.3079L23.331 32.8922L10.031 46.163L11.4437 47.5788ZM4.4165 52.5C4.4165 49.0091 7.90132 47.0427 10.4426 47.8265L11.032 45.9153C7.33169 44.7741 2.4165 47.5326 2.4165 52.5H4.4165ZM9.24984 57.3334C6.59379 57.3334 4.4165 55.1561 4.4165 52.5H2.4165C2.4165 56.2607 5.48922 59.3334 9.24984 59.3334V57.3334ZM13.9234 51.3073C14.7072 53.8486 12.7407 57.3334 9.24984 57.3334V59.3334C14.2173 59.3334 16.9758 54.4182 15.8346 50.7178L13.9234 51.3073ZM27.442 37.0062L14.1711 50.3062L15.5869 51.7189L28.8577 38.4189L27.442 37.0062ZM30.8958 36.7547C30.2083 36.961 29.1247 36.961 28.4372 36.7547L27.8625 38.6704C28.9249 38.9891 30.4081 38.9891 31.4705 38.6704L30.8958 36.7547ZM39.3278 44.4429L31.8903 37.0054L30.4761 38.4196L37.9136 45.8571L39.3278 44.4429ZM44.2498 51.5C40.7295 51.5 38.768 47.9885 39.5737 45.4529L37.6676 44.8472C36.49 48.5532 39.2535 53.5 44.2498 53.5V51.5ZM48.9252 45.4503C49.7317 48.0122 47.7456 51.5 44.2498 51.5V53.5C49.2124 53.5 52.0097 48.5879 50.8329 44.8498L48.9252 45.4503ZM59.5562 34.0878L49.1729 44.4419L50.5851 45.8581L60.9684 35.504L59.5562 34.0878ZM66.5832 29.1667C66.5832 32.6576 63.0984 34.6241 60.557 33.8403L59.9676 35.7515C63.668 36.8927 68.5832 34.1341 68.5832 29.1667H66.5832ZM61.7498 24.3334C64.4059 24.3334 66.5832 26.5107 66.5832 29.1667H68.5832C68.5832 25.4061 65.5104 22.3334 61.7498 22.3334V24.3334ZM13.077 35.4135L15.8187 29.376L13.9977 28.549L11.256 34.5865L13.077 35.4135ZM8.56936 29.3686L11.2527 35.4061L13.0803 34.5939L10.397 28.5564L8.56936 29.3686ZM3.00833 27.1629L9.075 29.8754L9.89134 28.0496L3.82468 25.3371L3.00833 27.1629ZM9.075 22.6246L3.00833 25.3371L3.82468 27.1629L9.89134 24.4504L9.075 22.6246ZM11.2527 17.0939L8.56936 23.1314L10.397 23.9436L13.0803 17.9061L11.2527 17.0939ZM15.8187 23.124L13.077 17.0865L11.256 17.9135L13.9977 23.951L15.8187 23.124ZM21.328 25.3386L15.3196 22.6261L14.4967 24.4489L20.505 27.1614L21.328 25.3386ZM15.3196 29.8739L21.328 27.1614L20.505 25.3386L14.4967 28.0511L15.3196 29.8739Z" fill="#4D4D4D"/>
</g>
<defs>
<clipPath id="clip0">
<rect width="70" height="70" fill="white" transform="translate(0.5)"/>
</clipPath>
</defs>
</svg>
