<svg width="71" height="70" viewBox="0 0 71 70" fill="none" xmlns="http://www.w3.org/2000/svg">
<path d="M57.7639 40.6605L66.625 57.3519C66.95 57.9635 66.9151 58.6891 66.5334 59.2704C66.1523 59.8518 65.4783 60.2061 64.7525 60.2061H54.5854L48.4846 67.866C48.0871 68.3652 47.4649 68.6548 46.81 68.6548C45.9408 68.6548 45.2559 68.1659 44.9369 67.5646L36.5349 51.74M57.7639 40.6605C60.6644 36.6318 62.3608 31.7748 62.3608 26.5511C62.3608 12.6523 50.3539 1.34473 35.5953 1.34473C20.8368 1.34473 8.82989 12.6523 8.82989 26.5511C8.82989 31.7748 10.5263 36.6323 13.4273 40.6615M57.7639 40.6605C53.0763 46.4151 44.1073 50.8986 36.5349 51.74M13.4273 40.6615L4.5651 57.3519C4.24065 57.9635 4.27555 58.6891 4.65671 59.2704C5.03842 59.8518 5.71241 60.2061 6.43821 60.2061H16.6053L22.7056 67.866C23.1036 68.3652 23.7253 68.6548 24.3807 68.6548C25.2494 68.6548 25.9337 68.1669 26.2538 67.5646L34.6558 51.74M13.4273 40.6615C17.3938 46.0555 25.581 50.8385 34.6558 51.74M34.6558 51.74C34.9677 51.7502 35.2807 51.7574 35.5953 51.7574C35.91 51.7574 36.223 51.7502 36.5349 51.74" stroke="#4D4D4D" stroke-width="2"/>
<path d="M30.7759 20.5394C30.7759 19.4114 30.4159 18.5114 29.6959 17.8394C28.9759 17.1434 28.0039 16.7954 26.7799 16.7954C25.4839 16.7954 24.4639 17.2034 23.7199 18.0194C22.9999 18.8114 22.5799 19.8794 22.4599 21.2234H19.5439C19.7599 19.1354 20.5159 17.4554 21.8119 16.1834C23.1079 14.9114 24.7639 14.2754 26.7799 14.2754C28.8679 14.2754 30.5119 14.8394 31.7119 15.9674C32.9119 17.0954 33.5119 18.6074 33.5119 20.5034C33.5119 20.8394 33.4639 21.1874 33.3679 21.5474C33.2959 21.9074 33.2119 22.2194 33.1159 22.4834C33.0439 22.7474 32.8879 23.0834 32.6479 23.4914C32.4319 23.8754 32.2639 24.1634 32.1439 24.3554C32.0239 24.5474 31.7839 24.8594 31.4239 25.2914C31.0639 25.7234 30.8239 26.0114 30.7039 26.1554C30.5839 26.2994 30.2959 26.6234 29.8399 27.1274C29.4079 27.6074 29.1439 27.9074 29.0479 28.0274L23.4319 34.1834H33.9799V36.7034H19.5439V34.8314L26.6719 26.9834C27.7519 25.7834 28.4839 24.9674 28.8679 24.5354C29.2519 24.1034 29.6599 23.4914 30.0919 22.6994C30.5479 21.9074 30.7759 21.1874 30.7759 20.5394Z" fill="#4D4D4D"/>
<path d="M41.8583 26.5874V24.1754H43.3343C44.5343 24.1754 45.5183 23.8514 46.2863 23.2034C47.0783 22.5314 47.4743 21.6194 47.4743 20.4674C47.4743 19.3874 47.1023 18.4994 46.3583 17.8034C45.6383 17.0834 44.6663 16.7234 43.4423 16.7234C42.2183 16.7234 41.2223 17.0834 40.4543 17.8034C39.6863 18.5234 39.2183 19.4714 39.0503 20.6474H36.2783C36.5423 18.7514 37.3223 17.2154 38.6183 16.0394C39.9143 14.8634 41.5223 14.2754 43.4423 14.2754C45.5063 14.2754 47.1383 14.8394 48.3383 15.9674C49.5623 17.0714 50.1743 18.5234 50.1743 20.3234C50.1743 21.5234 49.8503 22.5914 49.2023 23.5274C48.5783 24.4394 47.7503 25.0514 46.7183 25.3634C47.9183 25.6994 48.8663 26.3354 49.5623 27.2714C50.2583 28.1834 50.6063 29.2634 50.6063 30.5114C50.6063 32.3834 49.9583 33.9434 48.6623 35.1914C47.3903 36.4154 45.6743 37.0274 43.5143 37.0274C41.3543 37.0274 39.5783 36.4274 38.1863 35.2274C36.8183 34.0274 36.0383 32.4194 35.8463 30.4034H38.6183C38.8103 31.6994 39.3263 32.7194 40.1663 33.4634C41.0063 34.2074 42.1103 34.5794 43.4783 34.5794C44.7983 34.5794 45.8663 34.2194 46.6823 33.4994C47.4983 32.7554 47.9063 31.7714 47.9063 30.5474C47.9063 29.3474 47.4743 28.3874 46.6103 27.6674C45.7703 26.9474 44.7023 26.5874 43.4063 26.5874H41.8583Z" fill="#4D4D4D"/>
</svg>
