<svg width="54" height="42" viewBox="0 0 54 42" fill="none" xmlns="http://www.w3.org/2000/svg">
<path d="M29.8809 8.33018C31.4207 6.98093 34.5898 5.54024 37.1219 5.54024C40.3117 5.54024 43.3222 6.90968 45.3815 9.29746C49.8292 14.4549 48.4878 22.2305 45.3594 27.2727C43.9513 29.541 40.8215 32.1513 38.7499 33.5625C39.6314 34.3962 41.7088 35.0961 43.1653 35.5611C44.8199 34.1291 48.0693 31.1276 49.4389 28.9188C50.5991 27.048 51.1311 25.8955 51.7864 23.7939C52.4579 21.6402 52.7102 20.3572 52.7738 18.1022C52.9077 13.3547 51.3524 9.27933 48.8751 6.40688C42.9909 -0.415827 30.8897 0.0334392 25.4031 6.63342C23.8776 8.46848 22.5749 11.3371 21.8269 14.0341C21.4449 15.4115 21.3133 16.2183 21.2293 17.6452C21.0026 21.4989 22.1293 27.2929 23.8606 30.1286C24.8749 29.3738 27.1151 27.1633 27.6603 26.2958C26.3696 23.833 24.9451 19.8359 25.4031 16.6742C25.871 13.4444 27.5274 10.3924 29.8809 8.33018ZM29.8809 8.33018C28.8932 9.29746 28.0212 10.1889 27.4999 11.107C28.1297 12.404 29.3913 15.2564 29.5966 16.6743C31.53 30.0277 17.756 33.6674 8.81562 36.5172C8.08692 36.7495 7.65831 37.5949 7.87618 38.3732C8.09678 39.1612 8.87695 39.611 9.61562 39.3755L13.5787 38.1123C21.4796 35.6261 30.3796 31.501 32.2331 22.4686C32.6344 20.5133 32.6781 18.4207 32.3599 16.2187C32.0502 14.082 30.9789 10.2162 29.8809 8.33018ZM40.1874 37.8836C38.1607 37.0088 35.5427 35.9995 34.9185 35.6968C33.564 35.8495 30.4147 36.8087 27.4999 36.8125C24.5506 36.8163 21.3466 35.8494 19.9925 35.6968C18.7699 36.2912 16.0006 37.1489 14.2935 37.8836C18.1496 39.0341 22.2566 41 27.6603 41C32.3599 41 39.0885 38.1819 40.1874 37.8836ZM40.1874 37.8836C40.687 38.0428 44.2735 39.0172 45.3842 39.3755C46.1056 39.6082 46.9073 39.1481 47.124 38.3728C47.3441 37.5851 46.9223 36.7523 46.1835 36.5168L44.9826 36.134C42.8037 35.456 41.5123 35.0229 40.6332 34.7484C36.8974 33.5825 32.5834 30.8649 29.5966 28.4442C29.0274 29.2025 28.2092 30.1295 27.4999 30.8278C30.5514 33.3685 36.3726 36.6677 40.1874 37.8836ZM24.4858 7.81247C23.7363 7.23933 22.9379 6.76684 22.1028 6.40687C20.7712 5.83176 19.3499 5.54024 17.8778 5.54024C14.688 5.54024 11.6775 6.90968 9.61825 9.29746C5.17055 14.4549 6.51184 22.2306 9.64042 27.2729C11.0483 29.541 14.2794 32.5882 16.3508 33.9994C15.6258 34.2502 11.6147 35.636 10.8517 35.8742C9.19692 34.4422 6.53772 30.8567 5.33481 28.9188C3.29919 25.639 2.1148 22.1305 1.99995 18.4351C1.8688 14.2262 2.74914 10.2042 5.75006 6.63342C8.16586 3.75887 10.7496 2.11915 14.3126 1.49765C17.3904 0.960773 21.2293 1.48571 23.4716 2.62255C24.9779 3.38625 25.9432 4.20119 26.9476 5.00771" stroke="#4D4D4D" stroke-width="2"/>
</svg>
