<svg width="51" height="66" viewBox="0 0 51 66" fill="none" xmlns="http://www.w3.org/2000/svg">
<path d="M19.2137 64.4451C18.8472 64.3348 18.493 64.2183 18.184 64.1086C18.3053 63.9587 18.443 63.7923 18.5964 63.6105C19.3472 62.7207 20.4254 61.5187 21.6484 60.2225L25.404 56.2419L29.0698 60.0817C30.2712 61.3402 31.36 62.5243 32.1452 63.4165C32.4008 63.7069 32.6211 63.9628 32.8011 64.1782C32.6193 64.2366 32.399 64.297 32.1387 64.3571C31.093 64.5987 29.6188 64.7881 27.9878 64.8971C24.6861 65.1177 21.0266 64.9907 19.2137 64.4451ZM17.2895 63.7461C17.279 63.74 17.2813 63.7405 17.2922 63.7477C17.2912 63.747 17.2903 63.7465 17.2895 63.7461ZM17.6161 64.8695C17.6129 64.8759 17.6122 64.8767 17.6152 64.8711C17.6155 64.8706 17.6158 64.87 17.6161 64.8695ZM12.3777 60.8697C10.9397 59.8493 9.30727 58.3425 7.86219 56.7511C6.41046 55.1524 5.2061 53.5324 4.58108 52.3019C4.36362 51.8738 4.31498 51.7391 4.30495 51.6461C4.30488 51.6454 4.30479 51.6447 4.30468 51.6438C4.30169 51.6191 4.28972 51.5201 4.467 51.2239C4.66542 50.8924 5.03235 50.4272 5.68484 49.6988C6.32843 48.9803 7.20393 48.0554 8.38475 46.8113L12.4384 42.5401L17.6338 48.033L22.9034 53.6042L18.7529 57.9774L14.547 62.4089L12.3777 60.8697ZM32.0586 57.9441L27.9544 53.5971L33.2215 48.0285L38.4127 42.5401L42.4663 46.8113C43.6575 48.0663 44.5382 48.9954 45.1841 49.716C45.8393 50.4469 46.2035 50.9099 46.3984 51.2393C46.5707 51.5306 46.5585 51.6298 46.5543 51.664L46.554 51.6667C46.5407 51.7793 46.4821 51.9306 46.2592 52.3869C46.0513 52.8123 45.5424 53.5363 44.7939 54.4542C44.0634 55.3503 43.1562 56.3693 42.2076 57.3672C41.2592 58.365 40.2782 59.3324 39.4019 60.1266C38.5089 60.936 37.7764 61.5177 37.3132 61.7884L36.266 62.4004L32.0586 57.9441ZM20.2206 45.4711L14.9526 39.9015L20.2206 34.3318L25.4134 28.8418L30.625 34.3331L35.9099 39.9015L30.625 45.4699L25.4134 50.9612L20.2206 45.4711ZM2.49215 46.7168C2.15461 45.3184 1.73559 43.22 1.56396 42.075C1.4924 41.5976 1.48045 40.7261 1.5305 39.6105C1.57951 38.5181 1.68431 37.2596 1.82178 36.0462C1.95946 34.8309 2.128 33.6778 2.30184 32.7933C2.33616 32.6187 2.37013 32.4575 2.40345 32.3105C2.53242 32.4168 2.67413 32.5374 2.82788 32.6721C3.68922 33.4265 4.83721 34.5423 6.05788 35.8361L9.90071 39.909L5.98522 44.0345L2.68423 47.5126L2.49215 46.7168ZM2.66246 31.4341C2.66248 31.4342 2.66137 31.4364 2.65906 31.4403C2.66127 31.436 2.66243 31.434 2.66246 31.4341ZM44.7993 43.9733L40.9574 39.9015L44.777 35.8533C45.9937 34.5637 47.1393 33.4287 48.0011 32.6405C48.1565 32.4983 48.3006 32.3694 48.4325 32.2542C48.4432 32.2958 48.4541 32.3386 48.4651 32.3824C48.6629 33.1693 48.8843 34.2335 49.0787 35.3801C49.6297 38.6284 49.6372 40.274 49.1188 43.4593C48.9351 44.5881 48.7204 45.7023 48.5237 46.5843C48.4532 46.9003 48.3859 47.1824 48.3241 47.4221C48.3072 47.4088 48.2899 47.3951 48.2722 47.3809C47.5535 46.8053 46.4459 45.7185 44.7993 43.9733ZM49.224 31.6289C49.2271 31.6272 49.2264 31.6278 49.2221 31.6299C49.2228 31.6295 49.2234 31.6292 49.224 31.6289ZM8.1674 32.7638L3.78703 28.1198L5.01053 25.7729C5.87299 24.1186 7.26178 21.8952 8.64195 19.8899C10.0394 17.8594 11.3559 16.1586 12.0721 15.4858C12.1467 15.4156 12.2013 15.3685 12.2392 15.3375C12.3006 15.3695 12.3994 15.4286 12.5441 15.5364C13.3579 16.1428 14.7598 17.5994 17.6386 20.643L22.8864 26.1913L18.4483 31.0473C17.06 32.5664 15.6974 34.0216 14.6217 35.1413C14.0835 35.7015 13.6201 36.1746 13.2628 36.5284C13.0839 36.7056 12.9351 36.8493 12.8188 36.9576C12.7709 37.0022 12.7304 37.039 12.697 37.0686C12.6044 37.0248 12.4393 36.9293 12.1783 36.7264C11.4089 36.1285 10.2096 34.9289 8.1674 32.7638ZM33.2168 31.7694L27.9526 26.204L33.2173 20.6379C34.8397 18.9226 36.3452 17.3676 37.4627 16.245C37.9531 15.7523 38.3646 15.3471 38.6766 15.0496C38.8233 15.2206 38.994 15.4289 39.186 15.6719C39.8122 16.4645 40.6149 17.5618 41.4544 18.766C43.143 21.1879 44.9197 23.9546 45.6852 25.468L47.0589 28.1835L42.6135 32.8457L38.4073 37.2571L33.2168 31.7694ZM38.2368 14.5849C38.2366 14.5847 38.2372 14.5852 38.2386 14.5863C38.2375 14.5855 38.2369 14.585 38.2368 14.5849ZM20.066 17.9135L14.6512 12.1905L19.8002 6.78378C21.3897 5.11471 22.8845 3.60089 24.0106 2.50767C24.5751 1.95971 25.0391 1.52508 25.3726 1.23131C25.3785 1.22612 25.3843 1.22098 25.3901 1.21591C25.6075 1.39177 25.8825 1.62766 26.2063 1.91633C26.9988 2.62266 28.0366 3.60264 29.1402 4.68175C31.3553 6.84769 33.7801 9.35903 34.9814 10.8053L36.1794 12.2476L30.7375 17.9636L25.4089 23.5607L20.066 17.9135Z" stroke="#4D4D4D" stroke-width="2"/>
</svg>
