<svg width="71" height="70" viewBox="0 0 71 70" fill="none" xmlns="http://www.w3.org/2000/svg">
<g clip-path="url(#clip0)">
<path d="M31.5341 11.4462L31.5346 11.4461C38.3566 10.3008 45.3401 12.1686 50.6795 16.5666C60.8636 24.9555 62.319 40.0116 53.9302 50.1957C50.9317 53.8287 46.9252 56.4931 42.4154 57.8533C41.8573 58.0213 41.3074 58.1736 40.7552 58.2977C39.0304 58.6844 37.2682 58.8791 35.5005 58.8784H35.4997C29.9507 58.8807 24.5741 56.9504 20.2937 53.4193C10.1208 45.0272 8.67719 29.977 17.0695 19.8039L17.0696 19.8038C20.0658 16.1705 24.07 13.5051 28.578 12.1431C28.805 12.0761 29.019 12.013 29.2312 11.9558L29.2322 11.9555C29.9933 11.7491 30.7603 11.5757 31.5341 11.4462ZM17.968 20.5463L17.193 20.0732L16.6476 20.7992C13.8134 24.5719 12.1719 29.1057 11.934 33.8183L11.8809 34.8687H12.9327H20.8317H21.8123L21.8315 33.8883C21.8971 30.5469 22.3959 27.2279 23.3153 24.0147L23.5735 23.1122L22.6892 22.7975C21.0422 22.2113 19.4602 21.457 17.968 20.5463ZM16.6475 49.1998L17.1927 49.9256L17.9678 49.453C19.4604 48.5427 21.0426 47.7881 22.6894 47.2015L23.5735 46.8866L23.3153 45.9844C22.3958 42.7712 21.897 39.4522 21.8315 36.1108L21.8123 35.1304H20.8317H12.9327H11.8809L11.934 36.1808C12.172 40.8934 13.8136 45.4272 16.6475 49.1998ZM34.2066 58.4993L35.3692 58.6909V57.5126V46.3805V45.3583L34.3473 45.3807C31.1723 45.4502 28.0183 45.9135 24.9574 46.7601L23.9032 47.0517L24.2879 48.0757C26.3707 53.6192 29.8734 57.7853 34.2066 58.4993ZM34.3898 45.1208L35.3692 45.1006V44.121V36.1304V35.1304H34.3692H23.0923H22.0704L22.0926 36.1521C22.1637 39.4332 22.6537 42.6918 23.5507 45.8486L23.8228 46.8062L24.7817 46.5384C27.9121 45.6641 31.1402 45.1878 34.3898 45.1208ZM34.3692 34.8687H35.3692V33.8687V25.9108V24.9337L34.3923 24.9111C31.1413 24.836 27.9128 24.3498 24.784 23.4639L23.8227 23.1917L23.5496 24.1527C22.6529 27.3089 22.1632 30.5669 22.0925 33.8471L22.0705 34.8687H23.0923H34.3692ZM34.347 24.6206L35.3692 24.6433V23.6209V12.4887V11.3094L34.2057 11.5022C29.8745 12.2198 26.3663 16.3847 24.2885 21.9242L23.9046 22.9477L24.9581 23.2392C28.0186 24.0861 31.1723 24.5501 34.347 24.6206ZM54.3526 20.7993L53.8074 20.0735L53.0324 20.5461C51.5398 21.4564 49.9575 22.2109 48.3107 22.7976L47.4267 23.1125L47.6849 24.0147C48.6044 27.2279 49.1031 30.5469 49.1686 33.8883L49.1878 34.8687H50.1684H58.0674H59.1192L59.0662 33.8182C58.8281 29.1057 57.1866 24.5719 54.3526 20.7993ZM36.7935 11.4998L35.6309 11.3082V12.4864V23.6186V24.6407L36.6528 24.6184C39.8279 24.5488 42.9819 24.0856 46.0427 23.239L47.097 22.9474L46.7123 21.9234C44.6294 16.3799 41.1267 12.2138 36.7935 11.4998ZM36.6078 24.9111L35.6309 24.9337V25.9108V33.8687V34.8687H36.6309H47.9078H48.9296L48.9076 33.8471C48.8369 30.5669 48.3473 27.3089 47.4505 24.1527L47.1775 23.1917L46.2162 23.4638C43.0873 24.3495 39.8588 24.8359 36.6078 24.9111ZM36.6309 35.1304H35.6309V36.1304V44.1222V45.102L36.6105 45.1219C39.86 45.1882 43.0881 45.6644 46.2182 46.5395L47.1773 46.8076L47.4494 45.8497C48.3464 42.6925 48.8365 39.4336 48.9076 36.1521L48.9297 35.1304H47.9078H36.6309ZM35.6309 57.5138V58.6931L36.7944 58.5003C41.1267 57.7826 44.6292 53.6161 46.7122 48.077L46.7762 47.9069V47.7251V47.7239V46.9629L46.0427 46.7601C42.9818 45.9138 39.8277 45.4505 36.6529 45.3807L35.6309 45.3582V46.3805V57.5138ZM53.5531 49.5992H54.0526L54.3526 49.1998C57.1867 45.4272 58.8282 40.8934 59.0662 36.1808L59.1192 35.1304H58.0674H50.1684H49.1883L49.1686 36.1104C49.1016 39.4521 48.6013 42.7709 47.6805 45.984L47.4217 46.8867L48.3064 47.2016C49.9534 47.7878 51.5355 48.5421 53.0276 49.4528L53.2675 49.5992H53.5485H53.5531Z" stroke="#4D4D4D" stroke-width="2"/>
<path fill-rule="evenodd" clip-rule="evenodd" d="M36.0921 65.4088C45.865 65.4088 53.4893 62.7121 58.6768 57.7335C63.869 52.7503 66.4905 45.6054 66.5001 36.9749L64.5001 36.9727C64.491 45.1974 62.0022 51.77 57.2919 56.2905C52.577 60.8156 45.5066 63.4088 36.0921 63.4088H20.1736V60.6054V58.8176L18.898 60.0702L15.0247 63.8741L14.4797 64.4093L15.0247 64.9444L18.8981 68.7475L20.1736 69.9998V68.2123V65.4088H36.0921ZM18.6736 65.4088H18.6546V63.4088H18.6736V62.3931L16.6206 64.4092L18.6736 66.4248V65.4088Z" fill="#4D4D4D"/>
<path fill-rule="evenodd" clip-rule="evenodd" d="M34.9079 4.59118C25.135 4.59118 17.5107 7.28788 12.3232 12.2665C7.13097 17.2497 4.5095 24.3946 4.49994 33.0251L6.49994 33.0273C6.50904 24.8026 8.99784 18.23 13.7081 13.7095C18.423 9.18438 25.4934 6.59118 34.9079 6.59118H50.8264V9.39465V11.1824L52.102 9.92976L55.9753 6.1259L56.5203 5.59074L55.9753 5.05563L52.1019 1.25253L50.8264 0.000221252V1.7877V4.59118H34.9079ZM52.3264 4.59118H52.3454V6.59118H52.3264V7.60692L54.3794 5.59084L52.3264 3.57517V4.59118Z" fill="#4D4D4D"/>
</g>
<defs>
<clipPath id="clip0">
<rect width="70" height="70" fill="white" transform="translate(0.5)"/>
</clipPath>
</defs>
</svg>
