<svg width="121" height="70" viewBox="0 0 121 70" fill="none" xmlns="http://www.w3.org/2000/svg">
<path d="M35.016 23.764H37.744V31.068H45.048V33.796H37.744V41.1H35.016V33.796H27.712V31.068H35.016V23.764ZM53.8497 36.876C53.8497 38.636 54.3924 40.088 55.4777 41.232C56.5631 42.376 57.9711 42.948 59.7017 42.948C61.4031 42.948 62.7964 42.3907 63.8817 41.276C64.9671 40.132 65.5097 38.6653 65.5097 36.876C65.5097 35.0867 64.9671 33.62 63.8817 32.476C62.7964 31.3027 61.4031 30.716 59.7017 30.716C57.9711 30.716 56.5631 31.288 55.4777 32.432C54.3924 33.576 53.8497 35.0573 53.8497 36.876ZM68.3257 24.776H64.8937C64.0724 22.224 62.4151 20.948 59.9217 20.948C57.9564 20.948 56.3284 21.9453 55.0377 23.94C53.7471 25.9053 53.1017 28.3547 53.1017 31.288C53.1017 31.376 53.1017 31.5813 53.1017 31.904C53.1311 32.1973 53.1457 32.388 53.1457 32.476C53.5857 31.0973 54.4364 29.9827 55.6977 29.132C56.9591 28.2813 58.3817 27.856 59.9657 27.856C62.5177 27.856 64.6151 28.736 66.2577 30.496C67.9004 32.2267 68.7217 34.3387 68.7217 36.832C68.7217 39.384 67.8857 41.54 66.2137 43.3C64.5417 45.0307 62.3564 45.896 59.6577 45.896C55.9911 45.896 53.3071 44.18 51.6057 40.748C50.5497 38.5187 50.0217 35.7613 50.0217 32.476C50.0217 28.1347 50.9311 24.6587 52.7497 22.048C54.5977 19.408 56.9884 18.088 59.9217 18.088C64.3804 18.088 67.1817 20.3173 68.3257 24.776ZM80.7757 30.98C78.869 30.98 77.2703 31.7573 75.9797 33.312H73.2517V18.484H88.0357V21.564H76.1557V29.704C77.417 28.56 79.0597 27.988 81.0837 27.988C83.577 27.988 85.6157 28.8387 87.1997 30.54C88.7837 32.212 89.5757 34.3533 89.5757 36.964C89.5757 39.516 88.7543 41.6427 87.1117 43.344C85.469 45.0453 83.3717 45.896 80.8197 45.896C78.2383 45.896 76.1263 45.1773 74.4837 43.74C72.841 42.3027 71.8583 40.3227 71.5357 37.8H74.9237C75.5397 41.2027 77.505 42.904 80.8197 42.904C82.433 42.904 83.753 42.3467 84.7797 41.232C85.8063 40.088 86.3197 38.6653 86.3197 36.964C86.3197 35.2627 85.8063 33.84 84.7797 32.696C83.753 31.552 82.4183 30.98 80.7757 30.98Z" fill="#4D4D4D"/>
<path d="M21.0821 16.7071C21.4726 16.3166 21.4726 15.6834 21.0821 15.2929C20.6916 14.9024 20.0584 14.9024 19.6679 15.2929L21.0821 16.7071ZM4.625 31.75L3.91789 31.0429C3.52737 31.4334 3.52737 32.0666 3.91789 32.4571L4.625 31.75ZM19.6679 48.2071C20.0584 48.5976 20.6916 48.5976 21.0821 48.2071C21.4726 47.8166 21.4726 47.1834 21.0821 46.7929L19.6679 48.2071ZM19.6679 15.2929C19.6559 15.3049 19.6439 15.3169 19.6318 15.329C19.6198 15.341 19.6077 15.3531 19.5957 15.3651C19.5836 15.3772 19.5715 15.3893 19.5594 15.4014C19.5473 15.4135 19.5352 15.4256 19.5231 15.4377C19.511 15.4498 19.4989 15.4619 19.4867 15.4741C19.4746 15.4862 19.4624 15.4984 19.4503 15.5105C19.4381 15.5227 19.4259 15.5349 19.4137 15.5471C19.4015 15.5593 19.3893 15.5715 19.3771 15.5837C19.3649 15.5959 19.3527 15.6081 19.3404 15.6204C19.3282 15.6326 19.3159 15.6449 19.3036 15.6571C19.2914 15.6694 19.2791 15.6817 19.2668 15.694C19.2545 15.7063 19.2422 15.7186 19.2299 15.7309C19.2176 15.7432 19.2053 15.7555 19.1929 15.7679C19.1806 15.7802 19.1682 15.7926 19.1559 15.8049C19.1435 15.8173 19.1311 15.8297 19.1187 15.842C19.1064 15.8544 19.094 15.8668 19.0816 15.8792C19.0691 15.8916 19.0567 15.9041 19.0443 15.9165C19.0319 15.9289 19.0194 15.9414 19.007 15.9538C18.9945 15.9663 18.982 15.9787 18.9696 15.9912C18.9571 16.0037 18.9446 16.0162 18.9321 16.0287C18.9196 16.0412 18.9071 16.0537 18.8946 16.0662C18.882 16.0788 18.8695 16.0913 18.857 16.1038C18.8444 16.1164 18.8319 16.1289 18.8193 16.1415C18.8067 16.1541 18.7941 16.1666 18.7816 16.1792C18.769 16.1918 18.7564 16.2044 18.7438 16.217C18.7311 16.2296 18.7185 16.2423 18.7059 16.2549C18.6933 16.2675 18.6806 16.2802 18.668 16.2928C18.6553 16.3055 18.6427 16.3181 18.63 16.3308C18.6173 16.3435 18.6046 16.3562 18.5919 16.3689C18.5792 16.3816 18.5665 16.3943 18.5538 16.407C18.5411 16.4197 18.5284 16.4324 18.5156 16.4452C18.5029 16.4579 18.4902 16.4706 18.4774 16.4834C18.4646 16.4961 18.4519 16.5089 18.4391 16.5217C18.4263 16.5345 18.4135 16.5472 18.4007 16.56C18.388 16.5728 18.3751 16.5856 18.3623 16.5985C18.3495 16.6113 18.3367 16.6241 18.3239 16.6369C18.311 16.6498 18.2982 16.6626 18.2853 16.6755C18.2725 16.6883 18.2596 16.7012 18.2467 16.7141C18.2339 16.7269 18.221 16.7398 18.2081 16.7527C18.1952 16.7656 18.1823 16.7785 18.1694 16.7914C18.1565 16.8043 18.1436 16.8172 18.1306 16.8302C18.1177 16.8431 18.1048 16.856 18.0918 16.869C18.0789 16.8819 18.0659 16.8949 18.0529 16.9078C18.04 16.9208 18.027 16.9338 18.014 16.9468C18.001 16.9597 17.9881 16.9727 17.9751 16.9857C17.9621 16.9987 17.949 17.0117 17.936 17.0248C17.923 17.0378 17.91 17.0508 17.8969 17.0638C17.8839 17.0769 17.8709 17.0899 17.8578 17.103C17.8448 17.116 17.8317 17.1291 17.8186 17.1422C17.8056 17.1552 17.7925 17.1683 17.7794 17.1814C17.7663 17.1945 17.7532 17.2076 17.7401 17.2207C17.727 17.2338 17.7139 17.2469 17.7008 17.26C17.6877 17.2731 17.6745 17.2862 17.6614 17.2994C17.6483 17.3125 17.6351 17.3257 17.622 17.3388C17.6088 17.352 17.5957 17.3651 17.5825 17.3783C17.5693 17.3914 17.5562 17.4046 17.543 17.4178C17.5298 17.431 17.5166 17.4442 17.5034 17.4574C17.4902 17.4706 17.477 17.4838 17.4638 17.497C17.4506 17.5102 17.4374 17.5234 17.4241 17.5366C17.4109 17.5499 17.3977 17.5631 17.3844 17.5763C17.3712 17.5896 17.358 17.6028 17.3447 17.6161C17.3314 17.6293 17.3182 17.6426 17.3049 17.6559C17.2916 17.6692 17.2784 17.6824 17.2651 17.6957C17.2518 17.709 17.2385 17.7223 17.2252 17.7356C17.2119 17.7489 17.1986 17.7622 17.1853 17.7755C17.172 17.7888 17.1586 17.8021 17.1453 17.8155C17.132 17.8288 17.1187 17.8421 17.1053 17.8555C17.092 17.8688 17.0786 17.8822 17.0653 17.8955C17.0519 17.9089 17.0386 17.9222 17.0252 17.9356C17.0118 17.9489 16.9985 17.9623 16.9851 17.9757C16.9717 17.9891 16.9583 18.0025 16.9449 18.0159C16.9315 18.0292 16.9181 18.0426 16.9047 18.056C16.8913 18.0694 16.8779 18.0829 16.8645 18.0963C16.8511 18.1097 16.8377 18.1231 16.8242 18.1365C16.8108 18.15 16.7974 18.1634 16.7839 18.1768C16.7705 18.1903 16.7571 18.2037 16.7436 18.2172C16.7302 18.2306 16.7167 18.2441 16.7032 18.2575C16.6898 18.271 16.6763 18.2845 16.6628 18.298C16.6494 18.3114 16.6359 18.3249 16.6224 18.3384C16.6089 18.3519 16.5954 18.3654 16.5819 18.3789C16.5684 18.3924 16.5549 18.4059 16.5414 18.4194C16.5279 18.4329 16.5144 18.4464 16.5009 18.4599C16.4874 18.4734 16.4738 18.4869 16.4603 18.5005C16.4468 18.514 16.4333 18.5275 16.4197 18.5411C16.4062 18.5546 16.3926 18.5681 16.3791 18.5817C16.3655 18.5952 16.352 18.6088 16.3384 18.6223C16.3249 18.6359 16.3113 18.6495 16.2978 18.663C16.2842 18.6766 16.2706 18.6902 16.257 18.7037C16.2435 18.7173 16.2299 18.7309 16.2163 18.7445C16.2027 18.7581 16.1891 18.7717 16.1755 18.7853C16.1619 18.7988 16.1483 18.8124 16.1347 18.826C16.1211 18.8396 16.1075 18.8533 16.0939 18.8669C16.0803 18.8805 16.0667 18.8941 16.0531 18.9077C16.0395 18.9213 16.0258 18.935 16.0122 18.9486C15.9986 18.9622 15.9849 18.9758 15.9713 18.9895C15.9577 19.0031 15.944 19.0168 15.9304 19.0304C15.9167 19.044 15.9031 19.0577 15.8895 19.0713C15.8758 19.085 15.8621 19.0986 15.8485 19.1123C15.8348 19.126 15.8212 19.1396 15.8075 19.1533C15.7938 19.1669 15.7802 19.1806 15.7665 19.1943C15.7528 19.208 15.7392 19.2216 15.7255 19.2353C15.7118 19.249 15.6981 19.2627 15.6844 19.2764C15.6707 19.29 15.6571 19.3037 15.6434 19.3174C15.6297 19.3311 15.616 19.3448 15.6023 19.3585C15.5886 19.3722 15.5749 19.3859 15.5612 19.3996C15.5475 19.4133 15.5338 19.427 15.5201 19.4407C15.5063 19.4544 15.4926 19.4682 15.4789 19.4819C15.4652 19.4956 15.4515 19.5093 15.4378 19.523C15.424 19.5367 15.4103 19.5505 15.3966 19.5642C15.3829 19.5779 15.3691 19.5917 15.3554 19.6054C15.3417 19.6191 15.3279 19.6328 15.3142 19.6466C15.3005 19.6603 15.2867 19.6741 15.273 19.6878C15.2592 19.7015 15.2455 19.7153 15.2318 19.729C15.218 19.7428 15.2043 19.7565 15.1905 19.7703C15.1768 19.784 15.163 19.7978 15.1493 19.8115C15.1355 19.8253 15.1218 19.839 15.108 19.8528C15.0942 19.8665 15.0805 19.8803 15.0667 19.8941C15.053 19.9078 15.0392 19.9216 15.0254 19.9353C15.0117 19.9491 14.9979 19.9629 14.9841 19.9766C14.9704 19.9904 14.9566 20.0042 14.9428 20.018C14.9291 20.0317 14.9153 20.0455 14.9015 20.0593C14.8877 20.073 14.874 20.0868 14.8602 20.1006C14.8464 20.1144 14.8326 20.1281 14.8189 20.1419C14.8051 20.1557 14.7913 20.1695 14.7775 20.1833C14.7637 20.197 14.75 20.2108 14.7362 20.2246C14.7224 20.2384 14.7086 20.2522 14.6948 20.266C14.681 20.2797 14.6673 20.2935 14.6535 20.3073C14.6397 20.3211 14.6259 20.3349 14.6121 20.3487C14.5983 20.3625 14.5845 20.3763 14.5707 20.39C14.5569 20.4038 14.5432 20.4176 14.5294 20.4314C14.5156 20.4452 14.5018 20.459 14.488 20.4728C14.4742 20.4866 14.4604 20.5004 14.4466 20.5142C14.4328 20.528 14.419 20.5418 14.4052 20.5555C14.3914 20.5693 14.3777 20.5831 14.3639 20.5969C14.3501 20.6107 14.3363 20.6245 14.3225 20.6383C14.3087 20.6521 14.2949 20.6659 14.2811 20.6797C14.2673 20.6935 14.2535 20.7073 14.2397 20.7211C14.2259 20.7349 14.2121 20.7486 14.1983 20.7624C14.1846 20.7762 14.1708 20.79 14.157 20.8038C14.1432 20.8176 14.1294 20.8314 14.1156 20.8452C14.1018 20.859 14.088 20.8728 14.0742 20.8866C14.0604 20.9004 14.0466 20.9141 14.0329 20.9279C14.0191 20.9417 14.0053 20.9555 13.9915 20.9693C13.9777 20.9831 13.9639 20.9969 13.9501 21.0107C13.9363 21.0244 13.9226 21.0382 13.9088 21.052C13.895 21.0658 13.8812 21.0796 13.8674 21.0934C13.8536 21.1071 13.8399 21.1209 13.8261 21.1347C13.8123 21.1485 13.7985 21.1623 13.7847 21.176C13.771 21.1898 13.7572 21.2036 13.7434 21.2174C13.7296 21.2311 13.7159 21.2449 13.7021 21.2587C13.6883 21.2725 13.6745 21.2862 13.6608 21.3C13.647 21.3138 13.6332 21.3275 13.6195 21.3413C13.6057 21.3551 13.5919 21.3688 13.5782 21.3826C13.5644 21.3964 13.5507 21.4101 13.5369 21.4239C13.5231 21.4376 13.5094 21.4514 13.4956 21.4652C13.4819 21.4789 13.4681 21.4927 13.4544 21.5064C13.4406 21.5202 13.4269 21.5339 13.4131 21.5477C13.3994 21.5614 13.3856 21.5752 13.3719 21.5889C13.3581 21.6027 13.3444 21.6164 13.3307 21.6301C13.3169 21.6439 13.3032 21.6576 13.2894 21.6713C13.2757 21.6851 13.262 21.6988 13.2483 21.7125C13.2345 21.7263 13.2208 21.74 13.2071 21.7537C13.1933 21.7674 13.1796 21.7812 13.1659 21.7949C13.1522 21.8086 13.1385 21.8223 13.1248 21.836C13.111 21.8497 13.0973 21.8635 13.0836 21.8772C13.0699 21.8909 13.0562 21.9046 13.0425 21.9183C13.0288 21.932 13.0151 21.9457 13.0014 21.9594C12.9877 21.9731 12.974 21.9868 12.9603 22.0005C12.9466 22.0141 12.933 22.0278 12.9193 22.0415C12.9056 22.0552 12.8919 22.0689 12.8782 22.0825C12.8646 22.0962 12.8509 22.1099 12.8372 22.1236C12.8235 22.1372 12.8099 22.1509 12.7962 22.1646C12.7826 22.1782 12.7689 22.1919 12.7552 22.2055C12.7416 22.2192 12.7279 22.2328 12.7143 22.2465C12.7006 22.2601 12.687 22.2738 12.6734 22.2874C12.6597 22.3011 12.6461 22.3147 12.6324 22.3283C12.6188 22.342 12.6052 22.3556 12.5916 22.3692C12.5779 22.3828 12.5643 22.3965 12.5507 22.4101C12.5371 22.4237 12.5235 22.4373 12.5099 22.4509C12.4963 22.4645 12.4827 22.4781 12.4691 22.4917C12.4555 22.5053 12.4419 22.5189 12.4283 22.5325C12.4147 22.5461 12.4011 22.5597 12.3875 22.5733C12.3739 22.5869 12.3604 22.6004 12.3468 22.614C12.3332 22.6276 12.3196 22.6411 12.3061 22.6547C12.2925 22.6683 12.279 22.6818 12.2654 22.6954C12.2518 22.7089 12.2383 22.7225 12.2248 22.736C12.2112 22.7496 12.1977 22.7631 12.1841 22.7766C12.1706 22.7902 12.1571 22.8037 12.1436 22.8172C12.13 22.8308 12.1165 22.8443 12.103 22.8578C12.0895 22.8713 12.076 22.8848 12.0625 22.8983C12.049 22.9118 12.0355 22.9253 12.022 22.9388C12.0085 22.9523 11.995 22.9658 11.9815 22.9793C11.968 22.9927 11.9546 23.0062 11.9411 23.0197C11.9276 23.0332 11.9142 23.0466 11.9007 23.0601C11.8872 23.0735 11.8738 23.087 11.8603 23.1004C11.8469 23.1139 11.8335 23.1273 11.82 23.1408C11.8066 23.1542 11.7932 23.1676 11.7797 23.1811C11.7663 23.1945 11.7529 23.2079 11.7395 23.2213C11.7261 23.2347 11.7127 23.2481 11.6993 23.2615C11.6859 23.2749 11.6725 23.2883 11.6591 23.3017C11.6457 23.3151 11.6323 23.3285 11.6189 23.3418C11.6056 23.3552 11.5922 23.3686 11.5788 23.3819C11.5655 23.3953 11.5521 23.4087 11.5388 23.422C11.5254 23.4354 11.5121 23.4487 11.4988 23.462C11.4854 23.4754 11.4721 23.4887 11.4588 23.502C11.4455 23.5153 11.4321 23.5287 11.4188 23.542C11.4055 23.5553 11.3922 23.5686 11.3789 23.5819C11.3656 23.5952 11.3523 23.6084 11.3391 23.6217C11.3258 23.635 11.3125 23.6483 11.2992 23.6615C11.286 23.6748 11.2727 23.6881 11.2595 23.7013C11.2462 23.7146 11.233 23.7278 11.2197 23.741C11.2065 23.7543 11.1933 23.7675 11.1801 23.7807C11.1668 23.794 11.1536 23.8072 11.1404 23.8204C11.1272 23.8336 11.114 23.8468 11.1008 23.86C11.0876 23.8732 11.0744 23.8863 11.0613 23.8995C11.0481 23.9127 11.0349 23.9259 11.0218 23.939C11.0086 23.9522 10.9954 23.9653 10.9823 23.9785C10.9692 23.9916 10.956 24.0048 10.9429 24.0179C10.9298 24.031 10.9166 24.0441 10.9035 24.0573C10.8904 24.0704 10.8773 24.0835 10.8642 24.0966C10.8511 24.1097 10.838 24.1228 10.8249 24.1358C10.8119 24.1489 10.7988 24.162 10.7857 24.1751C10.7727 24.1881 10.7596 24.2012 10.7466 24.2142C10.7335 24.2273 10.7205 24.2403 10.7075 24.2533C10.6944 24.2664 10.6814 24.2794 10.6684 24.2924C10.6554 24.3054 10.6424 24.3184 10.6294 24.3314C10.6164 24.3444 10.6034 24.3574 10.5904 24.3704C10.5775 24.3833 10.5645 24.3963 10.5515 24.4093C10.5386 24.4222 10.5256 24.4352 10.5127 24.4481C10.4997 24.461 10.4868 24.474 10.4739 24.4869C10.461 24.4998 10.4481 24.5127 10.4352 24.5256C10.4223 24.5385 10.4094 24.5514 10.3965 24.5643C10.3836 24.5772 10.3707 24.5901 10.3578 24.6029C10.345 24.6158 10.3321 24.6287 10.3193 24.6415C10.3064 24.6544 10.2936 24.6672 10.2808 24.68C10.2679 24.6928 10.2551 24.7057 10.2423 24.7185C10.2295 24.7313 10.2167 24.7441 10.2039 24.7569C10.1911 24.7697 10.1784 24.7824 10.1656 24.7952C10.1528 24.808 10.1401 24.8207 10.1273 24.8335C10.1146 24.8462 10.1018 24.859 10.0891 24.8717C10.0764 24.8844 10.0636 24.8971 10.0509 24.9098C10.0382 24.9226 10.0255 24.9353 10.0128 24.9479C10.0002 24.9606 9.98748 24.9733 9.97482 24.986C9.96215 24.9986 9.9495 25.0113 9.93685 25.0239C9.92421 25.0366 9.91157 25.0492 9.89895 25.0618C9.88632 25.0745 9.87371 25.0871 9.86111 25.0997C9.84851 25.1123 9.83591 25.1249 9.82333 25.1375C9.81075 25.15 9.79818 25.1626 9.78562 25.1752C9.77306 25.1877 9.76052 25.2003 9.74798 25.2128C9.73544 25.2253 9.72292 25.2379 9.7104 25.2504C9.69789 25.2629 9.68538 25.2754 9.67289 25.2879C9.6604 25.3004 9.64792 25.3129 9.63545 25.3253C9.62298 25.3378 9.61052 25.3503 9.59807 25.3627C9.58562 25.3752 9.57319 25.3876 9.56076 25.4C9.54834 25.4124 9.53593 25.4249 9.52353 25.4373C9.51113 25.4497 9.49874 25.462 9.48636 25.4744C9.47398 25.4868 9.46162 25.4992 9.44926 25.5115C9.43691 25.5239 9.42457 25.5362 9.41224 25.5486C9.39991 25.5609 9.38759 25.5732 9.37528 25.5855C9.36297 25.5978 9.35068 25.6101 9.3384 25.6224C9.32612 25.6347 9.31385 25.6469 9.30159 25.6592C9.28933 25.6715 9.27708 25.6837 9.26485 25.6959C9.25262 25.7082 9.2404 25.7204 9.22819 25.7326C9.21598 25.7448 9.20378 25.757 9.1916 25.7692C9.17942 25.7814 9.16724 25.7935 9.15509 25.8057C9.14293 25.8179 9.13078 25.83 9.11865 25.8421C9.10652 25.8543 9.0944 25.8664 9.08229 25.8785C9.07018 25.8906 9.05808 25.9027 9.046 25.9148C9.03392 25.9269 9.02185 25.9389 9.0098 25.951C8.99774 25.963 8.9857 25.9751 8.97367 25.9871C8.96164 25.9992 8.94962 26.0112 8.93762 26.0232C8.92561 26.0352 8.91362 26.0472 8.90164 26.0591C8.88967 26.0711 8.8777 26.0831 8.86575 26.095C8.8538 26.107 8.84186 26.1189 8.82994 26.1308C8.81802 26.1428 8.80611 26.1547 8.79421 26.1666C8.78231 26.1785 8.77043 26.1904 8.75856 26.2022C8.74669 26.2141 8.73484 26.226 8.72299 26.2378C8.71115 26.2496 8.69932 26.2615 8.68751 26.2733C8.6757 26.2851 8.66389 26.2969 8.65211 26.3087C8.64032 26.3205 8.62855 26.3322 8.61679 26.344C8.60503 26.3558 8.59329 26.3675 8.58156 26.3792C8.56983 26.391 8.55811 26.4027 8.54641 26.4144C8.53471 26.4261 8.52302 26.4378 8.51135 26.4494C8.49967 26.4611 8.48802 26.4728 8.47637 26.4844C8.46473 26.4961 8.4531 26.5077 8.44148 26.5193C8.42987 26.5309 8.41827 26.5425 8.40668 26.5541C8.39509 26.5657 8.38352 26.5773 8.37196 26.5888C8.36041 26.6004 8.34887 26.6119 8.33734 26.6234C8.32581 26.635 8.3143 26.6465 8.3028 26.658C8.2913 26.6695 8.27982 26.681 8.26835 26.6924C8.25689 26.7039 8.24543 26.7154 8.234 26.7268C8.22256 26.7382 8.21114 26.7496 8.19973 26.7611C8.18832 26.7725 8.17693 26.7839 8.16556 26.7952C8.15418 26.8066 8.14282 26.818 8.13147 26.8293C8.12013 26.8407 8.1088 26.852 8.09748 26.8633C8.08617 26.8746 8.07487 26.8859 8.06359 26.8972C8.0523 26.9085 8.04103 26.9198 8.02978 26.931C8.01853 26.9423 8.00729 26.9535 7.99607 26.9647C7.98485 26.9759 7.97365 26.9871 7.96246 26.9983C7.95127 27.0095 7.9401 27.0207 7.92894 27.0318C7.91778 27.043 7.90664 27.0541 7.89552 27.0653C7.88439 27.0764 7.87328 27.0875 7.86219 27.0986C7.8511 27.1097 7.84002 27.1208 7.82896 27.1318C7.8179 27.1429 7.80686 27.1539 7.79583 27.165C7.7848 27.176 7.77379 27.187 7.7628 27.198C7.7518 27.209 7.74083 27.22 7.72986 27.2309C7.7189 27.2419 7.70796 27.2528 7.69703 27.2638C7.6861 27.2747 7.67519 27.2856 7.6643 27.2965C7.6534 27.3074 7.64252 27.3183 7.63166 27.3291C7.6208 27.34 7.60996 27.3508 7.59913 27.3617C7.5883 27.3725 7.57749 27.3833 7.5667 27.3941C7.55591 27.4049 7.54513 27.4157 7.53437 27.4264C7.52361 27.4372 7.51287 27.4479 7.50215 27.4586C7.49142 27.4694 7.48072 27.4801 7.47003 27.4908C7.45934 27.5014 7.44866 27.5121 7.43801 27.5228C7.42736 27.5334 7.41672 27.5441 7.4061 27.5547C7.39548 27.5653 7.38488 27.5759 7.37429 27.5865C7.36371 27.5971 7.35314 27.6076 7.34259 27.6182C7.33204 27.6287 7.32151 27.6393 7.311 27.6498C7.30048 27.6603 7.28999 27.6708 7.27951 27.6813C7.26903 27.6918 7.25857 27.7022 7.24813 27.7127C7.23769 27.7231 7.22727 27.7335 7.21686 27.7439C7.20645 27.7543 7.19607 27.7647 7.1857 27.7751C7.17533 27.7855 7.16498 27.7958 7.15465 27.8061C7.14431 27.8165 7.134 27.8268 7.1237 27.8371C7.11341 27.8474 7.10313 27.8577 7.09287 27.8679C7.08261 27.8782 7.07237 27.8884 7.06215 27.8986C7.05193 27.9089 7.04173 27.9191 7.03154 27.9292C7.02136 27.9394 7.01119 27.9496 7.00104 27.9597C6.9909 27.9699 6.98077 27.98 6.97066 27.9901C6.96055 28.0002 6.95046 28.0103 6.94039 28.0204C6.93032 28.0305 6.92027 28.0405 6.91024 28.0506C6.9002 28.0606 6.89019 28.0706 6.88019 28.0806C6.8702 28.0906 6.86022 28.1006 6.85027 28.1105C6.84031 28.1205 6.83038 28.1304 6.82046 28.1403C6.81054 28.1502 6.80064 28.1601 6.79077 28.17C6.78089 28.1799 6.77103 28.1898 6.76119 28.1996C6.75135 28.2094 6.74153 28.2193 6.73173 28.2291C6.72193 28.2389 6.71215 28.2486 6.70239 28.2584C6.69263 28.2682 6.68289 28.2779 6.67317 28.2876C6.66345 28.2973 6.65375 28.307 6.64407 28.3167C6.63438 28.3264 6.62472 28.3361 6.61508 28.3457C6.60544 28.3553 6.59582 28.365 6.58622 28.3746C6.57662 28.3842 6.56704 28.3937 6.55748 28.4033C6.54792 28.4129 6.53838 28.4224 6.52886 28.4319C6.51934 28.4414 6.50984 28.4509 6.50037 28.4604C6.49089 28.4699 6.48143 28.4794 6.47199 28.4888C6.46255 28.4982 6.45314 28.5076 6.44374 28.517C6.43434 28.5264 6.42497 28.5358 6.41561 28.5452C6.40626 28.5545 6.39693 28.5639 6.38761 28.5732C6.3783 28.5825 6.36901 28.5918 6.35974 28.601C6.35047 28.6103 6.34122 28.6196 6.33199 28.6288C6.32276 28.638 6.31355 28.6472 6.30436 28.6564C6.29518 28.6656 6.28601 28.6748 6.27686 28.6839C6.26772 28.6931 6.2586 28.7022 6.2495 28.7113C6.24039 28.7204 6.23131 28.7295 6.22225 28.7385C6.21319 28.7476 6.20416 28.7566 6.19514 28.7656C6.18612 28.7747 6.17713 28.7837 6.16816 28.7926C6.15918 28.8016 6.15023 28.8106 6.1413 28.8195C6.13237 28.8284 6.12347 28.8373 6.11458 28.8462C6.10569 28.8551 6.09683 28.864 6.08799 28.8728C6.07915 28.8816 6.07033 28.8905 6.06153 28.8993C6.05273 28.9081 6.04395 28.9168 6.0352 28.9256C6.02645 28.9343 6.01771 28.9431 6.009 28.9518C6.00029 28.9605 5.99161 28.9692 5.98294 28.9778C5.97428 28.9865 5.96563 28.9952 5.95701 29.0038C5.94839 29.0124 5.9398 29.021 5.93122 29.0296C5.92264 29.0381 5.91409 29.0467 5.90556 29.0552C5.89703 29.0638 5.88852 29.0723 5.88004 29.0807C5.87155 29.0892 5.86309 29.0977 5.85465 29.1061C5.84621 29.1146 5.8378 29.123 5.8294 29.1314C5.82101 29.1398 5.81264 29.1481 5.80429 29.1565C5.79594 29.1648 5.78762 29.1732 5.77932 29.1815C5.77102 29.1898 5.76274 29.198 5.75448 29.2063C5.74623 29.2146 5.73799 29.2228 5.72979 29.231C5.72158 29.2392 5.71339 29.2474 5.70523 29.2556C5.69707 29.2637 5.68893 29.2719 5.68081 29.28C5.6727 29.2881 5.66461 29.2962 5.65654 29.3042C5.64847 29.3123 5.64042 29.3204 5.6324 29.3284C5.62438 29.3364 5.61639 29.3444 5.60841 29.3524C5.60044 29.3603 5.59249 29.3683 5.58456 29.3762C5.57664 29.3841 5.56874 29.392 5.56086 29.3999C5.55298 29.4078 5.54513 29.4157 5.5373 29.4235C5.52947 29.4313 5.52166 29.4391 5.51388 29.4469C5.5061 29.4547 5.49834 29.4624 5.49061 29.4702C5.48288 29.4779 5.47517 29.4856 5.46748 29.4933C5.4598 29.501 5.45214 29.5086 5.4445 29.5163C5.43687 29.5239 5.42926 29.5315 5.42167 29.5391C5.41408 29.5467 5.40652 29.5543 5.39898 29.5618C5.39145 29.5693 5.38393 29.5769 5.37644 29.5843C5.36896 29.5918 5.36149 29.5993 5.35406 29.6067C5.34662 29.6142 5.3392 29.6216 5.33182 29.629C5.32443 29.6364 5.31706 29.6437 5.30972 29.6511C5.30239 29.6584 5.29507 29.6657 5.28778 29.673C5.2805 29.6803 5.27323 29.6876 5.266 29.6948C5.25876 29.702 5.25154 29.7092 5.24436 29.7164C5.23717 29.7236 5.23001 29.7308 5.22287 29.7379C5.21573 29.7451 5.20862 29.7522 5.20154 29.7592C5.19445 29.7663 5.18739 29.7734 5.18036 29.7804C5.17332 29.7875 5.16632 29.7945 5.15933 29.8015C5.15235 29.8084 5.14539 29.8154 5.13846 29.8223C5.13153 29.8293 5.12462 29.8362 5.11774 29.843C5.11086 29.8499 5.10401 29.8568 5.09718 29.8636C5.09035 29.8704 5.08355 29.8772 5.07678 29.884C5.07 29.8908 5.06325 29.8975 5.05653 29.9043C5.04981 29.911 5.04311 29.9177 5.03644 29.9243C5.02977 29.931 5.02312 29.9377 5.0165 29.9443C5.00989 29.9509 5.00329 29.9575 4.99673 29.9641C4.99016 29.9706 4.98363 29.9772 4.97711 29.9837C4.9706 29.9902 4.96412 29.9967 4.95766 30.0031C4.9512 30.0096 4.94477 30.016 4.93836 30.0224C4.93196 30.0288 4.92558 30.0352 4.91923 30.0416C4.91287 30.0479 4.90655 30.0542 4.90025 30.0605C4.89395 30.0668 4.88768 30.0731 4.88144 30.0793C4.8752 30.0856 4.86898 30.0918 4.86279 30.098C4.8566 30.1042 4.85044 30.1103 4.84431 30.1165C4.83817 30.1226 4.83206 30.1287 4.82598 30.1348C4.8199 30.1409 4.81385 30.1469 4.80782 30.153C4.8018 30.159 4.7958 30.165 4.78983 30.171C4.78386 30.1769 4.77792 30.1829 4.772 30.1888C4.76609 30.1947 4.7602 30.2006 4.75434 30.2064C4.74848 30.2123 4.74265 30.2181 4.73685 30.2239C4.73104 30.2297 4.72527 30.2355 4.71952 30.2413C4.71377 30.247 4.70805 30.2527 4.70236 30.2584C4.69667 30.2641 4.691 30.2698 4.68537 30.2754C4.67973 30.2811 4.67412 30.2867 4.66854 30.2922C4.66297 30.2978 4.65741 30.3034 4.65189 30.3089C4.64637 30.3144 4.64087 30.3199 4.63541 30.3254C4.62994 30.3308 4.62451 30.3363 4.6191 30.3417C4.61369 30.3471 4.60831 30.3525 4.60296 30.3578C4.5976 30.3632 4.59228 30.3685 4.58699 30.3738C4.58169 30.3791 4.57643 30.3844 4.57119 30.3896C4.56595 30.3948 4.56074 30.4 4.55557 30.4052C4.55039 30.4104 4.54524 30.4155 4.54012 30.4207C4.53499 30.4258 4.5299 30.4309 4.52484 30.4359C4.51978 30.441 4.51474 30.446 4.50974 30.451C4.50473 30.4561 4.49976 30.461 4.49481 30.466C4.48987 30.4709 4.48495 30.4758 4.48006 30.4807C4.47518 30.4856 4.47032 30.4905 4.46549 30.4953C4.46066 30.5001 4.45586 30.5049 4.45109 30.5097C4.44633 30.5145 4.44159 30.5192 4.43688 30.5239C4.43217 30.5286 4.42749 30.5333 4.42284 30.5379C4.41819 30.5426 4.41357 30.5472 4.40898 30.5518C4.40439 30.5564 4.39982 30.561 4.39529 30.5655C4.39076 30.57 4.38626 30.5745 4.38179 30.579C4.37732 30.5835 4.37288 30.5879 4.36847 30.5923C4.36406 30.5967 4.35968 30.6011 4.35533 30.6055C4.35098 30.6098 4.34666 30.6141 4.34237 30.6184C4.33808 30.6227 4.33383 30.627 4.3296 30.6312C4.32537 30.6354 4.32117 30.6396 4.31701 30.6438C4.31284 30.6479 4.3087 30.6521 4.3046 30.6562C4.30049 30.6603 4.29642 30.6644 4.29237 30.6684C4.28833 30.6725 4.28431 30.6765 4.28033 30.6805C4.27635 30.6844 4.2724 30.6884 4.26848 30.6923C4.26456 30.6962 4.26067 30.7001 4.25681 30.704C4.25295 30.7078 4.24912 30.7117 4.24533 30.7155C4.24153 30.7193 4.23776 30.723 4.23403 30.7268C4.2303 30.7305 4.22659 30.7342 4.22292 30.7379C4.21925 30.7415 4.21561 30.7452 4.212 30.7488C4.20839 30.7524 4.20482 30.756 4.20127 30.7595C4.19773 30.7631 4.19421 30.7666 4.19073 30.7701C4.18725 30.7735 4.1838 30.777 4.18038 30.7804C4.17696 30.7838 4.17357 30.7872 4.17022 30.7906C4.16686 30.7939 4.16354 30.7972 4.16025 30.8005C4.15696 30.8038 4.1537 30.8071 4.15047 30.8103C4.14724 30.8135 4.14405 30.8167 4.14088 30.8199C4.13772 30.8231 4.13459 30.8262 4.13149 30.8293C4.12839 30.8324 4.12532 30.8355 4.12229 30.8385C4.11926 30.8415 4.11625 30.8445 4.11329 30.8475C4.11032 30.8505 4.10738 30.8534 4.10447 30.8563C4.10157 30.8592 4.0987 30.8621 4.09586 30.8649C4.09302 30.8678 4.09021 30.8706 4.08744 30.8733C4.08467 30.8761 4.08192 30.8789 4.07922 30.8816C4.07651 30.8843 4.07383 30.887 4.07119 30.8896C4.06855 30.8922 4.06594 30.8948 4.06336 30.8974C4.06078 30.9 4.05824 30.9025 4.05573 30.9051C4.05322 30.9076 4.05074 30.91 4.0483 30.9125C4.04585 30.9149 4.04344 30.9173 4.04106 30.9197C4.03869 30.9221 4.03634 30.9244 4.03403 30.9268C4.03172 30.9291 4.02944 30.9313 4.0272 30.9336C4.02495 30.9358 4.02274 30.938 4.02057 30.9402C4.01839 30.9424 4.01625 30.9445 4.01414 30.9466C4.01203 30.9488 4.00995 30.9508 4.00791 30.9529C4.00587 30.9549 4.00386 30.9569 4.00189 30.9589C3.99991 30.9609 3.99797 30.9628 3.99606 30.9647C3.99416 30.9666 3.99228 30.9685 3.99045 30.9703C3.98861 30.9722 3.9868 30.974 3.98503 30.9758C3.98326 30.9775 3.98153 30.9793 3.97983 30.981C3.97812 30.9827 3.97646 30.9843 3.97482 30.986C3.97319 30.9876 3.97159 30.9892 3.97003 30.9908C3.96846 30.9923 3.96693 30.9939 3.96544 30.9953C3.96394 30.9968 3.96248 30.9983 3.96106 30.9997C3.95963 31.0012 3.95824 31.0025 3.95688 31.0039C3.95553 31.0053 3.95421 31.0066 3.95292 31.0079C3.95163 31.0092 3.95038 31.0104 3.94916 31.0116C3.94795 31.0128 3.94676 31.014 3.94562 31.0152C3.94447 31.0163 3.94336 31.0174 3.94228 31.0185C3.94121 31.0196 3.94016 31.0206 3.93916 31.0216C3.93815 31.0226 3.93718 31.0236 3.93625 31.0245C3.93531 31.0255 3.93441 31.0264 3.93354 31.0272C3.93268 31.0281 3.93185 31.0289 3.93106 31.0297C3.93026 31.0305 3.9295 31.0313 3.92878 31.032C3.92806 31.0327 3.92737 31.0334 3.92672 31.0341C3.92607 31.0347 3.92545 31.0353 3.92487 31.0359C3.92429 31.0365 3.92375 31.037 3.92324 31.0375C3.92273 31.0381 3.92226 31.0385 3.92183 31.039C3.92139 31.0394 3.92099 31.0398 3.92063 31.0402C3.92026 31.0405 3.91994 31.0409 3.91964 31.0411C3.91935 31.0414 3.9191 31.0417 3.91888 31.0419C3.91866 31.0421 3.91848 31.0423 3.91833 31.0425C3.91819 31.0426 3.91808 31.0427 3.918 31.0428C3.91793 31.0429 3.91789 31.0429 4.625 31.75C5.33211 32.4571 5.33214 32.4571 5.33222 32.457C5.33229 32.4569 5.3324 32.4568 5.33255 32.4567C5.33269 32.4565 5.33287 32.4563 5.33309 32.4561C5.33331 32.4559 5.33357 32.4556 5.33386 32.4554C5.33415 32.4551 5.33448 32.4547 5.33484 32.4544C5.3352 32.454 5.3356 32.4536 5.33604 32.4532C5.33648 32.4527 5.33695 32.4523 5.33746 32.4518C5.33796 32.4513 5.33851 32.4507 5.33909 32.4501C5.33967 32.4495 5.34028 32.4489 5.34093 32.4483C5.34159 32.4476 5.34227 32.4469 5.343 32.4462C5.34372 32.4455 5.34448 32.4447 5.34527 32.4439C5.34606 32.4431 5.34689 32.4423 5.34776 32.4415C5.34862 32.4406 5.34952 32.4397 5.35046 32.4388C5.35139 32.4378 5.35237 32.4368 5.35337 32.4358C5.35438 32.4348 5.35542 32.4338 5.3565 32.4327C5.35757 32.4316 5.35868 32.4305 5.35983 32.4294C5.36098 32.4282 5.36216 32.4271 5.36338 32.4258C5.36459 32.4246 5.36585 32.4234 5.36713 32.4221C5.36842 32.4208 5.36974 32.4195 5.3711 32.4181C5.37245 32.4168 5.37385 32.4154 5.37527 32.4139C5.3767 32.4125 5.37816 32.4111 5.37965 32.4096C5.38115 32.4081 5.38268 32.4065 5.38424 32.405C5.38581 32.4034 5.3874 32.4018 5.38904 32.4002C5.39067 32.3985 5.39234 32.3969 5.39404 32.3952C5.39574 32.3935 5.39748 32.3917 5.39925 32.39C5.40102 32.3882 5.40282 32.3864 5.40466 32.3846C5.4065 32.3827 5.40837 32.3808 5.41028 32.3789C5.41218 32.377 5.41412 32.3751 5.4161 32.3731C5.41807 32.3711 5.42008 32.3691 5.42212 32.3671C5.42417 32.365 5.42624 32.363 5.42835 32.3609C5.43046 32.3588 5.4326 32.3566 5.43478 32.3544C5.43696 32.3523 5.43917 32.35 5.44141 32.3478C5.44366 32.3456 5.44593 32.3433 5.44824 32.341C5.45056 32.3387 5.4529 32.3363 5.45528 32.3339C5.45766 32.3316 5.46007 32.3291 5.46251 32.3267C5.46495 32.3243 5.46743 32.3218 5.46994 32.3193C5.47245 32.3168 5.475 32.3142 5.47757 32.3116C5.48015 32.3091 5.48276 32.3065 5.4854 32.3038C5.48805 32.3012 5.49072 32.2985 5.49343 32.2958C5.49614 32.2931 5.49888 32.2903 5.50165 32.2876C5.50443 32.2848 5.50723 32.282 5.51007 32.2791C5.51291 32.2763 5.51578 32.2734 5.51869 32.2705C5.52159 32.2676 5.52453 32.2647 5.5275 32.2617C5.53047 32.2587 5.53347 32.2557 5.5365 32.2527C5.53954 32.2497 5.54261 32.2466 5.5457 32.2435C5.5488 32.2404 5.55193 32.2373 5.5551 32.2341C5.55826 32.231 5.56146 32.2278 5.56468 32.2245C5.56791 32.2213 5.57117 32.218 5.57446 32.2148C5.57775 32.2115 5.58108 32.2081 5.58443 32.2048C5.58779 32.2014 5.59117 32.198 5.59459 32.1946C5.59801 32.1912 5.60146 32.1878 5.60494 32.1843C5.60843 32.1808 5.61194 32.1773 5.61548 32.1737C5.61903 32.1702 5.62261 32.1666 5.62622 32.163C5.62982 32.1594 5.63346 32.1558 5.63714 32.1521C5.64081 32.1484 5.64451 32.1447 5.64824 32.141C5.65198 32.1372 5.65574 32.1335 5.65954 32.1297C5.66334 32.1259 5.66716 32.1221 5.67102 32.1182C5.67488 32.1143 5.67877 32.1104 5.68269 32.1065C5.68661 32.1026 5.69056 32.0987 5.69455 32.0947C5.69853 32.0907 5.70254 32.0867 5.70659 32.0826C5.71063 32.0786 5.7147 32.0745 5.71881 32.0704C5.72292 32.0663 5.72705 32.0622 5.73122 32.058C5.73539 32.0538 5.73958 32.0496 5.74381 32.0454C5.74804 32.0412 5.7523 32.0369 5.75659 32.0326C5.76088 32.0283 5.7652 32.024 5.76955 32.0197C5.7739 32.0153 5.77827 32.0109 5.78269 32.0065C5.7871 32.0021 5.79154 31.9977 5.79601 31.9932C5.80048 31.9887 5.80498 31.9842 5.80951 31.9797C5.81404 31.9752 5.8186 31.9706 5.82319 31.966C5.82778 31.9614 5.8324 31.9568 5.83705 31.9522C5.8417 31.9475 5.84638 31.9428 5.85109 31.9381C5.8558 31.9334 5.86054 31.9287 5.86531 31.9239C5.87008 31.9191 5.87488 31.9143 5.8797 31.9095C5.88453 31.9047 5.88939 31.8998 5.89428 31.8949C5.89916 31.89 5.90408 31.8851 5.90903 31.8802C5.91397 31.8752 5.91895 31.8703 5.92395 31.8653C5.92896 31.8603 5.93399 31.8552 5.93905 31.8502C5.94412 31.8451 5.94921 31.84 5.95433 31.8349C5.95945 31.8298 5.9646 31.8246 5.96978 31.8194C5.97496 31.8143 5.98017 31.809 5.9854 31.8038C5.99064 31.7986 5.99591 31.7933 6.0012 31.788C6.00649 31.7827 6.01182 31.7774 6.01717 31.772C6.02252 31.7667 6.0279 31.7613 6.03331 31.7559C6.03872 31.7505 6.04416 31.7451 6.04962 31.7396C6.05509 31.7341 6.06058 31.7286 6.06611 31.7231C6.07163 31.7176 6.07718 31.712 6.08276 31.7065C6.08834 31.7009 6.09395 31.6953 6.09958 31.6896C6.10522 31.684 6.11088 31.6783 6.11657 31.6726C6.12226 31.6669 6.12798 31.6612 6.13373 31.6555C6.13948 31.6497 6.14526 31.644 6.15106 31.6382C6.15686 31.6323 6.1627 31.6265 6.16856 31.6207C6.17442 31.6148 6.1803 31.6089 6.18622 31.603C6.19213 31.5971 6.19808 31.5911 6.20405 31.5852C6.21002 31.5792 6.21601 31.5732 6.22204 31.5672C6.22806 31.5611 6.23412 31.5551 6.2402 31.549C6.24628 31.5429 6.25238 31.5368 6.25852 31.5307C6.26465 31.5246 6.27082 31.5184 6.277 31.5122C6.28319 31.506 6.28941 31.4998 6.29565 31.4936C6.3019 31.4873 6.30817 31.481 6.31447 31.4747C6.32076 31.4684 6.32709 31.4621 6.33344 31.4558C6.33979 31.4494 6.34617 31.443 6.35257 31.4366C6.35898 31.4302 6.36541 31.4238 6.37187 31.4173C6.37833 31.4109 6.38481 31.4044 6.39133 31.3979C6.39784 31.3914 6.40438 31.3848 6.41094 31.3783C6.41751 31.3717 6.4241 31.3651 6.43072 31.3585C6.43734 31.3519 6.44398 31.3452 6.45065 31.3386C6.45732 31.3319 6.46402 31.3252 6.47074 31.3185C6.47747 31.3117 6.48421 31.305 6.49099 31.2982C6.49777 31.2914 6.50457 31.2846 6.5114 31.2778C6.51822 31.271 6.52508 31.2641 6.53196 31.2573C6.53884 31.2504 6.54574 31.2435 6.55267 31.2365C6.55961 31.2296 6.56656 31.2227 6.57355 31.2157C6.58053 31.2087 6.58754 31.2017 6.59457 31.1946C6.60161 31.1876 6.60867 31.1805 6.61575 31.1735C6.62284 31.1664 6.62995 31.1593 6.63708 31.1521C6.64422 31.145 6.65138 31.1378 6.65857 31.1306C6.66576 31.1235 6.67297 31.1162 6.68021 31.109C6.68745 31.1018 6.69471 31.0945 6.702 31.0872C6.70929 31.0799 6.7166 31.0726 6.72394 31.0653C6.73128 31.0579 6.73864 31.0506 6.74603 31.0432C6.75342 31.0358 6.76083 31.0284 6.76827 31.0209C6.77571 31.0135 6.78317 31.006 6.79066 30.9986C6.79815 30.9911 6.80566 30.9836 6.8132 30.976C6.82073 30.9685 6.8283 30.9609 6.83588 30.9533C6.84347 30.9457 6.85108 30.9381 6.85872 30.9305C6.86635 30.9229 6.87401 30.9152 6.8817 30.9075C6.88938 30.8998 6.89709 30.8921 6.90482 30.8844C6.91256 30.8767 6.92031 30.8689 6.92809 30.8611C6.93588 30.8533 6.94368 30.8455 6.95151 30.8377C6.95934 30.8299 6.96719 30.822 6.97507 30.8141C6.98295 30.8063 6.99085 30.7984 6.99878 30.7904C7.0067 30.7825 7.01465 30.7746 7.02263 30.7666C7.0306 30.7586 7.0386 30.7506 7.04662 30.7426C7.05464 30.7346 7.06268 30.7265 7.07075 30.7185C7.07882 30.7104 7.08691 30.7023 7.09503 30.6942C7.10314 30.6861 7.11128 30.6779 7.11944 30.6698C7.1276 30.6616 7.13579 30.6534 7.144 30.6452C7.15221 30.637 7.16044 30.6288 7.16869 30.6205C7.17695 30.6123 7.18523 30.604 7.19353 30.5957C7.20183 30.5874 7.21016 30.5791 7.2185 30.5707C7.22685 30.5624 7.23522 30.554 7.24362 30.5456C7.25201 30.5372 7.26043 30.5288 7.26887 30.5203C7.27731 30.5119 7.28577 30.5034 7.29425 30.495C7.30274 30.4865 7.31124 30.478 7.31978 30.4694C7.32831 30.4609 7.33686 30.4524 7.34543 30.4438C7.35401 30.4352 7.36261 30.4266 7.37123 30.418C7.37985 30.4094 7.38849 30.4007 7.39716 30.3921C7.40582 30.3834 7.41451 30.3747 7.42322 30.366C7.43193 30.3573 7.44066 30.3486 7.44941 30.3398C7.45817 30.331 7.46694 30.3223 7.47574 30.3135C7.48454 30.3047 7.49336 30.2959 7.5022 30.287C7.51104 30.2782 7.51991 30.2693 7.52879 30.2604C7.53768 30.2515 7.54659 30.2426 7.55552 30.2337C7.56445 30.2248 7.5734 30.2158 7.58237 30.2068C7.59134 30.1979 7.60034 30.1889 7.60935 30.1799C7.61837 30.1708 7.62741 30.1618 7.63647 30.1527C7.64553 30.1437 7.65461 30.1346 7.66371 30.1255C7.67281 30.1164 7.68193 30.1073 7.69108 30.0981C7.70022 30.089 7.70939 30.0798 7.71858 30.0706C7.72776 30.0615 7.73697 30.0522 7.7462 30.043C7.75543 30.0338 7.76468 30.0245 7.77395 30.0153C7.78322 30.006 7.79251 29.9967 7.80183 29.9874C7.81114 29.9781 7.82047 29.9687 7.82983 29.9594C7.83918 29.95 7.84856 29.9407 7.85795 29.9313C7.86735 29.9219 7.87677 29.9124 7.8862 29.903C7.89564 29.8936 7.9051 29.8841 7.91458 29.8746C7.92406 29.8652 7.93356 29.8557 7.94308 29.8461C7.95259 29.8366 7.96213 29.8271 7.97169 29.8175C7.98125 29.808 7.99083 29.7984 8.00044 29.7888C8.01004 29.7792 8.01966 29.7696 8.0293 29.7599C8.03894 29.7503 8.0486 29.7406 8.05828 29.7309C8.06796 29.7213 8.07766 29.7116 8.08738 29.7018C8.0971 29.6921 8.10684 29.6824 8.1166 29.6726C8.12636 29.6628 8.13614 29.6531 8.14594 29.6433C8.15574 29.6335 8.16556 29.6237 8.1754 29.6138C8.18524 29.604 8.1951 29.5941 8.20498 29.5842C8.21486 29.5744 8.22476 29.5645 8.23467 29.5545C8.24459 29.5446 8.25453 29.5347 8.26448 29.5247C8.27444 29.5148 8.28441 29.5048 8.29441 29.4948C8.3044 29.4848 8.31442 29.4748 8.32445 29.4648C8.33448 29.4547 8.34453 29.4447 8.3546 29.4346C8.36468 29.4245 8.37477 29.4144 8.38487 29.4043C8.39498 29.3942 8.40511 29.3841 8.41526 29.374C8.42541 29.3638 8.43557 29.3536 8.44575 29.3435C8.45594 29.3333 8.46614 29.3231 8.47636 29.3128C8.48659 29.3026 8.49683 29.2924 8.50708 29.2821C8.51734 29.2719 8.52762 29.2616 8.53792 29.2513C8.54821 29.241 8.55853 29.2307 8.56886 29.2204C8.57919 29.21 8.58954 29.1997 8.59991 29.1893C8.61028 29.1789 8.62067 29.1685 8.63107 29.1581C8.64148 29.1477 8.6519 29.1373 8.66234 29.1269C8.67279 29.1164 8.68325 29.106 8.69372 29.0955C8.7042 29.085 8.7147 29.0745 8.72521 29.064C8.73572 29.0535 8.74626 29.043 8.7568 29.0324C8.76735 29.0219 8.77792 29.0113 8.78851 29.0007C8.79909 28.9901 8.80969 28.9795 8.82031 28.9689C8.83093 28.9583 8.84157 28.9476 8.85222 28.937C8.86288 28.9263 8.87355 28.9157 8.88424 28.905C8.89493 28.8943 8.90564 28.8836 8.91636 28.8729C8.92709 28.8621 8.93783 28.8514 8.94859 28.8406C8.95934 28.8299 8.97012 28.8191 8.98091 28.8083C8.99171 28.7975 9.00252 28.7867 9.01334 28.7759C9.02417 28.765 9.03502 28.7542 9.04588 28.7433C9.05674 28.7325 9.06761 28.7216 9.07851 28.7107C9.0894 28.6998 9.10032 28.6889 9.11124 28.678C9.12217 28.667 9.13312 28.6561 9.14408 28.6451C9.15504 28.6342 9.16602 28.6232 9.17701 28.6122C9.18801 28.6012 9.19902 28.5902 9.21004 28.5792C9.22107 28.5681 9.23212 28.5571 9.24318 28.546C9.25424 28.535 9.26531 28.5239 9.2764 28.5128C9.2875 28.5017 9.29861 28.4906 9.30973 28.4795C9.32086 28.4684 9.332 28.4572 9.34315 28.4461C9.35431 28.4349 9.36548 28.4237 9.37667 28.4125C9.38786 28.4014 9.39907 28.3901 9.41029 28.3789C9.42151 28.3677 9.43274 28.3565 9.444 28.3452C9.45525 28.334 9.46652 28.3227 9.4778 28.3114C9.48908 28.3001 9.50038 28.2888 9.5117 28.2775C9.52301 28.2662 9.53434 28.2549 9.54569 28.2435C9.55703 28.2322 9.56839 28.2208 9.57977 28.2094C9.59115 28.1981 9.60254 28.1867 9.61394 28.1753C9.62535 28.1639 9.63677 28.1524 9.64821 28.141C9.65965 28.1296 9.6711 28.1181 9.68257 28.1066C9.69404 28.0952 9.70552 28.0837 9.71701 28.0722C9.72851 28.0607 9.74002 28.0492 9.75155 28.0377C9.76308 28.0261 9.77462 28.0146 9.78618 28.003C9.79773 27.9915 9.80931 27.9799 9.82089 27.9683C9.83248 27.9567 9.84408 27.9451 9.85569 27.9335C9.86731 27.9219 9.87894 27.9103 9.89058 27.8986C9.90223 27.887 9.91389 27.8753 9.92556 27.8637C9.93723 27.852 9.94892 27.8403 9.96062 27.8286C9.97233 27.8169 9.98404 27.8052 9.99577 27.7934C10.0075 27.7817 10.0192 27.77 10.031 27.7582C10.0428 27.7465 10.0545 27.7347 10.0663 27.7229C10.0781 27.7111 10.0899 27.6993 10.1017 27.6875C10.1135 27.6757 10.1254 27.6638 10.1372 27.652C10.149 27.6402 10.1609 27.6283 10.1728 27.6164C10.1846 27.6046 10.1965 27.5927 10.2084 27.5808C10.2203 27.5689 10.2322 27.557 10.2442 27.5451C10.2561 27.5331 10.268 27.5212 10.28 27.5092C10.2919 27.4973 10.3039 27.4853 10.3159 27.4734C10.3278 27.4614 10.3398 27.4494 10.3518 27.4374C10.3638 27.4254 10.3759 27.4134 10.3879 27.4013C10.3999 27.3893 10.412 27.3773 10.424 27.3652C10.4361 27.3531 10.4481 27.3411 10.4602 27.329C10.4723 27.3169 10.4844 27.3048 10.4965 27.2927C10.5086 27.2806 10.5207 27.2685 10.5329 27.2564C10.545 27.2442 10.5571 27.2321 10.5693 27.2199C10.5815 27.2078 10.5936 27.1956 10.6058 27.1834C10.618 27.1712 10.6302 27.159 10.6424 27.1468C10.6546 27.1346 10.6668 27.1224 10.6791 27.1101C10.6913 27.0979 10.7035 27.0857 10.7158 27.0734C10.7281 27.0612 10.7403 27.0489 10.7526 27.0366C10.7649 27.0243 10.7772 27.012 10.7895 26.9997C10.8018 26.9874 10.8141 26.9751 10.8264 26.9628C10.8388 26.9504 10.8511 26.9381 10.8635 26.9257C10.8758 26.9134 10.8882 26.901 10.9006 26.8886C10.913 26.8763 10.9253 26.8639 10.9377 26.8515C10.9501 26.8391 10.9626 26.8267 10.975 26.8142C10.9874 26.8018 10.9998 26.7894 11.0123 26.7769C11.0247 26.7645 11.0372 26.752 11.0497 26.7396C11.0621 26.7271 11.0746 26.7146 11.0871 26.7021C11.0996 26.6896 11.1121 26.6771 11.1246 26.6646C11.1371 26.6521 11.1497 26.6396 11.1622 26.627C11.1747 26.6145 11.1873 26.6019 11.1998 26.5894C11.2124 26.5768 11.225 26.5642 11.2375 26.5517C11.2501 26.5391 11.2627 26.5265 11.2753 26.5139C11.2879 26.5013 11.3005 26.4887 11.3132 26.4761C11.3258 26.4634 11.3384 26.4508 11.3511 26.4381C11.3637 26.4255 11.3764 26.4128 11.389 26.4002C11.4017 26.3875 11.4144 26.3748 11.4271 26.3622C11.4397 26.3495 11.4524 26.3368 11.4652 26.3241C11.4779 26.3114 11.4906 26.2986 11.5033 26.2859C11.516 26.2732 11.5288 26.2604 11.5415 26.2477C11.5543 26.2349 11.567 26.2222 11.5798 26.2094C11.5926 26.1966 11.6053 26.1839 11.6181 26.1711C11.6309 26.1583 11.6437 26.1455 11.6565 26.1327C11.6693 26.1199 11.6822 26.1071 11.695 26.0942C11.7078 26.0814 11.7206 26.0686 11.7335 26.0557C11.7463 26.0429 11.7592 26.03 11.7721 26.0172C11.7849 26.0043 11.7978 25.9914 11.8107 25.9785C11.8236 25.9656 11.8365 25.9527 11.8494 25.9398C11.8623 25.9269 11.8752 25.914 11.8881 25.9011C11.901 25.8882 11.914 25.8753 11.9269 25.8623C11.9398 25.8494 11.9528 25.8364 11.9657 25.8235C11.9787 25.8105 11.9917 25.7975 12.0046 25.7846C12.0176 25.7716 12.0306 25.7586 12.0436 25.7456C12.0566 25.7326 12.0696 25.7196 12.0826 25.7066C12.0956 25.6936 12.1086 25.6806 12.1217 25.6675C12.1347 25.6545 12.1477 25.6415 12.1608 25.6284C12.1738 25.6154 12.1869 25.6023 12.1999 25.5893C12.213 25.5762 12.2261 25.5631 12.2392 25.5501C12.2522 25.537 12.2653 25.5239 12.2784 25.5108C12.2915 25.4977 12.3046 25.4846 12.3177 25.4715C12.3309 25.4584 12.344 25.4452 12.3571 25.4321C12.3702 25.419 12.3834 25.4058 12.3965 25.3927C12.4097 25.3796 12.4228 25.3664 12.436 25.3532C12.4491 25.3401 12.4623 25.3269 12.4755 25.3137C12.4887 25.3006 12.5018 25.2874 12.515 25.2742C12.5282 25.261 12.5414 25.2478 12.5546 25.2346C12.5678 25.2214 12.581 25.2082 12.5943 25.1949C12.6075 25.1817 12.6207 25.1685 12.634 25.1553C12.6472 25.142 12.6604 25.1288 12.6737 25.1155C12.6869 25.1023 12.7002 25.089 12.7135 25.0758C12.7267 25.0625 12.74 25.0492 12.7533 25.0359C12.7666 25.0227 12.7798 25.0094 12.7931 24.9961C12.8064 24.9828 12.8197 24.9695 12.833 24.9562C12.8463 24.9429 12.8597 24.9295 12.873 24.9162C12.8863 24.9029 12.8996 24.8896 12.913 24.8762C12.9263 24.8629 12.9396 24.8496 12.953 24.8362C12.9663 24.8229 12.9797 24.8095 12.9931 24.7962C13.0064 24.7828 13.0198 24.7694 13.0332 24.7561C13.0465 24.7427 13.0599 24.7293 13.0733 24.7159C13.0867 24.7025 13.1001 24.6891 13.1135 24.6757C13.1269 24.6623 13.1403 24.6489 13.1537 24.6355C13.1671 24.6221 13.1805 24.6087 13.1939 24.5953C13.2074 24.5818 13.2208 24.5684 13.2342 24.555C13.2477 24.5415 13.2611 24.5281 13.2746 24.5147C13.288 24.5012 13.3015 24.4878 13.3149 24.4743C13.3284 24.4608 13.3418 24.4474 13.3553 24.4339C13.3688 24.4204 13.3823 24.407 13.3957 24.3935C13.4092 24.38 13.4227 24.3665 13.4362 24.353C13.4497 24.3395 13.4632 24.326 13.4767 24.3125C13.4902 24.299 13.5037 24.2855 13.5172 24.272C13.5307 24.2585 13.5442 24.245 13.5578 24.2314C13.5713 24.2179 13.5848 24.2044 13.5984 24.1909C13.6119 24.1773 13.6254 24.1638 13.639 24.1502C13.6525 24.1367 13.6661 24.1231 13.6796 24.1096C13.6932 24.096 13.7067 24.0825 13.7203 24.0689C13.7339 24.0554 13.7474 24.0418 13.761 24.0282C13.7746 24.0146 13.7881 24.0011 13.8017 23.9875C13.8153 23.9739 13.8289 23.9603 13.8425 23.9467C13.8561 23.9331 13.8697 23.9195 13.8833 23.9059C13.8969 23.8923 13.9105 23.8787 13.9241 23.8651C13.9377 23.8515 13.9513 23.8379 13.9649 23.8243C13.9785 23.8107 13.9922 23.7971 14.0058 23.7834C14.0194 23.7698 14.033 23.7562 14.0467 23.7426C14.0603 23.7289 14.0739 23.7153 14.0876 23.7016C14.1012 23.688 14.1149 23.6744 14.1285 23.6607C14.1422 23.6471 14.1558 23.6334 14.1695 23.6198C14.1831 23.6061 14.1968 23.5924 14.2104 23.5788C14.2241 23.5651 14.2378 23.5515 14.2514 23.5378C14.2651 23.5241 14.2788 23.5104 14.2925 23.4968C14.3061 23.4831 14.3198 23.4694 14.3335 23.4557C14.3472 23.442 14.3609 23.4284 14.3745 23.4147C14.3882 23.401 14.4019 23.3873 14.4156 23.3736C14.4293 23.3599 14.443 23.3462 14.4567 23.3325C14.4704 23.3188 14.4841 23.3051 14.4978 23.2914C14.5115 23.2777 14.5253 23.264 14.539 23.2502C14.5527 23.2365 14.5664 23.2228 14.5801 23.2091C14.5938 23.1954 14.6076 23.1817 14.6213 23.1679C14.635 23.1542 14.6487 23.1405 14.6625 23.1268C14.6762 23.113 14.6899 23.0993 14.7037 23.0856C14.7174 23.0718 14.7311 23.0581 14.7449 23.0443C14.7586 23.0306 14.7723 23.0169 14.7861 23.0031C14.7998 22.9894 14.8136 22.9756 14.8273 22.9619C14.8411 22.9481 14.8548 22.9344 14.8686 22.9206C14.8823 22.9069 14.8961 22.8931 14.9098 22.8794C14.9236 22.8656 14.9374 22.8519 14.9511 22.8381C14.9649 22.8243 14.9786 22.8106 14.9924 22.7968C15.0062 22.7831 15.0199 22.7693 15.0337 22.7555C15.0475 22.7418 15.0612 22.728 15.075 22.7142C15.0888 22.7005 15.1025 22.6867 15.1163 22.6729C15.1301 22.6591 15.1439 22.6454 15.1576 22.6316C15.1714 22.6178 15.1852 22.604 15.199 22.5903C15.2127 22.5765 15.2265 22.5627 15.2403 22.5489C15.2541 22.5351 15.2679 22.5214 15.2816 22.5076C15.2954 22.4938 15.3092 22.48 15.323 22.4662C15.3368 22.4524 15.3506 22.4387 15.3643 22.4249C15.3781 22.4111 15.3919 22.3973 15.4057 22.3835C15.4195 22.3697 15.4333 22.3559 15.4471 22.3421C15.4609 22.3284 15.4746 22.3146 15.4884 22.3008C15.5022 22.287 15.516 22.2732 15.5298 22.2594C15.5436 22.2456 15.5574 22.2318 15.5712 22.218C15.585 22.2042 15.5988 22.1904 15.6126 22.1767C15.6264 22.1629 15.6401 22.1491 15.6539 22.1353C15.6677 22.1215 15.6815 22.1077 15.6953 22.0939C15.7091 22.0801 15.7229 22.0663 15.7367 22.0525C15.7505 22.0387 15.7643 22.0249 15.7781 22.0111C15.7919 21.9973 15.8057 21.9836 15.8195 21.9698C15.8332 21.956 15.847 21.9422 15.8608 21.9284C15.8746 21.9146 15.8884 21.9008 15.9022 21.887C15.916 21.8732 15.9298 21.8594 15.9436 21.8456C15.9574 21.8318 15.9712 21.8181 15.985 21.8043C15.9987 21.7905 16.0125 21.7767 16.0263 21.7629C16.0401 21.7491 16.0539 21.7353 16.0677 21.7215C16.0815 21.7077 16.0953 21.694 16.109 21.6802C16.1228 21.6664 16.1366 21.6526 16.1504 21.6388C16.1642 21.625 16.178 21.6113 16.1917 21.5975C16.2055 21.5837 16.2193 21.5699 16.2331 21.5561C16.2469 21.5424 16.2606 21.5286 16.2744 21.5148C16.2882 21.501 16.302 21.4873 16.3157 21.4735C16.3295 21.4597 16.3433 21.4459 16.357 21.4322C16.3708 21.4184 16.3846 21.4046 16.3984 21.3909C16.4121 21.3771 16.4259 21.3633 16.4397 21.3496C16.4534 21.3358 16.4672 21.322 16.4809 21.3083C16.4947 21.2945 16.5085 21.2808 16.5222 21.267C16.536 21.2532 16.5497 21.2395 16.5635 21.2257C16.5772 21.212 16.591 21.1982 16.6047 21.1845C16.6185 21.1707 16.6322 21.157 16.646 21.1432C16.6597 21.1295 16.6735 21.1158 16.6872 21.102C16.7009 21.0883 16.7147 21.0745 16.7284 21.0608C16.7422 21.0471 16.7559 21.0333 16.7696 21.0196C16.7833 21.0059 16.7971 20.9921 16.8108 20.9784C16.8245 20.9647 16.8383 20.951 16.852 20.9372C16.8657 20.9235 16.8794 20.9098 16.8931 20.8961C16.9068 20.8824 16.9206 20.8687 16.9343 20.8549C16.948 20.8412 16.9617 20.8275 16.9754 20.8138C16.9891 20.8001 17.0028 20.7864 17.0165 20.7727C17.0302 20.759 17.0439 20.7453 17.0576 20.7316C17.0713 20.7179 17.085 20.7043 17.0986 20.6906C17.1123 20.6769 17.126 20.6632 17.1397 20.6495C17.1534 20.6358 17.167 20.6222 17.1807 20.6085C17.1944 20.5948 17.2081 20.5812 17.2217 20.5675C17.2354 20.5538 17.249 20.5402 17.2627 20.5265C17.2764 20.5129 17.29 20.4992 17.3037 20.4855C17.3173 20.4719 17.331 20.4583 17.3446 20.4446C17.3582 20.431 17.3719 20.4173 17.3855 20.4037C17.3992 20.3901 17.4128 20.3764 17.4264 20.3628C17.44 20.3492 17.4537 20.3355 17.4673 20.3219C17.4809 20.3083 17.4945 20.2947 17.5081 20.2811C17.5217 20.2675 17.5354 20.2539 17.549 20.2403C17.5626 20.2267 17.5762 20.2131 17.5897 20.1995C17.6033 20.1859 17.6169 20.1723 17.6305 20.1587C17.6441 20.1451 17.6577 20.1315 17.6713 20.118C17.6848 20.1044 17.6984 20.0908 17.712 20.0772C17.7255 20.0637 17.7391 20.0501 17.7527 20.0366C17.7662 20.023 17.7798 20.0095 17.7933 19.9959C17.8069 19.9824 17.8204 19.9688 17.8339 19.9553C17.8475 19.9417 17.861 19.9282 17.8745 19.9147C17.8881 19.9012 17.9016 19.8876 17.9151 19.8741C17.9286 19.8606 17.9421 19.8471 17.9556 19.8336C17.9691 19.8201 17.9826 19.8066 17.9961 19.7931C18.0096 19.7796 18.0231 19.7661 18.0366 19.7526C18.0501 19.7391 18.0636 19.7256 18.077 19.7122C18.0905 19.6987 18.104 19.6852 18.1175 19.6718C18.1309 19.6583 18.1444 19.6448 18.1578 19.6314C18.1713 19.6179 18.1847 19.6045 18.1982 19.5911C18.2116 19.5776 18.225 19.5642 18.2385 19.5508C18.2519 19.5373 18.2653 19.5239 18.2787 19.5105C18.2921 19.4971 18.3056 19.4837 18.319 19.4703C18.3324 19.4569 18.3458 19.4435 18.3591 19.4301C18.3725 19.4167 18.3859 19.4033 18.3993 19.3899C18.4127 19.3765 18.4261 19.3632 18.4394 19.3498C18.4528 19.3364 18.4661 19.3231 18.4795 19.3097C18.4928 19.2964 18.5062 19.283 18.5195 19.2697C18.5329 19.2563 18.5462 19.243 18.5595 19.2297C18.5729 19.2164 18.5862 19.203 18.5995 19.1897C18.6128 19.1764 18.6261 19.1631 18.6394 19.1498C18.6527 19.1365 18.666 19.1232 18.6793 19.1099C18.6926 19.0966 18.7058 19.0834 18.7191 19.0701C18.7324 19.0568 18.7457 19.0436 18.7589 19.0303C18.7722 19.017 18.7854 19.0038 18.7987 18.9906C18.8119 18.9773 18.8251 18.9641 18.8384 18.9509C18.8516 18.9376 18.8648 18.9244 18.878 18.9112C18.8912 18.898 18.9044 18.8848 18.9176 18.8716C18.9308 18.8584 18.944 18.8452 18.9572 18.832C18.9704 18.8188 18.9836 18.8057 18.9967 18.7925C19.0099 18.7793 19.023 18.7662 19.0362 18.753C19.0493 18.7399 19.0625 18.7267 19.0756 18.7136C19.0888 18.7005 19.1019 18.6873 19.115 18.6742C19.1281 18.6611 19.1412 18.648 19.1543 18.6349C19.1674 18.6218 19.1805 18.6087 19.1936 18.5956C19.2067 18.5825 19.2198 18.5694 19.2328 18.5564C19.2459 18.5433 19.259 18.5302 19.272 18.5172C19.2851 18.5041 19.2981 18.4911 19.3112 18.4781C19.3242 18.465 19.3372 18.452 19.3502 18.439C19.3633 18.426 19.3763 18.4129 19.3893 18.3999C19.4023 18.3869 19.4153 18.374 19.4282 18.361C19.4412 18.348 19.4542 18.335 19.4672 18.3221C19.4801 18.3091 19.4931 18.2961 19.506 18.2832C19.519 18.2702 19.5319 18.2573 19.5448 18.2444C19.5578 18.2314 19.5707 18.2185 19.5836 18.2056C19.5965 18.1927 19.6094 18.1798 19.6223 18.1669C19.6352 18.154 19.6481 18.1411 19.6609 18.1283C19.6738 18.1154 19.6867 18.1025 19.6995 18.0897C19.7124 18.0768 19.7252 18.064 19.7381 18.0511C19.7509 18.0383 19.7637 18.0255 19.7765 18.0127C19.7894 17.9999 19.8022 17.987 19.815 17.9743C19.8278 17.9615 19.8405 17.9487 19.8533 17.9359C19.8661 17.9231 19.8789 17.9104 19.8916 17.8976C19.9044 17.8848 19.9171 17.8721 19.9298 17.8594C19.9426 17.8466 19.9553 17.8339 19.968 17.8212C19.9807 17.8085 19.9934 17.7958 20.0061 17.7831C20.0188 17.7704 20.0315 17.7577 20.0442 17.745C20.0569 17.7323 20.0695 17.7197 20.0822 17.707C20.0948 17.6944 20.1075 17.6817 20.1201 17.6691C20.1327 17.6565 20.1454 17.6439 20.158 17.6312C20.1706 17.6186 20.1832 17.606 20.1958 17.5934C20.2084 17.5809 20.2209 17.5683 20.2335 17.5557C20.2461 17.5431 20.2586 17.5306 20.2712 17.518C20.2837 17.5055 20.2962 17.493 20.3088 17.4804C20.3213 17.4679 20.3338 17.4554 20.3463 17.4429C20.3588 17.4304 20.3713 17.4179 20.3838 17.4054C20.3963 17.393 20.4087 17.3805 20.4212 17.368C20.4336 17.3556 20.4461 17.3431 20.4585 17.3307C20.4709 17.3183 20.4834 17.3059 20.4958 17.2934C20.5082 17.281 20.5206 17.2686 20.533 17.2563C20.5453 17.2439 20.5577 17.2315 20.5701 17.2191C20.5824 17.2068 20.5948 17.1944 20.6071 17.1821C20.6195 17.1697 20.6318 17.1574 20.6441 17.1451C20.6564 17.1328 20.6687 17.1205 20.681 17.1082C20.6933 17.0959 20.7056 17.0836 20.7179 17.0714C20.7301 17.0591 20.7424 17.0468 20.7546 17.0346C20.7669 17.0223 20.7791 17.0101 20.7913 16.9979C20.8035 16.9857 20.8157 16.9735 20.8279 16.9613C20.8401 16.9491 20.8523 16.9369 20.8645 16.9247C20.8766 16.9126 20.8888 16.9004 20.9009 16.8883C20.9131 16.8761 20.9252 16.864 20.9373 16.8519C20.9494 16.8398 20.9615 16.8277 20.9736 16.8156C20.9857 16.8035 20.9978 16.7914 21.0099 16.7793C21.0219 16.7673 21.034 16.7552 21.046 16.7432C21.0581 16.7311 21.0701 16.7191 21.0821 16.7071L19.6679 15.2929ZM3.91789 32.4571L19.6679 48.2071L21.0821 46.7929L5.33211 31.0429L3.91789 32.4571Z" fill="#4D4D4D"/>
<path d="M99.9179 46.7929C99.5274 47.1834 99.5274 47.8166 99.9179 48.2071C100.308 48.5976 100.942 48.5976 101.332 48.2071L99.9179 46.7929ZM116.375 31.75L117.082 32.4571C117.473 32.0666 117.473 31.4334 117.082 31.0429L116.375 31.75ZM101.332 15.2929C100.942 14.9024 100.308 14.9024 99.9179 15.2929C99.5274 15.6834 99.5274 16.3166 99.9179 16.7071L101.332 15.2929ZM101.332 48.2071C101.344 48.1951 101.356 48.1831 101.368 48.171C101.38 48.159 101.392 48.1469 101.404 48.1349C101.416 48.1228 101.428 48.1107 101.441 48.0986C101.453 48.0865 101.465 48.0744 101.477 48.0623C101.489 48.0502 101.501 48.0381 101.513 48.0259C101.525 48.0138 101.538 48.0016 101.55 47.9895C101.562 47.9773 101.574 47.9651 101.586 47.9529C101.598 47.9407 101.611 47.9285 101.623 47.9163C101.635 47.9041 101.647 47.8919 101.66 47.8796C101.672 47.8674 101.684 47.8551 101.696 47.8429C101.709 47.8306 101.721 47.8183 101.733 47.806C101.745 47.7937 101.758 47.7814 101.77 47.7691C101.782 47.7568 101.795 47.7445 101.807 47.7321C101.819 47.7198 101.832 47.7074 101.844 47.6951C101.856 47.6827 101.869 47.6703 101.881 47.658C101.894 47.6456 101.906 47.6332 101.918 47.6208C101.931 47.6084 101.943 47.5959 101.956 47.5835C101.968 47.5711 101.981 47.5586 101.993 47.5462C102.005 47.5337 102.018 47.5213 102.03 47.5088C102.043 47.4963 102.055 47.4838 102.068 47.4713C102.08 47.4588 102.093 47.4463 102.105 47.4338C102.118 47.4212 102.13 47.4087 102.143 47.3962C102.156 47.3836 102.168 47.3711 102.181 47.3585C102.193 47.3459 102.206 47.3334 102.218 47.3208C102.231 47.3082 102.244 47.2956 102.256 47.283C102.269 47.2704 102.281 47.2577 102.294 47.2451C102.307 47.2325 102.319 47.2198 102.332 47.2072C102.345 47.1945 102.357 47.1819 102.37 47.1692C102.383 47.1565 102.395 47.1438 102.408 47.1311C102.421 47.1184 102.433 47.1057 102.446 47.093C102.459 47.0803 102.472 47.0676 102.484 47.0548C102.497 47.0421 102.51 47.0294 102.523 47.0166C102.535 47.0039 102.548 46.9911 102.561 46.9783C102.574 46.9655 102.586 46.9528 102.599 46.94C102.612 46.9272 102.625 46.9144 102.638 46.9015C102.65 46.8887 102.663 46.8759 102.676 46.8631C102.689 46.8502 102.702 46.8374 102.715 46.8245C102.728 46.8117 102.74 46.7988 102.753 46.7859C102.766 46.7731 102.779 46.7602 102.792 46.7473C102.805 46.7344 102.818 46.7215 102.831 46.7086C102.844 46.6957 102.856 46.6828 102.869 46.6698C102.882 46.6569 102.895 46.644 102.908 46.631C102.921 46.6181 102.934 46.6051 102.947 46.5922C102.96 46.5792 102.973 46.5662 102.986 46.5532C102.999 46.5403 103.012 46.5273 103.025 46.5143C103.038 46.5013 103.051 46.4883 103.064 46.4752C103.077 46.4622 103.09 46.4492 103.103 46.4362C103.116 46.4231 103.129 46.4101 103.142 46.397C103.155 46.384 103.168 46.3709 103.181 46.3578C103.194 46.3448 103.208 46.3317 103.221 46.3186C103.234 46.3055 103.247 46.2924 103.26 46.2793C103.273 46.2662 103.286 46.2531 103.299 46.24C103.312 46.2269 103.325 46.2138 103.339 46.2006C103.352 46.1875 103.365 46.1743 103.378 46.1612C103.391 46.148 103.404 46.1349 103.417 46.1217C103.431 46.1086 103.444 46.0954 103.457 46.0822C103.47 46.069 103.483 46.0558 103.497 46.0426C103.51 46.0294 103.523 46.0162 103.536 46.003C103.549 45.9898 103.563 45.9766 103.576 45.9634C103.589 45.9501 103.602 45.9369 103.616 45.9237C103.629 45.9104 103.642 45.8972 103.655 45.8839C103.669 45.8707 103.682 45.8574 103.695 45.8441C103.708 45.8308 103.722 45.8176 103.735 45.8043C103.748 45.791 103.762 45.7777 103.775 45.7644C103.788 45.7511 103.801 45.7378 103.815 45.7245C103.828 45.7112 103.841 45.6979 103.855 45.6845C103.868 45.6712 103.881 45.6579 103.895 45.6445C103.908 45.6312 103.921 45.6178 103.935 45.6045C103.948 45.5911 103.961 45.5778 103.975 45.5644C103.988 45.5511 104.002 45.5377 104.015 45.5243C104.028 45.5109 104.042 45.4975 104.055 45.4841C104.068 45.4708 104.082 45.4574 104.095 45.444C104.109 45.4306 104.122 45.4171 104.135 45.4037C104.149 45.3903 104.162 45.3769 104.176 45.3635C104.189 45.35 104.203 45.3366 104.216 45.3232C104.229 45.3097 104.243 45.2963 104.256 45.2828C104.27 45.2694 104.283 45.2559 104.297 45.2425C104.31 45.229 104.324 45.2155 104.337 45.202C104.351 45.1886 104.364 45.1751 104.378 45.1616C104.391 45.1481 104.405 45.1346 104.418 45.1211C104.432 45.1076 104.445 45.0941 104.459 45.0806C104.472 45.0671 104.486 45.0536 104.499 45.0401C104.513 45.0266 104.526 45.0131 104.54 44.9995C104.553 44.986 104.567 44.9725 104.58 44.9589C104.594 44.9454 104.607 44.9319 104.621 44.9183C104.634 44.9048 104.648 44.8912 104.662 44.8777C104.675 44.8641 104.689 44.8505 104.702 44.837C104.716 44.8234 104.729 44.8098 104.743 44.7963C104.757 44.7827 104.77 44.7691 104.784 44.7555C104.797 44.7419 104.811 44.7283 104.824 44.7147C104.838 44.7012 104.852 44.6876 104.865 44.674C104.879 44.6604 104.892 44.6467 104.906 44.6331C104.92 44.6195 104.933 44.6059 104.947 44.5923C104.961 44.5787 104.974 44.565 104.988 44.5514C105.001 44.5378 105.015 44.5242 105.029 44.5105C105.042 44.4969 105.056 44.4832 105.07 44.4696C105.083 44.456 105.097 44.4423 105.111 44.4287C105.124 44.415 105.138 44.4014 105.152 44.3877C105.165 44.374 105.179 44.3604 105.192 44.3467C105.206 44.3331 105.22 44.3194 105.234 44.3057C105.247 44.292 105.261 44.2784 105.275 44.2647C105.288 44.251 105.302 44.2373 105.316 44.2236C105.329 44.21 105.343 44.1963 105.357 44.1826C105.37 44.1689 105.384 44.1552 105.398 44.1415C105.411 44.1278 105.425 44.1141 105.439 44.1004C105.453 44.0867 105.466 44.073 105.48 44.0593C105.494 44.0456 105.507 44.0318 105.521 44.0181C105.535 44.0044 105.549 43.9907 105.562 43.977C105.576 43.9633 105.59 43.9495 105.603 43.9358C105.617 43.9221 105.631 43.9083 105.645 43.8946C105.658 43.8809 105.672 43.8672 105.686 43.8534C105.7 43.8397 105.713 43.8259 105.727 43.8122C105.741 43.7985 105.754 43.7847 105.768 43.771C105.782 43.7572 105.796 43.7435 105.809 43.7297C105.823 43.716 105.837 43.7022 105.851 43.6885C105.864 43.6747 105.878 43.661 105.892 43.6472C105.906 43.6335 105.92 43.6197 105.933 43.6059C105.947 43.5922 105.961 43.5784 105.975 43.5647C105.988 43.5509 106.002 43.5371 106.016 43.5234C106.03 43.5096 106.043 43.4958 106.057 43.482C106.071 43.4683 106.085 43.4545 106.098 43.4407C106.112 43.427 106.126 43.4132 106.14 43.3994C106.154 43.3856 106.167 43.3719 106.181 43.3581C106.195 43.3443 106.209 43.3305 106.222 43.3167C106.236 43.303 106.25 43.2892 106.264 43.2754C106.278 43.2616 106.291 43.2478 106.305 43.234C106.319 43.2203 106.333 43.2065 106.347 43.1927C106.36 43.1789 106.374 43.1651 106.388 43.1513C106.402 43.1375 106.415 43.1237 106.429 43.11C106.443 43.0962 106.457 43.0824 106.471 43.0686C106.484 43.0548 106.498 43.041 106.512 43.0272C106.526 43.0134 106.54 42.9996 106.553 42.9858C106.567 42.972 106.581 42.9582 106.595 42.9445C106.609 42.9307 106.622 42.9169 106.636 42.9031C106.65 42.8893 106.664 42.8755 106.678 42.8617C106.691 42.8479 106.705 42.8341 106.719 42.8203C106.733 42.8065 106.746 42.7927 106.76 42.7789C106.774 42.7651 106.788 42.7514 106.802 42.7376C106.815 42.7238 106.829 42.71 106.843 42.6962C106.857 42.6824 106.871 42.6686 106.884 42.6548C106.898 42.641 106.912 42.6272 106.926 42.6134C106.94 42.5996 106.953 42.5859 106.967 42.5721C106.981 42.5583 106.995 42.5445 107.009 42.5307C107.022 42.5169 107.036 42.5031 107.05 42.4893C107.064 42.4756 107.077 42.4618 107.091 42.448C107.105 42.4342 107.119 42.4204 107.133 42.4066C107.146 42.3929 107.16 42.3791 107.174 42.3653C107.188 42.3515 107.201 42.3377 107.215 42.324C107.229 42.3102 107.243 42.2964 107.257 42.2826C107.27 42.2689 107.284 42.2551 107.298 42.2413C107.312 42.2275 107.325 42.2138 107.339 42.2C107.353 42.1862 107.367 42.1725 107.381 42.1587C107.394 42.1449 107.408 42.1312 107.422 42.1174C107.436 42.1036 107.449 42.0899 107.463 42.0761C107.477 42.0624 107.491 42.0486 107.504 42.0348C107.518 42.0211 107.532 42.0073 107.546 41.9936C107.559 41.9798 107.573 41.9661 107.587 41.9523C107.601 41.9386 107.614 41.9248 107.628 41.9111C107.642 41.8973 107.656 41.8836 107.669 41.8699C107.683 41.8561 107.697 41.8424 107.711 41.8287C107.724 41.8149 107.738 41.8012 107.752 41.7875C107.765 41.7737 107.779 41.76 107.793 41.7463C107.807 41.7326 107.82 41.7188 107.834 41.7051C107.848 41.6914 107.862 41.6777 107.875 41.664C107.889 41.6503 107.903 41.6365 107.916 41.6228C107.93 41.6091 107.944 41.5954 107.957 41.5817C107.971 41.568 107.985 41.5543 107.999 41.5406C108.012 41.5269 108.026 41.5132 108.04 41.4995C108.053 41.4859 108.067 41.4722 108.081 41.4585C108.094 41.4448 108.108 41.4311 108.122 41.4175C108.135 41.4038 108.149 41.3901 108.163 41.3764C108.176 41.3628 108.19 41.3491 108.204 41.3354C108.217 41.3218 108.231 41.3081 108.245 41.2945C108.258 41.2808 108.272 41.2672 108.286 41.2535C108.299 41.2399 108.313 41.2262 108.327 41.2126C108.34 41.1989 108.354 41.1853 108.368 41.1717C108.381 41.158 108.395 41.1444 108.408 41.1308C108.422 41.1172 108.436 41.1035 108.449 41.0899C108.463 41.0763 108.477 41.0627 108.49 41.0491C108.504 41.0355 108.517 41.0219 108.531 41.0083C108.545 40.9947 108.558 40.9811 108.572 40.9675C108.585 40.9539 108.599 40.9403 108.612 40.9267C108.626 40.9131 108.64 40.8996 108.653 40.886C108.667 40.8724 108.68 40.8589 108.694 40.8453C108.707 40.8317 108.721 40.8182 108.735 40.8046C108.748 40.7911 108.762 40.7775 108.775 40.764C108.789 40.7504 108.802 40.7369 108.816 40.7234C108.829 40.7098 108.843 40.6963 108.856 40.6828C108.87 40.6692 108.883 40.6557 108.897 40.6422C108.911 40.6287 108.924 40.6152 108.938 40.6017C108.951 40.5882 108.965 40.5747 108.978 40.5612C108.992 40.5477 109.005 40.5342 109.018 40.5207C109.032 40.5073 109.045 40.4938 109.059 40.4803C109.072 40.4668 109.086 40.4534 109.099 40.4399C109.113 40.4265 109.126 40.413 109.14 40.3996C109.153 40.3861 109.167 40.3727 109.18 40.3592C109.193 40.3458 109.207 40.3324 109.22 40.3189C109.234 40.3055 109.247 40.2921 109.261 40.2787C109.274 40.2653 109.287 40.2519 109.301 40.2385C109.314 40.2251 109.328 40.2117 109.341 40.1983C109.354 40.1849 109.368 40.1715 109.381 40.1582C109.394 40.1448 109.408 40.1314 109.421 40.1181C109.435 40.1047 109.448 40.0913 109.461 40.078C109.475 40.0646 109.488 40.0513 109.501 40.038C109.515 40.0246 109.528 40.0113 109.541 39.998C109.555 39.9847 109.568 39.9713 109.581 39.958C109.594 39.9447 109.608 39.9314 109.621 39.9181C109.634 39.9048 109.648 39.8916 109.661 39.8783C109.674 39.865 109.687 39.8517 109.701 39.8385C109.714 39.8252 109.727 39.8119 109.741 39.7987C109.754 39.7854 109.767 39.7722 109.78 39.759C109.793 39.7457 109.807 39.7325 109.82 39.7193C109.833 39.706 109.846 39.6928 109.86 39.6796C109.873 39.6664 109.886 39.6532 109.899 39.64C109.912 39.6268 109.926 39.6137 109.939 39.6005C109.952 39.5873 109.965 39.5741 109.978 39.561C109.991 39.5478 110.005 39.5347 110.018 39.5215C110.031 39.5084 110.044 39.4952 110.057 39.4821C110.07 39.469 110.083 39.4559 110.096 39.4427C110.11 39.4296 110.123 39.4165 110.136 39.4034C110.149 39.3903 110.162 39.3772 110.175 39.3642C110.188 39.3511 110.201 39.338 110.214 39.3249C110.227 39.3119 110.24 39.2988 110.253 39.2858C110.266 39.2727 110.28 39.2597 110.293 39.2467C110.306 39.2336 110.319 39.2206 110.332 39.2076C110.345 39.1946 110.358 39.1816 110.371 39.1686C110.384 39.1556 110.397 39.1426 110.41 39.1296C110.423 39.1167 110.436 39.1037 110.448 39.0907C110.461 39.0778 110.474 39.0648 110.487 39.0519C110.5 39.039 110.513 39.026 110.526 39.0131C110.539 39.0002 110.552 38.9873 110.565 38.9744C110.578 38.9615 110.591 38.9486 110.604 38.9357C110.616 38.9228 110.629 38.9099 110.642 38.8971C110.655 38.8842 110.668 38.8713 110.681 38.8585C110.694 38.8456 110.706 38.8328 110.719 38.82C110.732 38.8072 110.745 38.7943 110.758 38.7815C110.77 38.7687 110.783 38.7559 110.796 38.7431C110.809 38.7303 110.822 38.7176 110.834 38.7048C110.847 38.692 110.86 38.6793 110.873 38.6665C110.885 38.6538 110.898 38.641 110.911 38.6283C110.924 38.6156 110.936 38.6029 110.949 38.5902C110.962 38.5774 110.974 38.5647 110.987 38.5521C111 38.5394 111.013 38.5267 111.025 38.514C111.038 38.5014 111.051 38.4887 111.063 38.4761C111.076 38.4634 111.088 38.4508 111.101 38.4382C111.114 38.4255 111.126 38.4129 111.139 38.4003C111.151 38.3877 111.164 38.3751 111.177 38.3625C111.189 38.35 111.202 38.3374 111.214 38.3248C111.227 38.3123 111.239 38.2997 111.252 38.2872C111.265 38.2747 111.277 38.2621 111.29 38.2496C111.302 38.2371 111.315 38.2246 111.327 38.2121C111.34 38.1996 111.352 38.1871 111.365 38.1747C111.377 38.1622 111.389 38.1497 111.402 38.1373C111.414 38.1248 111.427 38.1124 111.439 38.1C111.452 38.0876 111.464 38.0751 111.476 38.0627C111.489 38.0503 111.501 38.038 111.514 38.0256C111.526 38.0132 111.538 38.0008 111.551 37.9885C111.563 37.9761 111.575 37.9638 111.588 37.9514C111.6 37.9391 111.612 37.9268 111.625 37.9145C111.637 37.9022 111.649 37.8899 111.662 37.8776C111.674 37.8653 111.686 37.8531 111.698 37.8408C111.711 37.8285 111.723 37.8163 111.735 37.8041C111.747 37.7918 111.76 37.7796 111.772 37.7674C111.784 37.7552 111.796 37.743 111.808 37.7308C111.821 37.7186 111.833 37.7065 111.845 37.6943C111.857 37.6821 111.869 37.67 111.881 37.6579C111.893 37.6457 111.906 37.6336 111.918 37.6215C111.93 37.6094 111.942 37.5973 111.954 37.5852C111.966 37.5731 111.978 37.5611 111.99 37.549C112.002 37.537 112.014 37.5249 112.026 37.5129C112.038 37.5008 112.05 37.4888 112.062 37.4768C112.074 37.4648 112.086 37.4528 112.098 37.4409C112.11 37.4289 112.122 37.4169 112.134 37.405C112.146 37.393 112.158 37.3811 112.17 37.3692C112.182 37.3572 112.194 37.3453 112.206 37.3334C112.218 37.3215 112.23 37.3096 112.241 37.2978C112.253 37.2859 112.265 37.274 112.277 37.2622C112.289 37.2504 112.301 37.2385 112.312 37.2267C112.324 37.2149 112.336 37.2031 112.348 37.1913C112.36 37.1795 112.371 37.1678 112.383 37.156C112.395 37.1442 112.407 37.1325 112.418 37.1208C112.43 37.109 112.442 37.0973 112.454 37.0856C112.465 37.0739 112.477 37.0622 112.489 37.0506C112.5 37.0389 112.512 37.0272 112.524 37.0156C112.535 37.0039 112.547 36.9923 112.559 36.9807C112.57 36.9691 112.582 36.9575 112.593 36.9459C112.605 36.9343 112.616 36.9227 112.628 36.9112C112.64 36.8996 112.651 36.8881 112.663 36.8766C112.674 36.865 112.686 36.8535 112.697 36.842C112.709 36.8305 112.72 36.819 112.732 36.8076C112.743 36.7961 112.755 36.7846 112.766 36.7732C112.777 36.7618 112.789 36.7504 112.8 36.7389C112.812 36.7275 112.823 36.7161 112.834 36.7048C112.846 36.6934 112.857 36.682 112.869 36.6707C112.88 36.6593 112.891 36.648 112.903 36.6367C112.914 36.6254 112.925 36.6141 112.936 36.6028C112.948 36.5915 112.959 36.5802 112.97 36.569C112.981 36.5577 112.993 36.5465 113.004 36.5353C113.015 36.5241 113.026 36.5129 113.038 36.5017C113.049 36.4905 113.06 36.4793 113.071 36.4682C113.082 36.457 113.093 36.4459 113.104 36.4347C113.116 36.4236 113.127 36.4125 113.138 36.4014C113.149 36.3903 113.16 36.3792 113.171 36.3682C113.182 36.3571 113.193 36.3461 113.204 36.335C113.215 36.324 113.226 36.313 113.237 36.302C113.248 36.291 113.259 36.28 113.27 36.2691C113.281 36.2581 113.292 36.2472 113.303 36.2362C113.314 36.2253 113.325 36.2144 113.336 36.2035C113.347 36.1926 113.357 36.1817 113.368 36.1709C113.379 36.16 113.39 36.1492 113.401 36.1383C113.412 36.1275 113.423 36.1167 113.433 36.1059C113.444 36.0951 113.455 36.0843 113.466 36.0736C113.476 36.0628 113.487 36.0521 113.498 36.0414C113.509 36.0306 113.519 36.0199 113.53 36.0092C113.541 35.9986 113.551 35.9879 113.562 35.9772C113.573 35.9666 113.583 35.9559 113.594 35.9453C113.605 35.9347 113.615 35.9241 113.626 35.9135C113.636 35.9029 113.647 35.8924 113.657 35.8818C113.668 35.8713 113.678 35.8607 113.689 35.8502C113.7 35.8397 113.71 35.8292 113.72 35.8187C113.731 35.8082 113.741 35.7978 113.752 35.7873C113.762 35.7769 113.773 35.7665 113.783 35.7561C113.794 35.7457 113.804 35.7353 113.814 35.7249C113.825 35.7145 113.835 35.7042 113.845 35.6939C113.856 35.6835 113.866 35.6732 113.876 35.6629C113.887 35.6526 113.897 35.6423 113.907 35.6321C113.917 35.6218 113.928 35.6116 113.938 35.6014C113.948 35.5911 113.958 35.5809 113.968 35.5708C113.979 35.5606 113.989 35.5504 113.999 35.5403C114.009 35.5301 114.019 35.52 114.029 35.5099C114.039 35.4998 114.05 35.4897 114.06 35.4796C114.07 35.4695 114.08 35.4595 114.09 35.4494C114.1 35.4394 114.11 35.4294 114.12 35.4194C114.13 35.4094 114.14 35.3994 114.15 35.3895C114.16 35.3795 114.17 35.3696 114.18 35.3597C114.189 35.3498 114.199 35.3399 114.209 35.33C114.219 35.3201 114.229 35.3102 114.239 35.3004C114.249 35.2906 114.258 35.2807 114.268 35.2709C114.278 35.2611 114.288 35.2514 114.298 35.2416C114.307 35.2318 114.317 35.2221 114.327 35.2124C114.337 35.2027 114.346 35.193 114.356 35.1833C114.366 35.1736 114.375 35.1639 114.385 35.1543C114.395 35.1447 114.404 35.135 114.414 35.1254C114.423 35.1158 114.433 35.1063 114.443 35.0967C114.452 35.0871 114.462 35.0776 114.471 35.0681C114.481 35.0586 114.49 35.0491 114.5 35.0396C114.509 35.0301 114.519 35.0206 114.528 35.0112C114.537 35.0018 114.547 34.9924 114.556 34.983C114.566 34.9736 114.575 34.9642 114.584 34.9548C114.594 34.9455 114.603 34.9361 114.612 34.9268C114.622 34.9175 114.631 34.9082 114.64 34.899C114.65 34.8897 114.659 34.8804 114.668 34.8712C114.677 34.862 114.686 34.8528 114.696 34.8436C114.705 34.8344 114.714 34.8252 114.723 34.8161C114.732 34.8069 114.741 34.7978 114.751 34.7887C114.76 34.7796 114.769 34.7705 114.778 34.7615C114.787 34.7524 114.796 34.7434 114.805 34.7344C114.814 34.7253 114.823 34.7163 114.832 34.7074C114.841 34.6984 114.85 34.6894 114.859 34.6805C114.868 34.6716 114.877 34.6627 114.885 34.6538C114.894 34.6449 114.903 34.636 114.912 34.6272C114.921 34.6184 114.93 34.6095 114.938 34.6007C114.947 34.5919 114.956 34.5832 114.965 34.5744C114.974 34.5657 114.982 34.5569 114.991 34.5482C115 34.5395 115.008 34.5308 115.017 34.5222C115.026 34.5135 115.034 34.5048 115.043 34.4962C115.052 34.4876 115.06 34.479 115.069 34.4704C115.077 34.4619 115.086 34.4533 115.094 34.4448C115.103 34.4362 115.111 34.4277 115.12 34.4193C115.128 34.4108 115.137 34.4023 115.145 34.3939C115.154 34.3854 115.162 34.377 115.171 34.3686C115.179 34.3602 115.187 34.3519 115.196 34.3435C115.204 34.3352 115.212 34.3268 115.221 34.3185C115.229 34.3102 115.237 34.302 115.246 34.2937C115.254 34.2854 115.262 34.2772 115.27 34.269C115.278 34.2608 115.287 34.2526 115.295 34.2444C115.303 34.2363 115.311 34.2281 115.319 34.22C115.327 34.2119 115.335 34.2038 115.343 34.1958C115.352 34.1877 115.36 34.1796 115.368 34.1716C115.376 34.1636 115.384 34.1556 115.392 34.1476C115.4 34.1397 115.408 34.1317 115.415 34.1238C115.423 34.1159 115.431 34.108 115.439 34.1001C115.447 34.0922 115.455 34.0843 115.463 34.0765C115.471 34.0687 115.478 34.0609 115.486 34.0531C115.494 34.0453 115.502 34.0376 115.509 34.0298C115.517 34.0221 115.525 34.0144 115.533 34.0067C115.54 33.999 115.548 33.9914 115.555 33.9837C115.563 33.9761 115.571 33.9685 115.578 33.9609C115.586 33.9533 115.593 33.9457 115.601 33.9382C115.609 33.9307 115.616 33.9231 115.624 33.9157C115.631 33.9082 115.639 33.9007 115.646 33.8933C115.653 33.8858 115.661 33.8784 115.668 33.871C115.676 33.8636 115.683 33.8563 115.69 33.8489C115.698 33.8416 115.705 33.8343 115.712 33.827C115.72 33.8197 115.727 33.8124 115.734 33.8052C115.741 33.798 115.748 33.7908 115.756 33.7836C115.763 33.7764 115.77 33.7692 115.777 33.7621C115.784 33.7549 115.791 33.7478 115.798 33.7408C115.806 33.7337 115.813 33.7266 115.82 33.7196C115.827 33.7125 115.834 33.7055 115.841 33.6985C115.848 33.6916 115.855 33.6846 115.862 33.6777C115.868 33.6707 115.875 33.6638 115.882 33.657C115.889 33.6501 115.896 33.6432 115.903 33.6364C115.91 33.6296 115.916 33.6228 115.923 33.616C115.93 33.6092 115.937 33.6025 115.943 33.5957C115.95 33.589 115.957 33.5823 115.964 33.5757C115.97 33.569 115.977 33.5623 115.983 33.5557C115.99 33.5491 115.997 33.5425 116.003 33.5359C116.01 33.5294 116.016 33.5228 116.023 33.5163C116.029 33.5098 116.036 33.5033 116.042 33.4969C116.049 33.4904 116.055 33.484 116.062 33.4776C116.068 33.4712 116.074 33.4648 116.081 33.4584C116.087 33.4521 116.093 33.4458 116.1 33.4395C116.106 33.4332 116.112 33.4269 116.119 33.4207C116.125 33.4144 116.131 33.4082 116.137 33.402C116.143 33.3958 116.15 33.3897 116.156 33.3835C116.162 33.3774 116.168 33.3713 116.174 33.3652C116.18 33.3591 116.186 33.3531 116.192 33.347C116.198 33.341 116.204 33.335 116.21 33.329C116.216 33.3231 116.222 33.3171 116.228 33.3112C116.234 33.3053 116.24 33.2994 116.246 33.2936C116.252 33.2877 116.257 33.2819 116.263 33.2761C116.269 33.2703 116.275 33.2645 116.28 33.2587C116.286 33.253 116.292 33.2473 116.298 33.2416C116.303 33.2359 116.309 33.2302 116.315 33.2246C116.32 33.2189 116.326 33.2133 116.331 33.2078C116.337 33.2022 116.343 33.1966 116.348 33.1911C116.354 33.1856 116.359 33.1801 116.365 33.1746C116.37 33.1692 116.375 33.1637 116.381 33.1583C116.386 33.1529 116.392 33.1475 116.397 33.1422C116.402 33.1368 116.408 33.1315 116.413 33.1262C116.418 33.1209 116.424 33.1156 116.429 33.1104C116.434 33.1052 116.439 33.1 116.444 33.0948C116.45 33.0896 116.455 33.0845 116.46 33.0793C116.465 33.0742 116.47 33.0691 116.475 33.0641C116.48 33.059 116.485 33.054 116.49 33.049C116.495 33.0439 116.5 33.039 116.505 33.034C116.51 33.0291 116.515 33.0242 116.52 33.0193C116.525 33.0144 116.53 33.0095 116.535 33.0047C116.539 32.9999 116.544 32.9951 116.549 32.9903C116.554 32.9855 116.558 32.9808 116.563 32.9761C116.568 32.9714 116.573 32.9667 116.577 32.9621C116.582 32.9574 116.586 32.9528 116.591 32.9482C116.596 32.9436 116.6 32.939 116.605 32.9345C116.609 32.93 116.614 32.9255 116.618 32.921C116.623 32.9165 116.627 32.9121 116.632 32.9077C116.636 32.9033 116.64 32.8989 116.645 32.8945C116.649 32.8902 116.653 32.8859 116.658 32.8816C116.662 32.8773 116.666 32.873 116.67 32.8688C116.675 32.8646 116.679 32.8604 116.683 32.8562C116.687 32.8521 116.691 32.8479 116.695 32.8438C116.7 32.8397 116.704 32.8356 116.708 32.8316C116.712 32.8275 116.716 32.8235 116.72 32.8195C116.724 32.8156 116.728 32.8116 116.732 32.8077C116.735 32.8038 116.739 32.7999 116.743 32.796C116.747 32.7922 116.751 32.7883 116.755 32.7845C116.758 32.7807 116.762 32.777 116.766 32.7732C116.77 32.7695 116.773 32.7658 116.777 32.7621C116.781 32.7585 116.784 32.7548 116.788 32.7512C116.792 32.7476 116.795 32.744 116.799 32.7405C116.802 32.7369 116.806 32.7334 116.809 32.7299C116.813 32.7265 116.816 32.723 116.82 32.7196C116.823 32.7162 116.826 32.7128 116.83 32.7094C116.833 32.7061 116.836 32.7028 116.84 32.6995C116.843 32.6962 116.846 32.6929 116.85 32.6897C116.853 32.6865 116.856 32.6833 116.859 32.6801C116.862 32.6769 116.865 32.6738 116.869 32.6707C116.872 32.6676 116.875 32.6645 116.878 32.6615C116.881 32.6585 116.884 32.6555 116.887 32.6525C116.89 32.6495 116.893 32.6466 116.896 32.6437C116.898 32.6408 116.901 32.6379 116.904 32.6351C116.907 32.6322 116.91 32.6294 116.913 32.6267C116.915 32.6239 116.918 32.6211 116.921 32.6184C116.923 32.6157 116.926 32.613 116.929 32.6104C116.931 32.6078 116.934 32.6052 116.937 32.6026C116.939 32.6 116.942 32.5975 116.944 32.5949C116.947 32.5924 116.949 32.59 116.952 32.5875C116.954 32.5851 116.957 32.5827 116.959 32.5803C116.961 32.5779 116.964 32.5756 116.966 32.5732C116.968 32.5709 116.971 32.5687 116.973 32.5664C116.975 32.5642 116.977 32.562 116.979 32.5598C116.982 32.5576 116.984 32.5555 116.986 32.5534C116.988 32.5512 116.99 32.5492 116.992 32.5471C116.994 32.5451 116.996 32.5431 116.998 32.5411C117 32.5391 117.002 32.5372 117.004 32.5353C117.006 32.5334 117.008 32.5315 117.01 32.5297C117.011 32.5278 117.013 32.526 117.015 32.5242C117.017 32.5225 117.018 32.5207 117.02 32.519C117.022 32.5173 117.024 32.5157 117.025 32.514C117.027 32.5124 117.028 32.5108 117.03 32.5092C117.032 32.5077 117.033 32.5061 117.035 32.5047C117.036 32.5032 117.038 32.5017 117.039 32.5003C117.04 32.4988 117.042 32.4975 117.043 32.4961C117.044 32.4947 117.046 32.4934 117.047 32.4921C117.048 32.4908 117.05 32.4896 117.051 32.4884C117.052 32.4872 117.053 32.486 117.054 32.4848C117.056 32.4837 117.057 32.4826 117.058 32.4815C117.059 32.4804 117.06 32.4794 117.061 32.4784C117.062 32.4774 117.063 32.4764 117.064 32.4755C117.065 32.4745 117.066 32.4736 117.066 32.4728C117.067 32.4719 117.068 32.4711 117.069 32.4703C117.07 32.4695 117.07 32.4687 117.071 32.468C117.072 32.4673 117.073 32.4666 117.073 32.4659C117.074 32.4653 117.075 32.4647 117.075 32.4641C117.076 32.4635 117.076 32.463 117.077 32.4625C117.077 32.4619 117.078 32.4615 117.078 32.461C117.079 32.4606 117.079 32.4602 117.079 32.4598C117.08 32.4595 117.08 32.4591 117.08 32.4589C117.081 32.4586 117.081 32.4583 117.081 32.4581C117.081 32.4579 117.082 32.4577 117.082 32.4575C117.082 32.4574 117.082 32.4573 117.082 32.4572C117.082 32.4571 117.082 32.4571 116.375 31.75C115.668 31.0429 115.668 31.0429 115.668 31.043C115.668 31.0431 115.668 31.0432 115.667 31.0433C115.667 31.0435 115.667 31.0437 115.667 31.0439C115.667 31.0441 115.666 31.0444 115.666 31.0446C115.666 31.0449 115.666 31.0453 115.665 31.0456C115.665 31.046 115.664 31.0464 115.664 31.0468C115.664 31.0473 115.663 31.0477 115.663 31.0482C115.662 31.0487 115.661 31.0493 115.661 31.0499C115.66 31.0505 115.66 31.0511 115.659 31.0517C115.658 31.0524 115.658 31.0531 115.657 31.0538C115.656 31.0545 115.656 31.0553 115.655 31.0561C115.654 31.0569 115.653 31.0577 115.652 31.0585C115.651 31.0594 115.65 31.0603 115.65 31.0612C115.649 31.0622 115.648 31.0632 115.647 31.0642C115.646 31.0652 115.645 31.0662 115.644 31.0673C115.642 31.0684 115.641 31.0695 115.64 31.0706C115.639 31.0718 115.638 31.0729 115.637 31.0742C115.635 31.0754 115.634 31.0766 115.633 31.0779C115.632 31.0792 115.63 31.0805 115.629 31.0819C115.628 31.0832 115.626 31.0846 115.625 31.0861C115.623 31.0875 115.622 31.0889 115.62 31.0904C115.619 31.0919 115.617 31.0935 115.616 31.095C115.614 31.0966 115.613 31.0982 115.611 31.0998C115.609 31.1015 115.608 31.1031 115.606 31.1048C115.604 31.1065 115.603 31.1083 115.601 31.11C115.599 31.1118 115.597 31.1136 115.595 31.1154C115.594 31.1173 115.592 31.1192 115.59 31.1211C115.588 31.123 115.586 31.1249 115.584 31.1269C115.582 31.1289 115.58 31.1309 115.578 31.1329C115.576 31.135 115.574 31.137 115.572 31.1391C115.57 31.1412 115.567 31.1434 115.565 31.1456C115.563 31.1477 115.561 31.15 115.559 31.1522C115.556 31.1544 115.554 31.1567 115.552 31.159C115.549 31.1613 115.547 31.1637 115.545 31.1661C115.542 31.1684 115.54 31.1709 115.537 31.1733C115.535 31.1757 115.533 31.1782 115.53 31.1807C115.528 31.1832 115.525 31.1858 115.522 31.1884C115.52 31.1909 115.517 31.1935 115.515 31.1962C115.512 31.1988 115.509 31.2015 115.507 31.2042C115.504 31.2069 115.501 31.2097 115.498 31.2124C115.496 31.2152 115.493 31.218 115.49 31.2209C115.487 31.2237 115.484 31.2266 115.481 31.2295C115.478 31.2324 115.475 31.2353 115.473 31.2383C115.47 31.2413 115.467 31.2443 115.463 31.2473C115.46 31.2503 115.457 31.2534 115.454 31.2565C115.451 31.2596 115.448 31.2627 115.445 31.2659C115.442 31.269 115.439 31.2722 115.435 31.2755C115.432 31.2787 115.429 31.282 115.426 31.2852C115.422 31.2885 115.419 31.2919 115.416 31.2952C115.412 31.2986 115.409 31.302 115.405 31.3054C115.402 31.3088 115.399 31.3122 115.395 31.3157C115.392 31.3192 115.388 31.3227 115.385 31.3263C115.381 31.3298 115.377 31.3334 115.374 31.337C115.37 31.3406 115.367 31.3442 115.363 31.3479C115.359 31.3516 115.355 31.3553 115.352 31.359C115.348 31.3628 115.344 31.3665 115.34 31.3703C115.337 31.3741 115.333 31.3779 115.329 31.3818C115.325 31.3857 115.321 31.3896 115.317 31.3935C115.313 31.3974 115.309 31.4013 115.305 31.4053C115.301 31.4093 115.297 31.4133 115.293 31.4174C115.289 31.4214 115.285 31.4255 115.281 31.4296C115.277 31.4337 115.273 31.4378 115.269 31.442C115.265 31.4462 115.26 31.4504 115.256 31.4546C115.252 31.4588 115.248 31.4631 115.243 31.4674C115.239 31.4717 115.235 31.476 115.23 31.4803C115.226 31.4847 115.222 31.4891 115.217 31.4935C115.213 31.4979 115.208 31.5023 115.204 31.5068C115.2 31.5113 115.195 31.5158 115.19 31.5203C115.186 31.5248 115.181 31.5294 115.177 31.534C115.172 31.5386 115.168 31.5432 115.163 31.5478C115.158 31.5525 115.154 31.5572 115.149 31.5619C115.144 31.5666 115.139 31.5713 115.135 31.5761C115.13 31.5809 115.125 31.5857 115.12 31.5905C115.115 31.5953 115.111 31.6002 115.106 31.6051C115.101 31.61 115.096 31.6149 115.091 31.6198C115.086 31.6248 115.081 31.6297 115.076 31.6347C115.071 31.6397 115.066 31.6448 115.061 31.6498C115.056 31.6549 115.051 31.66 115.046 31.6651C115.041 31.6702 115.035 31.6754 115.03 31.6806C115.025 31.6857 115.02 31.691 115.015 31.6962C115.009 31.7014 115.004 31.7067 114.999 31.712C114.994 31.7173 114.988 31.7226 114.983 31.728C114.977 31.7333 114.972 31.7387 114.967 31.7441C114.961 31.7495 114.956 31.7549 114.95 31.7604C114.945 31.7659 114.939 31.7714 114.934 31.7769C114.928 31.7824 114.923 31.788 114.917 31.7935C114.912 31.7991 114.906 31.8047 114.9 31.8104C114.895 31.816 114.889 31.8217 114.883 31.8274C114.878 31.8331 114.872 31.8388 114.866 31.8445C114.861 31.8503 114.855 31.856 114.849 31.8618C114.843 31.8677 114.837 31.8735 114.831 31.8793C114.826 31.8852 114.82 31.8911 114.814 31.897C114.808 31.9029 114.802 31.9089 114.796 31.9148C114.79 31.9208 114.784 31.9268 114.778 31.9328C114.772 31.9389 114.766 31.9449 114.76 31.951C114.754 31.9571 114.748 31.9632 114.741 31.9693C114.735 31.9754 114.729 31.9816 114.723 31.9878C114.717 31.994 114.711 32.0002 114.704 32.0064C114.698 32.0127 114.692 32.019 114.686 32.0253C114.679 32.0316 114.673 32.0379 114.667 32.0442C114.66 32.0506 114.654 32.057 114.647 32.0634C114.641 32.0698 114.635 32.0762 114.628 32.0827C114.622 32.0891 114.615 32.0956 114.609 32.1021C114.602 32.1086 114.596 32.1152 114.589 32.1217C114.582 32.1283 114.576 32.1349 114.569 32.1415C114.563 32.1481 114.556 32.1548 114.549 32.1614C114.543 32.1681 114.536 32.1748 114.529 32.1815C114.523 32.1883 114.516 32.195 114.509 32.2018C114.502 32.2086 114.495 32.2154 114.489 32.2222C114.482 32.229 114.475 32.2359 114.468 32.2427C114.461 32.2496 114.454 32.2565 114.447 32.2635C114.44 32.2704 114.433 32.2773 114.426 32.2843C114.419 32.2913 114.412 32.2983 114.405 32.3054C114.398 32.3124 114.391 32.3195 114.384 32.3265C114.377 32.3336 114.37 32.3407 114.363 32.3479C114.356 32.355 114.349 32.3622 114.341 32.3694C114.334 32.3765 114.327 32.3838 114.32 32.391C114.313 32.3982 114.305 32.4055 114.298 32.4128C114.291 32.4201 114.283 32.4274 114.276 32.4347C114.269 32.4421 114.261 32.4494 114.254 32.4568C114.247 32.4642 114.239 32.4716 114.232 32.4791C114.224 32.4865 114.217 32.494 114.209 32.5014C114.202 32.5089 114.194 32.5164 114.187 32.524C114.179 32.5315 114.172 32.5391 114.164 32.5467C114.157 32.5543 114.149 32.5619 114.141 32.5695C114.134 32.5771 114.126 32.5848 114.118 32.5925C114.111 32.6002 114.103 32.6079 114.095 32.6156C114.087 32.6233 114.08 32.6311 114.072 32.6389C114.064 32.6467 114.056 32.6545 114.048 32.6623C114.041 32.6701 114.033 32.678 114.025 32.6859C114.017 32.6937 114.009 32.7016 114.001 32.7096C113.993 32.7175 113.985 32.7254 113.977 32.7334C113.969 32.7414 113.961 32.7494 113.953 32.7574C113.945 32.7654 113.937 32.7735 113.929 32.7815C113.921 32.7896 113.913 32.7977 113.905 32.8058C113.897 32.8139 113.889 32.8221 113.881 32.8302C113.872 32.8384 113.864 32.8466 113.856 32.8548C113.848 32.863 113.84 32.8712 113.831 32.8795C113.823 32.8877 113.815 32.896 113.806 32.9043C113.798 32.9126 113.79 32.9209 113.781 32.9293C113.773 32.9376 113.765 32.946 113.756 32.9544C113.748 32.9628 113.74 32.9712 113.731 32.9797C113.723 32.9881 113.714 32.9966 113.706 33.005C113.697 33.0135 113.689 33.022 113.68 33.0306C113.672 33.0391 113.663 33.0476 113.655 33.0562C113.646 33.0648 113.637 33.0734 113.629 33.082C113.62 33.0906 113.612 33.0993 113.603 33.1079C113.594 33.1166 113.585 33.1253 113.577 33.134C113.568 33.1427 113.559 33.1514 113.551 33.1602C113.542 33.169 113.533 33.1777 113.524 33.1865C113.515 33.1953 113.507 33.2041 113.498 33.213C113.489 33.2218 113.48 33.2307 113.471 33.2396C113.462 33.2485 113.453 33.2574 113.444 33.2663C113.436 33.2752 113.427 33.2842 113.418 33.2932C113.409 33.3021 113.4 33.3111 113.391 33.3201C113.382 33.3292 113.373 33.3382 113.364 33.3473C113.354 33.3563 113.345 33.3654 113.336 33.3745C113.327 33.3836 113.318 33.3927 113.309 33.4019C113.3 33.411 113.291 33.4202 113.281 33.4294C113.272 33.4385 113.263 33.4478 113.254 33.457C113.245 33.4662 113.235 33.4755 113.226 33.4847C113.217 33.494 113.207 33.5033 113.198 33.5126C113.189 33.5219 113.18 33.5313 113.17 33.5406C113.161 33.55 113.151 33.5593 113.142 33.5687C113.133 33.5781 113.123 33.5876 113.114 33.597C113.104 33.6064 113.095 33.6159 113.085 33.6254C113.076 33.6348 113.066 33.6443 113.057 33.6539C113.047 33.6634 113.038 33.6729 113.028 33.6825C113.019 33.692 113.009 33.7016 113 33.7112C112.99 33.7208 112.98 33.7304 112.971 33.7401C112.961 33.7497 112.951 33.7594 112.942 33.7691C112.932 33.7787 112.922 33.7884 112.913 33.7982C112.903 33.8079 112.893 33.8176 112.883 33.8274C112.874 33.8372 112.864 33.8469 112.854 33.8567C112.844 33.8665 112.834 33.8763 112.825 33.8862C112.815 33.896 112.805 33.9059 112.795 33.9158C112.785 33.9256 112.775 33.9355 112.765 33.9455C112.755 33.9554 112.745 33.9653 112.736 33.9753C112.726 33.9852 112.716 33.9952 112.706 34.0052C112.696 34.0152 112.686 34.0252 112.676 34.0352C112.666 34.0453 112.655 34.0553 112.645 34.0654C112.635 34.0755 112.625 34.0856 112.615 34.0957C112.605 34.1058 112.595 34.1159 112.585 34.126C112.575 34.1362 112.564 34.1464 112.554 34.1565C112.544 34.1667 112.534 34.1769 112.524 34.1872C112.513 34.1974 112.503 34.2076 112.493 34.2179C112.483 34.2281 112.472 34.2384 112.462 34.2487C112.452 34.259 112.441 34.2693 112.431 34.2796C112.421 34.29 112.41 34.3003 112.4 34.3107C112.39 34.3211 112.379 34.3315 112.369 34.3419C112.359 34.3523 112.348 34.3627 112.338 34.3731C112.327 34.3836 112.317 34.394 112.306 34.4045C112.296 34.415 112.285 34.4255 112.275 34.436C112.264 34.4465 112.254 34.457 112.243 34.4676C112.233 34.4781 112.222 34.4887 112.211 34.4993C112.201 34.5099 112.19 34.5205 112.18 34.5311C112.169 34.5417 112.158 34.5524 112.148 34.563C112.137 34.5737 112.126 34.5843 112.116 34.595C112.105 34.6057 112.094 34.6164 112.084 34.6271C112.073 34.6379 112.062 34.6486 112.051 34.6594C112.041 34.6701 112.03 34.6809 112.019 34.6917C112.008 34.7025 111.997 34.7133 111.987 34.7241C111.976 34.735 111.965 34.7458 111.954 34.7567C111.943 34.7675 111.932 34.7784 111.921 34.7893C111.911 34.8002 111.9 34.8111 111.889 34.822C111.878 34.833 111.867 34.8439 111.856 34.8549C111.845 34.8658 111.834 34.8768 111.823 34.8878C111.812 34.8988 111.801 34.9098 111.79 34.9208C111.779 34.9319 111.768 34.9429 111.757 34.954C111.746 34.965 111.735 34.9761 111.724 34.9872C111.713 34.9983 111.701 35.0094 111.69 35.0205C111.679 35.0316 111.668 35.0428 111.657 35.0539C111.646 35.0651 111.635 35.0763 111.623 35.0875C111.612 35.0986 111.601 35.1099 111.59 35.1211C111.578 35.1323 111.567 35.1435 111.556 35.1548C111.545 35.166 111.533 35.1773 111.522 35.1886C111.511 35.1999 111.5 35.2112 111.488 35.2225C111.477 35.2338 111.466 35.2451 111.454 35.2565C111.443 35.2678 111.432 35.2792 111.42 35.2906C111.409 35.3019 111.397 35.3133 111.386 35.3247C111.375 35.3361 111.363 35.3476 111.352 35.359C111.34 35.3704 111.329 35.3819 111.317 35.3934C111.306 35.4048 111.294 35.4163 111.283 35.4278C111.271 35.4393 111.26 35.4508 111.248 35.4623C111.237 35.4739 111.225 35.4854 111.214 35.497C111.202 35.5085 111.191 35.5201 111.179 35.5317C111.168 35.5433 111.156 35.5549 111.144 35.5665C111.133 35.5781 111.121 35.5897 111.109 35.6014C111.098 35.613 111.086 35.6247 111.074 35.6363C111.063 35.648 111.051 35.6597 111.039 35.6714C111.028 35.6831 111.016 35.6948 111.004 35.7066C110.992 35.7183 110.981 35.73 110.969 35.7418C110.957 35.7535 110.945 35.7653 110.934 35.7771C110.922 35.7889 110.91 35.8007 110.898 35.8125C110.886 35.8243 110.875 35.8362 110.863 35.848C110.851 35.8598 110.839 35.8717 110.827 35.8836C110.815 35.8954 110.803 35.9073 110.792 35.9192C110.78 35.9311 110.768 35.943 110.756 35.9549C110.744 35.9669 110.732 35.9788 110.72 35.9908C110.708 36.0027 110.696 36.0147 110.684 36.0266C110.672 36.0386 110.66 36.0506 110.648 36.0626C110.636 36.0746 110.624 36.0866 110.612 36.0987C110.6 36.1107 110.588 36.1227 110.576 36.1348C110.564 36.1469 110.552 36.1589 110.54 36.171C110.528 36.1831 110.516 36.1952 110.503 36.2073C110.491 36.2194 110.479 36.2315 110.467 36.2436C110.455 36.2558 110.443 36.2679 110.431 36.2801C110.419 36.2922 110.406 36.3044 110.394 36.3166C110.382 36.3288 110.37 36.341 110.358 36.3532C110.345 36.3654 110.333 36.3776 110.321 36.3899C110.309 36.4021 110.296 36.4143 110.284 36.4266C110.272 36.4388 110.26 36.4511 110.247 36.4634C110.235 36.4757 110.223 36.488 110.211 36.5003C110.198 36.5126 110.186 36.5249 110.174 36.5372C110.161 36.5496 110.149 36.5619 110.137 36.5743C110.124 36.5866 110.112 36.599 110.099 36.6114C110.087 36.6237 110.075 36.6361 110.062 36.6485C110.05 36.6609 110.037 36.6733 110.025 36.6858C110.013 36.6982 110 36.7106 109.988 36.7231C109.975 36.7355 109.963 36.748 109.95 36.7604C109.938 36.7729 109.925 36.7854 109.913 36.7979C109.9 36.8104 109.888 36.8229 109.875 36.8354C109.863 36.8479 109.85 36.8604 109.838 36.873C109.825 36.8855 109.813 36.8981 109.8 36.9106C109.788 36.9232 109.775 36.9358 109.762 36.9483C109.75 36.9609 109.737 36.9735 109.725 36.9861C109.712 36.9987 109.699 37.0113 109.687 37.0239C109.674 37.0366 109.662 37.0492 109.649 37.0619C109.636 37.0745 109.624 37.0872 109.611 37.0998C109.598 37.1125 109.586 37.1252 109.573 37.1378C109.56 37.1505 109.548 37.1632 109.535 37.1759C109.522 37.1886 109.509 37.2014 109.497 37.2141C109.484 37.2268 109.471 37.2396 109.458 37.2523C109.446 37.2651 109.433 37.2778 109.42 37.2906C109.407 37.3034 109.395 37.3161 109.382 37.3289C109.369 37.3417 109.356 37.3545 109.343 37.3673C109.331 37.3801 109.318 37.3929 109.305 37.4058C109.292 37.4186 109.279 37.4314 109.267 37.4443C109.254 37.4571 109.241 37.47 109.228 37.4828C109.215 37.4957 109.202 37.5086 109.189 37.5215C109.176 37.5344 109.164 37.5473 109.151 37.5602C109.138 37.5731 109.125 37.586 109.112 37.5989C109.099 37.6118 109.086 37.6247 109.073 37.6377C109.06 37.6506 109.047 37.6636 109.034 37.6765C109.021 37.6895 109.008 37.7025 108.995 37.7154C108.982 37.7284 108.969 37.7414 108.956 37.7544C108.943 37.7674 108.93 37.7804 108.917 37.7934C108.904 37.8064 108.891 37.8194 108.878 37.8325C108.865 37.8455 108.852 37.8585 108.839 37.8716C108.826 37.8846 108.813 37.8977 108.8 37.9107C108.787 37.9238 108.774 37.9369 108.761 37.9499C108.748 37.963 108.735 37.9761 108.722 37.9892C108.708 38.0023 108.695 38.0154 108.682 38.0285C108.669 38.0416 108.656 38.0548 108.643 38.0679C108.63 38.081 108.617 38.0942 108.603 38.1073C108.59 38.1204 108.577 38.1336 108.564 38.1468C108.551 38.1599 108.538 38.1731 108.525 38.1863C108.511 38.1994 108.498 38.2126 108.485 38.2258C108.472 38.239 108.459 38.2522 108.445 38.2654C108.432 38.2786 108.419 38.2918 108.406 38.3051C108.393 38.3183 108.379 38.3315 108.366 38.3447C108.353 38.358 108.34 38.3712 108.326 38.3845C108.313 38.3977 108.3 38.411 108.287 38.4242C108.273 38.4375 108.26 38.4508 108.247 38.4641C108.233 38.4773 108.22 38.4906 108.207 38.5039C108.194 38.5172 108.18 38.5305 108.167 38.5438C108.154 38.5571 108.14 38.5705 108.127 38.5838C108.114 38.5971 108.1 38.6104 108.087 38.6238C108.074 38.6371 108.06 38.6504 108.047 38.6638C108.034 38.6771 108.02 38.6905 108.007 38.7038C107.994 38.7172 107.98 38.7306 107.967 38.7439C107.953 38.7573 107.94 38.7707 107.927 38.7841C107.913 38.7975 107.9 38.8109 107.887 38.8243C107.873 38.8377 107.86 38.8511 107.846 38.8645C107.833 38.8779 107.819 38.8913 107.806 38.9047C107.793 38.9182 107.779 38.9316 107.766 38.945C107.752 38.9585 107.739 38.9719 107.725 38.9853C107.712 38.9988 107.699 39.0122 107.685 39.0257C107.672 39.0392 107.658 39.0526 107.645 39.0661C107.631 39.0796 107.618 39.093 107.604 39.1065C107.591 39.12 107.577 39.1335 107.564 39.147C107.55 39.1605 107.537 39.174 107.523 39.1875C107.51 39.201 107.496 39.2145 107.483 39.228C107.469 39.2415 107.456 39.255 107.442 39.2686C107.429 39.2821 107.415 39.2956 107.402 39.3091C107.388 39.3227 107.375 39.3362 107.361 39.3498C107.347 39.3633 107.334 39.3769 107.32 39.3904C107.307 39.404 107.293 39.4175 107.28 39.4311C107.266 39.4446 107.253 39.4582 107.239 39.4718C107.225 39.4854 107.212 39.4989 107.198 39.5125C107.185 39.5261 107.171 39.5397 107.158 39.5533C107.144 39.5669 107.13 39.5805 107.117 39.5941C107.103 39.6077 107.09 39.6213 107.076 39.6349C107.062 39.6485 107.049 39.6621 107.035 39.6757C107.021 39.6893 107.008 39.7029 106.994 39.7166C106.981 39.7302 106.967 39.7438 106.953 39.7574C106.94 39.7711 106.926 39.7847 106.912 39.7984C106.899 39.812 106.885 39.8256 106.871 39.8393C106.858 39.8529 106.844 39.8666 106.831 39.8802C106.817 39.8939 106.803 39.9076 106.79 39.9212C106.776 39.9349 106.762 39.9485 106.749 39.9622C106.735 39.9759 106.721 39.9896 106.708 40.0032C106.694 40.0169 106.68 40.0306 106.667 40.0443C106.653 40.058 106.639 40.0716 106.625 40.0853C106.612 40.099 106.598 40.1127 106.584 40.1264C106.571 40.1401 106.557 40.1538 106.543 40.1675C106.53 40.1812 106.516 40.1949 106.502 40.2086C106.488 40.2223 106.475 40.236 106.461 40.2498C106.447 40.2635 106.434 40.2772 106.42 40.2909C106.406 40.3046 106.392 40.3183 106.379 40.3321C106.365 40.3458 106.351 40.3595 106.338 40.3732C106.324 40.387 106.31 40.4007 106.296 40.4144C106.283 40.4282 106.269 40.4419 106.255 40.4557C106.241 40.4694 106.228 40.4831 106.214 40.4969C106.2 40.5106 106.186 40.5244 106.173 40.5381C106.159 40.5519 106.145 40.5656 106.131 40.5794C106.118 40.5931 106.104 40.6069 106.09 40.6206C106.076 40.6344 106.063 40.6481 106.049 40.6619C106.035 40.6757 106.021 40.6894 106.008 40.7032C105.994 40.7169 105.98 40.7307 105.966 40.7445C105.953 40.7582 105.939 40.772 105.925 40.7858C105.911 40.7995 105.897 40.8133 105.884 40.8271C105.87 40.8409 105.856 40.8546 105.842 40.8684C105.829 40.8822 105.815 40.896 105.801 40.9097C105.787 40.9235 105.773 40.9373 105.76 40.9511C105.746 40.9649 105.732 40.9786 105.718 40.9924C105.705 41.0062 105.691 41.02 105.677 41.0338C105.663 41.0476 105.649 41.0613 105.636 41.0751C105.622 41.0889 105.608 41.1027 105.594 41.1165C105.581 41.1303 105.567 41.1441 105.553 41.1579C105.539 41.1716 105.525 41.1854 105.512 41.1992C105.498 41.213 105.484 41.2268 105.47 41.2406C105.456 41.2544 105.443 41.2682 105.429 41.282C105.415 41.2958 105.401 41.3096 105.387 41.3233C105.374 41.3371 105.36 41.3509 105.346 41.3647C105.332 41.3785 105.318 41.3923 105.305 41.4061C105.291 41.4199 105.277 41.4337 105.263 41.4475C105.25 41.4613 105.236 41.4751 105.222 41.4889C105.208 41.5027 105.194 41.5164 105.181 41.5302C105.167 41.544 105.153 41.5578 105.139 41.5716C105.125 41.5854 105.112 41.5992 105.098 41.613C105.084 41.6268 105.07 41.6406 105.056 41.6544C105.043 41.6682 105.029 41.6819 105.015 41.6957C105.001 41.7095 104.987 41.7233 104.974 41.7371C104.96 41.7509 104.946 41.7647 104.932 41.7785C104.919 41.7923 104.905 41.806 104.891 41.8198C104.877 41.8336 104.863 41.8474 104.85 41.8612C104.836 41.875 104.822 41.8887 104.808 41.9025C104.794 41.9163 104.781 41.9301 104.767 41.9439C104.753 41.9576 104.739 41.9714 104.726 41.9852C104.712 41.999 104.698 42.0127 104.684 42.0265C104.67 42.0403 104.657 42.0541 104.643 42.0678C104.629 42.0816 104.615 42.0954 104.602 42.1091C104.588 42.1229 104.574 42.1367 104.56 42.1504C104.547 42.1642 104.533 42.178 104.519 42.1917C104.505 42.2055 104.492 42.2192 104.478 42.233C104.464 42.2468 104.45 42.2605 104.437 42.2743C104.423 42.288 104.409 42.3018 104.395 42.3155C104.382 42.3293 104.368 42.343 104.354 42.3568C104.34 42.3705 104.327 42.3842 104.313 42.398C104.299 42.4117 104.285 42.4255 104.272 42.4392C104.258 42.4529 104.244 42.4667 104.23 42.4804C104.217 42.4941 104.203 42.5079 104.189 42.5216C104.175 42.5353 104.162 42.549 104.148 42.5628C104.134 42.5765 104.121 42.5902 104.107 42.6039C104.093 42.6176 104.079 42.6313 104.066 42.6451C104.052 42.6588 104.038 42.6725 104.025 42.6862C104.011 42.6999 103.997 42.7136 103.984 42.7273C103.97 42.741 103.956 42.7547 103.942 42.7684C103.929 42.7821 103.915 42.7957 103.901 42.8094C103.888 42.8231 103.874 42.8368 103.86 42.8505C103.847 42.8642 103.833 42.8778 103.819 42.8915C103.806 42.9052 103.792 42.9188 103.778 42.9325C103.765 42.9462 103.751 42.9598 103.737 42.9735C103.724 42.9871 103.71 43.0008 103.696 43.0145C103.683 43.0281 103.669 43.0417 103.655 43.0554C103.642 43.069 103.628 43.0827 103.614 43.0963C103.601 43.1099 103.587 43.1236 103.574 43.1372C103.56 43.1508 103.546 43.1645 103.533 43.1781C103.519 43.1917 103.505 43.2053 103.492 43.2189C103.478 43.2325 103.465 43.2461 103.451 43.2597C103.437 43.2733 103.424 43.2869 103.41 43.3005C103.397 43.3141 103.383 43.3277 103.369 43.3413C103.356 43.3549 103.342 43.3685 103.329 43.382C103.315 43.3956 103.302 43.4092 103.288 43.4228C103.274 43.4363 103.261 43.4499 103.247 43.4634C103.234 43.477 103.22 43.4905 103.207 43.5041C103.193 43.5176 103.18 43.5312 103.166 43.5447C103.153 43.5583 103.139 43.5718 103.125 43.5853C103.112 43.5988 103.098 43.6124 103.085 43.6259C103.071 43.6394 103.058 43.6529 103.044 43.6664C103.031 43.6799 103.017 43.6934 103.004 43.7069C102.99 43.7204 102.977 43.7339 102.963 43.7474C102.95 43.7609 102.936 43.7744 102.923 43.7878C102.909 43.8013 102.896 43.8148 102.883 43.8282C102.869 43.8417 102.856 43.8552 102.842 43.8686C102.829 43.8821 102.815 43.8955 102.802 43.9089C102.788 43.9224 102.775 43.9358 102.762 43.9492C102.748 43.9627 102.735 43.9761 102.721 43.9895C102.708 44.0029 102.694 44.0163 102.681 44.0297C102.668 44.0431 102.654 44.0565 102.641 44.0699C102.627 44.0833 102.614 44.0967 102.601 44.1101C102.587 44.1235 102.574 44.1368 102.561 44.1502C102.547 44.1636 102.534 44.1769 102.521 44.1903C102.507 44.2036 102.494 44.217 102.48 44.2303C102.467 44.2437 102.454 44.257 102.44 44.2703C102.427 44.2836 102.414 44.297 102.401 44.3103C102.387 44.3236 102.374 44.3369 102.361 44.3502C102.347 44.3635 102.334 44.3768 102.321 44.3901C102.307 44.4034 102.294 44.4166 102.281 44.4299C102.268 44.4432 102.254 44.4564 102.241 44.4697C102.228 44.483 102.215 44.4962 102.201 44.5094C102.188 44.5227 102.175 44.5359 102.162 44.5491C102.148 44.5624 102.135 44.5756 102.122 44.5888C102.109 44.602 102.096 44.6152 102.082 44.6284C102.069 44.6416 102.056 44.6548 102.043 44.668C102.03 44.6812 102.016 44.6943 102.003 44.7075C101.99 44.7207 101.977 44.7338 101.964 44.747C101.951 44.7601 101.938 44.7733 101.924 44.7864C101.911 44.7995 101.898 44.8127 101.885 44.8258C101.872 44.8389 101.859 44.852 101.846 44.8651C101.833 44.8782 101.819 44.8913 101.806 44.9044C101.793 44.9175 101.78 44.9306 101.767 44.9436C101.754 44.9567 101.741 44.9698 101.728 44.9828C101.715 44.9959 101.702 45.0089 101.689 45.0219C101.676 45.035 101.663 45.048 101.65 45.061C101.637 45.074 101.624 45.0871 101.611 45.1001C101.598 45.1131 101.585 45.126 101.572 45.139C101.559 45.152 101.546 45.165 101.533 45.1779C101.52 45.1909 101.507 45.2039 101.494 45.2168C101.481 45.2298 101.468 45.2427 101.455 45.2556C101.442 45.2686 101.429 45.2815 101.416 45.2944C101.403 45.3073 101.391 45.3202 101.378 45.3331C101.365 45.346 101.352 45.3589 101.339 45.3717C101.326 45.3846 101.313 45.3975 101.3 45.4103C101.288 45.4232 101.275 45.436 101.262 45.4489C101.249 45.4617 101.236 45.4745 101.223 45.4873C101.211 45.5001 101.198 45.513 101.185 45.5257C101.172 45.5385 101.159 45.5513 101.147 45.5641C101.134 45.5769 101.121 45.5896 101.108 45.6024C101.096 45.6152 101.083 45.6279 101.07 45.6406C101.057 45.6534 101.045 45.6661 101.032 45.6788C101.019 45.6915 101.007 45.7042 100.994 45.7169C100.981 45.7296 100.968 45.7423 100.956 45.755C100.943 45.7677 100.93 45.7803 100.918 45.793C100.905 45.8056 100.893 45.8183 100.88 45.8309C100.867 45.8435 100.855 45.8561 100.842 45.8688C100.829 45.8814 100.817 45.894 100.804 45.9066C100.792 45.9191 100.779 45.9317 100.766 45.9443C100.754 45.9569 100.741 45.9694 100.729 45.982C100.716 45.9945 100.704 46.007 100.691 46.0196C100.679 46.0321 100.666 46.0446 100.654 46.0571C100.641 46.0696 100.629 46.0821 100.616 46.0946C100.604 46.107 100.591 46.1195 100.579 46.132C100.566 46.1444 100.554 46.1569 100.541 46.1693C100.529 46.1817 100.517 46.1941 100.504 46.2066C100.492 46.219 100.479 46.2314 100.467 46.2437C100.455 46.2561 100.442 46.2685 100.43 46.2809C100.418 46.2932 100.405 46.3056 100.393 46.3179C100.381 46.3303 100.368 46.3426 100.356 46.3549C100.344 46.3672 100.331 46.3795 100.319 46.3918C100.307 46.4041 100.294 46.4164 100.282 46.4286C100.27 46.4409 100.258 46.4532 100.245 46.4654C100.233 46.4777 100.221 46.4899 100.209 46.5021C100.196 46.5143 100.184 46.5265 100.172 46.5387C100.16 46.5509 100.148 46.5631 100.136 46.5753C100.123 46.5874 100.111 46.5996 100.099 46.6117C100.087 46.6239 100.075 46.636 100.063 46.6481C100.051 46.6602 100.038 46.6723 100.026 46.6844C100.014 46.6965 100.002 46.7086 99.9901 46.7207C99.9781 46.7327 99.966 46.7448 99.954 46.7568C99.9419 46.7689 99.9299 46.7809 99.9179 46.7929L101.332 48.2071ZM117.082 31.0429L101.332 15.2929L99.9179 16.7071L115.668 32.4571L117.082 31.0429Z" fill="#4D4D4D"/>
</svg>
