<svg width="70" height="70" viewBox="0 0 70 70" fill="none" xmlns="http://www.w3.org/2000/svg">
<g clip-path="url(#clip0)">
<path d="M29.0598 12.3808H28.0598V13.2946L28.9699 13.3768L29.0598 12.3808ZM0 57.7256H-1V58.7256H0V57.7256ZM0 49.4622V48.4622H-1V49.4622H0ZM29.0598 20.7489L29.2032 19.7593L28.0598 19.5935V20.7489H29.0598ZM29.0598 26.7356L28.4197 27.5039L30.0598 28.8704V26.7356H29.0598ZM16.6646 16.4084L16.0244 15.6402L15.1025 16.4085L16.0245 17.1767L16.6646 16.4084ZM29.0598 6.0791H30.0598V3.94406L28.4196 5.31088L29.0598 6.0791ZM50.0294 49.4605L50.0293 48.4605L49.4762 48.4605L49.1822 48.9291L50.0294 49.4605ZM58.2268 49.4602L58.2268 50.4602L59.2268 50.4602V49.4602H58.2268ZM41.875 57.7257L41.3335 56.8851L38.4761 58.7257H41.875V57.7257ZM58.2268 57.7257H59.2268V56.7257H58.2268V57.7257ZM58.2268 63.9213H57.2268V66.3444L58.9357 64.6265L58.2268 63.9213ZM68.5 53.594L69.209 54.2993L69.9105 53.5941L69.209 52.8888L68.5 53.594ZM58.2268 43.2647L58.9358 42.5595L57.2268 40.8412V43.2647H58.2268ZM18.5425 45.0997V46.0997H21.1108L19.2188 44.363L18.5425 45.0997ZM8.46004 45.0997L7.58246 45.5791L7.86685 46.0997H8.46004V45.0997ZM13.6696 19.3497L14.2861 18.5623L13.6536 18.0671L13.0336 18.5779L13.6696 19.3497ZM20.1615 24.4324L20.7262 25.2577L21.8529 24.4867L20.778 23.645L20.1615 24.4324ZM50.7184 35.0011C50.7184 22.6255 41.2402 12.4759 29.1496 11.3848L28.9699 13.3768C40.0407 14.3758 48.7184 23.6714 48.7184 35.0011H50.7184ZM27.1601 58.7256C42.1225 58.7256 50.7184 45.8946 50.7184 35.0011H48.7184C48.7184 45.0357 40.7874 56.7256 27.1601 56.7256V58.7256ZM0 58.7256H27.1601V56.7256H0V58.7256ZM-1 49.4622V57.7256H1V49.4622H-1ZM26.9939 48.4622H0V50.4622H26.9939V48.4622ZM40.4549 35.0011C40.4549 42.4218 34.4146 48.4622 26.9939 48.4622V50.4622C35.5192 50.4622 42.4549 43.5264 42.4549 35.0011H40.4549ZM28.9163 21.7386C35.4286 22.6826 40.4549 28.247 40.4549 35.0011H42.4549C42.4549 27.2241 36.6699 20.8417 29.2032 19.7593L28.9163 21.7386ZM30.0598 26.7356V20.7489H28.0598V26.7356H30.0598ZM16.0245 17.1767L28.4197 27.5039L29.6999 25.9674L17.3047 15.6401L16.0245 17.1767ZM28.4196 5.31088L16.0244 15.6402L17.3048 17.1766L29.7 6.84732L28.4196 5.31088ZM30.0598 12.3808V6.0791H28.0598V12.3808H30.0598ZM50.0294 50.4605L58.2268 50.4602L58.2267 48.4602L50.0293 48.4605L50.0294 50.4605ZM42.4165 58.5664C45.8167 56.3761 48.708 53.4488 50.8765 49.9919L49.1822 48.9291C47.1688 52.1388 44.4857 54.8544 41.3335 56.8851L42.4165 58.5664ZM58.2268 56.7257H41.875V58.7257H58.2268V56.7257ZM59.2268 63.9213V57.7257H57.2268V63.9213H59.2268ZM67.791 52.8888L57.5178 63.216L58.9357 64.6265L69.209 54.2993L67.791 52.8888ZM57.5177 43.9699L67.791 54.2992L69.209 52.8888L58.9358 42.5595L57.5177 43.9699ZM59.2268 49.4602V43.2647H57.2268V49.4602H59.2268ZM19.2188 44.363C16.7156 42.0654 15.1699 38.8921 15.1699 35.3939H13.1699C13.1699 39.5029 14.9894 43.1957 17.8663 45.8364L19.2188 44.363ZM8.46004 46.0997H18.5425V44.0997H8.46004V46.0997ZM4.90649 35.3939C4.90649 39.088 5.91675 42.5301 7.58246 45.5791L9.33761 44.6202C7.81336 41.8302 6.90649 38.7151 6.90649 35.3939H4.90649ZM13.0336 18.5779C8.07569 22.6635 4.90649 28.6661 4.90649 35.3939H6.90649C6.90649 29.318 9.76492 23.8631 14.3055 20.1214L13.0336 18.5779ZM20.778 23.645L14.2861 18.5623L13.0531 20.1371L19.545 25.2198L20.778 23.645ZM15.1699 35.3939C15.1699 31.2496 17.3529 27.566 20.7262 25.2577L19.5968 23.6071C15.7432 26.2441 13.1699 30.5149 13.1699 35.3939H15.1699Z" fill="#4D4D4D"/>
</g>
<defs>
<clipPath id="clip0">
<rect width="70" height="70" fill="white"/>
</clipPath>
</defs>
</svg>
