<svg width="70" height="70" viewBox="0 0 70 70" fill="none" xmlns="http://www.w3.org/2000/svg">
<mask id="path-1-inside-1" fill="white">
<path fill-rule="evenodd" clip-rule="evenodd" d="M0 11.1631C0 5.26758 4.96975 0.538086 11 0.538086H31C37.0301 0.538086 42 5.26757 42 11.1631V27.4131H40V15.1215H2V53.3715H32.625V55.3715H2V57.9132C2 62.6327 6.00157 66.5381 11 66.5381H17.875V68.5381H11C4.96976 68.5381 0 63.8086 0 57.9132V11.1631ZM40 11.1631V13.1215H2V11.1631C2 6.44351 6.00158 2.53809 11 2.53809H31C35.9983 2.53809 40 6.44352 40 11.1631ZM13.8875 8.07977C13.8875 7.52749 14.3352 7.07977 14.8875 7.07977H24.8875C25.4397 7.07977 25.8875 7.52749 25.8875 8.07977C25.8875 8.63206 25.4397 9.07977 24.8875 9.07977H14.8875C14.3352 9.07977 13.8875 8.63206 13.8875 8.07977ZM29.3749 6.62146H29.404C30.209 6.62146 30.8624 7.2747 30.8624 8.0797C30.8624 8.8847 30.209 9.53808 29.404 9.53808C28.599 9.53808 27.9312 8.88484 27.9312 8.07984C27.9312 7.27484 28.5699 6.62146 29.3749 6.62146Z"/>
</mask>
<path d="M42 27.4131V29.4131H44V27.4131H42ZM40 27.4131H38V29.4131H40V27.4131ZM40 15.1215H42V13.1215H40V15.1215ZM2 15.1215V13.1215H0V15.1215H2ZM2 53.3715H0V55.3715H2V53.3715ZM32.625 53.3715H34.625V51.3715H32.625V53.3715ZM32.625 55.3715V57.3715H34.625V55.3715H32.625ZM2 55.3715V53.3715H0V55.3715H2ZM17.875 66.5381H19.875V64.5381H17.875V66.5381ZM17.875 68.5381V70.5381H19.875V68.5381H17.875ZM40 13.1215V15.1215H42V13.1215H40ZM2 13.1215H0V15.1215H2V13.1215ZM11 -1.46191C3.93996 -1.46191 -2 4.08968 -2 11.1631H2C2 6.44548 5.99953 2.53809 11 2.53809V-1.46191ZM31 -1.46191H11V2.53809H31V-1.46191ZM44 11.1631C44 4.08965 38.0599 -1.46191 31 -1.46191V2.53809C36.0003 2.53809 40 6.44549 40 11.1631H44ZM44 27.4131V11.1631H40V27.4131H44ZM40 29.4131H42V25.4131H40V29.4131ZM38 15.1215V27.4131H42V15.1215H38ZM2 17.1215H40V13.1215H2V17.1215ZM4 53.3715V15.1215H0V53.3715H4ZM32.625 51.3715H2V55.3715H32.625V51.3715ZM34.625 55.3715V53.3715H30.625V55.3715H34.625ZM2 57.3715H32.625V53.3715H2V57.3715ZM4 57.9132V55.3715H0V57.9132H4ZM11 64.5381C7.0359 64.5381 4 61.4591 4 57.9132H0C0 63.8062 4.96724 68.5381 11 68.5381V64.5381ZM17.875 64.5381H11V68.5381H17.875V64.5381ZM19.875 68.5381V66.5381H15.875V68.5381H19.875ZM11 70.5381H17.875V66.5381H11V70.5381ZM-2 57.9132C-2 64.9865 3.93999 70.5381 11 70.5381V66.5381C5.99952 66.5381 2 62.6307 2 57.9132H-2ZM-2 11.1631V57.9132H2V11.1631H-2ZM42 13.1215V11.1631H38V13.1215H42ZM2 15.1215H40V11.1215H2V15.1215ZM0 11.1631V13.1215H4V11.1631H0ZM11 0.538086C4.96723 0.538086 0 5.27 0 11.1631H4C4 7.61701 7.03593 4.53809 11 4.53809V0.538086ZM31 0.538086H11V4.53809H31V0.538086ZM42 11.1631C42 5.26999 37.0326 0.538086 31 0.538086V4.53809C34.964 4.53809 38 7.61704 38 11.1631H42ZM14.8875 5.07977C13.2306 5.07977 11.8875 6.42292 11.8875 8.07977H15.8875C15.8875 8.63206 15.4397 9.07977 14.8875 9.07977V5.07977ZM24.8875 5.07977H14.8875V9.07977H24.8875V5.07977ZM27.8875 8.07977C27.8875 6.42292 26.5443 5.07977 24.8875 5.07977V9.07977C24.3352 9.07977 23.8875 8.63206 23.8875 8.07977H27.8875ZM24.8875 11.0798C26.5443 11.0798 27.8875 9.73663 27.8875 8.07977H23.8875C23.8875 7.52749 24.3352 7.07977 24.8875 7.07977V11.0798ZM14.8875 11.0798H24.8875V7.07977H14.8875V11.0798ZM11.8875 8.07977C11.8875 9.73663 13.2306 11.0798 14.8875 11.0798V7.07977C15.4397 7.07977 15.8875 7.52749 15.8875 8.07977H11.8875ZM29.404 4.62146H29.3749V8.62146H29.404V4.62146ZM32.8624 8.0797C32.8624 6.16989 31.3134 4.62146 29.404 4.62146V8.62146C29.1047 8.62146 28.8624 8.37951 28.8624 8.0797H32.8624ZM29.404 11.5381C31.3136 11.5381 32.8624 9.98927 32.8624 8.0797H28.8624C28.8624 7.78014 29.1045 7.53808 29.404 7.53808V11.5381ZM25.9312 8.07984C25.9312 10.0153 27.5205 11.5381 29.404 11.5381V7.53808C29.6776 7.53808 29.9312 7.75441 29.9312 8.07984H25.9312ZM29.3749 4.62146C27.4391 4.62146 25.9312 6.19667 25.9312 8.07984H29.9312C29.9312 8.35301 29.7007 8.62146 29.3749 8.62146V4.62146Z" fill="#4D4D4D" mask="url(#path-1-inside-1)"/>
<path d="M47.117 34.1285C47.1168 34.1279 47.1167 34.1272 47.1165 34.1265M47.117 34.1285L47.1165 34.1265M47.117 34.1285L47.1165 34.1265M47.117 34.1285L47.1165 34.1265M37.987 58.3214L37.986 58.3216L23.3644 60.6191C21.107 60.949 19.4166 62.8905 19.4166 65.1632C19.4166 66.5205 20.5177 67.6216 21.8749 67.6216H49.3762C53.1472 67.6216 56.6975 66.1513 59.3641 63.4846L63.952 58.8967C66.6158 56.2329 68.0833 52.6885 68.0834 48.9233C68.0834 45.4045 66.7771 42.0324 64.414 39.4308L64.4135 39.4302L53.4935 27.4281L53.4761 27.409L53.4578 27.3908C52.0689 26.0142 49.7558 26.0313 48.3405 27.4426L48.3397 27.4435C47.6355 28.1475 47.2533 29.0658 47.2533 30.0436C47.2533 31.0181 47.6362 31.9403 48.3249 32.6291L48.4503 32.7544C48.6285 32.9327 48.6285 33.2241 48.4503 33.4023C48.2807 33.572 48.0099 33.5811 47.8293 33.4278C47.812 33.4106 47.7937 33.3936 47.7742 33.3769L44.7723 30.375C43.3493 28.952 41.0274 28.952 39.6043 30.375C38.1652 31.8141 38.1567 34.1303 39.5868 35.5604L42.629 38.6026C42.7008 38.6744 42.7502 38.7878 42.7502 38.9133C42.7502 39.0305 42.7062 39.1478 42.6154 39.2406C42.437 39.417 42.1469 39.4164 41.9693 39.2387L36.0106 33.28C34.5875 31.857 32.2656 31.857 30.8426 33.28C29.4035 34.7191 29.3949 37.0353 30.8251 38.4655L36.7838 44.4242C36.8717 44.5121 36.9168 44.6276 36.9168 44.7467C36.9168 44.8639 36.8728 44.9812 36.782 45.0739C36.6036 45.2504 36.3135 45.2498 36.1359 45.0721L21.5438 30.48L21.5437 30.4799C20.8298 29.7662 19.8929 29.4083 18.9583 29.4083C18.0241 29.4083 17.0881 29.7658 16.3748 30.4752L16.3748 30.4751L16.3728 30.4771C14.9337 31.9162 14.9252 34.2324 16.3553 35.6626L16.3553 35.6626L38.2391 57.5462L38.2392 57.5463C38.3606 57.6677 38.4035 57.8484 38.3517 58.0094C38.2954 58.178 38.1541 58.2954 37.987 58.3214Z" stroke="#4D4D4D" stroke-width="2"/>
</svg>
