<svg width="70" height="70" viewBox="0 0 70 70" fill="none" xmlns="http://www.w3.org/2000/svg">
<path d="M23.603 14.8496L10.75 21.6735V33.0996" stroke="#4D4D4D" stroke-width="2"/>
<path d="M45.7974 14.8496L58.375 21.8688V33.0996" stroke="#4D4D4D" stroke-width="2"/>
<path d="M18.25 54.9746L35.3653 63.8496L52.1576 54.9746" stroke="#4D4D4D" stroke-width="2"/>
<path fill-rule="evenodd" clip-rule="evenodd" d="M11.4536 44.6687L21.6069 38.708L11.4533 32.9142L1.90742 38.7078L11.4536 44.6687ZM11.4375 59.1893L10.75 58.7721L0.000118256 52.2493V39.7875V38.6958L0 38.6957L0.000118256 38.6957V38.6289L0.0561153 38.6617L0.957435 38.1146L11.4376 31.7539L22.6014 38.1242L23.5436 38.6618L23.6029 38.6289V38.6957L23.603 38.6957L23.6029 38.6958V39.7725V52.2493L12.4375 58.8502L11.75 59.2567V59.3789L11.648 59.317L11.4375 59.4414V59.1893ZM12.4375 45.9677V57.6885L22.6029 51.6788V40.3274L12.4375 45.9677ZM10.75 57.6024V46.0774L1.00012 40.3726V51.6863L10.75 57.6024Z" fill="#4D4D4D"/>
<path fill-rule="evenodd" clip-rule="evenodd" d="M57.7611 44.6687L67.9143 38.708L57.7607 32.9142L48.2149 38.7078L57.7611 44.6687ZM57.745 59.1893L57.0575 58.7721L46.3076 52.2493V39.7875V38.6958L46.3075 38.6957L46.3076 38.6957V38.6289L46.3636 38.6617L47.2649 38.1146L57.7451 31.7539L68.9089 38.1242L69.8511 38.6618L69.9104 38.6289V38.6957L69.9105 38.6957L69.9104 38.6958V39.7725V52.2493L58.745 58.8502L58.0575 59.2567V59.3789L57.9554 59.317L57.745 59.4414V59.1893ZM58.745 45.9677V57.6885L68.9104 51.6788V40.3274L58.745 45.9677ZM57.0575 57.6024V46.0774L47.3076 40.3726V51.6863L57.0575 57.6024Z" fill="#4D4D4D"/>
<path fill-rule="evenodd" clip-rule="evenodd" d="M34.4538 12.9148L44.6071 6.95412L34.4535 1.16028L24.9077 6.95393L34.4538 12.9148ZM34.4377 27.4354L33.7502 27.0182L23.0004 20.4954V8.0336V6.9419L23.0002 6.94182L23.0004 6.94175V6.875L23.0564 6.90776L23.9577 6.36073L34.4379 0L45.6016 6.37027L46.5438 6.90791L46.6032 6.875V6.94175L46.6033 6.94182L46.6032 6.94189V8.01862V20.4954L35.4377 27.0963L34.7502 27.5028V27.625L34.6482 27.5631L34.4377 27.6875V27.4354ZM35.4377 14.2138V25.9346L45.6032 19.9249V8.57347L35.4377 14.2138ZM33.7502 25.8485V14.3235L24.0004 8.61871V19.9324L33.7502 25.8485Z" fill="#4D4D4D"/>
</svg>
