<svg width="70" height="70" viewBox="0 0 70 70" fill="none" xmlns="http://www.w3.org/2000/svg">
<path d="M11.5 29.8539V1.22461H29.1443H44.7595V8.95557M44.7595 8.95557H25.2405V41.3496H1.6875V60.4159H13.25V68.3126H48.6633V56.0996M44.7595 8.95557H68.3125V41.6621H25.2405V60.4159H13.5625" stroke="#4D4D4D" stroke-width="2"/>
<path d="M40.8557 18.6152H60.5049V22.519H40.8557V18.6152Z" stroke="#4D4D4D" stroke-width="2"/>
<path d="M40.8557 27.7979H60.5049V31.7017H40.8557V27.7979Z" stroke="#4D4D4D" stroke-width="2"/>
<path d="M33.0481 18.6152H36.9519V22.519H33.0481V18.6152Z" stroke="#4D4D4D" stroke-width="2"/>
<path d="M33.0481 27.7979H36.9519V31.7017H33.0481V27.7979Z" stroke="#4D4D4D" stroke-width="2"/>
<path d="M56.2138 56.4746H48.5355H40.8557L48.5355 48.6545L56.2138 56.4746Z" stroke="#4D4D4D" stroke-width="2"/>
<path d="M3.97838 29.3047H11.6566H19.3364L11.6566 37.1248L3.97838 29.3047Z" stroke="#4D4D4D" stroke-width="2"/>
</svg>
