<svg width="70" height="70" viewBox="0 0 70 70" fill="none" xmlns="http://www.w3.org/2000/svg">
<mask id="path-1-inside-1" fill="white">
<path fill-rule="evenodd" clip-rule="evenodd" d="M2 5H5V8H2V5ZM0 3H2H5H7V5V5.0625L31.5 5.0625V5V3H33.5H36.5H38.5V5V5.0625L63 5.0625V5V3H65H68H70V5V8V10H68H65H63V8V7.0625L38.5 7.0625V8V8.53401C38.6447 8.54913 38.788 8.5651 38.9295 8.58187C40.7992 8.8034 42.3834 9.16587 43.4351 9.57438C43.5536 9.62042 43.6654 9.66705 43.77 9.71412C44.2213 9.93082 44.6637 10.1637 45.0967 10.4119C51.4109 14.0323 55.7045 20.9258 56.0124 28.7549L56.0149 28.8213C56.0445 28.8291 56.074 28.8373 56.1033 28.8459C57.7091 29.3154 58.8901 30.8557 58.8901 32.6785C58.8901 34.8729 57.1786 36.6582 55.0749 36.6582C52.9712 36.6582 51.2597 34.8729 51.2597 32.6785C51.2597 30.8676 52.4253 29.3359 54.0148 28.8555C54.0435 28.8469 54.0722 28.8386 54.1011 28.8306C53.8192 21.7161 49.9537 15.4939 44.2332 12.223C43.7183 11.9286 43.1883 11.6581 42.6446 11.413C41.3745 10.8405 40.0293 10.4067 38.6251 10.1307C38.3864 10.0838 38.1549 10.0402 37.9295 10H36.5H33.5H31.5V9.98407C31.3956 10.009 31.2891 10.0347 31.1805 10.0614C29.6556 10.3611 28.1985 10.849 26.8304 11.4999L26.7857 11.5212C20.386 14.5867 15.9433 21.2218 15.6418 28.8306C15.6707 28.8386 15.6995 28.8469 15.7281 28.8555C17.3176 29.3359 18.4832 30.8676 18.4832 32.6785C18.4832 34.8729 16.7717 36.6582 14.668 36.6582C12.5643 36.6582 10.8528 34.8729 10.8528 32.6785C10.8528 30.8557 12.0338 29.3154 13.6396 28.8459C13.6689 28.8373 13.6984 28.8291 13.728 28.8213L13.7305 28.7549C14.0595 20.3891 18.9395 13.0914 25.9729 9.71412C27.0068 9.24906 28.7353 8.82781 30.8176 8.58137L30.8879 8.57313C31.0888 8.54982 31.293 8.52815 31.5 8.50821V8V7.0625L7 7.0625V8V10H5H2H0V8V5V3ZM33.5 5H36.5V8H33.5V5ZM68 5H65V8H68V5ZM36.8812 64.0018C36.8812 64.5529 37.3095 64.9996 37.8378 64.9996C38.3662 64.9996 38.7943 64.5529 38.7943 64.0018V61.3485C38.7943 59.8681 37.6397 58.6637 36.2205 58.6637H33.6524C32.2333 58.6637 31.0786 59.8681 31.0786 61.3485V64.0018C31.0786 64.5529 31.5069 64.9996 32.0352 64.9996C32.5635 64.9996 32.9918 64.5529 32.9918 64.0018V61.3485C32.9918 60.9685 33.2882 60.6593 33.6524 60.6593H36.2205C36.5848 60.6593 36.8812 60.9685 36.8812 61.3485V64.0018ZM23.625 56.0369V56V54.0369V48.0369V46.0369H25.625H25.8839L19.4874 38.4963L18.9745 37.8917L19.4463 37.2544L33.8838 17.7544L34.684 16.6736L35.4887 17.7511L50.0512 37.2511L50.5257 37.8865L50.0152 38.4933L43.6681 46.0369H45.625V48.0369V54.0369V56V56.0369V70H43.625V56.0369H25.625V70H23.625V56.0369ZM41.0543 46.0369L47.9743 37.8124L37.9375 24.3726V30.546L37.9855 30.6002C38.5889 31.2806 39.6875 32.5195 39.6875 34.5994C39.6875 37.0775 37.7487 39.5369 34.8125 39.5369C31.9174 39.5369 29.8125 37.1209 29.8125 34.5994C29.8125 32.4567 31.024 31.1848 31.6875 30.509V24.0819L21.5255 37.8072L28.5066 46.0369H41.0543ZM34.691 20.0253L35.9375 21.6945V30.9119V31.2551L36.1481 31.5259C36.2843 31.7009 36.4245 31.8641 36.5622 32.0245C37.1467 32.7047 37.6875 33.3342 37.6875 34.5994C37.6875 36.1214 36.5013 37.5369 34.8125 37.5369C33.0826 37.5369 31.8125 36.078 31.8125 34.5994C31.8125 33.2803 32.4741 32.5878 33.122 31.9096L33.1222 31.9094L33.1223 31.9094C33.2252 31.8016 33.3279 31.6941 33.4274 31.5846L33.6875 31.2986V30.9119V21.3806L34.691 20.0253ZM43.625 48.0369H25.625V54.0369H43.625V48.0369ZM54.6326 30.7587L55.067 30.639L55.502 30.7544C56.2496 30.9527 56.8901 31.7018 56.8901 32.6785C56.8901 33.8487 55.9953 34.6582 55.0749 34.6582C54.1546 34.6582 53.2597 33.8487 53.2597 32.6785C53.2597 31.709 53.8914 30.963 54.6326 30.7587ZM14.2409 30.7544L14.6759 30.639L15.1103 30.7587C15.8515 30.963 16.4832 31.709 16.4832 32.6785C16.4832 33.8487 15.5884 34.6582 14.668 34.6582C13.7476 34.6582 12.8528 33.8487 12.8528 32.6785C12.8528 31.7018 13.4933 30.9527 14.2409 30.7544Z"/>
</mask>
<path d="M5 5H7V3H5V5ZM2 5V3H0V5H2ZM5 8V10H7V8H5ZM2 8H0V10H2V8ZM0 3V1H-2V3H0ZM7 3H9V1H7V3ZM7 5.0625H5V7.0625H7V5.0625ZM31.5 5.0625V7.0625H33.5V5.0625H31.5ZM31.5 3V1H29.5V3H31.5ZM38.5 3H40.5V1H38.5V3ZM38.5 5.0625H36.5V7.0625H38.5V5.0625ZM63 5.0625V7.0625H65V5.0625H63ZM63 3V1H61V3H63ZM70 3H72V1H70V3ZM70 10V12H72V10H70ZM63 10H61V12H63V10ZM63 7.0625H65V5.0625L63 5.0625V7.0625ZM38.5 7.0625V5.0625L36.5 5.0625V7.0625H38.5ZM38.5 8.53401H36.5V10.336L38.2922 10.5232L38.5 8.53401ZM38.9295 8.58187L39.1649 6.59576L39.1649 6.59576L38.9295 8.58187ZM43.4351 9.57438L42.7109 11.4387V11.4387L43.4351 9.57438ZM43.77 9.71412L44.6358 7.91121L44.6133 7.9004L44.5905 7.89016L43.77 9.71412ZM45.0967 10.4119L46.0915 8.67685H46.0915L45.0967 10.4119ZM56.0124 28.7549L58.011 28.6792L58.0109 28.6763L56.0124 28.7549ZM56.0149 28.8213L54.0164 28.8969L54.0723 30.3751L55.5021 30.7544L56.0149 28.8213ZM56.1033 28.8459L56.6646 26.9263L56.6645 26.9263L56.1033 28.8459ZM54.0148 28.8555L54.5934 30.77L54.5935 30.77L54.0148 28.8555ZM54.1011 28.8306L54.6325 30.7587L56.1624 30.3371L56.0996 28.7514L54.1011 28.8306ZM44.2332 12.223L43.2405 13.9593L43.2405 13.9593L44.2332 12.223ZM42.6446 11.413L41.8227 13.2363L42.6446 11.413ZM38.6251 10.1307L39.0108 8.16824H39.0108L38.6251 10.1307ZM37.9295 10L38.2806 8.03106L38.1064 8H37.9295V10ZM31.5 10H29.5V12H31.5V10ZM31.5 9.98407H33.5V7.45123L31.0362 8.03859L31.5 9.98407ZM31.1805 10.0614L31.5662 12.0238L31.6117 12.0149L31.6567 12.0038L31.1805 10.0614ZM26.8304 11.4999L25.9712 9.69382L25.9687 9.69498L26.8304 11.4999ZM26.7857 11.5212L25.9241 9.71628L25.9217 9.71743L26.7857 11.5212ZM15.6418 28.8306L13.6433 28.7514L13.5805 30.337L15.1104 30.7587L15.6418 28.8306ZM15.7281 28.8555L16.3067 26.941L16.3066 26.941L15.7281 28.8555ZM13.6396 28.8459L13.0784 26.9263L13.0783 26.9263L13.6396 28.8459ZM13.728 28.8213L14.2409 30.7544L15.6706 30.3751L15.7266 28.897L13.728 28.8213ZM13.7305 28.7549L11.732 28.6763L11.7319 28.6792L13.7305 28.7549ZM25.9729 9.71412L25.1524 7.89016L25.1297 7.9004L25.1072 7.9112L25.9729 9.71412ZM30.8176 8.58137L30.5848 6.59496L30.5825 6.59523L30.8176 8.58137ZM30.8879 8.57313L30.6575 6.58645L30.6552 6.58672L30.8879 8.57313ZM31.5 8.50821L31.6917 10.499L33.5 10.3249V8.50821H31.5ZM31.5 7.0625H33.5V5.0625L31.5 5.0625V7.0625ZM7 7.0625V5.0625L5 5.0625V7.0625H7ZM7 10V12H9V10H7ZM0 10H-2V12H0V10ZM36.5 5H38.5V3H36.5V5ZM33.5 5V3H31.5V5H33.5ZM36.5 8V10H38.5V8H36.5ZM33.5 8H31.5V10H33.5V8ZM65 5V3H63V5H65ZM68 5H70V3H68V5ZM65 8H63V10H65V8ZM68 8V10H70V8H68ZM23.625 46.0369V44.0369H21.625V46.0369H23.625ZM25.8839 46.0369V48.0369H30.2031L27.4091 44.7432L25.8839 46.0369ZM19.4874 38.4963L17.9622 39.7901H17.9622L19.4874 38.4963ZM18.9745 37.8917L17.3671 36.7016L16.4235 37.9761L17.4493 39.1854L18.9745 37.8917ZM19.4463 37.2544L21.0537 38.4445L19.4463 37.2544ZM33.8838 17.7544L32.2764 16.5643V16.5643L33.8838 17.7544ZM34.684 16.6736L36.2865 15.4769L34.6771 13.3218L33.0767 15.4835L34.684 16.6736ZM35.4887 17.7511L37.0912 16.5544L37.0912 16.5544L35.4887 17.7511ZM50.0512 37.2511L51.6537 36.0544L50.0512 37.2511ZM50.5257 37.8865L52.0561 39.1741L53.0772 37.9605L52.1282 36.6898L50.5257 37.8865ZM50.0152 38.4933L48.4848 37.2056L48.4848 37.2056L50.0152 38.4933ZM43.6681 46.0369L42.1377 44.7493L39.3716 48.0369H43.6681V46.0369ZM45.625 46.0369H47.625V44.0369H45.625V46.0369ZM45.625 70V72H47.625V70H45.625ZM43.625 70H41.625V72H43.625V70ZM43.625 56.0369H45.625V54.0369H43.625V56.0369ZM25.625 56.0369V54.0369H23.625V56.0369H25.625ZM25.625 70V72H27.625V70H25.625ZM23.625 70H21.625V72H23.625V70ZM47.9743 37.8124L49.5046 39.1L50.5257 37.8865L49.5767 36.6157L47.9743 37.8124ZM41.0543 46.0369V48.0369H41.9853L42.5847 47.3246L41.0543 46.0369ZM37.9375 24.3726L39.54 23.1759L35.9375 18.352V24.3726H37.9375ZM37.9375 30.546H35.9375V31.3046L36.4406 31.8723L37.9375 30.546ZM37.9855 30.6002L36.4886 31.9265L36.4891 31.9271L37.9855 30.6002ZM31.6875 30.509L33.1147 31.91L33.6875 31.3266V30.509H31.6875ZM31.6875 24.0819H33.6875V18.0195L30.0801 22.8919L31.6875 24.0819ZM21.5255 37.8072L19.9181 36.6171L18.9745 37.8917L20.0003 39.101L21.5255 37.8072ZM28.5066 46.0369L26.9814 47.3307L27.5805 48.0369H28.5066V46.0369ZM35.9375 21.6945H37.9375V21.0301L37.54 20.4978L35.9375 21.6945ZM34.691 20.0253L36.2934 18.8286L34.684 16.6736L33.0836 18.8352L34.691 20.0253ZM35.9375 31.2551H33.9375V31.9413L34.3588 32.4829L35.9375 31.2551ZM36.1481 31.5259L34.5694 32.7538L34.5695 32.7538L36.1481 31.5259ZM36.5622 32.0245L38.0793 30.7211V30.7211L36.5622 32.0245ZM33.122 31.9096L34.5682 33.2912L34.5747 33.2844L34.5811 33.2775L33.122 31.9096ZM33.1222 31.9094L31.708 30.4952L31.6852 30.518L31.6631 30.5415L33.1222 31.9094ZM33.1223 31.9094L34.5365 33.3236L34.5526 33.3074L34.5684 33.2909L33.1223 31.9094ZM33.4274 31.5846L31.9476 30.2393L31.9475 30.2393L33.4274 31.5846ZM33.6875 31.2986L35.1674 32.6439L35.6875 32.0718V31.2986H33.6875ZM33.6875 21.3806L32.0801 20.1906L31.6875 20.7208V21.3806H33.6875ZM25.625 48.0369V46.0369H23.625V48.0369H25.625ZM43.625 48.0369H45.625V46.0369H43.625V48.0369ZM25.625 54.0369H23.625V56.0369H25.625V54.0369ZM43.625 54.0369V56.0369H45.625V54.0369H43.625ZM55.067 30.639L55.5799 28.7058L55.057 28.5671L54.5355 28.7109L55.067 30.639ZM54.6326 30.7587L54.1011 28.8306L54.6326 30.7587ZM55.502 30.7544L56.0149 28.8213H56.0149L55.502 30.7544ZM14.6759 30.639L15.2074 28.7109L14.6859 28.5671L14.163 28.7058L14.6759 30.639ZM14.2409 30.7544L13.728 28.8213L14.2409 30.7544ZM15.1103 30.7587L14.5789 32.6868L15.1103 30.7587ZM5 3H2V7H5V3ZM7 8V5H3V8H7ZM2 10H5V6H2V10ZM0 5V8H4V5H0ZM2 1H0V5H2V1ZM5 1H2V5H5V1ZM7 1H5V5H7V1ZM9 5V3H5V5H9ZM9 5.0625V5H5V5.0625H9ZM31.5 3.0625L7 3.0625V7.0625L31.5 7.0625V3.0625ZM29.5 5V5.0625H33.5V5H29.5ZM29.5 3V5H33.5V3H29.5ZM33.5 1H31.5V5H33.5V1ZM36.5 1H33.5V5H36.5V1ZM38.5 1H36.5V5H38.5V1ZM40.5 5V3H36.5V5H40.5ZM40.5 5.0625V5H36.5V5.0625H40.5ZM63 3.0625L38.5 3.0625V7.0625L63 7.0625V3.0625ZM61 5V5.0625H65V5H61ZM61 3V5H65V3H61ZM65 1H63V5H65V1ZM68 1H65V5H68V1ZM70 1H68V5H70V1ZM72 5V3H68V5H72ZM72 8V5H68V8H72ZM72 10V8H68V10H72ZM68 12H70V8H68V12ZM65 12H68V8H65V12ZM63 12H65V8H63V12ZM61 8V10H65V8H61ZM61 7.0625V8H65V7.0625H61ZM38.5 9.0625L63 9.0625V5.0625L38.5 5.0625V9.0625ZM40.5 8V7.0625H36.5V8H40.5ZM40.5 8.53401V8H36.5V8.53401H40.5ZM39.1649 6.59576C39.014 6.57789 38.8616 6.5609 38.7078 6.54483L38.2922 10.5232C38.4278 10.5374 38.5619 10.5523 38.6942 10.568L39.1649 6.59576ZM44.1592 7.71007C42.8933 7.21838 41.1278 6.82834 39.1649 6.59576L38.6942 10.568C40.4706 10.7785 41.8734 11.1134 42.7109 11.4387L44.1592 7.71007ZM44.5905 7.89016C44.4509 7.82735 44.3067 7.76737 44.1592 7.71007L42.7109 11.4387C42.8005 11.4735 42.8799 11.5067 42.9496 11.5381L44.5905 7.89016ZM46.0915 8.67685C45.6167 8.40461 45.1312 8.1491 44.6358 7.91121L42.9043 11.517C43.3114 11.7125 43.7108 11.9227 44.1018 12.1469L46.0915 8.67685ZM58.0109 28.6763C57.6762 20.1664 53.0094 12.6434 46.0915 8.67685L44.1018 12.1469C49.8124 15.4212 53.7328 21.6853 54.014 28.8334L58.0109 28.6763ZM58.0135 28.7456L58.011 28.6792L54.0138 28.8305L54.0164 28.8969L58.0135 28.7456ZM56.6645 26.9263C56.6193 26.913 56.5737 26.9003 56.5278 26.8881L55.5021 30.7544C55.5153 30.7579 55.5287 30.7616 55.5421 30.7656L56.6645 26.9263ZM60.8901 32.6785C60.8901 29.9909 59.1456 27.6517 56.6646 26.9263L55.5421 30.7656C56.2726 30.9792 56.8901 31.7204 56.8901 32.6785H60.8901ZM55.0749 38.6582C58.3619 38.6582 60.8901 35.897 60.8901 32.6785H56.8901C56.8901 33.8487 55.9953 34.6582 55.0749 34.6582V38.6582ZM49.2597 32.6785C49.2597 35.897 51.7879 38.6582 55.0749 38.6582V34.6582C54.1546 34.6582 53.2597 33.8487 53.2597 32.6785H49.2597ZM53.4362 26.9411C50.9817 27.6829 49.2597 30.0081 49.2597 32.6785H53.2597C53.2597 31.7272 53.8689 30.989 54.5934 30.77L53.4362 26.9411ZM53.5698 26.9025C53.5249 26.9148 53.4804 26.9277 53.4361 26.9411L54.5935 30.77C54.6065 30.766 54.6195 30.7623 54.6325 30.7587L53.5698 26.9025ZM43.2405 13.9593C48.3522 16.882 51.8476 22.472 52.1027 28.9098L56.0996 28.7514C55.7909 20.9602 51.5552 14.1057 45.226 10.4868L43.2405 13.9593ZM41.8227 13.2363C42.3077 13.4549 42.7807 13.6963 43.2405 13.9593L45.226 10.4868C44.6559 10.1609 44.069 9.86125 43.4664 9.58966L41.8227 13.2363ZM38.2394 12.0931C39.4912 12.3392 40.6902 12.7258 41.8227 13.2363L43.4664 9.58966C42.0588 8.95517 40.5675 8.47419 39.0108 8.16824L38.2394 12.0931ZM37.5784 11.9689C37.7909 12.0068 38.0108 12.0482 38.2394 12.0931L39.0108 8.16824C38.762 8.11934 38.5189 8.07355 38.2806 8.03106L37.5784 11.9689ZM36.5 12H37.9295V8H36.5V12ZM33.5 12H36.5V8H33.5V12ZM31.5 12H33.5V8H31.5V12ZM29.5 9.98407V10H33.5V9.98407H29.5ZM31.6567 12.0038C31.7616 11.9781 31.8639 11.9534 31.9638 11.9296L31.0362 8.03859C30.9273 8.06454 30.8167 8.09132 30.7042 8.1189L31.6567 12.0038ZM27.6896 13.3059C28.9101 12.7253 30.2084 12.2907 31.5662 12.0238L30.7947 8.09891C29.1029 8.43144 27.487 8.9727 25.9712 9.69383L27.6896 13.3059ZM27.6473 13.3261L27.692 13.3048L25.9687 9.69498L25.9241 9.71629L27.6473 13.3261ZM17.6402 28.9098C17.9129 22.0267 21.932 16.0638 27.6497 13.3249L25.9217 9.71743C18.8401 13.1096 13.9736 20.417 13.6433 28.7514L17.6402 28.9098ZM16.3066 26.941C16.2625 26.9277 16.218 26.9148 16.1732 26.9025L15.1104 30.7587C15.1234 30.7623 15.1364 30.7661 15.1496 30.77L16.3066 26.941ZM20.4832 32.6785C20.4832 30.0081 18.7612 27.6829 16.3067 26.941L15.1495 30.77C15.874 30.989 16.4832 31.7272 16.4832 32.6785H20.4832ZM14.668 38.6582C17.955 38.6582 20.4832 35.897 20.4832 32.6785H16.4832C16.4832 33.8487 15.5884 34.6582 14.668 34.6582V38.6582ZM8.85278 32.6785C8.85278 35.897 11.381 38.6582 14.668 38.6582V34.6582C13.7476 34.6582 12.8528 33.8487 12.8528 32.6785H8.85278ZM13.0783 26.9263C10.5973 27.6517 8.85278 29.9909 8.85278 32.6785H12.8528C12.8528 31.7204 13.4703 30.9792 14.2008 30.7656L13.0783 26.9263ZM13.2151 26.8882C13.1692 26.9003 13.1236 26.913 13.0784 26.9263L14.2008 30.7656C14.2142 30.7616 14.2276 30.7579 14.2409 30.7544L13.2151 26.8882ZM11.7319 28.6792L11.7294 28.7456L15.7266 28.897L15.7291 28.8305L11.7319 28.6792ZM25.1072 7.9112C17.3927 11.6156 12.0896 19.5852 11.732 28.6763L15.729 28.8334C16.0294 21.1929 20.4864 14.5673 26.8386 11.517L25.1072 7.9112ZM30.5825 6.59523C28.4127 6.85203 26.4542 7.30461 25.1524 7.89016L26.7933 11.5381C27.5594 11.1935 29.0579 10.8036 31.0526 10.5675L30.5825 6.59523ZM30.6552 6.58672L30.5848 6.59496L31.0503 10.5678L31.1207 10.5595L30.6552 6.58672ZM31.3083 6.51742C31.0884 6.53859 30.8714 6.56164 30.6575 6.58645L31.1184 10.5598C31.3063 10.538 31.4975 10.5177 31.6917 10.499L31.3083 6.51742ZM29.5 8V8.50821H33.5V8H29.5ZM29.5 7.0625V8H33.5V7.0625H29.5ZM7 9.0625L31.5 9.0625V5.0625L7 5.0625V9.0625ZM9 8V7.0625H5V8H9ZM9 10V8H5V10H9ZM5 12H7V8H5V12ZM2 12H5V8H2V12ZM0 12H2V8H0V12ZM-2 8V10H2V8H-2ZM-2 5V8H2V5H-2ZM-2 3V5H2V3H-2ZM36.5 3H33.5V7H36.5V3ZM38.5 8V5H34.5V8H38.5ZM33.5 10H36.5V6H33.5V10ZM31.5 5V8H35.5V5H31.5ZM65 7H68V3H65V7ZM67 8V5H63V8H67ZM68 6H65V10H68V6ZM66 5V8H70V5H66ZM37.8378 62.9996C38.4928 62.9996 38.8812 63.5287 38.8812 64.0018H34.8812C34.8812 65.577 36.1262 66.9996 37.8378 66.9996V62.9996ZM36.7943 64.0018C36.7943 63.5289 37.1827 62.9996 37.8378 62.9996V66.9996C39.5497 66.9996 40.7943 65.5768 40.7943 64.0018H36.7943ZM36.7943 61.3485V64.0018H40.7943V61.3485H36.7943ZM36.2205 60.6637C36.4564 60.6637 36.7943 60.8923 36.7943 61.3485H40.7943C40.7943 58.844 38.823 56.6637 36.2205 56.6637V60.6637ZM33.6524 60.6637H36.2205V56.6637H33.6524V60.6637ZM33.0786 61.3485C33.0786 60.8923 33.4166 60.6637 33.6524 60.6637V56.6637C31.05 56.6637 29.0786 58.844 29.0786 61.3485H33.0786ZM33.0786 64.0018V61.3485H29.0786V64.0018H33.0786ZM32.0352 62.9996C32.6902 62.9996 33.0786 63.5287 33.0786 64.0018H29.0786C29.0786 65.577 30.3236 66.9996 32.0352 66.9996V62.9996ZM30.9918 64.0018C30.9918 63.5287 31.3802 62.9996 32.0352 62.9996V66.9996C33.7468 66.9996 34.9918 65.577 34.9918 64.0018H30.9918ZM30.9918 61.3485V64.0018H34.9918V61.3485H30.9918ZM33.6524 58.6593C32.1049 58.6593 30.9918 59.9444 30.9918 61.3485H34.9918C34.9918 61.9927 34.4715 62.6593 33.6524 62.6593V58.6593ZM36.2205 58.6593H33.6524V62.6593H36.2205V58.6593ZM38.8812 61.3485C38.8812 59.9444 37.7681 58.6593 36.2205 58.6593V62.6593C35.4015 62.6593 34.8812 61.9927 34.8812 61.3485H38.8812ZM38.8812 64.0018V61.3485H34.8812V64.0018H38.8812ZM21.625 56V56.0369H25.625V56H21.625ZM21.625 54.0369V56H25.625V54.0369H21.625ZM21.625 48.0369V54.0369H25.625V48.0369H21.625ZM21.625 46.0369V48.0369H25.625V46.0369H21.625ZM25.625 44.0369H23.625V48.0369H25.625V44.0369ZM25.8839 44.0369H25.625V48.0369H25.8839V44.0369ZM17.9622 39.7901L24.3588 47.3307L27.4091 44.7432L21.0126 37.2026L17.9622 39.7901ZM17.4493 39.1854L17.9622 39.7901L21.0126 37.2026L20.4997 36.5979L17.4493 39.1854ZM17.8389 36.0643L17.3671 36.7016L20.5819 39.0817L21.0537 38.4445L17.8389 36.0643ZM32.2764 16.5643L17.8389 36.0643L21.0537 38.4445L35.4912 18.9445L32.2764 16.5643ZM33.0767 15.4835L32.2764 16.5643L35.4912 18.9445L36.2914 17.8637L33.0767 15.4835ZM37.0912 16.5544L36.2865 15.4769L33.0816 17.8703L33.8863 18.9478L37.0912 16.5544ZM51.6537 36.0544L37.0912 16.5544L33.8863 18.9478L48.4488 38.4478L51.6537 36.0544ZM52.1282 36.6898L51.6537 36.0544L48.4488 38.4478L48.9233 39.0832L52.1282 36.6898ZM51.5455 39.7809L52.0561 39.1741L48.9954 36.5988L48.4848 37.2056L51.5455 39.7809ZM45.1984 47.3246L51.5456 39.7809L48.4848 37.2056L42.1377 44.7493L45.1984 47.3246ZM45.625 44.0369H43.6681V48.0369H45.625V44.0369ZM47.625 48.0369V46.0369H43.625V48.0369H47.625ZM47.625 54.0369V48.0369H43.625V54.0369H47.625ZM47.625 56V54.0369H43.625V56H47.625ZM47.625 56.0369V56H43.625V56.0369H47.625ZM47.625 70V56.0369H43.625V70H47.625ZM43.625 72H45.625V68H43.625V72ZM41.625 56.0369V70H45.625V56.0369H41.625ZM25.625 58.0369H43.625V54.0369H25.625V58.0369ZM27.625 70V56.0369H23.625V70H27.625ZM23.625 72H25.625V68H23.625V72ZM21.625 56.0369V70H25.625V56.0369H21.625ZM46.4439 36.5248L39.524 44.7493L42.5847 47.3246L49.5046 39.1L46.4439 36.5248ZM36.335 25.5693L46.3718 39.0091L49.5767 36.6157L39.54 23.1759L36.335 25.5693ZM39.9375 30.546V24.3726H35.9375V30.546H39.9375ZM39.4824 29.2738L39.4344 29.2196L36.4406 31.8723L36.4886 31.9265L39.4824 29.2738ZM41.6875 34.5994C41.6875 31.7274 40.1268 30.0004 39.4819 29.2732L36.4891 31.9271C37.0511 32.5608 37.6875 33.3116 37.6875 34.5994H41.6875ZM34.8125 41.5369C39.0048 41.5369 41.6875 38.0242 41.6875 34.5994H37.6875C37.6875 36.1307 36.4927 37.5369 34.8125 37.5369V41.5369ZM27.8125 34.5994C27.8125 38.1601 30.7485 41.5369 34.8125 41.5369V37.5369C33.0862 37.5369 31.8125 36.0817 31.8125 34.5994H27.8125ZM30.2603 29.1079C29.5441 29.8374 27.8125 31.6106 27.8125 34.5994H31.8125C31.8125 33.3028 32.5039 32.5322 33.1147 31.91L30.2603 29.1079ZM29.6875 24.0819V30.509H33.6875V24.0819H29.6875ZM23.1329 38.9973L33.2949 25.272L30.0801 22.8919L19.9181 36.6171L23.1329 38.9973ZM30.0318 44.7432L23.0507 36.5135L20.0003 39.101L26.9814 47.3307L30.0318 44.7432ZM41.0543 44.0369H28.5066V48.0369H41.0543V44.0369ZM37.54 20.4978L36.2934 18.8286L33.0885 21.222L34.335 22.8912L37.54 20.4978ZM37.9375 30.9119V21.6945H33.9375V30.9119H37.9375ZM37.9375 31.2551V30.9119H33.9375V31.2551H37.9375ZM37.7269 30.298L37.5162 30.0272L34.3588 32.4829L34.5694 32.7538L37.7269 30.298ZM38.0793 30.7211C37.937 30.5556 37.8283 30.4285 37.7268 30.298L34.5695 32.7538C34.7402 32.9733 34.9119 33.1726 35.0452 33.3278L38.0793 30.7211ZM39.6875 34.5994C39.6875 33.6528 39.4782 32.8618 39.1185 32.17C38.7866 31.5315 38.3491 31.0351 38.0793 30.7211L35.0452 33.3278C35.3599 33.694 35.485 33.8525 35.5695 34.0152C35.6264 34.1245 35.6875 34.2808 35.6875 34.5994H39.6875ZM34.8125 39.5369C37.7342 39.5369 39.6875 37.0931 39.6875 34.5994H35.6875C35.6875 34.8471 35.5878 35.0957 35.4209 35.2746C35.2678 35.4387 35.0685 35.5369 34.8125 35.5369V39.5369ZM29.8125 34.5994C29.8125 37.1272 31.9235 39.5369 34.8125 39.5369V35.5369C34.5323 35.5369 34.2876 35.4239 34.0985 35.2292C33.8956 35.0203 33.8125 34.7746 33.8125 34.5994H29.8125ZM31.6759 30.528C31.0149 31.22 29.8125 32.4233 29.8125 34.5994H33.8125C33.8125 34.3097 33.8758 34.1524 33.9523 34.0212C34.0611 33.8345 34.2203 33.6552 34.5682 33.2912L31.6759 30.528ZM31.6631 30.5415L31.663 30.5417L34.5811 33.2775L34.5813 33.2773L31.6631 30.5415ZM31.7081 30.4951L31.708 30.4952L34.5364 33.3236L34.5365 33.3236L31.7081 30.4951ZM31.9475 30.2393C31.8674 30.3274 31.782 30.4169 31.6761 30.5278L34.5684 33.2909C34.6684 33.1862 34.7883 33.0609 34.9074 32.9299L31.9475 30.2393ZM32.2076 29.9532L31.9476 30.2393L34.9073 32.93L35.1674 32.6439L32.2076 29.9532ZM31.6875 30.9119V31.2986H35.6875V30.9119H31.6875ZM31.6875 21.3806V30.9119H35.6875V21.3806H31.6875ZM33.0836 18.8352L32.0801 20.1906L35.2949 22.5707L36.2983 21.2154L33.0836 18.8352ZM25.625 50.0369H43.625V46.0369H25.625V50.0369ZM27.625 54.0369V48.0369H23.625V54.0369H27.625ZM43.625 52.0369H25.625V56.0369H43.625V52.0369ZM41.625 48.0369V54.0369H45.625V48.0369H41.625ZM54.5355 28.7109L54.1011 28.8306L55.164 32.6868L55.5984 32.5671L54.5355 28.7109ZM56.0149 28.8213L55.5799 28.7058L54.5541 32.5721L54.9891 32.6875L56.0149 28.8213ZM58.8901 32.6785C58.8901 30.8169 57.6604 29.2579 56.0149 28.8213L54.9891 32.6875C54.9435 32.6754 54.9158 32.6594 54.9025 32.6503C54.8889 32.641 54.8839 32.6345 54.8832 32.6336C54.8821 32.6321 54.8834 32.6333 54.8851 32.6383C54.8865 32.6424 54.8901 32.6546 54.8901 32.6785H58.8901ZM55.0749 36.6582C57.1538 36.6582 58.8901 34.8986 58.8901 32.6785H54.8901C54.8901 32.6969 54.8884 32.7088 54.8872 32.7152C54.8859 32.7216 54.8847 32.7246 54.8846 32.7249C54.8844 32.7253 54.8863 32.7206 54.8932 32.7135C54.8993 32.7072 54.9129 32.6954 54.9391 32.6838C54.9657 32.6721 55.0113 32.6582 55.0749 32.6582V36.6582ZM51.2597 32.6785C51.2597 34.8986 52.9961 36.6582 55.0749 36.6582V32.6582C55.1385 32.6582 55.1842 32.6721 55.2107 32.6838C55.237 32.6954 55.2506 32.7072 55.2566 32.7135C55.2635 32.7206 55.2655 32.7253 55.2653 32.7249C55.2652 32.7246 55.264 32.7216 55.2627 32.7152C55.2615 32.7088 55.2597 32.6969 55.2597 32.6785H51.2597ZM54.1011 28.8306C52.4725 29.2795 51.2597 30.83 51.2597 32.6785H55.2597C55.2597 32.6549 55.2633 32.6428 55.2647 32.6387C55.2664 32.6336 55.2678 32.6322 55.2667 32.6336C55.2661 32.6344 55.2614 32.6406 55.2483 32.6498C55.2354 32.6587 55.2085 32.6745 55.164 32.6868L54.1011 28.8306ZM14.163 28.7058L13.728 28.8213L14.7538 32.6875L15.1889 32.5721L14.163 28.7058ZM15.6418 28.8306L15.2074 28.7109L14.1445 32.5671L14.5789 32.6868L15.6418 28.8306ZM18.4832 32.6785C18.4832 30.83 17.2704 29.2795 15.6418 28.8306L14.5789 32.6868C14.5344 32.6745 14.5075 32.6587 14.4946 32.6498C14.4815 32.6406 14.4768 32.6344 14.4762 32.6336C14.4751 32.6322 14.4765 32.6336 14.4782 32.6387C14.4796 32.6428 14.4832 32.6549 14.4832 32.6785H18.4832ZM14.668 36.6582C16.7468 36.6582 18.4832 34.8986 18.4832 32.6785H14.4832C14.4832 32.6969 14.4814 32.7088 14.4802 32.7152C14.4789 32.7216 14.4777 32.7246 14.4776 32.7249C14.4774 32.7253 14.4794 32.7206 14.4863 32.7135C14.4923 32.7072 14.5059 32.6954 14.5322 32.6838C14.5587 32.6721 14.6044 32.6582 14.668 32.6582V36.6582ZM10.8528 32.6785C10.8528 34.8986 12.5891 36.6582 14.668 36.6582V32.6582C14.7316 32.6582 14.7773 32.6721 14.8038 32.6838C14.83 32.6954 14.8436 32.7072 14.8497 32.7135C14.8566 32.7206 14.8585 32.7253 14.8583 32.7249C14.8582 32.7246 14.857 32.7216 14.8558 32.7152C14.8545 32.7088 14.8528 32.6969 14.8528 32.6785H10.8528ZM13.728 28.8213C12.0825 29.2579 10.8528 30.8169 10.8528 32.6785H14.8528C14.8528 32.6546 14.8564 32.6424 14.8578 32.6383C14.8595 32.6333 14.8608 32.6321 14.8597 32.6336C14.859 32.6345 14.854 32.641 14.8405 32.6503C14.8271 32.6594 14.7994 32.6754 14.7538 32.6875L13.728 28.8213Z" fill="#4D4D4D" mask="url(#path-1-inside-1)"/>
</svg>
