<svg width="70" height="72" viewBox="0 0 70 72" fill="none" xmlns="http://www.w3.org/2000/svg">
<path d="M35.0002 71C34.6734 71 34.3444 70.9274 34.0431 70.7779C20.2044 64.0401 8.74976 56.7683 8.74976 35.9995V11.9367C8.74976 11.0159 9.32437 10.1956 10.1896 9.88159L34.2524 1.13136C34.7352 0.956212 35.265 0.956212 35.7478 1.13136L59.8106 9.88146C60.6758 10.1954 61.2505 11.0158 61.2505 11.9365V35.9994C61.2505 56.7682 49.7959 64.0399 35.9571 70.7778C35.6559 70.9274 35.327 71 35.0002 71Z" stroke="#4D4D4D" stroke-width="2"/>
<path d="M33.4535 44.7496L23.1567 34.4528L26.25 31.3595L33.4535 38.563L47.2195 24.7969L50.3128 27.8902L33.4535 44.7496Z" stroke="#4D4D4D" stroke-width="2"/>
</svg>
