<svg width="151" height="101" viewBox="0 0 151 101" fill="none" xmlns="http://www.w3.org/2000/svg">
<path fill-rule="evenodd" clip-rule="evenodd" d="M108.139 30.5351C112.593 26.9155 118.271 24.7432 124.458 24.7432C138.763 24.7432 150.358 36.3391 150.358 50.644C150.358 64.949 138.762 76.5449 124.457 76.5449C118.271 76.5449 112.593 74.3726 108.138 70.753C103.684 74.3726 98.0058 76.5449 91.8194 76.5449C85.6329 76.5449 79.9551 74.3726 75.5 70.753C71.0454 74.3726 65.3676 76.5449 59.1806 76.5449C52.9942 76.5449 47.3164 74.3726 42.8618 70.753C38.4072 74.3726 32.7294 76.5449 26.5424 76.5449C12.2375 76.5449 0.641556 64.949 0.641556 50.644C0.641556 36.3391 12.2375 24.7432 26.5424 24.7432C32.7294 24.7432 38.4072 26.9155 42.8623 30.5345C47.3169 26.9155 52.9947 24.7432 59.1812 24.7432C65.3681 24.7432 71.046 26.915 75.5005 30.5345C79.9551 26.9155 85.6329 24.7432 91.8199 24.7432C98.0058 24.7432 103.684 26.9155 108.139 30.5351ZM104.265 50.644C104.265 55.0896 105.705 59.1972 108.139 62.5326C110.573 59.1967 112.013 55.0896 112.013 50.644C112.013 46.1984 110.573 42.0909 108.139 38.7555C105.705 42.0914 104.265 46.1984 104.265 50.644ZM75.5 62.5321C73.0662 59.1967 71.6264 55.0891 71.6264 50.644C71.6264 46.1984 73.0662 42.0919 75.5 38.756C77.9338 42.0914 79.3736 46.1984 79.3736 50.644C79.3736 55.0891 77.9338 59.1962 75.5 62.5321ZM38.9877 50.644C38.9877 55.0896 40.4275 59.1967 42.8618 62.5326C45.2956 59.1967 46.7359 55.0896 46.7359 50.644C46.7359 46.1984 45.2961 42.0909 42.8618 38.7555C40.4275 42.0914 38.9877 46.1984 38.9877 50.644ZM6.34948 50.644C6.34948 39.4918 15.3901 30.4511 26.5424 30.4511C31.1687 30.4511 35.4289 32.0102 38.834 34.6273C35.3592 39.0354 33.2798 44.5949 33.2798 50.644C33.2798 56.6926 35.3592 62.2527 38.834 66.6608C35.4289 69.2778 31.1687 70.837 26.5424 70.837C15.3901 70.837 6.34948 61.7963 6.34948 50.644ZM52.4433 50.644C52.4433 56.6926 50.3644 62.2527 46.8896 66.6608C50.2942 69.2778 54.5539 70.837 59.1801 70.837C63.8063 70.837 68.0666 69.2778 71.4717 66.6608C67.9968 62.2527 65.9174 56.6926 65.9174 50.644C65.9174 44.5955 67.9963 39.0354 71.4717 34.6273C68.0666 32.0108 63.8063 30.4511 59.1801 30.4511C54.5539 30.4511 50.2942 32.0102 46.8891 34.6273C50.3639 39.0354 52.4433 44.5949 52.4433 50.644ZM79.5278 66.6608C83.0032 62.2521 85.0826 56.6926 85.0826 50.644C85.0826 44.5949 83.0032 39.0354 79.5278 34.6273C82.9329 32.0102 87.1931 30.4511 91.8194 30.4511C96.4456 30.4511 100.706 32.0102 104.11 34.6273C100.636 39.0354 98.5562 44.5955 98.5562 50.644C98.5562 56.6926 100.636 62.2527 104.11 66.6608C100.706 69.2778 96.4451 70.837 91.8194 70.837C87.1931 70.837 82.9329 69.2778 79.5278 66.6608ZM112.167 66.6608C115.571 69.2778 119.831 70.837 124.458 70.837C135.61 70.837 144.651 61.7963 144.651 50.644C144.651 39.4918 135.61 30.4511 124.458 30.4511C119.831 30.4511 115.571 32.0102 112.167 34.6273C115.641 39.0354 117.721 44.5949 117.721 50.644C117.721 56.6926 115.641 62.2521 112.167 66.6608Z" fill="#1C1C1C"/>
</svg>
