<svg width="151" height="101" viewBox="0 0 151 101" fill="none" xmlns="http://www.w3.org/2000/svg">
<path fill-rule="evenodd" clip-rule="evenodd" d="M5.54992 20.9062L0.499512 56.2264H5.85997L7.24014 46.2253L7.27873 45.9455L7.43896 44.7314L7.45712 46.3953L7.47944 46.9445L7.94971 56.2264H13.2593L11.79 43.2924L16.51 32.0428H11.4332L8.25144 40.6397L8.12999 40.9619L7.78135 42.1211L7.97374 40.8423L8.02046 40.5646L10.7362 20.9062H5.54992Z" fill="#009CE4"/>
<path fill-rule="evenodd" clip-rule="evenodd" d="M18.0864 32.043H23.7245L24.0792 42.0566L24.0913 42.3666L24.0649 43.5705L24.3183 42.0464L25.9032 32.043H30.2361L26.6003 56.2247H21.5154L20.9966 45.0863L20.9844 44.7944L21.0028 43.5705L20.79 45.1209L19.0916 56.2247H14.4506L18.0864 32.043Z" fill="#009CE4"/>
<path fill-rule="evenodd" clip-rule="evenodd" d="M60.3788 32.043L55.3081 65.0833H60.7214L63.976 44.7176H66.9836L67.5956 40.6785H64.503L65.1901 35.8653H68.3698L68.8866 32.043H60.3788Z" fill="#009CE4"/>
<path fill-rule="evenodd" clip-rule="evenodd" d="M35.3348 47.4169L37.9086 37.0181L38.0221 36.5562L38.4375 34.7727L38.164 36.6067L38.1072 37.0832L36.9459 47.419L35.3348 47.4169ZM33.1682 56.1741L34.3437 51.4418H36.494L35.9651 56.1741H40.9951L42.3875 31.9902H35.4239L28.0713 56.1741H33.1682Z" fill="#009CE4"/>
<path fill-rule="evenodd" clip-rule="evenodd" d="M49.985 51.1459L53.0087 32.0592L58.2435 32.0551L55.325 50.6717C55.0638 52.3458 55.325 50.6717 55.0536 52.3356C54.9238 53.122 54.7293 53.7137 54.4942 54.2144C54.172 54.9034 53.6026 55.4181 52.958 55.8579C52.3521 56.2733 51.5638 56.5185 50.5604 56.6625C49.6587 56.7922 48.6292 56.8348 47.6177 56.7699C46.8558 56.7213 46.0066 56.618 45.5121 56.4254C45.0258 56.2347 44.7178 56.1254 44.3103 55.8235C43.9131 55.5337 43.7105 55.319 43.449 54.9015C43.1471 54.411 43.0641 54.0847 42.9667 53.505C42.8634 52.901 42.8815 52.4349 42.9585 51.8288C43.0416 51.142 43.072 51.0952 43.149 50.6252C43.1876 50.3981 43.2302 50.2158 43.2565 50.0455C44.3873 43.9454 44.9406 39.3205 46.1059 32.0592L51.4301 32.043L48.4164 51.0771L48.3211 51.6385C48.3211 51.6385 48.2624 51.9404 48.3008 52.1288C48.3392 52.3356 48.392 52.4633 48.546 52.6052C48.6879 52.7389 48.8137 52.7976 49.0121 52.7957C49.1865 52.7936 49.294 52.7612 49.4417 52.6659C49.5736 52.5808 49.6303 52.4998 49.7134 52.3661C49.8492 52.143 49.835 51.9769 49.8917 51.7216C49.9424 51.4985 49.985 51.1459 49.985 51.1459Z" fill="#009CE4"/>
<path fill-rule="evenodd" clip-rule="evenodd" d="M85.9774 32.2588L82.3709 56.4294H91.0173L91.6285 52.3331H88.3719L89.4712 44.9843H92.2858L92.898 40.8875H90.0824L90.76 36.3566H93.9948L94.6077 32.2588H85.9774Z" fill="#92999C"/>
<path fill-rule="evenodd" clip-rule="evenodd" d="M131.548 32.2588L129.982 42.4682L129.282 32.2622L124.446 32.2588L120.832 56.4294H126.061L128.074 42.9617L128.663 56.4294H133.122L136.735 32.2588H131.548Z" fill="#92999C"/>
<path fill-rule="evenodd" clip-rule="evenodd" d="M77.0169 40.6441L77.646 36.5473C77.7024 36.1979 77.6485 35.9399 77.0734 35.935C76.3918 35.9293 76.333 36.0415 76.2507 36.5311L73.9103 52.023C73.8555 52.4416 74.2168 52.648 74.5492 52.648C74.9597 52.648 75.1361 52.365 75.1772 52.0368L76.2507 45.1551L81.6816 45.1445L80.6517 52.036C80.0492 55.5546 78.5209 56.7514 73.1756 56.6506C67.8061 56.6183 68.4148 52.7093 68.4148 52.7093L70.902 36.0835C71.4941 32.4929 73.2119 32.1325 76.892 32.113C82.2665 32.0132 83.3131 33.9641 82.9399 36.7471L82.3268 40.6547L77.0169 40.6441Z" fill="#92999C"/>
<path fill-rule="evenodd" clip-rule="evenodd" d="M93.4146 56.4298L97.0436 32.1094H102.47L98.9145 56.4298H93.4146Z" fill="#92999C"/>
<path fill-rule="evenodd" clip-rule="evenodd" d="M112.826 56.4298L116.455 32.1094H121.881L118.325 56.4298H112.826Z" fill="#92999C"/>
<path fill-rule="evenodd" clip-rule="evenodd" d="M107.578 52.253L110.582 32.1224L105.125 32.1094L101.523 56.4169H110.404L111.038 52.253H107.578Z" fill="#92999C"/>
<path fill-rule="evenodd" clip-rule="evenodd" d="M144.383 32.075C140.703 32.0943 138.986 32.4548 138.394 36.0452L135.906 52.6712C135.906 52.6712 135.297 56.5802 140.667 56.6125C140.873 56.6163 141.063 56.6148 141.257 56.6148L141.253 56.6184H147.512L148.567 49.1637L149.173 45.1064L143.742 45.1168L143.093 49.279H144.433L144.118 51.3824C143.952 52.3761 144.046 52.7333 142.041 52.6099C141.708 52.6099 141.347 52.4035 141.402 51.9849L143.742 36.4928C143.825 36.0034 143.883 35.8914 144.565 35.8969C145.14 35.9016 145.194 36.1599 145.137 36.5089L144.508 40.6063L149.818 40.6165L150.431 36.709C150.805 33.9258 149.758 31.9751 144.383 32.075Z" fill="#92999C"/>
<path fill-rule="evenodd" clip-rule="evenodd" d="M73.5908 64.8891C72.9712 64.1067 72.1716 63.7144 71.1868 63.7144C70.8684 63.7144 70.5476 63.7785 70.2219 63.907C69.8961 64.0328 69.6048 64.2204 69.3456 64.4673C69.0865 64.7164 68.8742 65.0272 68.7089 65.4001C68.5411 65.7752 68.4571 66.2095 68.4571 66.7032C68.4571 67.3523 68.6325 67.8755 68.9828 68.2752C69.3333 68.6751 69.7996 69.0552 70.3847 69.4131C70.7525 69.6501 71.1227 69.914 71.5003 70.2055C71.8754 70.4942 72.2136 70.8298 72.5121 71.2125C72.8133 71.5974 73.055 72.0317 73.2402 72.5154C73.423 73.0018 73.5142 73.5595 73.5142 74.1913C73.5142 75.1613 73.3613 76.0128 73.0528 76.7458C72.7418 77.4788 72.3247 78.0908 71.799 78.5843C71.2733 79.0781 70.6685 79.4532 69.9848 79.7099C69.3012 79.9641 68.5733 80.0924 67.8056 80.0924C66.8208 80.0924 65.9175 79.9098 65.0907 79.5421C64.2638 79.1768 63.6246 78.7054 63.1754 78.1254L64.9524 75.9782C65.2857 76.4225 65.7028 76.7802 66.2037 77.0519C66.7049 77.3258 67.2379 77.4614 67.8056 77.4614C68.6077 77.4614 69.2715 77.2146 69.7974 76.7186C70.3231 76.225 70.5845 75.5191 70.5845 74.5986C70.5845 73.9518 70.4143 73.399 70.0713 72.9375C69.7306 72.4784 69.2 72.0266 68.4819 71.5849C68.1142 71.363 67.7563 71.1112 67.4057 70.8298C67.0554 70.5485 66.7469 70.2252 66.4803 69.8597C66.2111 69.4922 65.9989 69.075 65.8409 68.6086C65.683 68.1396 65.6041 67.5891 65.6041 66.9598C65.6041 66.0911 65.7497 65.2989 66.0409 64.5831C66.3322 63.8674 66.7294 63.2553 67.2306 62.7443C67.7315 62.2336 68.3239 61.8361 69.0074 61.5548C69.6935 61.2736 70.4366 61.1328 71.2362 61.1328C72.137 61.1328 72.9466 61.2832 73.6647 61.5821C74.383 61.8781 74.9581 62.2926 75.3924 62.8208L73.5908 64.8891Z" fill="#92999C"/>
<path fill-rule="evenodd" clip-rule="evenodd" d="M82.2782 71.3036C82.2782 70.5016 82.1524 69.855 81.9032 69.3613C81.6515 68.8677 81.2417 68.6209 80.6765 68.6209C80.1903 68.6209 79.7585 68.838 79.3735 69.2725C78.9882 69.7069 78.6675 70.2473 78.4108 70.8939C78.1517 71.5407 77.9492 72.2389 77.8085 72.9893C77.668 73.7396 77.5963 74.4283 77.5963 75.0599C77.5963 75.8251 77.7222 76.452 77.9714 76.9357C78.2207 77.4221 78.6231 77.6663 79.1734 77.6663C79.6743 77.6663 80.1162 77.4516 80.5011 77.0271C80.8838 76.6002 81.2046 76.072 81.4638 75.4426C81.7228 74.8133 81.9229 74.1272 82.0659 73.3843C82.2067 72.6439 82.2782 71.9502 82.2782 71.3036ZM84.9562 71.1506C84.9562 72.2563 84.8181 73.3472 84.5442 74.4209C84.2678 75.4943 83.8728 76.452 83.3543 77.2936C82.8362 78.1377 82.2068 78.814 81.4639 79.3247C80.7211 79.8359 79.8918 80.0924 78.9735 80.0924C77.6878 80.0924 76.6906 79.6407 75.9824 78.7376C75.2715 77.8366 74.9161 76.6421 74.9161 75.1613C74.9161 74.0358 75.0543 72.9375 75.3307 71.8639C75.6046 70.7927 76.007 69.8376 76.5327 69.0033C77.0584 68.1693 77.6878 67.5004 78.4232 66.9968C79.1563 66.4959 79.9905 66.2441 80.9259 66.2441C82.2117 66.2441 83.2039 66.6858 83.905 67.5719C84.6058 68.458 84.9562 69.6501 84.9562 71.1506Z" fill="#92999C"/>
<path fill-rule="evenodd" clip-rule="evenodd" d="M88.5868 79.6585H85.8569L89.1618 60.3408H91.8667L88.5868 79.6585Z" fill="#92999C"/>
<mask id="mask0" mask-type="alpha" maskUnits="userSpaceOnUse" x="91" y="66" width="12" height="15">
<path fill-rule="evenodd" clip-rule="evenodd" d="M91.9163 66.7031H102.633V80.0924H91.9163V66.7031Z" fill="white"/>
</mask>
<g mask="url(#mask0)">
<path fill-rule="evenodd" clip-rule="evenodd" d="M100.93 76.4396C100.895 76.6099 100.861 76.8444 100.816 77.1407C100.776 77.4392 100.727 77.7477 100.678 78.0685C100.628 78.3896 100.584 78.6954 100.54 78.9892C100.5 79.2828 100.471 79.5075 100.456 79.6581H97.8742C97.9086 79.4012 97.9481 79.0757 97.9875 78.6733C98.0321 78.2734 98.0864 77.886 98.1505 77.5109H98.1012C97.7705 78.2265 97.3114 78.8362 96.7337 79.3396C96.1512 79.8409 95.4651 80.0925 94.6704 80.0925C94.167 80.0925 93.7374 80.0035 93.3822 79.8257C93.0269 79.6507 92.7454 79.4137 92.5357 79.1199C92.3259 78.8239 92.1679 78.4857 92.0692 78.1081C91.9655 77.728 91.9163 77.3406 91.9163 76.9506C91.9163 76.6766 91.9333 76.3534 91.9655 75.9782C92.0001 75.6056 92.0518 75.2376 92.1185 74.8799L93.5352 66.7031H96.2502L94.8482 74.8551C94.7642 75.2796 94.72 75.6894 94.72 76.0817C94.72 76.5236 94.8089 76.8987 94.9816 77.2048C95.1592 77.5109 95.485 77.6662 95.9687 77.6662C96.2846 77.6662 96.5857 77.575 96.8769 77.3972C97.1682 77.2171 97.4298 76.9751 97.6619 76.6693C97.8938 76.3632 98.0961 76.0004 98.2591 75.5832C98.4269 75.1663 98.5503 74.7095 98.6343 74.2159L99.9079 66.7031H102.633L100.93 76.4396Z" fill="#92999C"/>
</g>
<path fill-rule="evenodd" clip-rule="evenodd" d="M110.066 68.9024H107.939L106.789 75.5439C106.754 75.6969 106.729 75.8647 106.712 76.0423C106.695 76.2226 106.688 76.3705 106.688 76.4891C106.688 77.1703 107.038 77.511 107.739 77.511C107.872 77.511 108.023 77.4961 108.191 77.4615C108.356 77.4269 108.507 77.385 108.64 77.3332L108.314 79.5569C108.097 79.6581 107.848 79.7347 107.564 79.7865C107.28 79.8359 106.996 79.863 106.712 79.863C105.811 79.863 105.13 79.6286 104.671 79.1596C104.212 78.6907 103.983 78.0392 103.983 77.205C103.983 76.8987 104.017 76.551 104.084 76.1583L105.335 68.9024H103.632L104.01 66.6785H105.685L106.263 63.3047H108.891L108.314 66.6785H110.469L110.066 68.9024Z" fill="#92999C"/>
<path fill-rule="evenodd" clip-rule="evenodd" d="M115.526 62.6409C115.526 63.1864 115.358 63.6478 115.025 64.0205C114.691 64.3956 114.275 64.5832 113.773 64.5832C113.305 64.5832 112.947 64.4351 112.697 64.1364C112.446 63.8379 112.32 63.4923 112.32 63.1022C112.32 62.5915 112.487 62.1348 112.821 61.7351C113.157 61.3354 113.581 61.1328 114.099 61.1328C114.548 61.1328 114.899 61.2736 115.151 61.555C115.4 61.8363 115.526 62.1992 115.526 62.6409ZM112.495 79.6582H109.792L112.021 66.6787H114.724L112.495 79.6582Z" fill="#92999C"/>
<path fill-rule="evenodd" clip-rule="evenodd" d="M122.937 71.3036C122.937 70.5016 122.811 69.855 122.56 69.3613C122.31 68.8677 121.901 68.6209 121.333 68.6209C120.849 68.6209 120.415 68.838 120.032 69.2725C119.647 69.7069 119.326 70.2473 119.067 70.8939C118.808 71.5407 118.608 72.2389 118.467 72.9893C118.324 73.7396 118.255 74.4283 118.255 75.0599C118.255 75.8251 118.379 76.452 118.63 76.9357C118.88 77.4221 119.282 77.6663 119.832 77.6663C120.333 77.6663 120.775 77.4516 121.158 77.0271C121.543 76.6002 121.864 76.072 122.123 75.4426C122.382 74.8133 122.582 74.1272 122.722 73.3843C122.866 72.6439 122.937 71.9502 122.937 71.3036ZM125.615 71.1506C125.615 72.2563 125.477 73.3472 125.203 74.4209C124.927 75.4943 124.529 76.452 124.013 77.2936C123.495 78.1377 122.866 78.814 122.123 79.3247C121.38 79.8359 120.548 80.0924 119.632 80.0924C118.347 80.0924 117.35 79.6407 116.639 78.7376C115.93 77.8366 115.575 76.6421 115.575 75.1613C115.575 74.0358 115.713 72.9375 115.99 71.8639C116.264 70.7927 116.663 69.8376 117.189 69.0033C117.717 68.1693 118.347 67.5004 119.08 66.9968C119.815 66.4959 120.649 66.2441 121.585 66.2441C122.868 66.2441 123.863 66.6858 124.564 67.5719C125.265 68.458 125.615 69.6501 125.615 71.1506Z" fill="#92999C"/>
<path fill-rule="evenodd" clip-rule="evenodd" d="M137.181 69.3858C137.181 69.6772 137.156 70.0054 137.106 70.3707C137.057 70.7359 137 71.1061 136.934 71.4813L135.569 79.6581H132.849L134.253 71.4886C134.285 71.2666 134.315 71.0519 134.34 70.847C134.364 70.6421 134.377 70.4397 134.377 70.2326C134.377 69.8054 134.291 69.4401 134.115 69.1316C133.94 68.8255 133.609 68.6702 133.125 68.6702C132.491 68.6702 131.931 68.9958 131.447 69.645C130.964 70.2942 130.63 71.1209 130.448 72.1278L129.169 79.6581H126.467L128.143 69.924C128.16 69.7536 128.194 69.5092 128.244 69.1957C128.293 68.8798 128.345 68.5565 128.394 68.2234C128.444 67.8926 128.491 67.5842 128.532 67.3054C128.572 67.0241 128.601 66.8141 128.619 66.6783H131.198C131.163 66.9178 131.124 67.2411 131.072 67.6483C131.023 68.0579 130.973 68.4332 130.921 68.7739H130.973C131.307 68.0579 131.77 67.4584 132.363 66.9721C132.955 66.4859 133.644 66.2441 134.426 66.2441C134.922 66.2441 135.344 66.3329 135.692 66.5129C136.04 66.6908 136.324 66.9303 136.549 67.2263C136.771 67.525 136.934 67.863 137.033 68.2357C137.131 68.6108 137.181 68.9958 137.181 69.3858Z" fill="#92999C"/>
<path fill-rule="evenodd" clip-rule="evenodd" d="M145.619 69.2846C145.385 68.996 145.103 68.7739 144.767 68.6209C144.434 68.4678 144.049 68.3912 143.617 68.3912C143.131 68.3912 142.707 68.5469 142.339 68.8628C141.973 69.1785 141.788 69.6253 141.788 70.2053C141.788 70.4422 141.823 70.647 141.89 70.8175C141.956 70.9877 142.052 71.1408 142.176 71.2764C142.302 71.4147 142.46 71.5407 142.652 71.6614C142.845 71.7798 143.074 71.9082 143.341 72.044C144.042 72.4364 144.632 72.9004 145.106 73.4359C145.582 73.9741 145.819 74.7022 145.819 75.6203C145.819 76.4051 145.686 77.0763 145.419 77.6391C145.152 78.2018 144.802 78.6659 144.368 79.031C143.933 79.3989 143.445 79.6654 142.904 79.8357C142.361 80.0061 141.806 80.0924 141.238 80.0924C140.453 80.0924 139.72 79.9394 139.034 79.6333C138.35 79.3247 137.817 78.925 137.432 78.4315L139.086 76.6421C139.335 76.9677 139.644 77.2467 140.011 77.486C140.379 77.7255 140.828 77.8439 141.364 77.8439C141.865 77.8439 142.297 77.6786 142.665 77.3453C143.032 77.0146 143.215 76.5508 143.215 75.9534C143.215 75.4426 143.05 75.0204 142.716 74.6875C142.381 74.3566 141.964 74.063 141.463 73.8061C140.828 73.5001 140.3 73.0879 139.873 72.5673C139.449 72.049 139.234 71.3628 139.234 70.5112C139.234 69.7956 139.365 69.1736 139.624 68.6454C139.881 68.1173 140.229 67.6756 140.663 67.3177C141.095 66.9598 141.584 66.6908 142.127 66.5131C142.67 66.3329 143.232 66.2441 143.817 66.2441C144.535 66.2441 145.17 66.3601 145.72 66.5896C146.27 66.8192 146.712 67.1052 147.045 67.4437L145.619 69.2846Z" fill="#92999C"/>
</svg>
