<svg width="151" height="101" viewBox="0 0 151 101" fill="none" xmlns="http://www.w3.org/2000/svg">
<path fill-rule="evenodd" clip-rule="evenodd" d="M77.0565 16.1634C77.5409 16.4189 77.8904 16.7619 78.1169 16.6939C78.8998 16.4597 79.6527 16.1069 80.3809 15.7302C80.4806 15.6788 80.4691 15.1685 80.341 14.9931C80.2207 14.828 79.8163 14.6925 79.6442 14.773C78.8434 15.1478 78.0799 15.6023 77.0565 16.1634ZM61.455 32.8824C61.4569 32.9734 61.4587 33.0642 61.4606 33.1549C61.655 33.2356 61.8455 33.3741 62.0444 33.387C62.9976 33.4492 63.6574 32.9458 63.9985 31.6835C64.4372 30.0592 65.0328 28.6027 66.5486 27.6522C67.175 27.2594 67.3568 26.5881 66.9988 25.7752C65.1565 27.061 63.75 28.6341 63.2743 30.8051C63.0358 31.8934 62.8893 32.8445 61.455 32.8824ZM77.5478 32.8111C79.099 32.7188 79.4267 32.4484 79.7641 30.9226C79.8519 30.5253 79.914 30.1151 79.9235 29.7091C79.9505 28.5742 79.5387 28.0003 78.46 27.6669C77.8492 27.4781 77.2127 27.3698 76.6059 27.1699C75.7905 26.9014 75.4357 26.3476 75.4132 25.4886C75.391 24.6501 75.7615 24.0076 76.3779 23.4871C76.7302 23.1896 77.1117 22.927 77.4676 22.6334C78.6258 21.6775 78.7603 20.4051 77.7615 19.2803C76.5585 17.9253 74.9832 17.7086 73.3202 18.0744C71.6875 18.4335 70.7061 19.5307 70.3285 21.1395C69.8961 22.9814 70.3749 24.6475 71.6668 25.9677C73.2522 27.588 74.5141 29.3634 75.3088 31.5007C75.7335 32.6429 76.3114 32.8845 77.5478 32.8111ZM50.4656 0.556641C50.3541 1.47153 50.1945 2.38379 50.148 3.30176C50.1176 3.9008 49.9249 4.33214 49.5347 4.7969C48.4825 6.04995 47.4053 7.30686 46.5463 8.69128C45.0361 11.1256 44.7845 13.7409 45.9695 16.4101C46.2117 16.9556 46.1847 17.3655 45.8185 17.8715C44.255 20.0327 43.1775 22.3936 43.2391 25.1299C43.3151 28.5063 44.9724 31.0695 47.5239 33.12C48.5342 33.9322 49.6975 33.9024 50.9824 33.4719C50.7463 33.2811 50.5841 33.1332 50.4054 33.0089C49.8582 32.628 49.3005 32.2619 48.7542 31.8797C46.0208 29.9675 45.3406 27.7611 46.6412 24.6797C47.0551 23.6989 47.61 22.7486 48.2535 21.9004C49.254 20.5817 50.9184 20.906 51.559 21.9961C51.1717 22.2222 50.7855 22.4523 50.3951 22.6753C48.7893 23.5926 47.7639 24.8839 47.8384 26.8183C47.885 28.0283 48.5202 28.9811 49.4495 29.9805C49.2876 29.0513 49.075 28.2975 49.0469 27.5369C49.0189 26.7835 49.0631 25.9886 49.2792 25.2736C49.634 24.1008 51.0047 23.4539 52.21 23.8515C51.8961 24.3624 51.5896 24.8478 51.2965 25.3408C50.3801 26.8816 50.506 28.3398 51.6456 29.4569C51.4482 27.7261 52.0404 26.434 53.4423 25.7883C53.4423 26.1107 53.4721 26.3705 53.4366 26.6211C53.3397 27.3062 53.1975 27.9852 53.1053 28.6708C52.8435 30.6165 53.9342 32.3118 55.9804 33.1677C57.8568 33.9526 59.5624 33.5524 60.8157 31.9373C60.2589 32.0269 59.8054 32.1398 59.3469 32.164C58.7117 32.1977 58.0593 32.2478 57.4378 32.1461C54.6822 31.6952 54.3058 29.5108 54.5417 27.6237C54.6281 26.9342 55.2735 26.7361 55.6908 27.293C55.961 27.6535 56.1 28.234 56.0511 28.6897C55.8801 30.2886 56.2306 30.8205 57.8431 31.1142C60.3831 31.5768 62.2239 30.6675 63.1207 28.2665C63.7711 26.525 64.8188 25.277 66.4753 24.4633C67.8377 23.794 68.7767 22.7572 68.9228 21.1615C69.0811 19.431 70.0677 18.2433 71.4476 17.3164C71.9371 16.9876 72.4411 16.6804 72.9284 16.3488C73.1443 16.2019 73.3353 16.0185 73.494 15.7649C72.5436 15.5365 71.7201 15.8357 70.9525 16.2832C70.4689 16.5654 70.0773 17.0155 69.5803 17.2602C69.3051 17.3955 68.8981 17.2634 68.5506 17.2519C68.6515 16.9833 68.6724 16.594 68.8662 16.4657C70.1417 15.6218 71.4119 14.7525 72.7668 14.0518C74.0825 13.3712 75.4967 12.8804 76.8698 12.3119C77.0582 12.2338 77.2681 12.1215 77.4535 12.144C77.6949 12.1733 77.9219 12.3212 78.1551 12.4181C78.0425 12.6237 77.9807 12.9109 77.8073 13.0184C77.3968 13.2728 76.9203 13.4182 76.4942 13.6505C75.7461 14.0585 75.2152 14.644 75.01 15.8091C77.5201 14.9764 79.7585 13.9939 82.1347 12.9851C81.0773 11.925 79.9426 12.8274 78.7456 12.3585C80.2768 11.3984 81.6471 10.5391 83.0173 9.67977C82.9742 9.59015 82.931 9.50037 82.8881 9.41074C81.4595 9.85794 80.0309 10.3051 78.6023 10.7522C78.5455 10.6644 78.4887 10.5766 78.4316 10.4889C78.6328 10.2342 78.7806 9.87026 79.0436 9.74137C81.7574 8.41193 84.5733 7.45131 87.6392 7.4895C87.6871 7.55757 87.735 7.62579 87.7829 7.69385C87.5256 7.90867 87.2949 8.17216 87.006 8.32893C86.1739 8.77998 85.2397 9.08381 84.4956 9.64435C83.8489 10.1317 83.3472 10.8515 82.8948 11.5428C82.6092 11.9794 82.6896 12.4626 83.3131 12.713C83.8733 12.938 83.907 13.2642 83.4316 13.6544C83.1575 13.8791 82.7868 13.9899 82.5254 14.2251C82.3328 14.3983 82.2467 14.69 82.1133 14.9288C82.4069 15.063 82.6993 15.2005 82.9965 15.3269C83.4943 15.1803 83.9025 14.727 84.1832 15.3222C84.4527 15.8935 84.3128 16.4457 83.7959 16.8245C83.5574 16.9995 83.2418 17.082 82.9498 17.1679C82.5575 17.2836 82.1253 17.3031 81.7661 17.4784C81.5413 17.5879 81.4194 17.9082 81.2514 18.1338C81.5069 18.2299 81.7836 18.4399 82.0133 18.3973C82.4305 18.3198 82.8183 18.0884 83.2214 17.9287C83.5138 17.8129 83.811 17.7091 84.1476 17.5845C84.3736 18.4433 83.9846 18.8694 83.3773 19.1414C82.9823 19.3185 82.5337 19.3813 82.15 19.5761C81.9696 19.6676 81.8856 19.9491 81.7579 20.1445C81.9579 20.1978 82.1834 20.3385 82.3536 20.2891C83.04 20.0891 83.7032 19.8105 84.3878 19.604C84.636 19.529 85.08 19.472 85.1544 19.5875C85.2944 19.8043 85.3587 20.2454 85.2262 20.4283C84.8789 20.9083 84.4659 21.3868 83.9746 21.7054C83.2706 22.1622 82.4367 22.4184 81.73 22.8721C81.2738 23.1648 80.8671 23.6116 80.5946 24.08C80.4594 24.3124 80.6766 24.7494 80.7343 25.0941C81.0508 25.0394 81.4036 25.0554 81.6764 24.9157C82.3026 24.5954 82.8562 24.1125 83.5032 23.8599C84.0594 23.6427 84.3387 23.9871 84.0225 24.4895C83.7096 24.9869 83.2427 25.4061 82.7841 25.7883C82.2369 26.2444 81.6163 26.6114 81.05 27.0461C80.867 27.1865 80.7548 27.4191 80.5757 27.655C81.2007 28.0007 81.647 27.8517 82.0771 27.5109C82.4986 27.1767 82.9113 26.8262 83.3629 26.5375C83.5257 26.4332 83.8497 26.399 83.9916 26.4943C84.1345 26.5904 84.2453 26.9215 84.1888 27.0885C84.0709 27.436 83.887 27.7945 83.6345 28.0565C83.0665 28.6455 82.3898 29.1347 81.8563 29.7504C81.5401 30.1155 81.4117 30.6434 81.1988 31.0982C81.6739 30.9992 82.1768 30.9656 82.6143 30.7786C82.9213 30.6476 83.1498 30.3174 83.3941 30.0581C83.622 29.816 83.781 29.4818 84.049 29.3115C84.4044 29.0855 84.8363 28.9791 85.2353 28.8212C85.2297 29.261 85.3795 29.7875 85.1911 30.1254C84.4638 31.4283 83.3277 32.3572 82.0602 33.1172C81.583 33.4033 81.1327 33.6754 81.1694 34.5464C81.7078 34.3794 82.2666 34.3412 82.6457 34.0604C83.463 33.4552 84.1923 32.7302 84.9472 32.0426C85.0965 31.9068 85.188 31.7102 85.324 31.5574C85.5904 31.2585 85.8424 30.8171 86.3254 31.1719C86.8281 31.5412 86.454 31.9411 86.2197 32.2279C85.4437 33.1767 84.6109 34.0784 83.8184 35.014C83.3569 35.5585 82.9115 36.1192 82.4994 36.7013C82.355 36.905 82.3315 37.1945 82.2158 37.5626C84.7446 36.7921 85.4795 34.2027 87.4836 32.9381C87.8472 33.6046 87.6464 34.1619 87.2494 34.5223C86.2388 35.4398 85.565 36.5551 84.9497 37.7501C84.6925 38.2496 84.1752 38.6272 83.7411 39.0215C82.5434 40.109 82.4484 41.6475 83.5634 42.8189C83.9323 43.2063 84.3672 43.535 84.793 43.8634C85.1954 44.1737 85.5429 44.1162 85.8041 43.6457C86.6306 42.1572 87.7989 40.8496 88.1658 39.1165C88.2221 38.8507 88.3834 38.5914 88.548 38.3669C89.3115 37.3244 90.0932 36.2951 90.8944 35.2263C91.1018 35.9727 90.9898 36.6562 90.5783 37.2728C90.2374 37.7834 89.7883 38.2254 89.4772 38.751C89.1183 39.358 88.7291 39.996 88.5865 40.6699C88.3918 41.5905 88.016 42.3498 87.3767 43.0182C86.9119 43.5043 86.462 44.0348 86.6306 44.7782C86.6911 45.0452 86.8647 45.4376 87.0592 45.4866C87.3246 45.5535 87.7868 45.4419 87.9377 45.2385C88.2625 44.801 88.5632 44.2777 88.6583 43.7507C88.9265 42.2624 89.33 40.8673 90.3859 39.7156C90.6704 39.4051 90.7995 38.9545 91.0121 38.5749C91.1243 38.3746 91.2199 38.1056 91.3983 38.0141C91.7587 37.8295 92.2624 37.5389 92.5407 37.6635C93.0527 37.8929 92.9595 38.5007 92.6431 38.8589C91.1734 40.523 90.9155 42.7773 89.7747 44.6059C89.0587 45.7534 89.2939 46.1635 90.5783 46.6383C90.9355 46.7703 91.2805 46.9358 91.6635 47.0998C90.4758 49.3799 90.5959 51.8319 90.4609 54.3367C89.7612 54.0185 89.1295 53.6936 88.4709 53.4384C84.8187 52.0235 81.1535 50.6423 77.5096 49.2065C76.8629 48.9518 76.2796 48.5179 75.703 48.1154C75.5566 48.0133 75.4431 47.6708 75.5063 47.5177C75.5676 47.3687 75.8852 47.2236 76.0718 47.2443C77.1357 47.3618 78.2611 47.3491 79.2411 47.7144C81.9469 48.7234 84.7762 49.4505 87.2651 50.9939C87.3298 51.0339 87.4027 51.063 87.475 51.0886C87.8777 51.232 88.3395 51.5048 88.6101 50.9551C88.8673 50.432 88.5306 50.0798 88.0855 49.8401C86.0978 48.7696 84.109 47.7072 81.8329 47.3505C80.7904 47.1873 79.8937 46.7022 79.1523 45.947C79.0701 45.8632 79.0334 45.735 78.9416 45.5643C80.2834 44.9456 81.4652 45.937 82.7981 45.6598C82.3575 45.4022 81.9238 45.1322 81.4743 44.8915C81.2051 44.7474 80.8773 44.6933 80.6416 44.5128C80.5003 44.4046 80.4174 44.1223 80.4413 43.9351C80.4543 43.8334 80.7416 43.7577 80.9121 43.6873C81.1477 43.5903 81.39 43.5093 81.6294 43.4213C81.4461 43.1985 81.2652 42.9735 81.0774 42.7545C80.464 42.4743 79.7439 42.3772 79.5672 42.0152C79.2206 41.3053 79.101 40.4548 79.0248 39.6495C78.9024 38.356 78.9151 37.0502 78.8257 35.7528C78.7672 34.9029 78.2928 34.4422 77.4572 34.2115C76.8701 34.0495 76.2873 33.857 75.7252 33.6234C74.9934 33.3194 74.3602 33.4928 73.7998 33.9688C73.5326 34.1958 73.3111 34.4982 73.1324 34.8036C72.3281 36.178 72.231 36.2359 70.5193 35.9949C70.8063 36.4381 71.0021 36.8035 71.2577 37.1208C71.657 37.6162 71.4624 37.8767 70.9372 37.9622C70.6773 38.0045 70.3376 37.987 70.131 37.8502C69.3674 37.3444 68.7379 37.5995 68.0049 38.1622C68.2682 38.3039 68.5196 38.3734 68.6687 38.5363C68.8605 38.746 68.9705 39.0308 69.1158 39.2832C68.8448 39.3871 68.57 39.5858 68.3039 39.5747C67.7874 39.553 67.2756 39.4135 66.6373 39.3007C66.8542 39.7863 67.0257 40.098 67.1354 40.4301C67.3777 41.1636 67.1584 41.4081 66.422 41.2404C65.9553 41.1342 65.4955 40.9985 64.9817 40.8627C65.2006 41.3065 65.4284 41.6516 65.5452 42.0308C65.7538 42.7085 65.513 42.9302 64.8138 42.8023C63.7606 42.6095 62.705 42.4299 61.6491 42.2534C61.528 42.2333 61.3977 42.2688 61.019 42.2978C61.6761 42.6332 62.1164 42.9171 62.5964 43.093C64.7361 43.8772 66.8863 44.633 69.0348 45.3931C69.4897 45.554 70.0055 45.6341 70.0127 46.4074C69.5384 46.4074 69.0477 46.51 68.618 46.3914C64.9384 45.3763 61.2698 44.3216 57.5986 43.2761C57.523 42.5764 57.6045 41.9693 57.6312 41.3599C57.665 40.585 57.5104 39.9053 57.042 39.2023C56.4737 38.3489 56.1859 37.3086 55.752 36.2912C56.431 35.9416 56.9451 36.2482 57.3864 36.6934C57.6338 36.9431 57.8026 37.2754 57.9853 37.5832C58.9933 39.2836 60.2805 39.8011 62.4419 39.3192C60.6286 38.5255 58.5629 38.0643 58.2232 35.7521C58.3033 35.6604 58.3831 35.5688 58.4631 35.4772C58.9465 35.8993 59.4402 36.3103 59.9117 36.7455C61.3352 38.0597 62.9883 38.2839 64.6905 37.529C65.4437 37.195 66.0428 36.4854 66.6643 35.8962C66.932 35.6423 67.0787 35.2608 67.318 34.8772C68.0507 35.3337 68.5289 35.0195 68.9493 34.3903C69.1423 34.1012 69.5 33.9272 69.73 33.6562C69.9547 33.3916 70.1608 33.0878 70.2783 32.7661C70.3399 32.5973 70.2564 32.2527 70.1247 32.1711C69.9921 32.089 69.6572 32.1678 69.5196 32.2944C69.2628 32.5305 69.0751 32.8459 68.8767 33.1403C68.7267 33.3628 68.6045 33.604 68.4603 33.8535C67.7062 33.1776 67.7023 32.5848 68.3865 31.9224C68.7726 31.5482 69.2146 31.2221 69.5498 30.8084C69.8058 30.4924 69.9335 30.0724 70.1599 29.6144C69.3127 29.4554 68.9063 29.8605 68.5287 30.316C68.3656 30.5128 68.2563 30.8359 68.0576 30.9C67.8228 30.9758 67.4609 30.9072 67.2654 30.7568C67.1562 30.6727 67.1762 30.2065 67.3053 30.0678C67.6686 29.6771 68.1454 29.3944 68.5281 29.0188C69.2227 28.3367 69.1304 27.4219 68.252 26.7173C68.1086 26.9865 67.9339 27.2257 67.8476 27.4932C67.5846 28.3101 67.1194 28.9413 66.368 29.3819C65.3557 29.9756 65.0019 30.9699 64.7417 32.0523C64.5724 32.7569 64.3246 33.4806 63.9389 34.0852C63.491 34.7868 62.7603 34.9145 61.9617 34.5732C61.6054 34.4212 61.2111 34.3575 60.7955 34.2431C60.8419 35.2155 61.4607 35.8149 62.3193 35.8586C64.1647 35.9524 65.3853 34.8709 65.5455 32.9529C65.5918 32.401 65.7202 31.9944 66.3534 31.9519C67.04 31.9059 67.4654 32.3021 67.2161 32.9293C66.528 34.6599 65.5588 36.2864 63.6449 36.7864C61.976 37.2226 60.6474 36.2795 59.6778 34.9859C59.2326 34.3921 58.8628 34.2994 58.2304 34.5603C57.4236 34.8931 56.5896 34.9223 55.7574 34.588C55.5278 34.4956 55.2718 34.4694 54.994 34.4051C54.687 35.9416 54.6366 37.3847 55.6572 38.7066C54.1316 38.3903 53.0441 35.8682 53.0386 32.7778C52.1959 33.2664 51.8512 34.1511 52.0569 35.3435C52.43 37.5078 53.3826 39.2113 55.6541 39.8851C55.8238 39.9355 56.0444 40.1793 56.0535 40.3436C56.0961 41.1057 56.0724 41.8715 56.0724 42.7584C55.1781 42.4318 54.3844 42.1672 53.6101 41.8546C50.404 40.5598 47.1796 39.3057 44.0128 37.9203C42.6838 37.3388 41.5083 36.4159 40.2116 35.7479C39.4026 35.3313 38.5182 35.0123 37.631 34.809C36.3754 34.5213 35.5296 35.0572 35.4948 36.3322C35.4542 37.8261 35.6259 39.3445 35.8721 40.8245C36.7673 46.206 38.3361 51.4137 40.4758 56.4157C41.9712 59.9114 41.5659 63.2152 40.2136 66.5503C39.5983 68.0678 38.8946 69.5504 38.1899 71.0293C38.0871 71.2449 37.7558 71.4859 37.5284 71.4875C33.8316 71.5143 30.1344 71.5045 26.4373 71.5003C26.3651 71.5003 26.2928 71.4669 26.1738 71.4375C26.155 71.2432 26.1194 71.0467 26.1194 70.85C26.1194 47.4189 26.1221 23.9878 26.1246 0.556641H50.4656Z" fill="#003366"/>
<path fill-rule="evenodd" clip-rule="evenodd" d="M125.029 71.5484C123.516 71.535 122.002 71.4875 120.49 71.523C119.784 71.5394 119.216 71.3419 118.635 70.9583C114.293 68.0887 110.014 65.1094 105.555 62.4322C101.43 59.9558 97.1143 57.7963 92.8603 55.5387C92.3232 55.2537 92.0881 54.9722 92.1401 54.3735C92.2926 52.6138 92.3966 50.8497 92.5562 49.0907C92.5944 48.6706 92.7757 48.2632 92.8932 47.8425C93.8524 47.8649 94.5504 48.1059 95.0585 48.9665C95.372 49.498 95.9671 49.9053 96.5114 50.2485C97.2229 50.6974 98.007 51.0319 98.7634 51.4084C100.171 52.1087 101.28 51.5099 101.634 49.9863C101.837 49.1099 102.293 48.295 102.567 47.4307C102.752 46.8443 102.913 46.2208 102.917 45.613C102.923 44.714 102.527 43.8114 102.916 42.9017C103.759 43.1537 104.417 44.1049 104.195 45.1749C103.897 46.6119 103.494 48.0664 102.868 49.386C102.152 50.8926 102.078 50.9913 103.635 51.5707C105.103 52.1167 105.78 51.8267 106.434 50.3793C106.571 50.0759 106.698 49.763 106.874 49.483C107.458 48.5586 107.748 47.6346 107.072 46.6166C106.956 46.4422 106.917 46.1557 106.964 45.9488C107.034 45.6436 107.213 45.3635 107.346 45.0728C107.561 45.2602 107.824 45.4143 107.982 45.6418C108.375 46.2097 108.732 46.8044 109.082 47.4007C109.453 48.0315 109.417 48.6441 108.849 49.1369C108.137 49.7536 107.776 50.4469 107.939 51.4363C107.994 51.7657 107.717 52.2024 107.487 52.5127C107.199 52.9016 107.137 53.2299 107.564 53.4807C109.061 54.3604 110.508 55.3566 112.387 55.2531C114.019 55.1631 115.101 54.2783 115.344 52.6798C115.713 50.2522 115.301 48.0373 113.867 45.9569C113.177 44.956 112.735 43.7127 112.46 42.5152C112.044 40.7058 111.238 39.2199 109.783 38.0735C109.038 37.4859 108.293 36.8962 107.583 36.2673C106.633 35.4256 106.638 34.9251 107.386 33.9078C107.707 33.4712 108.015 32.9473 108.093 32.4278C108.235 31.4758 107.649 30.7799 106.681 30.6855C105.69 30.5889 104.687 30.5675 103.692 30.5966C103.376 30.6059 103.061 30.8706 102.759 31.0414C102.583 31.1411 102.432 31.2868 102.27 31.4117L102.093 31.2844C102.364 30.5486 102.635 29.8128 102.912 29.0619C104.173 30.169 105.545 29.7091 106.872 29.4093C107.523 29.2622 107.692 28.7014 107.59 28.0656C107.497 27.485 107.438 26.8977 107.317 26.3236C107.277 26.1385 107.107 25.8648 106.96 25.8391C106.347 25.7316 105.699 25.5798 105.103 25.6786C104.438 25.7889 103.854 25.8326 103.261 25.4726C102.633 25.0916 102.112 25.1358 101.743 25.8757C101.661 26.0405 101.354 26.0932 101.151 26.1973C101.066 25.9552 100.864 25.6836 100.916 25.4755C101.201 24.3392 101.531 23.2129 101.88 22.0935C102.284 20.7965 103.52 20.2381 104.53 20.9565C104.234 21.1778 103.956 21.3782 103.686 21.5894C102.974 22.1474 102.748 22.8607 103.061 23.539C103.362 24.1906 104.008 24.4283 104.874 24.3669C105.989 24.2877 107.112 24.3173 108.231 24.2776C108.866 24.2551 109.536 24.3039 110.126 24.1177C111.612 23.6491 112.007 22.0025 110.959 20.8513C110.494 20.3393 109.908 19.9195 109.515 19.3611C108.575 18.0274 107.635 16.6816 106.853 15.2538C106.234 14.123 105.575 13.1003 104.431 12.4548C103.32 11.8275 103.002 10.8686 103.196 9.64558C103.269 9.18052 103.239 8.67187 103.134 8.21127C102.813 6.81639 102.428 5.43659 102.078 4.04863C101.691 2.51684 100.958 1.24916 99.4559 0.556641H125.029V71.5484Z" fill="#003366"/>
<path fill-rule="evenodd" clip-rule="evenodd" d="M30.4407 82.7854C31.0545 82.7854 31.5673 82.8232 32.0728 82.7783C33.5916 82.6432 34.2419 81.9375 34.3066 80.4017C34.3172 80.147 34.3148 79.8913 34.3082 79.6365C34.2582 77.7731 33.549 77.131 31.6761 77.2018C30.9403 77.2297 30.4763 77.5751 30.4543 78.2935C30.4091 79.7674 30.4407 81.2437 30.4407 82.7854ZM25.9706 76.4765C28.1261 76.4825 30.2833 76.4417 32.4364 76.5167C33.3425 76.5484 34.2787 76.7158 35.1328 77.0162C36.4214 77.4693 37.1744 78.4288 37.2004 79.8641C37.2275 81.352 36.6028 82.4983 35.2277 83.0348C34.3669 83.3708 33.3912 83.4415 32.4578 83.553C31.8274 83.6285 31.1809 83.5675 30.5066 83.5675C30.5066 85.1056 30.4775 86.6303 30.5216 88.1527C30.5381 88.7216 31.0412 88.8263 31.5262 88.9125C31.749 88.9521 31.9434 89.1504 32.1506 89.2766C32.1121 89.3731 32.0737 89.4695 32.0352 89.5661H25.9706V88.9501C26.1994 88.9234 26.4277 88.8799 26.6569 88.8734C27.3536 88.8538 27.6911 88.4896 27.6917 87.8091C27.6942 84.6277 27.6946 81.4464 27.6886 78.265C27.6874 77.5902 27.3446 77.2206 26.654 77.1855C26.4252 77.1739 26.1983 77.1245 25.9706 77.0925V76.4765Z" fill="#003366"/>
<path fill-rule="evenodd" clip-rule="evenodd" d="M28.3954 96.2174C28.7717 96.2174 29.025 96.2291 29.2769 96.2153C30.4654 96.1504 31.069 95.2511 30.6776 94.1369C30.4528 93.4977 29.8241 93.2028 29.04 93.3266C28.3476 93.436 28.3989 93.9446 28.3962 94.4345C28.3929 94.9939 28.3954 95.5535 28.3954 96.2174ZM28.4176 96.6415C28.4176 97.4617 28.4176 98.1772 28.4177 98.8925C28.4177 99.0207 28.3746 99.173 28.4285 99.2725C28.5499 99.4964 28.6978 99.85 28.8739 99.8748C29.5275 99.9672 30.3462 100.105 30.7004 99.4413C30.9818 98.9137 31.0348 98.1718 30.9433 97.5621C30.8375 96.8582 30.1427 96.699 29.5027 96.6461C29.1758 96.6193 28.8449 96.6415 28.4176 96.6415ZM25.9707 92.9541C27.2004 92.9601 28.4307 92.9453 29.6596 92.9821C30.1653 92.9972 30.6851 93.0661 31.1676 93.2124C31.7979 93.4038 32.222 93.8477 32.2602 94.5484C32.2995 95.2696 31.9587 95.7691 31.3027 96.0605C31.0754 96.1617 30.8501 96.2668 30.5822 96.3893C31.0156 96.5648 31.4013 96.6871 31.7546 96.8714C32.3713 97.1933 32.7269 97.7215 32.694 98.4239C32.6586 99.1804 32.2704 99.7647 31.5372 99.9861C30.9322 100.169 30.2901 100.285 29.6593 100.314C28.4316 100.368 27.2004 100.34 25.9707 100.346V100.038C26.7038 100.04 26.9788 99.7077 26.9516 98.9496C26.8967 97.4252 26.9004 95.8962 26.95 94.3715C26.9744 93.624 26.704 93.2738 25.9707 93.2621V92.9541Z" fill="#003366"/>
<path fill-rule="evenodd" clip-rule="evenodd" d="M85.7448 100.5C82.8623 99.2351 82.0405 96.2374 83.9856 93.9853C84.8402 92.9958 85.9232 92.6238 87.2358 92.9507C87.6812 93.0616 88.1631 93.0263 88.7975 93.0691C88.9309 93.6214 89.0979 94.3131 89.2649 95.0049C89.1735 95.0395 89.082 95.074 88.9906 95.1083C88.7415 94.7769 88.5066 94.4335 88.2401 94.1168C87.7061 93.4821 87.0913 92.9975 86.1842 93.2268C85.3111 93.4475 84.9026 94.1453 84.8331 94.9208C84.7247 96.1321 84.765 97.3604 84.8117 98.5788C84.8243 98.9071 85.0411 99.2602 85.2464 99.542C85.712 100.181 86.773 100.327 87.3955 99.8826C87.8677 99.546 88.1859 98.3082 87.8422 97.8424C87.6557 97.5897 87.2832 97.474 86.8534 97.2096H90.2715C88.6375 97.821 89.5751 99.1004 89.2153 99.9119C88.4923 100.116 87.8118 100.308 87.1313 100.5H85.7448Z" fill="#003366"/>
<path fill-rule="evenodd" clip-rule="evenodd" d="M100.842 100.5C99.0792 99.8274 98.8574 99.4968 98.8577 97.5415V94.8466C98.8575 93.6582 98.8575 93.6582 97.8027 93.0557H101.199C100.05 93.3875 100.376 94.3223 100.366 95.1046C100.351 96.2337 100.352 97.3632 100.366 98.4925C100.378 99.4317 100.822 99.9748 101.611 100.066C102.59 100.179 103.362 99.7953 103.452 98.8701C103.604 97.2967 103.599 95.7018 103.544 94.1199C103.532 93.7799 103.024 93.4574 102.694 93.0663H104.913C103.784 93.6552 104.048 94.6971 104.038 95.6417C104.032 96.309 104.038 96.9764 104.037 97.6436C104.036 99.4003 103.705 99.881 102.075 100.5H100.842Z" fill="#003366"/>
<path fill-rule="evenodd" clip-rule="evenodd" d="M50.4657 100.5C48.7025 99.8274 48.4808 99.4968 48.481 97.5415C48.481 96.6431 48.4812 95.7449 48.481 94.8466C48.4808 93.6584 48.4808 93.6584 47.426 93.0557H50.8239C49.6737 93.3874 49.9995 94.3221 49.9894 95.1044C49.9746 96.2335 49.9752 97.3631 49.9894 98.4922C50.0012 99.4315 50.4449 99.9747 51.2342 100.066C52.2129 100.179 52.9856 99.7951 53.0751 98.8704C53.2272 97.2968 53.2227 95.7019 53.1674 94.1201C53.1556 93.7801 52.6476 93.4574 52.317 93.0664H54.5367C53.4073 93.6553 53.6712 94.6971 53.6619 95.6417C53.6553 96.309 53.6612 96.9764 53.6604 97.6436C53.6587 99.4004 53.3284 99.8809 51.6982 100.5H50.4657Z" fill="#003366"/>
<path fill-rule="evenodd" clip-rule="evenodd" d="M56.7821 0.556641C56.2683 1.28889 55.7644 2.02853 55.2378 2.75153C54.7383 3.43758 54.3058 3.45483 53.7589 2.79866C53.2033 2.13201 53.1358 1.36588 53.3928 0.556641H56.7821Z" fill="#003366"/>
<path fill-rule="evenodd" clip-rule="evenodd" d="M55.9876 55.0215C58.1759 55.2298 60.7066 55.4282 63.2266 55.7205C67.0706 56.1663 70.9211 56.5867 74.7437 57.1805C80.868 58.1317 86.6389 60.2324 92.2295 62.8615C94.1771 63.7773 96.1543 64.6311 98.0899 65.5708C98.7979 65.9142 99.4412 66.4022 100.077 66.8736C100.237 66.9915 100.386 67.3924 100.31 67.4994C100.182 67.6782 99.8615 67.8236 99.6366 67.8055C99.263 67.7755 98.8959 67.6184 98.5345 67.4917C93.9402 65.8797 89.3494 64.2344 84.5197 63.4693C82.2204 63.1051 79.886 62.9573 77.5653 62.7351C75.9018 62.5757 74.3828 63.1267 72.8699 63.7253C72.6573 63.8092 72.3407 63.6306 72.0724 63.5734C72.1839 63.2924 72.2884 63.0078 72.4128 62.7325C72.4389 62.675 72.5689 62.667 72.6 62.609C72.7416 62.3452 72.8648 62.0714 72.9947 61.8011C72.677 61.7027 72.3283 61.4723 72.0493 61.5378C71.6746 61.626 71.3431 61.928 71.0117 62.1644C70.3451 62.6401 69.7094 63.1615 69.0256 63.6104C68.5133 63.9469 68.0555 63.8185 67.7293 63.2705C67.4144 62.7411 67.6816 62.3949 68.0827 62.0973C68.3696 61.8844 68.7246 61.7434 68.9596 61.488C69.1145 61.32 69.2383 60.921 69.1442 60.7786C69.0276 60.6021 68.6152 60.4489 68.4294 60.5254C68.0184 60.6948 67.6324 60.9749 67.3037 61.2818C66.8746 61.6827 66.5242 62.1662 66.1128 62.588C65.9204 62.7851 65.6751 63.0371 65.4351 63.0588C64.9853 63.0999 64.5219 62.9915 64.064 62.9453C64.2084 62.5397 64.2914 62.0957 64.5146 61.7397C64.726 61.4027 65.1356 61.1922 65.357 60.8591C65.4715 60.687 65.4641 60.2692 65.3351 60.1437C65.1891 60.0014 64.7517 59.943 64.6057 60.0577C64.2315 60.3513 63.9204 60.7406 63.6345 61.1285C62.8194 62.2346 61.8383 63.1222 60.4591 63.3997C60.099 63.4723 59.6792 63.2484 59.2869 63.1607C59.4394 62.8229 59.532 62.4363 59.7578 62.1581C60.1585 61.6644 60.696 61.2758 61.0596 60.761C61.2022 60.5591 61.0309 60.1357 61.0026 59.8129C60.706 59.8612 60.2989 59.8038 60.1331 59.977C59.5866 60.5485 59.1179 61.1961 58.6372 61.8279C58.0008 62.6646 57.2022 63.2416 56.1301 63.2755C55.8015 63.2859 55.465 63.0516 55.1322 62.9294C55.2663 62.6285 55.383 62.3182 55.5425 62.0316C55.6121 61.9066 55.8337 61.8512 55.874 61.7275C55.9698 61.4341 55.9987 61.1188 56.0546 60.8123C55.7722 60.8112 55.4652 60.7398 55.214 60.8277C54.9372 60.9246 54.6976 61.1517 54.4664 61.3504C53.3965 62.2696 52.341 63.2057 51.2666 64.1197C50.9761 64.3668 50.6593 64.6098 50.3126 64.7538C50.0987 64.8425 49.6771 64.8365 49.5771 64.7025C49.409 64.4774 49.3035 64.0753 49.3907 63.8234C49.4982 63.512 49.81 63.257 50.0691 63.0157C50.4149 62.6937 50.6214 62.2848 50.2405 61.9674C49.9644 61.7375 49.4264 61.5872 49.108 61.6976C48.6222 61.866 48.2269 62.2927 47.7902 62.6054C47.1171 63.0877 46.3977 63.3542 45.5525 63.1286C43.7858 62.6566 43.0646 60.5836 44.0672 58.7937C44.6429 57.766 45.5622 57.1214 46.6063 56.6415C48.4975 55.7724 50.5264 55.4718 52.5689 55.2557C53.5877 55.1479 54.6143 55.1128 55.9876 55.0215Z" fill="#003366"/>
<path fill-rule="evenodd" clip-rule="evenodd" d="M60.76 26.4951C60.4604 26.4951 60.2583 26.4799 60.0592 26.4976C58.3153 26.6522 56.834 26.0823 55.5644 24.8994C55.1519 24.5151 54.7224 24.1478 54.2873 23.7887C52.966 22.6978 52.2516 21.3023 52.1924 19.5904C52.174 19.0525 51.9965 18.7296 51.4785 18.4641C48.8046 17.0931 47.5897 14.7622 48.0728 11.7935C48.2852 10.4884 48.6556 9.19501 49.0902 7.94349C49.6719 6.26787 51.8249 5.58444 53.2616 6.24754C53.1479 6.38983 53.0679 6.56231 52.9328 6.6487C50.8178 8.00001 50.1852 10.1134 49.9088 12.4288C49.6807 14.3412 50.3723 15.7986 52.1427 16.8849C52.3613 15.764 52.5642 14.6748 52.7903 13.5905C52.8789 13.1659 52.9405 12.7047 53.1565 12.3454C53.4366 11.8795 53.7937 11.3951 54.2408 11.1147C54.5759 10.9047 55.1054 11.0043 55.5483 10.966C55.427 11.3549 55.3472 11.7636 55.1722 12.1268C55.0191 12.4448 54.7823 12.7321 54.5424 12.9968C53.6349 13.9986 53.4663 15.225 53.411 16.6864C54.7238 15.2085 55.5648 13.5075 57.0704 12.4032C57.6778 13.0955 57.6501 14.0167 56.9958 14.8318C56.4994 15.4503 55.9265 16.0071 55.3967 16.5994C54.7629 17.3078 54.596 18.1501 54.6745 19.1817C55.7012 18.0716 56.6544 17.0411 57.6075 16.0107C57.6877 16.0712 57.7678 16.1317 57.848 16.1924C57.8148 18.0146 55.8949 19.1024 55.9 20.9722C57.1824 20.0255 57.6998 18.2313 59.5032 17.8007C59.6636 18.6324 59.1883 19.1896 58.8562 19.807C58.38 20.6921 57.9551 21.6049 57.5085 22.5059C57.6367 22.5815 57.7648 22.6571 57.893 22.7329C58.3365 22.1023 58.761 21.4569 59.2293 20.8452C59.6693 20.2705 60.1347 19.7112 60.6345 19.1887C60.7861 19.0302 61.0892 19.0167 61.5591 18.856C61.3792 19.3981 61.32 19.7719 61.1409 20.0749C60.7765 20.6912 60.3468 21.269 59.9454 21.8637C59.3356 22.7671 59.3741 23.1365 60.2609 24.0281C60.4559 23.6177 60.6969 23.2635 60.7953 22.8735C61.0281 21.9521 61.5644 21.3451 62.432 20.9755C62.9698 20.7462 63.5445 20.513 63.5776 19.7769C63.6132 18.9865 63.0219 18.6666 62.5266 18.2065C61.4274 17.1854 60.4003 16.0834 59.39 14.9723C59.1957 14.7589 59.0745 14.3086 59.1598 14.0454C59.3695 13.3985 59.1395 12.9377 58.8066 12.4247C58.2105 11.5066 58.172 10.4903 58.4847 9.46465C59.1503 7.28177 61.693 5.45 63.7763 5.66344C64.2181 5.70871 64.6481 5.86948 65.0835 5.97713C65.1029 6.0492 65.1222 6.12142 65.1416 6.19349C64.8946 6.37428 64.6678 6.59603 64.3972 6.72801C63.6142 7.1093 62.7999 7.42761 62.0234 7.82076C61.0436 8.31693 60.4524 9.14989 59.9782 10.3968C60.4718 10.2223 60.8004 10.1775 61.0415 10.0081C61.921 9.39043 62.7899 8.75397 63.6269 8.08008C64.3178 7.5237 65.0582 7.22957 66.2394 7.34152C65.7481 8.00001 65.4337 8.57672 64.975 8.99589C64.4329 9.4916 63.7751 9.86489 63.1515 10.2667C62.147 10.9137 61.6132 11.8388 61.3781 12.9533C61.4544 13.0304 61.5306 13.1076 61.6069 13.1847C62.328 12.5683 63.0623 11.9661 63.7655 11.3302C64.2201 10.919 64.6115 10.4377 65.0653 10.0255C65.4135 9.70951 65.8159 9.68979 66.1571 10.0622C66.5053 10.4421 66.4065 10.8452 66.083 11.1588C65.6609 11.5676 65.1915 11.9293 64.7302 12.2962C63.8883 12.9659 63.4386 13.8523 63.3542 15.0049C63.8532 14.5285 64.3594 14.0596 64.8489 13.5734C65.2485 13.1766 65.6096 12.7389 66.0245 12.3596C66.2227 12.1784 66.5048 11.9899 66.7521 11.9852C67.0808 11.9792 67.413 12.1499 67.7436 12.2444C67.6186 12.5228 67.5546 12.8598 67.3554 13.0668C67.003 13.433 66.572 13.7246 66.1677 14.0394C65.4018 14.636 64.8188 15.3523 64.5669 16.3914C65.3087 16.5132 65.6985 16.0433 66.0927 15.6463C66.3603 15.3768 66.5372 15.0199 66.7806 14.7234C67.2401 14.1637 67.8114 14.0425 68.6981 14.3532C68.1491 14.9583 67.7122 15.4717 67.2404 15.9508C66.7371 16.462 66.17 16.9137 65.6971 17.4499C65.5507 17.6159 65.6211 17.973 65.5922 18.2427C65.8981 18.2342 66.242 18.3112 66.5008 18.1965C66.8428 18.0446 67.0294 17.3164 67.5042 17.8619C67.6168 17.9912 67.3115 18.6252 67.061 18.9033C66.216 19.8413 65.2716 20.6547 64.0186 21.0454C63.1353 21.3209 62.6118 21.9689 62.491 22.8927C62.465 23.0921 62.5255 23.4128 62.6582 23.493C62.799 23.5783 63.1287 23.5136 63.2785 23.3934C63.8775 22.9123 64.4343 22.379 65.0152 21.8751C65.4997 21.4549 66.0044 21.3343 66.5144 21.8399C66.9034 22.2253 66.9277 22.6035 66.442 22.9197C66.1425 23.1146 65.829 23.3028 65.4977 23.4322C64.0151 24.011 63.1148 25.0819 62.5123 26.5467C62.1223 27.4946 61.5533 28.4261 60.862 29.1793C59.8879 30.2407 58.4482 30.4055 57.5282 29.6436C57.1233 29.3082 56.6864 28.6434 56.7542 28.2034C56.83 27.7097 57.425 27.2622 57.8617 26.8698C58.1364 26.6229 58.4085 26.7931 58.4342 27.1698C58.469 27.6772 58.5271 28.3113 59.1306 28.2373C59.6023 28.1794 60.06 27.7288 60.4459 27.369C60.636 27.1918 60.6499 26.8256 60.76 26.4951Z" fill="#003366"/>
<path fill-rule="evenodd" clip-rule="evenodd" d="M116.39 82.5681C117 82.5681 117.536 82.6207 118.059 82.5584C119.719 82.3596 120.367 81.631 120.379 79.982C120.381 79.6004 120.334 79.211 120.253 78.8372C119.96 77.4781 118.154 76.6788 116.94 77.3972C116.69 77.5446 116.424 77.9039 116.415 78.1744C116.363 79.6271 116.39 81.0826 116.39 82.5681ZM117.914 89.5177H112.069C112.02 89.4567 111.97 89.3959 111.921 89.3349C112.092 89.1908 112.244 88.9613 112.438 88.9165C113.503 88.6704 113.637 88.5546 113.642 87.4315C113.655 84.4818 113.652 81.5317 113.643 78.5816C113.64 77.5451 113.412 77.315 112.382 77.0968C112.196 77.0575 112.041 76.8715 111.872 76.7531C111.91 76.6668 111.947 76.5806 111.985 76.4945C112.824 76.4945 113.664 76.4786 114.502 76.4976C116.296 76.5382 118.09 76.5647 119.88 76.667C120.428 76.6981 120.986 76.9012 121.497 77.1236C122.549 77.5812 123.121 78.3946 123.169 79.5742C123.221 80.8558 122.753 81.8283 121.578 82.3925C121.12 82.6121 120.628 82.7569 120.218 82.9104C120.843 84.1964 121.44 85.4829 122.09 86.7416C122.568 87.6676 123.006 88.6563 124.206 88.9108C124.335 88.9381 124.408 89.2259 124.596 89.5444C123.215 89.5444 122.018 89.5645 120.824 89.5216C120.653 89.5154 120.439 89.2313 120.337 89.0292C119.587 87.5441 118.859 86.0476 118.127 84.5534C117.786 83.859 117.377 83.2593 116.406 83.2698C116.406 84.9062 116.365 86.5341 116.45 88.1553C116.463 88.4088 117.025 88.6958 117.384 88.85C117.707 88.9883 118.131 88.9373 117.914 89.5177Z" fill="#003366"/>
<path fill-rule="evenodd" clip-rule="evenodd" d="M99.4263 89.3072C99.6068 89.1649 99.7698 88.9342 99.9704 88.8949C101.095 88.6752 101.188 88.5926 101.19 87.4454C101.193 84.5202 101.193 81.5951 101.19 78.67C101.188 77.4579 101.137 77.4252 99.9575 77.1839C99.7771 77.1471 99.6475 76.8616 99.4941 76.691C99.5426 76.6252 99.591 76.5598 99.6393 76.494H101.785C104.3 76.494 106.816 76.5043 109.332 76.4845C109.789 76.4809 110.016 76.5947 110.128 77.0723C110.314 77.8687 110.608 78.6396 110.805 79.4341C110.854 79.6297 110.702 79.8748 110.643 80.0972C110.437 80.0151 110.184 79.9831 110.034 79.8415C109.607 79.4368 109.241 78.9675 108.816 78.5602C107.776 77.5627 106.518 77.167 105.086 77.244C104.374 77.2821 103.964 77.6176 103.951 78.3233C103.925 79.6777 103.943 81.0332 103.943 82.3734C105.595 82.7662 106.659 82.2292 107.263 80.7946C107.356 80.5753 107.654 80.4431 108.024 80.1295V85.6464C107.718 85.4365 107.395 85.3386 107.324 85.1476C106.731 83.5454 105.772 82.9988 103.933 83.3192C103.933 84.8404 103.914 86.3725 103.942 87.9038C103.954 88.5449 104.353 88.8373 104.996 88.8801C107.1 89.0198 108.7 88.0717 110.061 86.587C110.216 86.4171 110.336 86.202 110.518 86.0722C110.654 85.9749 110.905 85.9008 111.03 85.9642C111.149 86.0248 111.26 86.3009 111.222 86.4401C110.963 87.3779 110.68 88.3102 110.36 89.2285C110.308 89.3755 110.028 89.5328 109.854 89.5337C106.442 89.5516 103.03 89.5471 99.6182 89.5471C99.5543 89.467 99.4904 89.3871 99.4263 89.3072Z" fill="#003366"/>
<path fill-rule="evenodd" clip-rule="evenodd" d="M96.4002 85.9594C96.4002 83.5653 96.4344 81.1917 96.3813 78.8204C96.3632 78.0154 95.9927 77.3435 95.0507 77.1758C94.8746 77.1444 94.7424 76.8649 94.5899 76.6999C94.6339 76.6455 94.6778 76.5908 94.7217 76.5365H99.0922C98.8633 76.8394 98.7554 77.1421 98.5713 77.1994C97.5855 77.5057 97.2899 78.2387 97.2848 79.1536C97.2677 82.2826 97.2662 85.4117 97.2588 88.5408C97.2581 88.8436 97.2588 89.1465 97.2588 89.4351C95.8633 89.7203 95.8189 89.7078 95.0981 88.5906C93.0564 85.4261 91.0194 82.2586 88.8905 78.9519C88.8512 79.2794 88.8112 79.4594 88.8107 79.6396C88.8066 81.8199 88.8004 84 88.8149 86.1802C88.8178 86.6384 88.8728 87.1014 88.9563 87.5527C89.0837 88.2405 89.479 88.689 90.1906 88.8667C90.4014 88.9194 90.5682 89.1476 90.7551 89.2953C90.7156 89.3643 90.6759 89.4335 90.6362 89.5025H86.0964C86.3512 89.2132 86.4771 88.9306 86.6579 88.8893C87.4641 88.7053 87.8168 88.1438 87.9169 87.4176C88.0213 86.6593 88.0599 85.8875 88.0671 85.1212C88.0865 83.0694 88.0737 81.0173 88.0737 78.9654C88.0736 77.9212 87.7762 77.5607 86.7558 77.2299C86.5452 77.1618 86.3973 76.9004 86.2206 76.728L86.3717 76.498C87.6501 76.498 88.9294 76.4747 90.206 76.5215C90.4091 76.5291 90.6545 76.8167 90.7893 77.0317C92.6252 79.9612 94.4451 82.9006 96.2703 85.8365C96.2964 85.8784 96.3438 85.9069 96.4002 85.9594Z" fill="#003366"/>
<path fill-rule="evenodd" clip-rule="evenodd" d="M48.3957 76.3796H54.3007C54.3441 76.4469 54.3877 76.514 54.4312 76.5813C54.2535 76.7224 54.0928 76.9518 53.8955 76.9895C52.8943 77.1808 52.743 77.3172 52.7396 78.3456C52.7313 80.9118 52.7153 83.4783 52.7445 86.044C52.7706 88.3025 54.3677 89.4491 56.5271 88.8141C57.7491 88.4545 58.387 87.5153 58.4502 86.3725C58.5912 83.8161 58.5892 81.2501 58.5793 78.6883C58.5762 77.8508 58.1011 77.2624 57.2157 77.049C57.0299 77.0042 56.9064 76.7014 56.6329 76.3711H61.153C61.0233 76.6355 60.9644 76.9763 60.8173 77.0202C59.6025 77.3822 59.4037 78.3407 59.3916 79.3862C59.3684 81.4134 59.385 83.4409 59.3829 85.4682C59.3801 88.1057 57.8987 89.6589 55.2524 89.6821C54.3167 89.6903 53.3426 89.6019 52.4501 89.3393C50.8891 88.8801 50.0364 87.608 50.0256 85.9725C50.01 83.6118 50.0242 81.2507 50.0202 78.8898C50.0177 77.4441 49.9818 77.4173 48.6366 76.9935C48.4707 76.9413 48.3652 76.6973 48.2316 76.5422C48.2863 76.488 48.341 76.4339 48.3957 76.3796Z" fill="#003366"/>
<path fill-rule="evenodd" clip-rule="evenodd" d="M42.7183 84.3082C42.1652 82.4006 41.6298 80.5541 41.0943 78.7074L40.9406 78.7272C40.2765 80.5698 39.6123 82.4123 38.9291 84.3082H42.7183ZM39.5433 89.5284H35.2702C35.4477 89.2361 35.5206 88.9402 35.6883 88.8696C36.5379 88.5125 36.8776 87.7858 37.1654 87.0026C38.2603 84.0231 39.3959 81.0578 40.428 78.0567C40.7348 77.1649 41.1438 76.585 42.1013 76.4513C42.3742 76.4133 42.6345 76.2852 42.9943 76.168C43.4285 77.6009 43.8572 79.0089 44.2813 80.4181C44.9969 82.7956 45.7145 85.1725 46.4203 87.553C46.6299 88.26 46.9199 88.8353 47.7835 88.8974C47.9403 88.9086 48.0773 89.2007 48.3581 89.5132H42.563C42.5158 89.4599 42.4685 89.4066 42.4214 89.3536C42.5818 89.208 42.729 88.9568 42.9045 88.9352C43.6978 88.8378 43.8986 88.3956 43.7104 87.698C43.5107 86.9579 43.3128 86.2149 43.0535 85.4951C42.9911 85.3221 42.6925 85.132 42.497 85.1259C41.3689 85.0909 40.2386 85.0909 39.1104 85.126C38.9149 85.1322 38.6419 85.3188 38.551 85.497C38.3196 85.9502 38.132 86.4353 37.9967 86.9265C37.6575 88.1573 37.8382 88.4554 39.03 88.9226C39.1971 88.9882 39.2962 89.2275 39.5433 89.5284Z" fill="#003366"/>
<path fill-rule="evenodd" clip-rule="evenodd" d="M80.6224 84.3203C80.0632 82.3952 79.5282 80.5539 78.9933 78.7127C78.9401 78.7209 78.887 78.7291 78.8341 78.7372C78.1714 80.5769 77.5086 82.4166 76.8228 84.3203H80.6224ZM77.1849 89.5195H73.1992C73.3364 89.2526 73.3904 88.9479 73.5407 88.8887C74.4316 88.539 74.779 87.7846 75.0751 86.9772C76.1769 83.9734 77.3137 80.9816 78.3552 77.9571C78.648 77.1067 79.0769 76.6112 79.9518 76.4678C80.2496 76.419 80.5338 76.2879 80.8973 76.1709C81.3844 77.7878 81.8627 79.3731 82.3397 80.9588C82.9963 83.1406 83.6592 85.3205 84.3038 87.506C84.5201 88.2389 84.8068 88.8458 85.7091 88.902C85.8502 88.9109 85.9727 89.2172 86.2058 89.5169H80.4369C80.3941 89.4548 80.3511 89.3926 80.3081 89.3302C80.4813 89.1907 80.6409 88.9543 80.8296 88.9285C81.5719 88.8268 81.7957 88.4232 81.6144 87.7472C81.4092 86.9821 81.2074 86.214 80.9421 85.4693C80.8826 85.3022 80.5691 85.1305 80.3678 85.1245C79.265 85.0909 78.1607 85.0958 77.0577 85.1203C76.864 85.1246 76.5565 85.2387 76.5017 85.3798C76.2155 86.1164 75.9175 86.8639 75.7725 87.6354C75.6481 88.2979 76.0232 88.7358 76.7309 88.8821C76.9482 88.9271 77.1242 89.1715 77.3193 89.3244C77.2744 89.3894 77.2298 89.4545 77.1849 89.5195Z" fill="#003366"/>
<path fill-rule="evenodd" clip-rule="evenodd" d="M61.6804 76.5312H67.8145C67.8585 76.5945 67.9026 76.6578 67.9467 76.721C67.7743 76.8671 67.6191 77.1081 67.4264 77.1434C66.2372 77.3597 66.024 77.5418 66.0166 78.7191C65.9978 81.6956 66.0017 84.6725 66.0134 87.6492C66.0169 88.5225 66.3489 88.8254 67.2386 88.8789C68.6564 88.9639 69.8491 88.4257 70.8895 87.5206C71.4106 87.0673 71.8656 86.5385 72.3766 86.0725C72.4949 85.9647 72.7696 85.8871 72.8819 85.9519C73.0028 86.0215 73.1039 86.2992 73.064 86.445C72.8069 87.3831 72.5255 88.3156 72.2066 89.2342C72.1563 89.3795 71.8762 89.5331 71.7013 89.5341C68.5182 89.5518 65.3348 89.5505 62.1515 89.5364C61.9923 89.5358 61.8338 89.3844 61.675 89.3033C61.8229 89.1819 61.9552 88.9859 62.121 88.9519C63.1297 88.7449 63.2796 88.6203 63.2843 87.5852C63.2978 84.5573 63.2969 81.5292 63.2778 78.5013C63.2713 77.4558 63.1573 77.391 62.0997 77.1828C61.8888 77.1414 61.7218 76.877 61.5345 76.7153C61.5832 76.654 61.6318 76.5925 61.6804 76.5312Z" fill="#003366"/>
<path fill-rule="evenodd" clip-rule="evenodd" d="M45.4653 71.3623C46.0282 71.1535 46.5868 70.9319 47.1548 70.7377C52.0483 69.0656 56.9373 67.382 62.0389 66.4211C67.1694 65.4546 72.3188 65.2692 77.4964 65.9619C77.9955 66.0284 78.4934 66.1029 78.9863 66.22C74.724 66.2965 70.4823 66.5045 66.2696 67.172C61.2595 67.9656 56.4585 69.4811 51.7317 71.2698C51.494 71.3597 51.2473 71.4883 51.0038 71.4909C49.1691 71.5095 47.3343 71.5009 45.4995 71.5009C45.4881 71.4549 45.4767 71.4085 45.4653 71.3623Z" fill="#003366"/>
<path fill-rule="evenodd" clip-rule="evenodd" d="M93.0109 14.9927C93.5662 14.488 94.1215 13.9834 94.6768 13.4789C94.6048 13.3632 94.5326 13.2477 94.4605 13.1322C94.5712 13.3574 94.6818 13.5825 94.8341 13.892C95.1815 13.8078 95.5674 13.7678 95.9074 13.6216C97.0563 13.1278 98.2173 12.6488 99.3173 12.059C99.9825 11.7024 99.9569 11.1174 99.2415 10.9039C98.5784 10.706 97.7732 10.7116 97.0961 10.8842C95.2431 11.3568 93.4254 11.9666 91.5918 12.5147C91.4787 12.5486 91.3465 12.5192 90.9685 12.5192C91.2515 12.1551 91.3836 11.8504 91.6149 11.7119C92.4465 11.2145 93.3109 10.7726 94.1639 10.3112C94.9462 9.88802 95.7093 9.42126 96.519 9.05984C97.152 8.77725 97.857 8.4206 98.5065 8.46233C99.691 8.53841 100.88 8.81144 102.025 9.14515C102.775 9.36382 102.778 9.77376 102.17 10.3004C102.035 10.4178 101.89 10.5236 101.749 10.6352C100.816 11.3767 100.846 11.9483 101.858 12.5464C101.823 12.6127 101.805 12.7137 101.75 12.7409C100.296 13.4666 100.618 14.7866 100.719 15.9804C100.797 16.904 99.5987 18.1112 98.5354 18.0381C98.7661 17.6723 99.0267 17.3248 99.2178 16.9424C99.6406 16.0965 99.4559 15.6056 98.5439 15.3978C96.9061 15.0247 95.2828 14.4475 93.5526 14.8436C93.3137 14.8983 93.0515 14.8511 92.8 14.8511C92.8703 14.8984 92.9407 14.9455 93.0109 14.9927Z" fill="#003366"/>
<path fill-rule="evenodd" clip-rule="evenodd" d="M43.3006 94.1274C42.8704 95.3195 42.5032 96.3378 42.1222 97.3943H44.3109C44.042 96.4607 43.7919 95.5839 43.5355 94.7087C43.4936 94.5661 43.4246 94.4314 43.3006 94.1274ZM35.6643 96.39C36.4053 96.4683 37.197 96.5979 37.5276 95.9302C37.7909 95.3982 37.7773 94.6527 37.6742 94.0375C37.5704 93.4166 36.9383 93.2578 36.3865 93.368C36.1149 93.4226 35.7246 93.7543 35.6972 93.9956C35.609 94.7726 35.6643 95.5663 35.6643 96.39ZM47.3962 100.259H44.1252C44.9407 99.6735 45.0577 98.882 44.4916 98.0763C44.4109 97.9613 44.21 97.8855 44.0584 97.8743C43.6758 97.8458 43.2824 97.912 42.9066 97.8539C42.1043 97.73 41.8011 98.1153 41.5841 98.8363C41.3573 99.5901 41.7626 99.888 42.2773 100.323C40.9127 100.323 39.5477 100.338 38.1842 100.302C38.0312 100.298 37.8386 100.032 37.745 99.8475C37.364 99.0944 37.0401 98.3114 36.6411 97.5684C36.4671 97.2443 36.1625 96.9902 35.9172 96.704L35.676 96.8223C35.676 97.7263 35.6174 98.6367 35.7139 99.5305C35.7407 99.779 36.2263 99.978 36.5758 100.26H33.1704C34.1536 99.6355 34.1536 99.6355 34.1537 98.4191C34.1537 97.2398 34.1582 96.0605 34.152 94.8814C34.1482 94.1462 34.395 93.2803 33.1021 93.1731C33.1624 93.0764 33.2226 92.9795 33.2828 92.8828C34.8929 92.9861 36.5107 93.0256 38.1095 93.2208C38.8676 93.3137 39.3545 93.8898 39.3814 94.7375C39.4074 95.5649 39.0202 96.0959 38.261 96.3822C38.0947 96.445 37.9303 96.5132 37.7172 96.5979C38.1792 97.5113 38.5801 98.444 39.1158 99.2916C39.3239 99.6209 39.8477 99.9467 40.2068 99.9252C40.5168 99.9065 40.9247 99.4447 41.0686 99.0896C41.7306 97.4538 42.35 95.7984 42.9119 94.1256C43.1616 93.3821 43.5401 92.9247 44.4432 92.9098C44.582 93.3388 44.7447 93.8125 44.8887 94.2919C45.301 95.6643 45.7045 97.0394 46.1138 98.4128C46.4714 99.6124 46.4728 99.6119 47.3962 100.259Z" fill="#003366"/>
<path fill-rule="evenodd" clip-rule="evenodd" d="M64.3129 96.3714C66.1243 96.5927 66.9479 95.6432 66.3982 94.1282C66.1517 93.4486 65.6244 93.2952 64.9857 93.3525C64.2992 93.4141 64.304 93.9175 64.3109 94.4271C64.3194 95.0632 64.3129 95.6995 64.3129 96.3714ZM64.3129 96.8801C64.3129 97.4934 64.3434 98.109 64.3047 98.72C64.261 99.4155 64.3001 100.02 65.1707 100.239H61.9373C63.208 99.917 62.7779 98.8934 62.8002 98.0811C62.8321 96.9278 62.7768 95.7721 62.8198 94.6197C62.8469 93.8903 62.7893 93.282 61.8304 93.183C61.856 93.1126 61.8817 93.0424 61.9073 92.9721C62.1345 92.9721 62.3618 92.9661 62.5888 92.9731C63.8174 93.0111 65.0521 92.9894 66.2725 93.1106C67.4027 93.223 67.95 93.7731 68.0272 94.6182C68.1144 95.5714 67.7522 96.046 66.5949 96.5003C66.5262 96.5273 66.4648 96.5725 66.3253 96.6515C67.2688 97.7606 67.2278 99.4918 68.7519 100.319C68.1042 100.319 67.454 100.351 66.8109 100.297C66.6547 100.284 66.4803 100.011 66.3856 99.8218C66.0071 99.0671 65.6843 98.2833 65.2825 97.5418C65.1101 97.2232 64.7952 96.9817 64.5452 96.7053C64.4677 96.7635 64.3902 96.8217 64.3129 96.8801Z" fill="#003366"/>
<path fill-rule="evenodd" clip-rule="evenodd" d="M93.2757 96.4233C94.0232 96.4339 94.8243 96.6058 95.1515 95.9231C95.4093 95.386 95.4059 94.6381 95.2863 94.0293C95.1588 93.3805 94.5162 93.2909 93.9137 93.3582C93.2723 93.4298 93.2686 93.9017 93.2739 94.385C93.281 95.0241 93.2757 95.6634 93.2757 96.4233ZM95.2512 96.6288C96.249 97.7674 96.1797 99.5154 97.7851 100.137C97.7646 100.199 97.744 100.26 97.7233 100.322C97.0814 100.322 96.4368 100.353 95.799 100.3C95.6388 100.287 95.4544 100.029 95.3606 99.8434C94.9799 99.0899 94.6561 98.3065 94.2564 97.5638C94.0827 97.2406 93.7766 96.9882 93.5304 96.7036C93.4487 96.7436 93.3672 96.7835 93.2854 96.8236C93.2854 97.7035 93.2204 98.591 93.3232 99.4587C93.3561 99.7381 93.8319 99.9652 94.1548 100.262H90.9023C90.9023 100.217 90.894 100.129 90.9035 100.127C91.7459 99.9537 91.8079 99.3603 91.7829 98.6424C91.7401 97.4131 91.78 96.1811 91.7678 94.9504C91.7604 94.2015 92.0439 93.3015 90.7241 93.1603C90.7829 93.0707 90.8418 92.9811 90.9008 92.8916C92.4894 92.9843 94.0851 93.0139 95.6631 93.1968C96.4106 93.2834 96.9452 93.8162 96.9943 94.6695C97.0432 95.5188 96.7209 96.0206 95.869 96.3848C95.7055 96.4546 95.5385 96.5157 95.2512 96.6288Z" fill="#003366"/>
<path fill-rule="evenodd" clip-rule="evenodd" d="M118.334 92.9718H119.355C120.766 92.9718 122.178 92.9918 123.588 92.9604C124.038 92.9504 124.235 93.1033 124.324 93.5262C124.428 94.0199 124.582 94.5028 124.714 94.9904C124.631 95.0224 124.549 95.0544 124.467 95.0863C124.21 94.8184 123.98 94.5182 123.691 94.2905C123.316 93.9933 122.927 93.6616 122.487 93.5059C121.141 93.0297 120.699 93.3679 120.698 94.7692C120.698 95.2813 120.698 95.7933 120.698 96.2929C121.643 96.5938 121.845 96.4972 123.026 95.1316V98.1354C122.691 97.7104 122.489 97.2787 122.149 97.0687C121.783 96.8428 121.289 96.8249 120.715 96.6825C120.715 97.6944 120.672 98.5811 120.748 99.457C120.765 99.6526 121.191 99.9426 121.448 99.9643C122.515 100.055 123.388 99.5837 124.113 98.8315C124.287 98.6515 124.398 98.4115 124.538 98.1992C124.661 98.2655 124.784 98.3318 124.907 98.3978C124.73 99.0187 124.554 99.6393 124.376 100.264H118.343C119.51 99.9929 119.206 99.0896 119.213 98.3449C119.224 97.1907 119.222 96.0362 119.213 94.882C119.207 94.1554 119.486 93.278 118.166 93.1891C118.222 93.1166 118.278 93.0443 118.334 92.9718Z" fill="#003366"/>
<path fill-rule="evenodd" clip-rule="evenodd" d="M57.2338 96.3714C58.3838 96.6213 59.0389 96.1334 59.4017 95.0934L59.5798 95.2652V98.0111C59.5215 98.0641 59.4633 98.1172 59.4049 98.1703C59.0725 97.0508 58.3547 96.6469 57.2324 96.8435C57.2324 97.6785 57.2229 98.5179 57.2361 99.357C57.2441 99.8647 57.5968 99.9795 58.025 99.9879C59.0982 100.009 59.9635 99.5546 60.6734 98.7923C60.839 98.6145 60.895 98.3345 61.0014 98.1015L61.4402 98.4106C61.2564 99.0362 61.0726 99.6618 60.8928 100.274H54.878C56.0764 99.9419 55.7294 98.9917 55.7401 98.2113C55.7556 97.0576 55.7441 95.9034 55.7441 94.7493C55.7439 93.6253 55.7439 93.6253 54.6766 93.0157C55.0878 92.9949 55.3204 92.9736 55.553 92.973C56.9898 92.9698 58.4285 93.0167 59.8623 92.9517C60.551 92.9205 60.8281 93.1778 60.9287 93.7998C60.9936 94.1999 61.1103 94.5916 61.2038 94.9873C61.1411 95.0165 61.0784 95.0459 61.0157 95.0752C60.7218 94.7803 60.4228 94.49 60.135 94.1891C59.5456 93.573 58.8241 93.3355 57.9811 93.3708C57.5148 93.3902 57.2446 93.579 57.237 94.052C57.2249 94.8155 57.2338 95.5795 57.2338 96.3714Z" fill="#003366"/>
<path fill-rule="evenodd" clip-rule="evenodd" d="M71.5588 96.3839C72.6683 96.5832 73.3726 96.2016 73.706 95.1082L73.8918 95.2602V98.1582C73.5364 97.7069 73.3317 97.2697 72.988 97.0584C72.6227 96.834 72.1255 96.8237 71.5622 96.6908C71.5622 97.6787 71.5121 98.546 71.597 99.4C71.6185 99.6176 72.0556 99.9384 72.3237 99.9618C73.3904 100.055 74.2626 99.5731 74.9815 98.8164C75.1515 98.6371 75.2409 98.3814 75.3675 98.1607C75.5006 98.2412 75.6339 98.3216 75.7672 98.4018C75.5864 99.0257 75.4056 99.6495 75.23 100.255H69.1915C70.3225 100.045 70.0644 99.1886 70.069 98.4791C70.0774 97.1967 70.0501 95.9137 70.0797 94.6319C70.0962 93.9275 70.1105 93.277 69.1755 93.0504C69.3473 93.0242 69.5191 92.9761 69.691 92.9754C71.2562 92.9695 72.8219 92.9875 74.3866 92.9623C74.8419 92.9549 75.1032 93.0607 75.1879 93.5447C75.2722 94.0264 75.423 94.4967 75.5447 94.9721C75.4606 95.0278 75.3765 95.0837 75.2923 95.1394C75.0234 94.8312 74.7613 94.5162 74.4839 94.2156C73.9077 93.5912 73.1884 93.3419 72.3418 93.3696C71.8375 93.3861 71.5645 93.5856 71.5603 94.0964C71.5543 94.8378 71.5588 95.5793 71.5588 96.3839Z" fill="#003366"/>
<path fill-rule="evenodd" clip-rule="evenodd" d="M97.4812 47.2486C98.1703 46.4751 99.0341 45.8063 98.9318 44.5703C98.9131 44.3461 98.9046 44.0691 99.017 43.8992C99.1558 43.6892 99.4229 43.4448 99.6395 43.4403C99.8338 43.436 100.13 43.7004 100.21 43.9111C100.32 44.204 100.368 44.5911 100.27 44.8788C99.8328 46.1566 99.3981 47.4426 98.8358 48.6677C98.4283 49.5553 97.9067 49.6174 97.1013 49.0554C96.7669 48.8223 96.4581 48.5486 96.1587 48.271C95.685 47.8316 95.5065 47.3017 95.7485 46.6731C95.9229 46.2207 96.0857 45.763 96.2823 45.3203C96.7693 44.2234 97.2615 43.1286 97.776 42.0446C97.9369 41.7054 98.1203 41.3361 98.3984 41.1085C98.5693 40.9687 98.9957 40.9758 99.1998 41.0973C99.3437 41.1829 99.4352 41.6657 99.3297 41.8107C98.5448 42.8882 98.5902 44.3424 97.6046 45.3619C97.2359 45.743 97.3125 46.5541 97.186 47.1691C97.2844 47.1956 97.3827 47.2221 97.4812 47.2486Z" fill="#003366"/>
<path fill-rule="evenodd" clip-rule="evenodd" d="M114.232 96.4364C116.449 96.9023 116.706 95.57 116.398 94.1363C116.241 93.4096 115.607 93.265 115.008 93.3525C114.723 93.3939 114.299 93.7575 114.267 94.0148C114.171 94.8178 114.232 95.6396 114.232 96.4364ZM114.232 96.9953C114.232 97.7956 114.149 98.5733 114.269 99.3184C114.323 99.6592 114.775 99.9366 115.059 100.256H111.847C111.849 100.201 111.844 100.112 111.855 100.11C112.657 99.9589 112.766 99.4296 112.738 98.7102C112.685 97.3519 112.723 95.9905 112.723 94.6302C112.723 93.5661 112.722 93.5661 111.833 93.1536C111.843 93.105 111.854 93.0143 111.864 93.0146C113.373 93.0422 114.892 92.986 116.389 93.1403C117.497 93.2544 118.069 94.0036 118.077 94.9173C118.086 95.9096 117.476 96.6286 116.336 96.8363C115.686 96.9546 115.013 96.9412 114.232 96.9953Z" fill="#003366"/>
<path fill-rule="evenodd" clip-rule="evenodd" d="M107.757 96.4591C110.065 96.8777 110.222 95.4745 109.918 94.107C109.785 93.505 109.147 93.2246 108.426 93.3338C107.812 93.4268 107.743 93.8461 107.754 94.35C107.768 95.0387 107.757 95.7281 107.757 96.4591ZM107.757 96.9399C107.757 97.5838 107.77 98.0966 107.754 98.6084C107.732 99.3187 107.646 100.053 108.655 100.245H105.366C106.569 100.017 106.238 99.0929 106.248 98.3499C106.264 97.2209 106.252 96.0915 106.252 94.9623C106.252 93.6824 106.252 93.6824 105.367 93.0324C107.025 93.0672 108.701 92.7093 110.336 93.2446C111.202 93.5283 111.623 94.1669 111.607 94.9709C111.589 95.8351 111.07 96.5233 110.188 96.7663C109.798 96.8741 109.382 96.9049 108.975 96.9342C108.598 96.9613 108.219 96.9399 107.757 96.9399Z" fill="#003366"/>
<path fill-rule="evenodd" clip-rule="evenodd" d="M44.5865 23.8674C44.698 22.0381 45.3024 20.5274 46.3002 19.1958C46.9744 18.2962 47.951 17.8479 49.0893 17.7976C49.6497 17.7729 50.1165 18.0213 50.1495 18.5671C50.1752 18.9892 50.0223 19.5386 49.7406 19.8315C49.4314 20.1529 48.8936 20.2732 48.4385 20.4326C46.2774 21.1898 45.5726 22.3204 45.8806 24.5854C45.9498 25.0946 46.102 25.6923 45.4578 25.8607C45.3147 25.8982 44.9213 25.2405 44.756 24.8545C44.6105 24.5148 44.623 24.1077 44.5865 23.8674Z" fill="#003366"/>
<path fill-rule="evenodd" clip-rule="evenodd" d="M70.9508 69.1229C69.4675 69.3548 67.9781 69.5544 66.5027 69.8283C65.1714 70.0756 63.8203 70.2986 62.5401 70.7206C60.2586 71.473 57.9427 71.6572 55.616 71.463C57.9636 69.715 67.241 68.2254 70.9508 69.1229Z" fill="#003366"/>
<path fill-rule="evenodd" clip-rule="evenodd" d="M79.6707 93.2375C78.488 93.2567 78.604 93.9984 78.6134 94.706C78.6296 95.9368 78.6177 97.1682 78.6179 98.3995C78.6179 99.6119 78.618 99.6119 79.5832 100.264H76.2918C77.4176 99.9164 77.1235 99.0047 77.1323 98.2351C77.1452 97.1066 77.1357 95.9778 77.1357 94.8493C77.1355 93.6643 77.1355 93.6643 76.1764 93.04H79.4794C79.5431 93.1059 79.6069 93.1716 79.6707 93.2375Z" fill="#003366"/>
<path fill-rule="evenodd" clip-rule="evenodd" d="M97.2301 38.748C97.8665 39.1892 97.8874 39.7071 97.6238 40.2714C96.9677 41.6764 96.2832 43.0684 95.6416 44.4801C95.3681 45.082 95.1987 45.7308 94.9354 46.3383C94.7215 46.8322 94.4028 47.2586 93.7587 46.9931C93.2286 46.7747 93.1358 46.2239 93.4572 45.5472C93.6422 45.1576 93.8667 44.7643 93.9406 44.3492C94.0707 43.6208 94.3902 43.0667 95.0167 42.668C95.202 42.55 95.4623 42.3349 95.4587 42.1692C95.4305 40.8753 96.7739 40.2564 96.9483 39.0724C96.9634 38.9698 97.1057 38.886 97.2301 38.748Z" fill="#003366"/>
<path fill-rule="evenodd" clip-rule="evenodd" d="M85.1853 42.5684C84.2206 42.318 83.7988 41.6025 84.146 40.7306C84.2926 40.3627 84.5352 39.9922 84.8307 39.7325C85.5449 39.1058 86.1218 38.4285 86.2317 37.4396C86.2502 37.2722 86.3312 37.0609 86.4564 36.9648C87.1896 36.4021 87.8728 35.8228 88.1717 34.8854C88.2107 34.7631 88.6883 34.7807 88.9628 34.7334C88.9703 34.9593 89.0668 35.2353 88.972 35.4037C88.0405 37.0587 87.0519 38.682 86.1348 40.3447C85.7566 41.0306 85.5124 41.7902 85.1853 42.5684Z" fill="#003366"/>
<path fill-rule="evenodd" clip-rule="evenodd" d="M111.8 50.6101C111.761 50.7379 111.743 51.0163 111.605 51.2106C111.12 51.8973 110.62 52.5787 110.063 53.2064C109.936 53.3498 109.465 53.3895 109.311 53.2709C108.813 52.8878 108.662 52.344 109.035 51.7801C109.274 51.4196 109.582 51.1045 109.862 50.7715C110.753 49.7101 110.811 49.0198 110.102 47.8491C110.009 47.6957 109.91 47.5462 109.815 47.3943C109.577 47.0161 109.403 46.6445 109.969 46.3929C110.469 46.171 110.871 46.2505 111.102 46.7908C111.163 46.9314 111.219 47.0785 111.246 47.2282C111.419 48.1591 111.585 49.0914 111.747 50.024C111.774 50.1747 111.776 50.3299 111.8 50.6101Z" fill="#003366"/>
<path fill-rule="evenodd" clip-rule="evenodd" d="M93.9557 39.3984C94.4688 40.4405 94.4236 41.1926 93.8903 41.9877C93.5441 42.5037 93.427 43.1672 93.1377 43.7288C92.7678 44.4466 92.3556 45.1475 91.8991 45.8129C91.7765 45.9916 91.3485 46.1548 91.2004 46.0729C91.0166 45.9713 90.8339 45.5578 90.9005 45.3648C91.3021 44.1988 91.7439 43.0437 92.2385 41.9138C92.4662 41.3933 92.8342 40.9316 93.157 40.4556C93.3766 40.1316 93.6284 39.829 93.9557 39.3984Z" fill="#003366"/>
<path fill-rule="evenodd" clip-rule="evenodd" d="M50.8008 13.035C50.8155 10.9013 51.6337 9.19685 53.4744 8.05883C53.7179 7.90838 54.0721 7.93717 54.375 7.88281C54.3973 8.2022 54.539 8.58195 54.4147 8.82696C54.2163 9.21841 53.8911 9.58954 53.532 9.84764C52.3047 10.7293 51.6985 11.8085 52.1585 13.3464C52.2675 13.7111 52.3143 14.1424 51.7617 14.2514C51.2134 14.3595 50.9453 14.0802 50.8669 13.5668C50.84 13.3903 50.8226 13.2123 50.8008 13.035Z" fill="#003366"/>
<path fill-rule="evenodd" clip-rule="evenodd" d="M58.5649 2.00046C58.3518 2.2393 58.158 2.4994 57.9223 2.71315C57.129 3.4323 56.6539 4.29098 56.6267 5.38388C56.6205 5.62904 56.582 5.99324 56.4259 6.09087C56.0702 6.31355 55.6322 6.49865 55.228 6.49834C55.0879 6.49819 54.8051 5.89176 54.8331 5.58469C54.9698 4.08863 55.5897 2.81524 56.942 2.05682C57.3734 1.81489 57.9451 1.82305 58.4526 1.7168C58.49 1.81135 58.5274 1.9059 58.5649 2.00046Z" fill="#003366"/>
<path fill-rule="evenodd" clip-rule="evenodd" d="M105.726 45.2588C106.686 45.9838 106.731 46.9175 106.427 47.796C106.115 48.6986 105.599 49.5388 105.108 50.3683C104.814 50.8651 104.325 50.9273 103.857 50.5656C103.391 50.205 103.686 49.8529 103.915 49.505C104.332 48.87 104.83 48.2677 105.126 47.5793C105.424 46.8884 105.517 46.109 105.726 45.2588Z" fill="#003366"/>
<path fill-rule="evenodd" clip-rule="evenodd" d="M101.608 44.4111C102.191 45.6774 102.164 46.7654 101.438 47.8378C101.031 48.438 100.783 49.1553 100.523 49.8418C100.336 50.3335 100.052 50.6107 99.5499 50.3923C99.0228 50.163 99.2547 49.7364 99.4657 49.4283C100.159 48.4167 100.513 47.295 100.774 46.1069C100.905 45.5094 101.321 44.9744 101.608 44.4111Z" fill="#003366"/>
<path fill-rule="evenodd" clip-rule="evenodd" d="M112.907 48.7939C113.104 48.9663 113.226 49.0488 113.317 49.1568C114.044 50.012 114.204 52.1922 113.592 53.0832C113.314 53.4889 112.97 53.9534 112.415 53.6015C111.882 53.2626 111.984 52.7507 112.277 52.2511C112.83 51.309 112.82 51.3036 112.907 48.7939Z" fill="#003366"/>
<path fill-rule="evenodd" clip-rule="evenodd" d="M82.6476 6.60608C83.5231 5.76357 84.3892 5.04827 85.7204 5.15468C86.5602 5.22182 87.4278 4.94278 88.3275 4.8125C88.0092 5.62159 86.361 6.64828 85.615 6.55711C85.4952 6.54248 85.3148 6.5086 85.2758 6.42837C84.8538 5.5623 84.3176 5.9938 83.762 6.25143C83.4112 6.41405 83.0205 6.49074 82.6476 6.60608Z" fill="#003366"/>
<path fill-rule="evenodd" clip-rule="evenodd" d="M88.5174 2.20623C88.2235 2.66899 87.9924 3.19611 87.6106 3.5694C87.4 3.77544 86.9355 3.78268 86.588 3.77514C85.9953 3.76251 85.4045 3.66765 84.6433 3.58988C85.9354 3.04966 87.1591 2.53794 88.3824 2.02637C88.4274 2.08627 88.4724 2.14618 88.5174 2.20623Z" fill="#003366"/>
<path fill-rule="evenodd" clip-rule="evenodd" d="M88.1763 22.1963C88.1609 23.2456 87.8054 23.9862 87.0813 24.4876C86.8582 24.6419 86.4603 24.5439 86.1425 24.5615C86.1742 24.2358 86.0812 23.7755 86.2606 23.6097C86.812 23.1004 87.4674 22.7039 88.1763 22.1963Z" fill="#003366"/>
<path fill-rule="evenodd" clip-rule="evenodd" d="M86.7549 21.4877C86.398 21.9916 86.084 22.535 85.6685 22.9848C85.4034 23.2719 84.9484 23.5223 84.6197 23.0521C84.2982 22.5926 84.3747 22.0682 84.8916 21.8134C85.4191 21.5536 86.0188 21.4403 86.5868 21.2627C86.6428 21.3377 86.6988 21.4127 86.7549 21.4877Z" fill="#003366"/>
<path fill-rule="evenodd" clip-rule="evenodd" d="M102.106 40.9676C102.196 41.6715 102.32 42.3738 102.354 43.0805C102.365 43.2866 102.12 43.5053 101.992 43.7181C101.784 43.5638 101.471 43.4522 101.388 43.2475C101.038 42.3758 101.425 41.6451 101.857 40.9424C101.94 40.9509 102.023 40.9592 102.106 40.9676Z" fill="#003366"/>
<path fill-rule="evenodd" clip-rule="evenodd" d="M90.8722 25.2065C90.3338 26.0171 89.81 26.8384 89.2386 27.625C89.1663 27.7243 88.8249 27.69 88.6438 27.6225C88.5526 27.5887 88.453 27.263 88.5071 27.202C89.1806 26.4414 89.8815 25.7053 90.5755 24.9629C90.6744 25.044 90.7733 25.1254 90.8722 25.2065Z" fill="#003366"/>
<path fill-rule="evenodd" clip-rule="evenodd" d="M89.1521 23.625C89.1484 25.3363 88.2309 26.3864 87.2007 25.8873C87.8679 25.1137 88.51 24.3693 89.1521 23.625Z" fill="#003366"/>
<path fill-rule="evenodd" clip-rule="evenodd" d="M68.7257 43.7109C68.0203 43.7109 67.4694 43.7582 66.9348 43.6851C66.7509 43.6598 66.6079 43.3343 66.4463 43.1461C66.6609 42.9664 66.8581 42.6633 67.0932 42.6304C67.7789 42.5343 68.246 42.9316 68.7257 43.7109Z" fill="#003366"/>
<path fill-rule="evenodd" clip-rule="evenodd" d="M56.4508 8.31687C56.4819 7.89231 56.4571 7.45373 56.5591 7.04672C56.6754 6.58227 57.0547 6.38947 57.5115 6.56749C58.0091 6.76122 57.9519 7.19702 57.7054 7.5084C57.4138 7.87691 57.0038 8.15164 56.6452 8.46702C56.5803 8.41697 56.5156 8.36692 56.4508 8.31687Z" fill="#003366"/>
<path fill-rule="evenodd" clip-rule="evenodd" d="M92.9972 28.9316C93.0345 29.8898 92.8024 30.4856 92.1398 30.8142C91.9359 30.9151 91.6414 30.8327 91.3884 30.8344C91.4214 30.5722 91.3576 30.2107 91.5057 30.0669C91.9138 29.6707 92.4101 29.3656 92.9972 28.9316Z" fill="#003366"/>
<path fill-rule="evenodd" clip-rule="evenodd" d="M91.8803 27.3785C91.4525 28.1027 91.0333 28.8324 90.5852 29.5438C90.5337 29.6256 90.2177 29.6596 90.1986 29.6236C90.0874 29.4142 89.9106 29.1299 89.9783 28.9599C90.0936 28.6714 90.3552 28.4287 90.5906 28.2041C90.9386 27.8722 91.3177 27.5728 91.6836 27.2598C91.7491 27.2993 91.8147 27.3389 91.8803 27.3785Z" fill="#003366"/>
<path fill-rule="evenodd" clip-rule="evenodd" d="M100.576 40.6206C100.704 41.126 100.883 41.6262 100.938 42.1395C100.962 42.3589 100.769 42.6497 100.591 42.8221C100.5 42.9102 100.126 42.878 100.055 42.7772C99.9296 42.5987 99.8613 42.3112 99.9046 42.0964C100.006 41.5922 100.187 41.104 100.335 40.6094C100.415 40.6131 100.495 40.6169 100.576 40.6206Z" fill="#003366"/>
<path fill-rule="evenodd" clip-rule="evenodd" d="M95.7588 37.376C95.6961 37.998 95.5669 38.5058 94.9309 38.5494C94.7786 38.5597 94.4219 38.1289 94.4645 38.0071C94.653 37.4664 95.1066 37.2848 95.7588 37.376Z" fill="#003366"/>
<path fill-rule="evenodd" clip-rule="evenodd" d="M105.485 42.5654C105.662 42.7633 105.892 42.9361 106.002 43.1662C106.113 43.3968 106.12 43.6839 106.134 43.9482C106.136 43.9856 105.872 44.1051 105.819 44.0663C105.585 43.8946 105.297 43.7152 105.194 43.4692C105.097 43.2356 105.205 42.9158 105.222 42.634C105.31 42.6112 105.397 42.5882 105.485 42.5654Z" fill="#003366"/>
<path fill-rule="evenodd" clip-rule="evenodd" d="M51.304 5.18227C51.3293 4.29911 51.7677 3.84513 52.7725 3.68066C52.6155 4.54165 51.9734 4.85087 51.304 5.18227Z" fill="#003366"/>
<path fill-rule="evenodd" clip-rule="evenodd" d="M80.8807 7.53898C80.3235 7.68327 79.7664 7.82756 79.2092 7.97186C79.1628 7.90025 79.1163 7.82849 79.0698 7.75688C79.385 7.53174 79.6742 7.20019 80.0236 7.11549C80.3004 7.04804 80.6509 7.28304 80.9687 7.3839C80.9394 7.43565 80.91 7.48723 80.8807 7.53898Z" fill="#003366"/>
<path fill-rule="evenodd" clip-rule="evenodd" d="M70.5863 13.1015C70.264 13.3394 69.9469 13.5856 69.6074 13.7955C69.5868 13.8085 69.3891 13.5356 69.2739 13.3956C69.6368 13.1856 69.9998 12.9757 70.3629 12.7656L70.5863 13.1015Z" fill="#003366"/>
<path fill-rule="evenodd" clip-rule="evenodd" d="M94.0087 31.0458C93.7215 31.2463 93.451 31.4821 93.1387 31.6291C93.0213 31.6843 92.8067 31.5329 92.6365 31.4756C92.7128 31.3429 92.7576 31.1448 92.8713 31.0902C93.1588 30.9519 93.4773 30.878 93.7833 30.7783C93.8583 30.8675 93.9335 30.9566 94.0087 31.0458Z" fill="#003366"/>
<path fill-rule="evenodd" clip-rule="evenodd" d="M73.1045 20.7233C72.9392 20.4617 72.6863 20.2339 72.7272 20.0889C72.8014 19.8256 73.0046 19.4786 73.2342 19.3996C74.2317 19.0562 75.2596 19.0171 76.2053 19.5662C76.79 19.9058 77.1676 20.4477 77.0596 21.1647C76.9443 21.9305 76.4453 22.3679 75.5933 22.5568C75.5933 22.2325 75.6108 21.9401 75.5899 21.6504C75.5419 20.9873 75.21 20.8091 74.6053 21.1056C73.906 21.4484 73.4714 22.2214 73.6358 23.0213C73.7634 23.6417 74.0442 24.2292 74.2001 24.8456C74.2816 25.168 74.352 25.5696 74.23 25.8494C74.0405 26.2843 73.6885 26.3486 73.3574 25.8905C72.3448 24.4894 72.2343 22.1265 73.1045 20.7233Z" fill="#003366"/>
<path fill-rule="evenodd" clip-rule="evenodd" d="M75.2923 28.1279C76.3041 28.1247 76.9317 28.5742 77.3805 29.3842C76.3793 29.6807 75.8193 29.3459 75.2923 28.1279Z" fill="#003366"/>
</svg>
