<svg xmlns="http://www.w3.org/2000/svg" width="100" height="100" viewBox="0 0 100 100">
    <g fill="none" fill-rule="evenodd" stroke="#262626">
        <path d="M99.937 50.202c0 27.469-22.268 49.735-49.735 49.735C22.734 99.937.466 77.671.466 50.202.466 22.732 22.734.466 50.202.466c27.467 0 49.735 22.267 49.735 49.736z"/>
        <path d="M89.99 50.202S72.176 25.334 50.202 25.334c-21.975 0-39.789 24.868-39.789 24.868s17.814 24.867 39.789 24.867c21.974 0 39.788-24.867 39.788-24.867z"/>
        <path d="M30.308 50.202c0-10.988 8.907-19.894 19.894-19.894 10.986 0 19.894 8.906 19.894 19.894 0 10.988-8.908 19.894-19.894 19.894-10.987 0-19.894-8.906-19.894-19.894z"/>
        <path d="M40.255 50.202c0-5.494 4.453-9.947 9.947-9.947 5.493 0 9.947 4.453 9.947 9.947 0 5.493-4.454 9.947-9.947 9.947-5.494 0-9.947-4.454-9.947-9.947z"/>
        <path stroke-dasharray="0.246,3.941" stroke-linecap="round" stroke-linejoin="round" d="M35.281 50.202c0-8.24 6.68-14.92 14.92-14.92s14.921 6.68 14.921 14.92-6.68 14.92-14.92 14.92-14.92-6.68-14.92-14.92z"/>
        <path d="M40.255 50.202l9.947-9.947M41.074 54.356l13.288-13.288M43.17 57.233l14.065-14.065M46.11 59.267L59.267 46.11M50.202 60.149l9.947-9.947"/>
    </g>
</svg>
