<svg xmlns="http://www.w3.org/2000/svg" width="100" height="100" viewBox="0 0 100 100">
    <g fill="none" fill-rule="evenodd" stroke="#262626">
        <path d="M50.202.466c27.467 0 49.735 22.268 49.735 49.736 0 27.467-22.268 49.735-49.735 49.735C22.734 99.937.466 77.67.466 50.202.466 22.734 22.734.466 50.202.466"/>
        <path stroke-linecap="round" d="M7.098 25.373c4.14 0 4.14 41.304 8.28 41.304 4.141 0 4.141-46.316 8.284-46.316 4.143 0 4.143 64.656 8.287 64.656 4.145 0 4.145-51.498 8.288-51.498 4.139 0 4.139 25.387 8.278 25.387 4.144 0 4.144-33.158 8.288-33.158 4.145 0 4.145 59.269 8.289 59.269 4.145 0 4.145-64.656 8.29-64.656 4.151 0 4.151 54.709 8.304 54.709 4.152 0 4.346-54.454 8.497-54.454"/>
    </g>
</svg>
