<svg xmlns="http://www.w3.org/2000/svg" width="100" height="100" viewBox="0 0 100 100">
    <g fill="none" fill-rule="evenodd" stroke="#262626">
        <path d="M99.937 50.202c0 27.467-22.268 49.735-49.735 49.735C22.734 99.937.466 77.67.466 50.202.466 22.734 22.734.466 50.202.466c27.467 0 49.735 22.268 49.735 49.736z"/>
        <path d="M9.289 21.914l11.704 28.11h23.289c.599 0 1.139.362 1.366.917l8.17 19.872a1.478 1.478 0 0 1-.797 1.932l-4.054 1.688a1.478 1.478 0 0 1-1.934-.795L40.01 56.765H16.825a1.475 1.475 0 0 1-1.364-.91L4.717 30.052M12.48 82.617L38.288 56.81M17.43 87.614l24.953-24.953M14.868 85.203l26.105-26.105M10.413 79.71l22.955-22.954M6.398 73.778L23.42 56.756M28.435 56.715L8.24 76.91M4.785 70.418l13.602-13.602M3.362 66.867L15.141 55.09M2.155 63.1L13.68 51.578M1.248 59.034l10.92-10.92M.662 54.646l10.063-10.062M.466 49.869l8.78-8.78M.78 44.581l7.05-7.05M1.839 38.55l4.508-4.51M43.902 66.116L20.36 89.657M45.228 69.763L23.102 91.89M46.824 73.141L26.229 93.735M51.602 73.336l-22.1 22.101M32.989 96.923l40.086-40.086M99.652 49.884h-34.84c-.687 0-1.244.557-1.244 1.243v4.344c0 .687.557 1.244 1.244 1.244H99.5M36.78 98.105l41.473-41.472M40.558 99.003l42.29-42.293M44.93 99.604l42.828-42.828M49.575 99.932l43.137-43.136M54.877 99.604l42.807-42.807M60.608 98.847l38.239-38.24M67.63 96.798L96.798 67.63M53.822 70.817l14.186-14.184M52.458 67.506l11.321-11.32M50.968 63.725l12.6-12.6M49.56 60.457l10.574-10.574M40.255 64.79l2.128-2.13M35.281 64.79l5.692-5.693M48.287 57.399l7.515-7.515M46.783 53.929l4.046-4.045"/>
    </g>
</svg>
