<svg xmlns="http://www.w3.org/2000/svg" width="100" height="100" viewBox="0 0 100 100">
    <g fill="none" fill-rule="evenodd">
        <path stroke="#F95602" stroke-width="3" d="M99.05 50.823L50.62 99.118a.881.881 0 0 1-1.244 0L.945 50.823a.874.874 0 0 1 0-1.239L49.376 1.29a.881.881 0 0 1 1.244 0l48.43 48.295a.874.874 0 0 1 0 1.24z"/>
        <path stroke="#F95602" stroke-width="3" d="M57.792 63.381c3.713-3.737 6.884-9.554 6.884-16.093 0-11.278 0-20.42-14.813-20.42-14.812 0-14.812 9.142-14.812 20.42 0 6.527 3.242 12.334 6.968 16.072-3.269.82-5.39 2.14-5.39 3.628 0 2.489 5.925 4.505 13.234 4.505 7.31 0 13.234-2.016 13.234-4.505 0-1.475-2.084-2.785-5.305-3.607z"/>
        <path fill="#F95602" d="M42.292 52.6a3.402 3.402 0 0 1-3.414-3.396 3.407 3.407 0 0 1 3.414-3.399c1.875 0 5.643 1.524 5.643 3.399 0 1.878-3.768 3.396-5.643 3.396M51.1 49.204c0-1.875 3.768-3.399 5.654-3.399a3.405 3.405 0 0 1 3.404 3.399 3.401 3.401 0 0 1-3.404 3.396c-1.886 0-5.654-1.518-5.654-3.396M49.658 60.161c-1.191 0-2.16-.74-2.16-1.66 0-.92.969-1.66 2.16-1.66 1.196 0 2.165.74 2.165 1.66 0 .92-.97 1.66-2.165 1.66"/>
    </g>
</svg>
