<svg xmlns="http://www.w3.org/2000/svg" width="100" height="100" viewBox="0 0 100 100">
    <g fill="none" fill-rule="evenodd" stroke="#F95602" stroke-linejoin="round" stroke-width="3">
        <path d="M82.384 41.573c0-36.13-27.21-35.16-27.21-35.16-4.805-4.602-12.67-4.577-12.67-4.577l.834 10.244c-4.48 0-8.301 2.768-9.785 6.656l-.008.018-.09.253c-1.55 4.03-9.06 9.162-11.645 10.836a8.963 8.963 0 0 0-.878.557c-2.198 1.586-3.625 4.142-3.625 7.024 0 4.81 3.974 8.71 8.874 8.71.839 0 1.649-.116 2.418-.329h-.003l.008-.002a8.938 8.938 0 0 0 1.576-.603c2.643-.927 8.26-2.54 14.236-2.067.679.137 1.378.22 2.09.251l.096.015-.005-.012a13.341 13.341 0 0 0 7.702-2.082c-1.796 2.185-5.3 5.62-12.122 13.014-11.844 12.837-8.758 29.108-8.758 29.108h40.597s-3.427-6.32 2.567-18.356c5.994-12.034 5.8-23.498 5.8-23.498z"/>
        <path stroke-linecap="round" d="M27.546 92.047h50.87m-56.32 7.758h61.769"/>
    </g>
</svg>
