<svg xmlns="http://www.w3.org/2000/svg" width="100" height="100" viewBox="0 0 100 100">
    <path fill="none" fill-rule="evenodd" stroke="#F95602" stroke-linecap="round" stroke-linejoin="round" stroke-width="3" d="M52.675.826h15.688M52.675 9.97h24.107m-24.107 9.144h29.4m-29.4 9.143h29.942M52.675 37.4h29.4m-29.4 9.144h35.49m-35.49 9.143h29.942m-29.942 9.143h26.88m-26.88 9.144H73.72m-21.045 9.143h16.262m-16.262 8.298h13.44m-13.44 7.37h8.562-8.562zM27.083 4.597c4.602-1.86 11.61-4.653 19.36-4.825l.043 99.674c-18.009.008-24.496-14.013-24.65-16.567-.436-4.555-.873-9.113-1.313-13.67.021.216-3.13-.57-3.542-.827-4.442-2.768-4.538-14.019-4.968-18.697-.195-2.139 2.792-3.893 1.96-7.814-4.877-22.959 2.09-33.707 13.11-37.274z"/>
</svg>
