<svg xmlns="http://www.w3.org/2000/svg" width="100" height="100" viewBox="0 0 100 100">
    <g fill="none" fill-rule="evenodd">
        <path fill="#CA8EE8" d="M48.676 63.61c-3.667-.285-6.692-1.882-8.528-4.358-1.196-1.61-2.45-4.36-1.634-8.31.85-4.117 3.29-7.282 7.054-9.152 2.546-1.263 5.692-1.908 9.352-1.917h.013a5.345 5.345 0 0 1 5.348 5.33c.001.534 2.773 6.6 1.881 9.614-2.11 7.14-5.285 9.432-13.486 8.793M31.746 20.48a5.556 5.556 0 0 1-2.744-.725 5.578 5.578 0 0 1-2.11-7.605c5.047-8.913 15.957-8.553 23.172-8.313 1.088.036 2.115.07 3.007.07a5.582 5.582 0 0 1 5.584 5.58c0 3.083-2.5 5.581-5.584 5.581-1.077 0-2.194-.037-3.377-.076-5.064-.168-11.367-.376-13.083 2.655a5.582 5.582 0 0 1-4.865 2.833M8.198 45.632A4.505 4.505 0 0 1 .789 43.25c-1.78-8.072 4.962-13.735 9.422-17.48.672-.565 1.307-1.098 1.843-1.579a4.508 4.508 0 0 1 6.362.34 4.501 4.501 0 0 1-.34 6.358c-.646.581-1.337 1.16-2.068 1.775-3.13 2.628-7.025 5.901-6.42 8.645a4.5 4.5 0 0 1-1.39 4.323M15.837 73.15a4.506 4.506 0 0 1-6.924 3.55c-6.97-4.448-6.209-13.218-5.704-19.018.075-.874.146-1.7.185-2.418a4.506 4.506 0 0 1 8.997.48 80.698 80.698 0 0 1-.206 2.716c-.354 4.07-.793 9.138 1.577 10.65a4.5 4.5 0 0 1 2.075 4.04M44.495 86.45a4.501 4.501 0 0 1 .932 7.723c-6.59 4.991-14.558 1.238-19.827-1.246a79.674 79.674 0 0 0-2.204-1.012 4.502 4.502 0 1 1 3.57-8.268 79.5 79.5 0 0 1 2.476 1.134c3.698 1.743 8.301 3.911 10.542 2.214a4.506 4.506 0 0 1 4.51-.545M74.913 75.364a3.186 3.186 0 0 1 1.895-.22c2.125.38 3.833 2.62 3.815 5.007-.059 7.93-6.751 10.654-11.178 12.454-.667.273-1.297.53-1.834.774-1.859.844-4.2-.305-5.23-2.568-1.032-2.265-.361-4.783 1.497-5.628a54.187 54.187 0 0 1 2.059-.87c3.106-1.265 6.973-2.839 6.993-5.535.012-1.614.81-2.88 1.983-3.414M86.3 48.207a4.514 4.514 0 0 1 1.446-1.813c2.024-1.506 4.903-1.089 6.43.933 5.073 6.716 1.23 14.754-1.316 20.069a80.191 80.191 0 0 0-1.035 2.225c-1.011 2.306-3.714 3.35-6.04 2.334-2.327-1.018-3.392-3.711-2.382-6.018.35-.805.745-1.628 1.162-2.499 1.785-3.73 4.005-8.374 2.28-10.659a4.546 4.546 0 0 1-.544-4.572M66.435 19.215c-.475-.628-.741-1.428-.73-2.358.037-2.874 2.71-5.899 5.972-6.755 10.84-2.847 16.074 4.76 19.535 9.795a61.722 61.722 0 0 0 1.471 2.074c1.574 2.08.536 5.517-2.32 7.677-2.858 2.162-6.45 2.228-8.024.147a60.437 60.437 0 0 1-1.655-2.327c-2.428-3.533-5.454-7.928-9.14-6.96-2.205.579-4.115.02-5.109-1.293"/>
        <path fill="#506366" d="M49.87 60.952c-.303.025-.615.037-.926.037-3.406 0-6.932-1.464-8.983-3.732-1.514-1.675-2.198-3.715-1.977-5.9.314-3.096 1.577-6.145 3.557-8.589a13.525 13.525 0 0 1 3.372-3.01c1.321-.828 2.264-1.001 3.693-1.264l.39-.071a8.569 8.569 0 0 1 1.577-.145c2.539 0 5.152 1.08 7.17 2.962 2.015 1.881 2.418 6.921 2.418 6.921.168 3.035-.867 5.9-2.914 8.063-1.984 2.097-4.233 4.474-7.377 4.728m6.086.476a87.75 87.75 0 0 1 1.408-1.343c.87-.818 1.769-1.663 2.604-2.576 2.462-2.693 3.678-6.629 3.427-11.082-.187-3.291-1.827-6.214-4.62-8.228-1.37-.987-3.2-2.19-5.203-2.734a2.883 2.883 0 0 0-.722-.073c-.998 0-2.445.27-3.447.474l-.07.014a20.05 20.05 0 0 1-.555.108c-4.232.731-7.947 2.77-9.938 5.454-2.33 3.144-3.729 8.332-3.96 10.41-.292 2.648.636 5.324 2.616 7.533 2.552 2.849 6.519 4.619 10.352 4.619.848 0 1.678-.087 2.47-.259.221-.047.439-.094.655-.138 1.802-.375 3.504-.728 4.983-2.18M90.634 28.154l.022.065c.368 1.135.55 1.907-.23 2.279a5.045 5.045 0 0 1-3.56.309c-2.642-.746-4.088-2.615-5.762-4.778-1.815-2.345-4.082-4.478-6.742-6.342-2.367-1.66-5.256-4.306-5.423-4.966-.123-.576-.007-1.07.354-1.516.724-.894 2.381-1.448 4.326-1.448 2.715 0 5.304 1.017 6.924 2.72.782.822 1.622 1.64 2.436 2.432 1.216 1.185 2.475 2.411 3.568 3.676a20.294 20.294 0 0 1 3.987 7.252c.03.102.066.208.1.317zm-1.662-9.49c-2.233-2.911-4.341-5.662-7.537-7.625-1.767-1.085-3.739-1.758-5.479-2.352-.756-.258-1.39-.374-2.053-.374-.541 0-1.124.073-2.012.25-2.76.549-5.658 3.154-5.528 6.402.116 2.944 3.216 5.032 5.48 6.557.215.144.422.284.62.419 2.746 1.882 4.934 4.101 7.552 7.66 1.195 1.623 2.33 2.296 4.006 2.973.41.165.775.342 1.128.512 1.015.492 1.951.943 3.4.877 2.322-.102 4.803-.55 5.6-3.1l.014-.043.037-.025c.062-.042.102-.157.13-.385l.014-.102c.021-.233.036-.516.055-.887v-.052c-.251-3.967-2.822-7.314-5.091-10.267l-.336-.437zM96.868 51.63c-.384 2.737-1.565 5.12-2.816 7.642l-.03.06c-.466.94-.895 1.925-1.31 2.876-.768 1.767-1.564 3.593-2.622 5.189-1.334 2.017-2.67 3.128-3.757 3.128-.501 0-.965-.222-1.42-.68-1.66-1.674-.695-4.718.331-7.182.542-1.304 1.308-2.44 2.117-3.64.771-1.142 1.564-2.316 2.137-3.634.09-.207.2-.437.316-.684l.022-.045c.531-1.117 1.192-2.51 1.077-3.61-.051-.49-.19-.918-.326-1.333-.193-.59-.359-1.095-.28-1.713.207-1.644 1.59-2.98 3.082-2.98.399 0 .795.09 1.178.27 1.547.724 2.326 2.375 2.383 5.046-.095.455-.085 1.154-.082 1.29m3.1-1.66v-.185l-.018-.086c-.204-3.76-1.998-6.464-4.922-7.419a6.33 6.33 0 0 0-1.966-.323c-2.564 0-4.648 1.676-5.438 4.376-.236.807-.166 1.541-.098 2.251.067.71.131 1.381-.127 2.07-.272.72-.456 1.462-.633 2.179-.207.828-.4 1.605-.712 2.363-.538 1.304-1.26 2.52-1.96 3.696-.962 1.618-1.956 3.291-2.51 5.243-.685 2.415-1.13 4.772.922 7.054 1.203 1.337 2.5 2.015 3.857 2.015 1.606 0 3.272-.98 4.82-2.834 2.185-2.614 3.636-5.8 5.04-8.88l.026-.06.524-1.144c.203-.441.413-.883.625-1.325 1.167-2.453 2.374-4.986 2.551-7.758.009-.052.015-.097.019-.146l.011-.11v-.028a9.01 9.01 0 0 0-.01-.948M37.904 9.003c.582-.276 1.161-.573 1.722-.861 1.741-.894 3.386-1.739 5.278-2.094.36-.067.869-.103 1.468-.103 3.311 0 7.303.967 7.977 2.53.281.65-.006 1.436-.856 2.335-1.116 1.183-3.192 1.798-5.022 2.34-.679.202-1.319.392-1.894.604-1.065.393-2.124.801-3.149 1.197-1.424.55-3.039 1.172-4.596 1.716-1.466.513-2.77.752-4.106.752-1.16 0-2.359-.173-3.887-.56-.39-.098-.997-.583-1.356-1.29-.144-.28-.354-.83-.144-1.352.42-1.049.428-1.069 1.024-1.532 1.508-1.172 3.237-1.875 5.069-2.62.774-.315 1.65-.672 2.472-1.062m-7.665.307c-1.869 1.009-5.758 3.107-3.932 7.162 1.367 3.035 5.803 3.845 8.21 3.845l.204-.002c3.391-.077 6.428-1.468 9.365-2.813l.076-.035c.436-.2.873-.399 1.313-.595 2.67-1.193 5.727-2.098 8.888-2.996 1.06-.302 2.037-1.217 2.68-2.511.732-1.476.898-3.132.433-4.32-1.255-3.202-5.503-3.634-8.315-3.92A22.586 22.586 0 0 0 46.864 3c-2.718 0-4.995.587-7.38 1.903-1.52.836-3.139 1.555-4.704 2.25-1.512.67-3.064 1.36-4.541 2.157M36.878 93.309a30.472 30.472 0 0 0-2.174-.702c-1.393-.379-2.592-.86-3.667-1.47-.397-.224-.865-.388-1.318-.546-.675-.237-1.373-.482-1.782-.914-.187-.198-.418-.42-.723-.712-1.354-1.296-3.401-3.256-2.545-4.795.254-.455.732-.686 1.422-.686.48 0 1.039.12 1.531.33.968.41 1.964.54 2.928.667.354.047.693.091 1.033.148.855.144 1.882.346 2.875.542l.067.013c2.054.405 3.99.796 4.817.755 3.52-.15 5.924.346 7.426 1.554 1.061.854 2.275 2.236 2.202 3.323-.032.489-.32.892-.882 1.233-1.764 1.067-4.107 2.292-6.595 2.292-.29 0-.582-.016-.868-.05-1.4-.159-2.54-.56-3.747-.982m5.3 3.886c2.718-.416 5.526-.846 7.754-2.589 1.33-1.04 2.131-2.503 2.2-4.014.062-1.384-.498-2.705-1.576-3.718-2.353-2.21-5.298-3.553-8.293-3.778-.743-.056-1.464-.062-2.161-.068-1.076-.008-2.092-.017-3.174-.192l-.963-.154a711.394 711.394 0 0 1-3.994-.65c-.638-.107-1.273-.249-1.945-.399-1.323-.295-2.692-.6-4.025-.6-1.454 0-2.67.37-3.72 1.132-.58.421-.92 1.042-1.01 1.845-.244 2.198 1.468 5.165 2.44 6.265 1.853 2.099 5.073 3.276 7.66 4.221l.056.02c.425.155.894.329 1.39.513l.117.043c2.934 1.089 6.26 2.323 7.595 2.379l.041.002.04-.007c.514-.09 1.038-.17 1.567-.251M11.054 25.952c1.292-1.284 2.509-2.495 4.189-2.972.617-.173 1.065-.099 1.342.234.318.382.422 1.124.271 1.936l-.006.049c-.35 4.789-3.922 8.575-7.073 11.915l-.421.447c-.377.4-.754.846-1.154 1.317-1.268 1.495-2.706 3.19-4.354 3.703a.822.822 0 0 1-.246.043c-.135 0-.23-.05-.317-.17-.505-.698-.217-2.974.039-3.747 1.59-4.804 4.288-9.381 7.213-12.244.174-.17.346-.341.517-.51m-4.005.5c-1.04 1.166-2.112 2.369-2.942 3.732C2.343 33.08.485 36.454.072 39.515c-.165 1.221-.14 3.912 1.126 5.36.652.746 1.562 1.04 2.61.834 2.573-.504 4.44-2.578 6.089-4.408.448-.498.861-.957 1.283-1.387l.779-.786c1.8-1.815 3.662-3.691 5.043-5.874 1.56-2.466 4.241-8.533 2.579-11.548-.649-1.178-1.855-1.775-3.586-1.775-2.058 0-4.598.306-5.969 2.692-.797 1.385-1.856 2.573-2.977 3.83M14.4 72.937c-.224.374-.732 1.012-1.614 1.077a2.53 2.53 0 0 1-.196.008c-1.469 0-2.995-1.175-3.934-2.274-2.798-3.273-3.555-8.696-3.97-11.775-.011-.092.041-1.01.084-1.373.187-1.592.442-3.758 1.733-4.402a.46.46 0 0 1 .205-.05c.96 0 2.184 2.666 2.51 3.726.208.676.393 1.352.571 2.006.426 1.556.864 3.159 1.589 4.698.455.968 1.044 1.88 1.614 2.762.626.968 1.214 1.877 1.653 2.866.348.786.248 1.91-.244 2.73m3.15-4.153c-.455-.862-1.066-1.72-1.656-2.55-1.04-1.46-2.112-2.966-2.429-4.574-.74-3.772-1.757-6.44-3.108-8.155-1.086-1.379-2.408-2.139-3.723-2.139-.925 0-1.804.369-2.615 1.096-1.552 1.39-1.883 4.321-2.102 6.26-.047.422-.215.882-.113 1.764.084.726 1.932 11.732 6.335 15.13 2.399 1.853 4.621 2.001 7.193.482 2.645-1.563 3.599-4.708 2.219-7.314M62.504 92.164l-.017.003-.017-.001a1.346 1.346 0 0 0-.103-.004l-.22.002c-.552-.033-1.286-.188-1.697-.735-.324-.433-.4-1.036-.224-1.797.433-1.875 1.324-2.492 3.157-3.166 1.354-.497 2.553-1.327 3.712-2.13 1-.693 2.024-1.402 3.125-1.884.437-.192.898-.36 1.343-.522.705-.258 1.416-.517 2.087-.873.254-.135.518-.3.751-.445.578-.36 1.175-.732 1.78-.805.757-.093 1.297.042 1.625.395.337.363.482 1.002.419 1.85-.16 2.165-2.015 4.01-3.396 5.208-3.302 2.864-8.32 4.125-12.325 4.904m19.089-8.732c.543-1.623.387-3.162-.464-4.576-.966-1.606-2.408-2.49-4.06-2.49-.712 0-1.453.162-2.203.481-2.232.953-4.83 2.236-7.315 3.616-.763.423-1.472.935-2.159 1.43-.397.285-.806.58-1.227.859-.444.295-1.138.443-1.81.586-.506.108-1.025.219-1.457.394-1.977.804-3.436 2.863-3.903 5.508-.061.212-.085.508-.117.917l.008.127c.038.186.074.397.11.612.21 1.234.47 2.769 1.86 3.468 1.124.566 2.893.81 4.028.536 2.571-.62 5.928-1.495 9.084-2.768 3.223-1.302 8.34-4.861 9.625-8.7"/>
    </g>
</svg>
