<svg xmlns="http://www.w3.org/2000/svg" width="100" height="100" viewBox="0 0 100 100">
    <g fill="none" fill-rule="evenodd">
        <path fill="#66BFE8" d="M63.443 97.837c-4.918 0-9.701-2.19-13.685-6.32-3.734-3.869-8.092-5.98-12.955-6.272-.425-.026-.962-.046-1.577-.07-2.614-.1-6.563-.254-10.29-.887-8.234-1.4-13.515-5.096-15.697-10.988-1.086-2.933.445-9.663 11.553-11.625 5.33-.942 6.056-6.416 7.326-9.407 1.951-4.596 2.827-9.768 4.64-13.088 1.728-3.165 3.7-5.966 5.441-8.436 1.094-1.554 2.127-3.02 2.998-4.425.347-.558.7-1.188 1.076-1.855 1.577-2.8 3.736-6.633 8-9.978C55.43 10.44 60.55 8.093 65.487 7.508c3.792-.45 6.63-6.077 9.023-5.605 13.928 2.75 16.843 27.267 17.614 30.303 1.46 5.753 1.95 13.431-2.973 24.444-2.565 5.735-2.933 10.818-6.06 14.788-.646.82-1.268 1.608-1.811 2.322.007.284.018.594.028.859.106 2.935.285 7.848-2.364 13.09-3.796 7.512-9.772 9.451-12.997 9.939-.835.126-1.672.189-2.504.189"/>
        <path fill="#506366" d="M67.683 7.934c.02-.076.044-.152.071-.226C69.4 5.389 72.318 3.25 74.89 3.994c.955.276 4.255 3.696 4.602 5.508.025.135.03.24.022.32-2.831-1.565-6.657-2.183-11.83-1.888m-6.664 80.549a61.479 61.479 0 0 1-3.798-1.232c-.712-.255-1.445-.544-2.156-.823-1.167-.461-2.376-.938-3.57-1.294l-.08-.024c-1.185-.343-2.408-.468-3.59-.588-.968-.1-1.97-.201-2.915-.424-1.3-.306-2.607-.538-3.872-.762-1.771-.314-3.444-.61-5.12-1.096a20.03 20.03 0 0 1-2.729-.996c-1.868-.848-3.796-1.54-5.662-2.21-1.849-.666-3.761-1.353-5.578-2.181-1.268-.58-2.515-1.247-3.72-1.893-.616-.33-1.233-.66-1.858-.983-.54-.279-1.12-.525-1.682-.764-1.332-.567-2.71-1.153-3.621-2.203-.84-.966-1.1-1.993-.777-3.052.58-1.89 2.948-3.557 4.905-4.078 3.884-1.032 7.1-4.369 9.734-7.498 2.745-3.26 4.806-6.289 6.302-9.261a93.018 93.018 0 0 0 1.594-3.393c1.223-2.698 2.488-5.488 4.284-7.835 1.107-1.453 1.89-3.125 2.647-4.742.745-1.587 1.514-3.23 2.584-4.639 2.826-3.722 5.158-6.563 8.053-9.222 5.797-5.326 14.662-7.856 22.059-6.293 1.354.286 2.366.532 3.283.797 3.477 1.008 5.81 2.418 7.799 4.715 3.439 3.97 5.272 7.8 5.604 11.704.297 3.489-.027 6.739-.37 10.179-.132 1.34-.27 2.724-.368 4.122-.272 3.874-1.847 7.635-3.37 11.273-.919 2.193-1.868 4.46-2.519 6.724-1.661 5.783-1.873 12.436-.594 18.734.103.507.312 1.223.555 2.05.851 2.901 2.275 7.756.716 9.673-.539.662-1.41.933-2.663.83-7.582-.625-13.963-1.709-19.507-3.315m6.87 4.294c-.347.358-.768.653-1.209.958l-.145.1-.044.031-.008.006-.009.006c-1.968 1.37-4.818 1.295-7.332 1.23a45.02 45.02 0 0 0-2.073-.025 4.973 4.973 0 0 1-1.484-.181c-2.28-.661-3.254-3-4.023-5.666 3.37.584 6.793 1.377 10.11 2.146 2.04.472 4.14.96 6.218 1.395m18.743-1.879l.051-.2c.002-.007.076-.439-.037-.774-.046-.72.094-1.439.243-2.198.19-.97.385-1.973.2-3.051-.15-.87-.507-1.637-.85-2.38-.268-.581-.522-1.13-.659-1.69-1.367-5.465-1.78-10.121-1.26-14.234.562-4.455 2.156-8.73 3.698-12.866 1.727-4.634 3.514-9.424 3.902-14.553l.079-1.01c.555-7.103 1.317-16.83-4.945-21.812-.78-.62-1.652-1.718-2.421-2.687a44.447 44.447 0 0 0-.816-1.008c-.638-.759-.873-1.76-1.12-2.82-.141-.606-.287-1.23-.515-1.827-.529-1.387-2.545-5.995-6.289-7.08a5.552 5.552 0 0 0-1.813-.215c-1.896.089-4.32 1.194-5.88 2.25-.754.51-3.533 2.718-3.888 4.002-.153.56-.113.96-.086 1.226.004.038.008.084.01.121-.074.032-.24.085-.602.152-1.134.21-2.245.461-3.477.743-2.41.551-4.29 1.039-6.558 2.292-3.345 1.851-5.956 4.647-8.48 7.352l-.68.727c-3.645 3.888-6.677 8.36-8.536 12.592-.991 2.26-2.26 4.47-3.487 6.61-.99 1.729-2.016 3.516-2.898 5.33-2.486 5.117-5.149 8.953-8.137 11.726-.392.363-.801.86-1.236 1.387-.854 1.037-1.823 2.213-2.744 2.45-1.312.343-2.319.945-3.385 1.582-.502.3-1.022.612-1.581.896-4.822 2.455-6.513 5.825-4.764 9.488 1.54 3.225 5.714 4.989 8.76 6.277l.53.224c.656.28 1.279.624 1.881.957.759.42 1.543.853 2.42 1.177 1.19.44 2.415.815 3.6 1.179 1.244.382 2.532.777 3.764 1.242.997.377 2.013.81 2.995 1.23 1.71.73 3.48 1.485 5.297 2.012 1.033.299 1.991.5 2.93.614 1.79.215 3.7.46 5.622.859.212.043.404.09.582.142 1.41.408 1.686 1.003 2.348 2.82l.218.608c.89 2.497 2.233 6.271 5.239 7.142.163.048.33.086.502.115 3.785.646 8.897 1.063 11.761-.619.493-.29.978-.51 1.447-.724 1.074-.488 2.09-.95 3.002-2.118.91-1.164 3.113-.79 4.721-.516.332.056.644.109.923.146 2.627.35 7.347.64 9.434-1.353a3.202 3.202 0 0 0 .985-1.935"/>
    </g>
</svg>
