<svg xmlns="http://www.w3.org/2000/svg" xmlns:xlink="http://www.w3.org/1999/xlink" width="100" height="100" viewBox="0 0 100 100">
    <defs>
        <path id="a" d="M0 .348v83.187h99.722V.348H0z"/>
    </defs>
    <g fill="none" fill-rule="evenodd">
        <g transform="translate(0 4.262)">
            <mask id="b" fill="#fff">
                <use xlink:href="#a"/>
            </mask>
            <path fill="#FA816E" d="M17.486 83.535l1.671-16.124c.768-2.366 1.913-4.262 3.122-5.873l-.075-.017c-.591-.134-1.176-.255-1.755-.376-3.419-.713-7.294-1.522-11.207-4.19C2.182 52.145.486 44.836.025 36.573-.39 29.136 4.306 24.874 9.016 21.46c4.438-3.215 7.728-7.1 14.385-10.048 3.575-1.583 7.767-4.958 13.63-6.916 4.18-1.394 8.52-1.853 13.132-2.609C57.036.761 61.476-.117 67.013.618c12.11 1.61 24.239 9.682 26.96 14.318 5 8.516 5.734 19.97 5.734 19.97.223 3.256-2.077 8.758-3.648 12.914-1.747 4.624-4.295 9.794-6.776 11.613-5.399 3.956-14.024 6.956-19.68 7.96-4.076.722-8.576.037-13.59 0-1.178-.009-2.343-1.76-3.472-1.814-1.497-.071-3.033-.143-4.327-.082-.101.096-.204.194-.31.291-2.011 1.872-4.156 3.599-6.953 5.598-.324.231-1.026.9-1.59 1.438-2.188 2.086-4.609 4.992-8.661 6.307-3.005.976-13.214 4.404-13.214 4.404" mask="url(#b)"/>
        </g>
        <path fill="#506366" d="M69.712 69.863c-1.21.184-2.146.39-3.395.304-.918-.063-1.843-.046-2.763-.045-1.732.002-3.264-.157-4.996.126-1.337.217-2.74-.122-4.057-.339-1.06-.175-2.882-.892-3.914-.521-.967.348-1.86 1.878-2.523 2.613-.916 1.012-1.796 2.058-2.717 3.063-1.725 1.883-3.92 2.708-5.978 4.103-1.956 1.327-4.016 2.48-6.064 3.66-3.86 2.228-8.48 3.158-12.908 3.306.723-1.362 1.464-2.6 1.714-4.14.256-1.586 1.158-2.993 1.253-4.52-.041-.96.492-1.663.845-2.501.343-.814.395-1.788.564-2.65.285-1.457 1.085-3.865.458-5.268-.355-.793-1.347-.835-2.082-.98-.885-.174-1.755-.449-2.55-.884a65.811 65.811 0 0 1-5.221-3.207c-3.015-2.034-6.366-4.399-8.073-7.723-.844-1.64-1.842-3.482-2.27-5.28-.4-1.678-.552-3.298-.763-4.999-.434-3.46.265-7.332 1.78-10.41 1.791-3.64 3.22-7.333 5.828-10.526 2.509-3.072 5.561-5.34 8.774-7.59 3.049-2.137 6.268-4.424 9.687-5.963 3.668-1.651 7.434-3.067 11.312-4.136 3.408-.94 6.93-1.775 10.474-1.832 3.536-.058 7.377-.07 10.869.487 7.165 1.145 13.622 4.342 19.564 8.452 6.78 4.647 10.72 11.875 12.222 19.829.829 4.386 1.496 8.596 1.287 13.09-.103 2.224-.73 4.04-1.474 6.095-.385 1.061-.624 2.191-.93 3.278-.318 1.128-.92 1.916-1.608 2.858-1.249 1.709-2.674 3.368-4.256 4.778-1.663 1.481-3.849 2.242-5.706 3.474-1.722 1.142-3.992 1.382-5.915 2.124-2.119.817-4.207 1.532-6.468 1.874-.283.043.143-.022 0 0m29.221-27.89c-.456-8.058-2.047-16.303-6.385-23.223-2.05-3.268-4.654-5.716-7.627-8.13-2.57-2.087-5.68-3.623-8.553-5.284C69.258 1.225 60.975.514 52.934.514c-1.25-.003-2.5.047-3.746.15-1.975.16-3.81.884-5.75 1.216-2 .339-3.996 1.087-5.918 1.727-2.194.73-4.439 1.443-6.521 2.455-1.734.84-3.421 1.566-5.07 2.581a240.794 240.794 0 0 0-5.396 3.425c-1.233.806-2.498 1.511-3.664 2.454-1.59 1.286-3.087 2.66-4.619 4.012-3.098 2.72-5.258 6.412-7.06 10.096-.744 1.517-1.476 3.027-2.212 4.548-.905 1.872-.989 3.64-1.382 5.638-.372 1.892-.254 3.77-.06 5.682.201 2.008.305 4.091 1.07 5.977.683 1.685 1.47 3.32 2.163 4.996.695 1.679 2.326 3.26 3.668 4.437 2.68 2.348 5.352 4.783 8.523 6.465 1.333.707 2.539 1.665 4.011 2.073 1.652.458 1.017 3.272.662 4.47-.577 1.945-1.2 3.866-1.718 5.83-.521 1.971-.994 3.926-1.922 5.756-.562 1.108-2.989 2.639-1.584 4.04.526.526 1.3.48 1.98.42 1.018-.09 2.005-.047 3.022-.072 1.876-.048 3.69-.572 5.522-.927 2.05-.397 3.946-.785 5.82-1.74 1.841-.937 3.704-1.88 5.46-2.972 1.701-1.057 3.174-2.55 5.11-3.186 1.612-.53 2.733-1.707 3.828-2.94 1.195-1.347 2.554-3.688 4.38-4.188.89-.243 1.803-.015 2.684.147 1.012.184 2.03.158 3.054.152 1.61-.009 3.22.015 4.817-.203 2-.273 3.9.127 5.89-.04 2.19-.185 4.392-.762 6.465-1.476 1.893-.651 3.717-1.535 5.697-1.903 1.785-.334 3.007-1.172 4.488-2.136 1.046-.68 2.273-.963 3.296-1.666 1-.687 1.946-1.665 2.826-2.5.945-.898 1.843-1.963 2.61-3.016.72-.985 1.633-1.815 2.18-2.911 2.309-4.627 3.693-10.244 3.395-15.412-.114-2.016.079 1.36 0 0"/>
        <path fill="#506366" d="M73.4 40.963c-.482 1.085-1.2 1.424-2.288 1.939l-.417.199c-.171.083-.342.172-.533.27-.613.32-1.192.623-1.752.623-.276 0-.537-.075-.8-.228-.971-.565-1.86-1.759-2.276-2.628-.454-.95-.422-2.27.086-3.53.485-1.203 1.321-2.126 2.238-2.468.684-.256 1.417-.492 2.14-.492.496 0 .985.11 1.494.335 1.02.45 2.183 1.28 2.54 1.81.753 1.126.238 2.67-.431 4.17m.976-6.86c-.373-.1-.689-.36-1.028-.639-.263-.216-.536-.44-.864-.616-.76-.406-1.578-.537-2.37-.662l-.006-.05-.192.018-.167-.026-.01.044c-2.21.224-4.419.707-5.713 2.587-.923 1.342-1.968 3.369-1.706 5.405.3 2.317 2.948 6.595 5.934 6.595.512 0 1.009-.128 1.477-.379.36-.193.787-.333 1.244-.481.478-.157.972-.318 1.431-.56.934-.49 1.765-.951 2.478-1.634 1.245-1.192 1.493-2.577 1.756-4.049.074-.412.15-.838.251-1.26.295-1.228-1.484-4.014-2.515-4.293M45.33 38.519c.114-.959.654-2.51 1.499-2.956.87-.459 2.316-.63 3.225-.571.635.04 2.154.256 2.562 1.412l.018.051c.386 1.094.866 2.455.72 3.558-.267 2.035-2.359 3.876-4.34 3.82a1.006 1.006 0 0 0-.194-.039c-2.483-.802-3.787-2.772-3.49-5.275m10.296-1.551c-.382-1.257-1.247-2.586-2.057-3.161-1.203-.854-2.75-1.325-4.356-1.325-2.25 0-4.207.91-5.233 2.433-1.997 2.969-1.918 7.74 1.384 10.11 1.273.915 2.553 1.378 3.802 1.378.605 0 1.21-.109 1.8-.325 1.626-.595 3.357-1.971 4.21-3.345.927-1.49 1.095-3.646.45-5.765M29.945 34.61h.016c.28.002.539.111.842.24.3.126.64.27 1.038.307.338.032.72.088.989.263.517.337.763 1.356.821 2.196.164 2.376-1.472 4.775-3.721 5.46-.241.074-.481.111-.713.111-.886 0-1.58-.545-2.006-1.003-.928-.996-1.381-2.38-1.34-2.955.135-1.918 1.49-4.619 4.074-4.619m5.588-.466c-1.047-1.483-2.492-1.576-3.89-1.665l-.365-.025c-2.183-.151-3.613.213-5.161 1.383-1.368 1.033-2.128 2.202-2.542 3.907-.49 2.014.074 4.436 1.436 6.171 1.011 1.289 2.283 2 3.58 2 3.182 0 7.372-2.88 7.803-6.455.204-1.692.084-3.976-.861-5.316"/>
    </g>
</svg>
