<svg xmlns="http://www.w3.org/2000/svg" xmlns:xlink="http://www.w3.org/1999/xlink" width="100" height="100" viewBox="0 0 100 100">
    <defs>
        <path id="a" d="M0 .027V82.99h71.754V.027H0z"/>
        <path id="c" d="M35.243 10.348V.31H.165v10.038h35.078z"/>
        <path id="e" d="M.088 84.181h73.503V.19H.088v83.992z"/>
        <path id="g" d="M19.68.194H.166v29.372H19.68V.194z"/>
    </defs>
    <g fill="none" fill-rule="evenodd">
        <g transform="translate(1 8.314)">
            <mask id="b" fill="#fff">
                <use xlink:href="#a"/>
            </mask>
            <path fill="#9AE877" d="M53.038 82.99c-1.16 0-2.344-.078-3.552-.232-11.496-1.474-22.632-9.725-27.691-17.115C15.755 56.82 1.584 49.317.006 22.325c-.077-1.329.576-4.58 1.014-5.73C3.3 10.613 7.57 5.37 8.37 4.5 11.41 1.191 14.744.027 18.875.027s7.48 3.365 7.48 7.516c0 1.018.023 2.058.047 3.158.078 3.53.166 7.529-.567 11.563-.307 1.692-.685 3.208-1.05 4.676-.55 2.2-1.022 4.1-1.094 5.999-.317 8.488 5.392 16.827 10.428 24.184 3.072 4.487 10.543 9.863 17.259 10.723 4.14.53 7.943-2.272 8.522-2.776 3.12-2.72 5.8-1.114 8.507 2.02 2.708 3.136 4.951 8.663 1.83 11.383-4.008 3.494-11.59 4.516-17.2 4.516" mask="url(#b)"/>
        </g>
        <path fill="#9AE877" d="M45.344 34.004a4.454 4.454 0 0 1-1.93-.441c-2.237-1.074-3.185-3.766-2.117-6.013 1.633-3.436 3.861-6.643 6.015-9.743l.683-.984c.823-1.19 1.196-2.446 1.712-4.186.113-.38.228-.766.35-1.161.736-2.379 3.25-3.708 5.618-2.969 2.367.74 3.689 3.267 2.954 5.645-.112.362-.217.716-.32 1.063-.64 2.154-1.3 4.38-2.943 6.756l-.694 1c-1.947 2.801-3.96 5.698-5.275 8.465a4.488 4.488 0 0 1-4.053 2.568M63.541 39.294c-.26 0-.525-.016-.794-.051-2.458-.318-4.194-2.579-3.878-5.048a4.499 4.499 0 0 1 4.21-3.929c.437-.245 1.152-.782 1.565-1.091a21.76 21.76 0 0 1 1.211-.869c.981-.635 1.967-1.26 2.952-1.882 2.109-1.334 4.1-2.595 6.048-3.968.289-.204.638-.51 1.009-.833.384-.337.78-.684 1.223-1.02a4.473 4.473 0 0 1 6.286.882 4.524 4.524 0 0 1-.876 6.316c-.194.147-.46.38-.741.625-.503.44-1.073.939-1.745 1.412-2.13 1.503-4.312 2.883-6.422 4.218-.957.606-1.916 1.212-2.87 1.831-.137.088-.438.314-.703.513-1.65 1.239-3.854 2.894-6.475 2.894"/>
        <g transform="translate(64.33 43.39)">
            <mask id="d" fill="#fff">
                <use xlink:href="#c"/>
            </mask>
            <path fill="#9AE877" d="M30.76 10.348c-.234 0-.47-.018-.71-.056-2.902-.463-5.953-.533-9.182-.608-1.37-.031-2.786-.064-4.189-.13-4.27-.198-8.475-.225-12.026-.225C2.174 9.33.165 7.31.165 4.82c0-2.49 2.01-4.51 4.488-4.51 3.654 0 7.989.028 12.442.236 1.298.06 2.6.09 3.979.123 3.384.077 6.884.158 10.383.716 2.449.39 4.118 2.7 3.73 5.16a4.495 4.495 0 0 1-4.428 3.804" mask="url(#d)"/>
        </g>
        <g transform="translate(2.496 9.316)">
            <mask id="f" fill="#fff">
                <use xlink:href="#e"/>
            </mask>
            <path fill="#506366" d="M51.31 81.172c-6.716 0-12.77-3.523-18.397-7.131-7.85-5.034-14.609-11.964-19.033-19.513-2.353-4.019-4.825-8.329-6.895-12.957-1.32-2.952-1.917-6.206-2.494-9.353a112.05 112.05 0 0 0-.686-3.524c-.934-4.304-1.284-10.238.537-13.985 1.221-2.51 5.607-7.893 5.981-8.217.403-.295.792-.677 1.202-1.08.99-.974 2.097-2.062 3.463-2.062.582 0 1.168.19 1.79.578 2.17 1.352 3.869 3.741 5.368 5.848l.591.829c1.747 2.443 3.256 4.551 4.08 7.414.347 1.202-1.147 2.49-2.347 3.526-.525.453-1.013.875-1.31 1.251-.487.615-.983 1.006-1.464 1.385-.944.742-1.751 1.378-2.248 3.276-.373 1.422-.437 3.319-.172 5.075.568 3.766 2.106 7.854 4.702 12.497 5.894 10.541 12.404 17.502 19.348 20.688 1.416.65 2.66.966 3.807.966 2.803 0 4.682-1.937 6.858-4.179.302-.31.61-.628.93-.95.684-.69 1.388-1.024 2.155-1.024 2.032 0 4.103 2.444 5.614 4.229.302.357.564.666.809.94.415.465.875.95 1.35 1.451 1.34 1.411 2.724 2.87 3.567 4.35.587 1.031.771 1.661.632 2.174-.14.516-.625.98-1.621 1.55l-.883.507c-3.111 1.788-6.321 3.634-9.706 4.632-1.819.537-3.679.81-5.527.81m11.729.36c.353-.29.798-.404 1.27-.525.5-.128 1.01-.26 1.42-.606.487-.412 1.404-.886 2.375-1.388 2.573-1.33 6.087-3.145 5.399-5.78-.755-2.89-3.49-5.679-5.905-8.139-.9-.918-1.751-1.784-2.436-2.592-.286-.338-.581-.706-.887-1.089-1.694-2.12-3.792-4.743-6.57-4.743a4.89 4.89 0 0 0-1.718.326c-1.672.629-2.86 1.963-4.008 3.254-1.45 1.63-2.818 3.168-5.02 3.168-.186 0-.38-.011-.577-.034-4.287-.49-7.204-3.593-10.025-6.594l-.266-.284c-2.32-2.465-5.303-5.766-7.783-9.433-2.602-3.85-4.219-7.44-4.942-10.98l-.065-.321c-.852-4.168-1.656-8.104 2.024-10.837 1.236-.918 2.33-1.943 3.389-2.934l.068-.064c.35-.327.703-.657 1.063-.985 1.188-1.082.726-2.9.356-4.36a15.12 15.12 0 0 1-.24-1.047c-.243-1.405-1.507-3.044-2.523-4.361-.262-.343-.51-.662-.717-.95-.784-1.09-1.667-2.106-2.52-3.09a57.432 57.432 0 0 1-1.921-2.29C20.329 2.35 18.642.188 15.653.188c-.75 0-1.558.13-2.468.394-1.424.419-3.048 1.898-4.354 3.086-.339.31-.656.598-.938.84C5.94 6.175 4.677 7.63 3.533 9.531.815 14.042.088 19.487.087 21.993c0 .7.065 1.605.195 2.706a73.891 73.891 0 0 0 .432 2.983 134.447 134.447 0 0 0 .513 2.863c.643 3.345 1.344 6.314 1.523 6.902 1.666 5.488 4.185 10.338 7.453 15.931a76.442 76.442 0 0 0 4.518 6.865 71.552 71.552 0 0 0 6.414 7.52 74.392 74.392 0 0 0 8.87 7.69c2.062 1.52 5.223 3.744 8.85 5.5 4.481 2.172 8.744 3.228 13.033 3.228.259 0 .52-.004.782-.012 2.167-.065 4.463-.429 7.226-1.145 1.3-.336 2.328-.825 3.143-1.491" mask="url(#f)"/>
        </g>
        <path fill="#506366" d="M64.505 47.694l.21-.06c1.598-.461 3.203-.902 4.808-1.343.222-.06.463-.097.671-.124.195-.026.39-.05.584-.074.717-.088 1.457-.179 2.208-.376.524-.138 1.109-.149 1.729-.162.318-.006.638-.012.953-.035.539-.038 1.077-.081 1.616-.124.819-.065 1.638-.13 2.458-.18.501-.03 1.005-.068 1.507-.106 1.382-.102 2.802-.21 4.186-.156.773.027 1.544 0 2.312-.03.634-.025 1.262-.051 1.9-.039 1.266.023 2.723.098 3.989.722.47.232.978.687.724 1.54-.158.538-.347.849-.652 1.072-1.455 1.069-2.958 1.716-4.593 1.98l-.186.029a78.27 78.27 0 0 1-1.83.28 8.65 8.65 0 0 1-1.181.077c-1.085 0-2.151-.18-3.051-.358-.567-.11-1.194-.17-1.975-.188-3.266-.075-6.602-.138-9.916-.189-.77-.011-1.54-.012-2.31-.013-1.044-.002-2.122-.003-3.177-.032-.467-.013-.943-.094-1.404-.172-.154-.026-.304-.052-.448-.074-.131-.075-.255-.143-.372-.207-.266-.145-.476-.26-.63-.39-.133-.112-.199-.253-.18-.386.017-.118.1-.213.238-.275l1.812-.607zm32.665-2.19c-.276-1.258-.942-2.036-2.092-2.445a8.14 8.14 0 0 0-.435-.14l-.08-.023c-1.534-.653-3.037-.952-4.619-.907-2.852.08-5.384.165-7.736.26-.885.035-1.777.103-2.639.168l-1.903.138c-1.223.087-2.447.173-3.667.28l-.613.05c-.909.074-1.848.15-2.771.343-2.025.423-4.07.895-6.048 1.352-.827.19-1.653.382-2.48.57-.954.216-1.652.758-2.075 1.611-.865 1.741-.213 3.928 1.425 4.776 1.352.699 2.695 1.058 3.99 1.065.952.007 1.903.002 2.855-.002 1.074-.005 2.15-.01 3.224.001 2.444.025 4.98.072 7.535.139 1.136.028 2.307.093 3.58.196.523.043 1.066.117 1.59.188.867.118 1.763.24 2.662.24.204 0 .408-.006.61-.02 1.934-.13 3.922-.611 5.912-1.431.867-.358 2.106-.963 2.859-2.086.946-1.412 1.245-2.826.916-4.323zM56.632 39.342a.178.178 0 0 0-.017.004l-.224-.071a4.061 4.061 0 0 1-.45-.154 1.05 1.05 0 0 1 .208-.283 51.702 51.702 0 0 1 1.802-1.754c.394-.362.797-.714 1.2-1.067.622-.546 1.265-1.109 1.874-1.702.848-.825 1.83-1.458 2.867-2.128.242-.157.485-.313.727-.473.513-.34.992-.72 1.456-1.087.302-.24.604-.479.915-.706.65-.476 1.306-.945 1.96-1.414.95-.68 1.932-1.384 2.886-2.098 1.782-1.333 3.81-2.205 5.906-3.054.596-.242 1.405-.043 2.076.185.438.181.514.308.516.308 0 .008 0 .156-.254.513-1.145 1.603-2.586 3.41-4.599 4.657-.289.18-.56.374-.823.561-.212.152-.425.305-.668.461-.988.636-2.009 1.294-3.027 1.904a793.027 793.027 0 0 1-7.846 4.643c-1.54.898-3.082 1.737-4.52 2.512-.122.066-.352.096-.575.124l-.092.012c-.209.028-.421.036-.633.045-.13.005-.26.011-.393.02-.088.006-.18.023-.272.042m6.335.6l.586-.337a82.788 82.788 0 0 0 1.832-1.09c.318-.194.637-.387.958-.578l1.317-.785c.94-.558 1.879-1.117 2.81-1.686.36-.22.71-.454 1.06-.688.505-.336.98-.654 1.48-.927 2.854-1.559 5.25-3.278 7.32-5.257 1.12-1.07 1.895-2.065 2.433-3.118.578-1.086.544-2.226-.093-3.21a4.316 4.316 0 0 0-1.272-1.245c-1.42-.914-2.821-1.12-4.056-.6-2.613 1.1-5.37 2.332-7.835 4.239-.412.318-.844.608-1.302.914-.645.433-1.314.88-1.92 1.417a32.039 32.039 0 0 1-3.899 2.944c-1.317.852-2.681 1.866-4.167 3.099-.889.736-1.734 1.535-2.551 2.308-.39.37-.78.739-1.175 1.1-.135.124-.277.242-.417.36a8.173 8.173 0 0 0-.799.732c-.314.341-.516.824-.526 1.264-.01.498.11.973.222 1.378.308 1.122.923 1.624 2.122 1.736.072.007.144.011.217.016.13.007.25.014.328.036.51.147 1.035.22 1.562.22.958 0 1.92-.234 2.942-.716.976-.46 1.915-1.002 2.823-1.526"/>
        <g transform="translate(41.89 5.307)">
            <mask id="h" fill="#fff">
                <use xlink:href="#g"/>
            </mask>
            <path fill="#506366" d="M6.389 23.197c-.41.604-.799 1.173-1.238 1.703-.462.558-1.023 1.045-1.618 1.56l-.004.004c-.564-.732-.567-1.496-.017-2.613.233-.473.497-.95.752-1.412.217-.391.433-.782.637-1.18.332-.644.656-1.292.98-1.941.46-.918.934-1.868 1.422-2.784l.56-1.057c.883-1.67 1.796-3.4 2.796-5.02.906-1.47 1.94-2.91 2.942-4.304.277-.386.554-.772.83-1.16.508-.715 1.248-1.245 2.331-1.67l.084-.03.019.107c.073.453.016.868-.177 1.306-.263.593-.513 1.191-.764 1.79l-.514 1.237-1.014 2.007c-1.016 2.011-2.034 4.023-3.036 6.042-.913 1.841-2.162 3.536-3.368 5.174-.311.422-.623.844-.929 1.27-.23.32-.453.646-.674.971M17.184 9.99c.371-.758.74-1.516 1.113-2.273.548-1.113.904-1.991 1.154-2.845.259-.872.252-1.737.201-2.309-.11-1.261-1.321-2.368-2.59-2.368-.245 0-.479.042-.697.127-.7.27-1.428.587-2.016 1.087-.81.69-1.736 1.526-2.454 2.506C9.354 7.39 7.148 10.98 5.34 14.584l-.121.243c-.572 1.142-1.163 2.322-1.915 3.307-.554.727-1.008 1.484-1.447 2.217l-.247.41-.066.143c-.11.316-.215.634-.321.951-.229.69-.466 1.403-.742 2.07-.48 1.164-.41 2.43.207 3.765.552 1.193 1.503 1.876 2.608 1.876.756 0 1.507-.336 2.117-.945 1.036-1.039 2.215-2.3 3.108-3.79.202-.338.432-.662.674-1.005.097-.138.195-.275.29-.414.363-.526.741-1.043 1.12-1.561.843-1.153 1.716-2.345 2.415-3.633 1.469-2.705 2.84-5.513 4.164-8.229" mask="url(#h)"/>
        </g>
    </g>
</svg>
